<?xml version="1.0" encoding="utf-8" standalone="no"?>
<!DOCTYPE svg PUBLIC "-//W3C//DTD SVG 1.1//EN"
  "http://www.w3.org/Graphics/SVG/1.1/DTD/svg11.dtd">
<svg xmlns:xlink="http://www.w3.org/1999/xlink" width="1152pt" height="504pt" viewBox="0 0 1152 504" xmlns="http://www.w3.org/2000/svg" version="1.1">
 <metadata>
  <rdf:RDF xmlns:dc="http://purl.org/dc/elements/1.1/" xmlns:cc="http://creativecommons.org/ns#" xmlns:rdf="http://www.w3.org/1999/02/22-rdf-syntax-ns#">
   <cc:Work>
    <dc:type rdf:resource="http://purl.org/dc/dcmitype/StillImage"/>
    <dc:date>2025-09-09T11:43:55.092677</dc:date>
    <dc:format>image/svg+xml</dc:format>
    <dc:creator>
     <cc:Agent>
      <dc:title>Matplotlib v3.10.3, https://matplotlib.org/</dc:title>
     </cc:Agent>
    </dc:creator>
   </cc:Work>
  </rdf:RDF>
 </metadata>
 <defs>
  <style type="text/css">*{stroke-linejoin: round; stroke-linecap: butt}</style>
 </defs>
 <g id="figure_1">
  <g id="patch_1">
   <path d="M 0 504 
L 1152 504 
L 1152 0 
L 0 0 
z
" style="fill: #ffffff"/>
  </g>
  <g id="axes_1">
   <g id="patch_2">
    <path d="M 52.04 352.8 
L 1141.2 352.8 
L 1141.2 10.8 
L 52.04 10.8 
z
" style="fill: #ffffff"/>
   </g>
   <g id="patch_3">
    <path d="M 60.418154 352.8 
L 71.589026 352.8 
L 71.589026 29.297659 
L 60.418154 29.297659 
z
" clip-path="url(#pe915615272)" style="fill: #23a68a"/>
   </g>
   <g id="patch_4">
    <path d="M 144.199692 352.8 
L 155.370564 352.8 
L 155.370564 37.21363 
L 144.199692 37.21363 
z
" clip-path="url(#pe915615272)" style="fill: #23a68a"/>
   </g>
   <g id="patch_5">
    <path d="M 227.981231 352.8 
L 239.152103 352.8 
L 239.152103 29.365795 
L 227.981231 29.365795 
z
" clip-path="url(#pe915615272)" style="fill: #23a68a"/>
   </g>
   <g id="patch_6">
    <path d="M 311.762769 352.8 
L 322.933641 352.8 
L 322.933641 142.561895 
L 311.762769 142.561895 
z
" clip-path="url(#pe915615272)" style="fill: #23a68a"/>
   </g>
   <g id="patch_7">
    <path d="M 395.544308 352.8 
L 406.715179 352.8 
L 406.715179 51.952308 
L 395.544308 51.952308 
z
" clip-path="url(#pe915615272)" style="fill: #23a68a"/>
   </g>
   <g id="patch_8">
    <path d="M 479.325846 352.8 
L 490.496718 352.8 
L 490.496718 95.562722 
L 479.325846 95.562722 
z
" clip-path="url(#pe915615272)" style="fill: #23a68a"/>
   </g>
   <g id="patch_9">
    <path d="M 563.107385 352.8 
L 574.278256 352.8 
L 574.278256 155.822049 
L 563.107385 155.822049 
z
" clip-path="url(#pe915615272)" style="fill: #23a68a"/>
   </g>
   <g id="patch_10">
    <path d="M 646.888923 352.8 
L 658.059795 352.8 
L 658.059795 158.876986 
L 646.888923 158.876986 
z
" clip-path="url(#pe915615272)" style="fill: #23a68a"/>
   </g>
   <g id="patch_11">
    <path d="M 730.670462 352.8 
L 741.841333 352.8 
L 741.841333 72.519051 
L 730.670462 72.519051 
z
" clip-path="url(#pe915615272)" style="fill: #23a68a"/>
   </g>
   <g id="patch_12">
    <path d="M 814.452 352.8 
L 825.622872 352.8 
L 825.622872 137.174345 
L 814.452 137.174345 
z
" clip-path="url(#pe915615272)" style="fill: #23a68a"/>
   </g>
   <g id="patch_13">
    <path d="M 898.233538 352.8 
L 909.40441 352.8 
L 909.40441 105.024603 
L 898.233538 105.024603 
z
" clip-path="url(#pe915615272)" style="fill: #23a68a"/>
   </g>
   <g id="patch_14">
    <path d="M 982.015077 352.8 
L 993.185949 352.8 
L 993.185949 216.908149 
L 982.015077 216.908149 
z
" clip-path="url(#pe915615272)" style="fill: #23a68a"/>
   </g>
   <g id="patch_15">
    <path d="M 1065.796615 352.8 
L 1076.967487 352.8 
L 1076.967487 44.620553 
L 1065.796615 44.620553 
z
" clip-path="url(#pe915615272)" style="fill: #23a68a"/>
   </g>
   <g id="patch_16">
    <path d="M 71.589026 352.8 
L 82.759897 352.8 
L 82.759897 30.867177 
L 71.589026 30.867177 
z
" clip-path="url(#pe915615272)" style="fill: #3274a1"/>
   </g>
   <g id="patch_17">
    <path d="M 155.370564 352.8 
L 166.541436 352.8 
L 166.541436 44.688097 
L 155.370564 44.688097 
z
" clip-path="url(#pe915615272)" style="fill: #3274a1"/>
   </g>
   <g id="patch_18">
    <path d="M 239.152103 352.8 
L 250.322974 352.8 
L 250.322974 28.933425 
L 239.152103 28.933425 
z
" clip-path="url(#pe915615272)" style="fill: #3274a1"/>
   </g>
   <g id="patch_19">
    <path d="M 322.933641 352.8 
L 334.104513 352.8 
L 334.104513 166.790947 
L 322.933641 166.790947 
z
" clip-path="url(#pe915615272)" style="fill: #3274a1"/>
   </g>
   <g id="patch_20">
    <path d="M 406.715179 352.8 
L 417.886051 352.8 
L 417.886051 60.443749 
L 406.715179 60.443749 
z
" clip-path="url(#pe915615272)" style="fill: #3274a1"/>
   </g>
   <g id="patch_21">
    <path d="M 490.496718 352.8 
L 501.66759 352.8 
L 501.66759 113.087147 
L 490.496718 113.087147 
z
" clip-path="url(#pe915615272)" style="fill: #3274a1"/>
   </g>
   <g id="patch_22">
    <path d="M 574.278256 352.8 
L 585.449128 352.8 
L 585.449128 171.203081 
L 574.278256 171.203081 
z
" clip-path="url(#pe915615272)" style="fill: #3274a1"/>
   </g>
   <g id="patch_23">
    <path d="M 658.059795 352.8 
L 669.230667 352.8 
L 669.230667 150.892217 
L 658.059795 150.892217 
z
" clip-path="url(#pe915615272)" style="fill: #3274a1"/>
   </g>
   <g id="patch_24">
    <path d="M 741.841333 352.8 
L 753.012205 352.8 
L 753.012205 69.019406 
L 741.841333 69.019406 
z
" clip-path="url(#pe915615272)" style="fill: #3274a1"/>
   </g>
   <g id="patch_25">
    <path d="M 825.622872 352.8 
L 836.793744 352.8 
L 836.793744 132.352567 
L 825.622872 132.352567 
z
" clip-path="url(#pe915615272)" style="fill: #3274a1"/>
   </g>
   <g id="patch_26">
    <path d="M 909.40441 352.8 
L 920.575282 352.8 
L 920.575282 115.468134 
L 909.40441 115.468134 
z
" clip-path="url(#pe915615272)" style="fill: #3274a1"/>
   </g>
   <g id="patch_27">
    <path d="M 993.185949 352.8 
L 1004.356821 352.8 
L 1004.356821 206.645871 
L 993.185949 206.645871 
z
" clip-path="url(#pe915615272)" style="fill: #3274a1"/>
   </g>
   <g id="patch_28">
    <path d="M 1076.967487 352.8 
L 1088.138359 352.8 
L 1088.138359 53.152011 
L 1076.967487 53.152011 
z
" clip-path="url(#pe915615272)" style="fill: #3274a1"/>
   </g>
   <g id="patch_29">
    <path d="M 82.759897 352.8 
L 93.930769 352.8 
L 93.930769 30.734309 
L 82.759897 30.734309 
z
" clip-path="url(#pe915615272)" style="fill: #67a1cb"/>
   </g>
   <g id="patch_30">
    <path d="M 166.541436 352.8 
L 177.712308 352.8 
L 177.712308 40.87662 
L 166.541436 40.87662 
z
" clip-path="url(#pe915615272)" style="fill: #67a1cb"/>
   </g>
   <g id="patch_31">
    <path d="M 250.322974 352.8 
L 261.493846 352.8 
L 261.493846 28.247315 
L 250.322974 28.247315 
z
" clip-path="url(#pe915615272)" style="fill: #67a1cb"/>
   </g>
   <g id="patch_32">
    <path d="M 334.104513 352.8 
L 345.275385 352.8 
L 345.275385 352.8 
L 334.104513 352.8 
z
" clip-path="url(#pe915615272)" style="fill: #67a1cb"/>
   </g>
   <g id="patch_33">
    <path d="M 417.886051 352.8 
L 429.056923 352.8 
L 429.056923 52.84858 
L 417.886051 52.84858 
z
" clip-path="url(#pe915615272)" style="fill: #67a1cb"/>
   </g>
   <g id="patch_34">
    <path d="M 501.66759 352.8 
L 512.838462 352.8 
L 512.838462 76.256671 
L 501.66759 76.256671 
z
" clip-path="url(#pe915615272)" style="fill: #67a1cb"/>
   </g>
   <g id="patch_35">
    <path d="M 585.449128 352.8 
L 596.62 352.8 
L 596.62 352.8 
L 585.449128 352.8 
z
" clip-path="url(#pe915615272)" style="fill: #67a1cb"/>
   </g>
   <g id="patch_36">
    <path d="M 669.230667 352.8 
L 680.401538 352.8 
L 680.401538 352.8 
L 669.230667 352.8 
z
" clip-path="url(#pe915615272)" style="fill: #67a1cb"/>
   </g>
   <g id="patch_37">
    <path d="M 753.012205 352.8 
L 764.183077 352.8 
L 764.183077 92.922783 
L 753.012205 92.922783 
z
" clip-path="url(#pe915615272)" style="fill: #67a1cb"/>
   </g>
   <g id="patch_38">
    <path d="M 836.793744 352.8 
L 847.964615 352.8 
L 847.964615 143.010551 
L 836.793744 143.010551 
z
" clip-path="url(#pe915615272)" style="fill: #67a1cb"/>
   </g>
   <g id="patch_39">
    <path d="M 920.575282 352.8 
L 931.746154 352.8 
L 931.746154 88.336722 
L 920.575282 88.336722 
z
" clip-path="url(#pe915615272)" style="fill: #67a1cb"/>
   </g>
   <g id="patch_40">
    <path d="M 1004.356821 352.8 
L 1015.527692 352.8 
L 1015.527692 352.8 
L 1004.356821 352.8 
z
" clip-path="url(#pe915615272)" style="fill: #67a1cb"/>
   </g>
   <g id="patch_41">
    <path d="M 1088.138359 352.8 
L 1099.309231 352.8 
L 1099.309231 39.779772 
L 1088.138359 39.779772 
z
" clip-path="url(#pe915615272)" style="fill: #67a1cb"/>
   </g>
   <g id="patch_42">
    <path d="M 93.930769 352.8 
L 105.101641 352.8 
L 105.101641 50.655364 
L 93.930769 50.655364 
z
" clip-path="url(#pe915615272)" style="fill: #145f14"/>
   </g>
   <g id="patch_43">
    <path d="M 177.712308 352.8 
L 188.883179 352.8 
L 188.883179 54.125244 
L 177.712308 54.125244 
z
" clip-path="url(#pe915615272)" style="fill: #145f14"/>
   </g>
   <g id="patch_44">
    <path d="M 261.493846 352.8 
L 272.664718 352.8 
L 272.664718 45.73399 
L 261.493846 45.73399 
z
" clip-path="url(#pe915615272)" style="fill: #145f14"/>
   </g>
   <g id="patch_45">
    <path d="M 345.275385 352.8 
L 356.446256 352.8 
L 356.446256 117.547479 
L 345.275385 117.547479 
z
" clip-path="url(#pe915615272)" style="fill: #145f14"/>
   </g>
   <g id="patch_46">
    <path d="M 429.056923 352.8 
L 440.227795 352.8 
L 440.227795 105.553541 
L 429.056923 105.553541 
z
" clip-path="url(#pe915615272)" style="fill: #145f14"/>
   </g>
   <g id="patch_47">
    <path d="M 512.838462 352.8 
L 524.009333 352.8 
L 524.009333 110.205101 
L 512.838462 110.205101 
z
" clip-path="url(#pe915615272)" style="fill: #145f14"/>
   </g>
   <g id="patch_48">
    <path d="M 596.62 352.8 
L 607.790872 352.8 
L 607.790872 178.398696 
L 596.62 178.398696 
z
" clip-path="url(#pe915615272)" style="fill: #145f14"/>
   </g>
   <g id="patch_49">
    <path d="M 680.401538 352.8 
L 691.57241 352.8 
L 691.57241 166.904846 
L 680.401538 166.904846 
z
" clip-path="url(#pe915615272)" style="fill: #145f14"/>
   </g>
   <g id="patch_50">
    <path d="M 764.183077 352.8 
L 775.353949 352.8 
L 775.353949 114.523749 
L 764.183077 114.523749 
z
" clip-path="url(#pe915615272)" style="fill: #145f14"/>
   </g>
   <g id="patch_51">
    <path d="M 847.964615 352.8 
L 859.135487 352.8 
L 859.135487 135.718468 
L 847.964615 135.718468 
z
" clip-path="url(#pe915615272)" style="fill: #145f14"/>
   </g>
   <g id="patch_52">
    <path d="M 931.746154 352.8 
L 942.917026 352.8 
L 942.917026 80.077235 
L 931.746154 80.077235 
z
" clip-path="url(#pe915615272)" style="fill: #145f14"/>
   </g>
   <g id="patch_53">
    <path d="M 1015.527692 352.8 
L 1026.698564 352.8 
L 1026.698564 145.119804 
L 1015.527692 145.119804 
z
" clip-path="url(#pe915615272)" style="fill: #145f14"/>
   </g>
   <g id="patch_54">
    <path d="M 1099.309231 352.8 
L 1110.480103 352.8 
L 1110.480103 55.958651 
L 1099.309231 55.958651 
z
" clip-path="url(#pe915615272)" style="fill: #145f14"/>
   </g>
   <g id="patch_55">
    <path d="M 105.101641 352.8 
L 116.272513 352.8 
L 116.272513 47.407457 
L 105.101641 47.407457 
z
" clip-path="url(#pe915615272)" style="fill: #a02424"/>
   </g>
   <g id="patch_56">
    <path d="M 188.883179 352.8 
L 200.054051 352.8 
L 200.054051 61.743758 
L 188.883179 61.743758 
z
" clip-path="url(#pe915615272)" style="fill: #a02424"/>
   </g>
   <g id="patch_57">
    <path d="M 272.664718 352.8 
L 283.83559 352.8 
L 283.83559 50.017108 
L 272.664718 50.017108 
z
" clip-path="url(#pe915615272)" style="fill: #a02424"/>
   </g>
   <g id="patch_58">
    <path d="M 356.446256 352.8 
L 367.617128 352.8 
L 367.617128 97.70466 
L 356.446256 97.70466 
z
" clip-path="url(#pe915615272)" style="fill: #a02424"/>
   </g>
   <g id="patch_59">
    <path d="M 440.227795 352.8 
L 451.398667 352.8 
L 451.398667 80.413752 
L 440.227795 80.413752 
z
" clip-path="url(#pe915615272)" style="fill: #a02424"/>
   </g>
   <g id="patch_60">
    <path d="M 524.009333 352.8 
L 535.180205 352.8 
L 535.180205 130.460949 
L 524.009333 130.460949 
z
" clip-path="url(#pe915615272)" style="fill: #a02424"/>
   </g>
   <g id="patch_61">
    <path d="M 607.790872 352.8 
L 618.961744 352.8 
L 618.961744 124.811234 
L 607.790872 124.811234 
z
" clip-path="url(#pe915615272)" style="fill: #a02424"/>
   </g>
   <g id="patch_62">
    <path d="M 691.57241 352.8 
L 702.743282 352.8 
L 702.743282 129.675475 
L 691.57241 129.675475 
z
" clip-path="url(#pe915615272)" style="fill: #a02424"/>
   </g>
   <g id="patch_63">
    <path d="M 775.353949 352.8 
L 786.524821 352.8 
L 786.524821 77.892052 
L 775.353949 77.892052 
z
" clip-path="url(#pe915615272)" style="fill: #a02424"/>
   </g>
   <g id="patch_64">
    <path d="M 859.135487 352.8 
L 870.306359 352.8 
L 870.306359 104.275924 
L 859.135487 104.275924 
z
" clip-path="url(#pe915615272)" style="fill: #a02424"/>
   </g>
   <g id="patch_65">
    <path d="M 942.917026 352.8 
L 954.087897 352.8 
L 954.087897 57.199419 
L 942.917026 57.199419 
z
" clip-path="url(#pe915615272)" style="fill: #a02424"/>
   </g>
   <g id="patch_66">
    <path d="M 1026.698564 352.8 
L 1037.869436 352.8 
L 1037.869436 180.149603 
L 1026.698564 180.149603 
z
" clip-path="url(#pe915615272)" style="fill: #a02424"/>
   </g>
   <g id="patch_67">
    <path d="M 1110.480103 352.8 
L 1121.650974 352.8 
L 1121.650974 94.9412 
L 1110.480103 94.9412 
z
" clip-path="url(#pe915615272)" style="fill: #a02424"/>
   </g>
   <g id="patch_68">
    <path d="M 116.272513 352.8 
L 127.443385 352.8 
L 127.443385 31.871258 
L 116.272513 31.871258 
z
" clip-path="url(#pe915615272)" style="fill: #d06262"/>
   </g>
   <g id="patch_69">
    <path d="M 200.054051 352.8 
L 211.224923 352.8 
L 211.224923 57.443955 
L 200.054051 57.443955 
z
" clip-path="url(#pe915615272)" style="fill: #d06262"/>
   </g>
   <g id="patch_70">
    <path d="M 283.83559 352.8 
L 295.006462 352.8 
L 295.006462 35.873027 
L 283.83559 35.873027 
z
" clip-path="url(#pe915615272)" style="fill: #d06262"/>
   </g>
   <g id="patch_71">
    <path d="M 367.617128 352.8 
L 378.788 352.8 
L 378.788 85.672293 
L 367.617128 85.672293 
z
" clip-path="url(#pe915615272)" style="fill: #d06262"/>
   </g>
   <g id="patch_72">
    <path d="M 451.398667 352.8 
L 462.569538 352.8 
L 462.569538 57.314133 
L 451.398667 57.314133 
z
" clip-path="url(#pe915615272)" style="fill: #d06262"/>
   </g>
   <g id="patch_73">
    <path d="M 535.180205 352.8 
L 546.351077 352.8 
L 546.351077 74.969389 
L 535.180205 74.969389 
z
" clip-path="url(#pe915615272)" style="fill: #d06262"/>
   </g>
   <g id="patch_74">
    <path d="M 618.961744 352.8 
L 630.132615 352.8 
L 630.132615 114.541788 
L 618.961744 114.541788 
z
" clip-path="url(#pe915615272)" style="fill: #d06262"/>
   </g>
   <g id="patch_75">
    <path d="M 702.743282 352.8 
L 713.914154 352.8 
L 713.914154 108.773444 
L 702.743282 108.773444 
z
" clip-path="url(#pe915615272)" style="fill: #d06262"/>
   </g>
   <g id="patch_76">
    <path d="M 786.524821 352.8 
L 797.695692 352.8 
L 797.695692 69.885635 
L 786.524821 69.885635 
z
" clip-path="url(#pe915615272)" style="fill: #d06262"/>
   </g>
   <g id="patch_77">
    <path d="M 870.306359 352.8 
L 881.477231 352.8 
L 881.477231 116.795852 
L 870.306359 116.795852 
z
" clip-path="url(#pe915615272)" style="fill: #d06262"/>
   </g>
   <g id="patch_78">
    <path d="M 954.087897 352.8 
L 965.258769 352.8 
L 965.258769 47.122306 
L 954.087897 47.122306 
z
" clip-path="url(#pe915615272)" style="fill: #d06262"/>
   </g>
   <g id="patch_79">
    <path d="M 1037.869436 352.8 
L 1049.040308 352.8 
L 1049.040308 113.638 
L 1037.869436 113.638 
z
" clip-path="url(#pe915615272)" style="fill: #d06262"/>
   </g>
   <g id="patch_80">
    <path d="M 1121.650974 352.8 
L 1132.821846 352.8 
L 1132.821846 55.704996 
L 1121.650974 55.704996 
z
" clip-path="url(#pe915615272)" style="fill: #d06262"/>
   </g>
   <g id="patch_81">
    <path d="M 93.930769 352.8 
L 93.930769 352.8 
L 93.930769 352.8 
L 93.930769 352.8 
z
" clip-path="url(#pe915615272)" style="fill: #23a68a"/>
   </g>
   <g id="patch_82">
    <path d="M 93.930769 352.8 
L 93.930769 352.8 
L 93.930769 352.8 
L 93.930769 352.8 
z
" clip-path="url(#pe915615272)" style="fill: #3274a1"/>
   </g>
   <g id="patch_83">
    <path d="M 93.930769 352.8 
L 93.930769 352.8 
L 93.930769 352.8 
L 93.930769 352.8 
z
" clip-path="url(#pe915615272)" style="fill: #67a1cb"/>
   </g>
   <g id="patch_84">
    <path d="M 93.930769 352.8 
L 93.930769 352.8 
L 93.930769 352.8 
L 93.930769 352.8 
z
" clip-path="url(#pe915615272)" style="fill: #145f14"/>
   </g>
   <g id="patch_85">
    <path d="M 93.930769 352.8 
L 93.930769 352.8 
L 93.930769 352.8 
L 93.930769 352.8 
z
" clip-path="url(#pe915615272)" style="fill: #a02424"/>
   </g>
   <g id="patch_86">
    <path d="M 93.930769 352.8 
L 93.930769 352.8 
L 93.930769 352.8 
L 93.930769 352.8 
z
" clip-path="url(#pe915615272)" style="fill: #d06262"/>
   </g>
   <g id="matplotlib.axis_1">
    <g id="xtick_1">
     <g id="line2d_1">
      <defs>
       <path id="m9b840ec9f2" d="M 0 0 
L 0 3.5 
" style="stroke: #000000; stroke-width: 0.8"/>
      </defs>
      <g>
       <use xlink:href="#m9b840ec9f2" x="93.930769" y="352.8" style="stroke: #000000; stroke-width: 0.8"/>
      </g>
     </g>
     <g id="text_1">
      <!-- Liver -->
      <g transform="translate(84.697345 397.68385) rotate(-50) scale(0.16 -0.16)">
       <defs>
        <path id="DejaVuSans-4c" d="M 628 4666 
L 1259 4666 
L 1259 531 
L 3531 531 
L 3531 0 
L 628 0 
L 628 4666 
z
" transform="scale(0.015625)"/>
        <path id="DejaVuSans-69" d="M 603 3500 
L 1178 3500 
L 1178 0 
L 603 0 
L 603 3500 
z
M 603 4863 
L 1178 4863 
L 1178 4134 
L 603 4134 
L 603 4863 
z
" transform="scale(0.015625)"/>
        <path id="DejaVuSans-76" d="M 191 3500 
L 800 3500 
L 1894 563 
L 2988 3500 
L 3597 3500 
L 2284 0 
L 1503 0 
L 191 3500 
z
" transform="scale(0.015625)"/>
        <path id="DejaVuSans-65" d="M 3597 1894 
L 3597 1613 
L 953 1613 
Q 991 1019 1311 708 
Q 1631 397 2203 397 
Q 2534 397 2845 478 
Q 3156 559 3463 722 
L 3463 178 
Q 3153 47 2828 -22 
Q 2503 -91 2169 -91 
Q 1331 -91 842 396 
Q 353 884 353 1716 
Q 353 2575 817 3079 
Q 1281 3584 2069 3584 
Q 2775 3584 3186 3129 
Q 3597 2675 3597 1894 
z
M 3022 2063 
Q 3016 2534 2758 2815 
Q 2500 3097 2075 3097 
Q 1594 3097 1305 2825 
Q 1016 2553 972 2059 
L 3022 2063 
z
" transform="scale(0.015625)"/>
        <path id="DejaVuSans-72" d="M 2631 2963 
Q 2534 3019 2420 3045 
Q 2306 3072 2169 3072 
Q 1681 3072 1420 2755 
Q 1159 2438 1159 1844 
L 1159 0 
L 581 0 
L 581 3500 
L 1159 3500 
L 1159 2956 
Q 1341 3275 1631 3429 
Q 1922 3584 2338 3584 
Q 2397 3584 2469 3576 
Q 2541 3569 2628 3553 
L 2631 2963 
z
" transform="scale(0.015625)"/>
       </defs>
       <use xlink:href="#DejaVuSans-4c"/>
       <use xlink:href="#DejaVuSans-69" transform="translate(55.712891 0)"/>
       <use xlink:href="#DejaVuSans-76" transform="translate(83.496094 0)"/>
       <use xlink:href="#DejaVuSans-65" transform="translate(142.675781 0)"/>
       <use xlink:href="#DejaVuSans-72" transform="translate(204.199219 0)"/>
      </g>
     </g>
    </g>
    <g id="xtick_2">
     <g id="line2d_2">
      <g>
       <use xlink:href="#m9b840ec9f2" x="177.712308" y="352.8" style="stroke: #000000; stroke-width: 0.8"/>
      </g>
     </g>
     <g id="text_2">
      <!-- Right Kidney -->
      <g transform="translate(148.38695 445.573118) rotate(-50) scale(0.16 -0.16)">
       <defs>
        <path id="DejaVuSans-52" d="M 2841 2188 
Q 3044 2119 3236 1894 
Q 3428 1669 3622 1275 
L 4263 0 
L 3584 0 
L 2988 1197 
Q 2756 1666 2539 1819 
Q 2322 1972 1947 1972 
L 1259 1972 
L 1259 0 
L 628 0 
L 628 4666 
L 2053 4666 
Q 2853 4666 3247 4331 
Q 3641 3997 3641 3322 
Q 3641 2881 3436 2590 
Q 3231 2300 2841 2188 
z
M 1259 4147 
L 1259 2491 
L 2053 2491 
Q 2509 2491 2742 2702 
Q 2975 2913 2975 3322 
Q 2975 3731 2742 3939 
Q 2509 4147 2053 4147 
L 1259 4147 
z
" transform="scale(0.015625)"/>
        <path id="DejaVuSans-67" d="M 2906 1791 
Q 2906 2416 2648 2759 
Q 2391 3103 1925 3103 
Q 1463 3103 1205 2759 
Q 947 2416 947 1791 
Q 947 1169 1205 825 
Q 1463 481 1925 481 
Q 2391 481 2648 825 
Q 2906 1169 2906 1791 
z
M 3481 434 
Q 3481 -459 3084 -895 
Q 2688 -1331 1869 -1331 
Q 1566 -1331 1297 -1286 
Q 1028 -1241 775 -1147 
L 775 -588 
Q 1028 -725 1275 -790 
Q 1522 -856 1778 -856 
Q 2344 -856 2625 -561 
Q 2906 -266 2906 331 
L 2906 616 
Q 2728 306 2450 153 
Q 2172 0 1784 0 
Q 1141 0 747 490 
Q 353 981 353 1791 
Q 353 2603 747 3093 
Q 1141 3584 1784 3584 
Q 2172 3584 2450 3431 
Q 2728 3278 2906 2969 
L 2906 3500 
L 3481 3500 
L 3481 434 
z
" transform="scale(0.015625)"/>
        <path id="DejaVuSans-68" d="M 3513 2113 
L 3513 0 
L 2938 0 
L 2938 2094 
Q 2938 2591 2744 2837 
Q 2550 3084 2163 3084 
Q 1697 3084 1428 2787 
Q 1159 2491 1159 1978 
L 1159 0 
L 581 0 
L 581 4863 
L 1159 4863 
L 1159 2956 
Q 1366 3272 1645 3428 
Q 1925 3584 2291 3584 
Q 2894 3584 3203 3211 
Q 3513 2838 3513 2113 
z
" transform="scale(0.015625)"/>
        <path id="DejaVuSans-74" d="M 1172 4494 
L 1172 3500 
L 2356 3500 
L 2356 3053 
L 1172 3053 
L 1172 1153 
Q 1172 725 1289 603 
Q 1406 481 1766 481 
L 2356 481 
L 2356 0 
L 1766 0 
Q 1100 0 847 248 
Q 594 497 594 1153 
L 594 3053 
L 172 3053 
L 172 3500 
L 594 3500 
L 594 4494 
L 1172 4494 
z
" transform="scale(0.015625)"/>
        <path id="DejaVuSans-20" transform="scale(0.015625)"/>
        <path id="DejaVuSans-4b" d="M 628 4666 
L 1259 4666 
L 1259 2694 
L 3353 4666 
L 4166 4666 
L 1850 2491 
L 4331 0 
L 3500 0 
L 1259 2247 
L 1259 0 
L 628 0 
L 628 4666 
z
" transform="scale(0.015625)"/>
        <path id="DejaVuSans-64" d="M 2906 2969 
L 2906 4863 
L 3481 4863 
L 3481 0 
L 2906 0 
L 2906 525 
Q 2725 213 2448 61 
Q 2172 -91 1784 -91 
Q 1150 -91 751 415 
Q 353 922 353 1747 
Q 353 2572 751 3078 
Q 1150 3584 1784 3584 
Q 2172 3584 2448 3432 
Q 2725 3281 2906 2969 
z
M 947 1747 
Q 947 1113 1208 752 
Q 1469 391 1925 391 
Q 2381 391 2643 752 
Q 2906 1113 2906 1747 
Q 2906 2381 2643 2742 
Q 2381 3103 1925 3103 
Q 1469 3103 1208 2742 
Q 947 2381 947 1747 
z
" transform="scale(0.015625)"/>
        <path id="DejaVuSans-6e" d="M 3513 2113 
L 3513 0 
L 2938 0 
L 2938 2094 
Q 2938 2591 2744 2837 
Q 2550 3084 2163 3084 
Q 1697 3084 1428 2787 
Q 1159 2491 1159 1978 
L 1159 0 
L 581 0 
L 581 3500 
L 1159 3500 
L 1159 2956 
Q 1366 3272 1645 3428 
Q 1925 3584 2291 3584 
Q 2894 3584 3203 3211 
Q 3513 2838 3513 2113 
z
" transform="scale(0.015625)"/>
        <path id="DejaVuSans-79" d="M 2059 -325 
Q 1816 -950 1584 -1140 
Q 1353 -1331 966 -1331 
L 506 -1331 
L 506 -850 
L 844 -850 
Q 1081 -850 1212 -737 
Q 1344 -625 1503 -206 
L 1606 56 
L 191 3500 
L 800 3500 
L 1894 763 
L 2988 3500 
L 3597 3500 
L 2059 -325 
z
" transform="scale(0.015625)"/>
       </defs>
       <use xlink:href="#DejaVuSans-52"/>
       <use xlink:href="#DejaVuSans-69" transform="translate(69.482422 0)"/>
       <use xlink:href="#DejaVuSans-67" transform="translate(97.265625 0)"/>
       <use xlink:href="#DejaVuSans-68" transform="translate(160.742188 0)"/>
       <use xlink:href="#DejaVuSans-74" transform="translate(224.121094 0)"/>
       <use xlink:href="#DejaVuSans-20" transform="translate(263.330078 0)"/>
       <use xlink:href="#DejaVuSans-4b" transform="translate(295.117188 0)"/>
       <use xlink:href="#DejaVuSans-69" transform="translate(360.693359 0)"/>
       <use xlink:href="#DejaVuSans-64" transform="translate(388.476562 0)"/>
       <use xlink:href="#DejaVuSans-6e" transform="translate(451.953125 0)"/>
       <use xlink:href="#DejaVuSans-65" transform="translate(515.332031 0)"/>
       <use xlink:href="#DejaVuSans-79" transform="translate(576.855469 0)"/>
      </g>
     </g>
    </g>
    <g id="xtick_3">
     <g id="line2d_3">
      <g>
       <use xlink:href="#m9b840ec9f2" x="261.493846" y="352.8" style="stroke: #000000; stroke-width: 0.8"/>
      </g>
     </g>
     <g id="text_3">
      <!-- Spleen -->
      <g transform="translate(247.331045 409.433057) rotate(-50) scale(0.16 -0.16)">
       <defs>
        <path id="DejaVuSans-53" d="M 3425 4513 
L 3425 3897 
Q 3066 4069 2747 4153 
Q 2428 4238 2131 4238 
Q 1616 4238 1336 4038 
Q 1056 3838 1056 3469 
Q 1056 3159 1242 3001 
Q 1428 2844 1947 2747 
L 2328 2669 
Q 3034 2534 3370 2195 
Q 3706 1856 3706 1288 
Q 3706 609 3251 259 
Q 2797 -91 1919 -91 
Q 1588 -91 1214 -16 
Q 841 59 441 206 
L 441 856 
Q 825 641 1194 531 
Q 1563 422 1919 422 
Q 2459 422 2753 634 
Q 3047 847 3047 1241 
Q 3047 1584 2836 1778 
Q 2625 1972 2144 2069 
L 1759 2144 
Q 1053 2284 737 2584 
Q 422 2884 422 3419 
Q 422 4038 858 4394 
Q 1294 4750 2059 4750 
Q 2388 4750 2728 4690 
Q 3069 4631 3425 4513 
z
" transform="scale(0.015625)"/>
        <path id="DejaVuSans-70" d="M 1159 525 
L 1159 -1331 
L 581 -1331 
L 581 3500 
L 1159 3500 
L 1159 2969 
Q 1341 3281 1617 3432 
Q 1894 3584 2278 3584 
Q 2916 3584 3314 3078 
Q 3713 2572 3713 1747 
Q 3713 922 3314 415 
Q 2916 -91 2278 -91 
Q 1894 -91 1617 61 
Q 1341 213 1159 525 
z
M 3116 1747 
Q 3116 2381 2855 2742 
Q 2594 3103 2138 3103 
Q 1681 3103 1420 2742 
Q 1159 2381 1159 1747 
Q 1159 1113 1420 752 
Q 1681 391 2138 391 
Q 2594 391 2855 752 
Q 3116 1113 3116 1747 
z
" transform="scale(0.015625)"/>
        <path id="DejaVuSans-6c" d="M 603 4863 
L 1178 4863 
L 1178 0 
L 603 0 
L 603 4863 
z
" transform="scale(0.015625)"/>
       </defs>
       <use xlink:href="#DejaVuSans-53"/>
       <use xlink:href="#DejaVuSans-70" transform="translate(63.476562 0)"/>
       <use xlink:href="#DejaVuSans-6c" transform="translate(126.953125 0)"/>
       <use xlink:href="#DejaVuSans-65" transform="translate(154.736328 0)"/>
       <use xlink:href="#DejaVuSans-65" transform="translate(216.259766 0)"/>
       <use xlink:href="#DejaVuSans-6e" transform="translate(277.783203 0)"/>
      </g>
     </g>
    </g>
    <g id="xtick_4">
     <g id="line2d_4">
      <g>
       <use xlink:href="#m9b840ec9f2" x="345.275385" y="352.8" style="stroke: #000000; stroke-width: 0.8"/>
      </g>
     </g>
     <g id="text_4">
      <!-- Pancreas -->
      <g transform="translate(325.558095 422.67222) rotate(-50) scale(0.16 -0.16)">
       <defs>
        <path id="DejaVuSans-50" d="M 1259 4147 
L 1259 2394 
L 2053 2394 
Q 2494 2394 2734 2622 
Q 2975 2850 2975 3272 
Q 2975 3691 2734 3919 
Q 2494 4147 2053 4147 
L 1259 4147 
z
M 628 4666 
L 2053 4666 
Q 2838 4666 3239 4311 
Q 3641 3956 3641 3272 
Q 3641 2581 3239 2228 
Q 2838 1875 2053 1875 
L 1259 1875 
L 1259 0 
L 628 0 
L 628 4666 
z
" transform="scale(0.015625)"/>
        <path id="DejaVuSans-61" d="M 2194 1759 
Q 1497 1759 1228 1600 
Q 959 1441 959 1056 
Q 959 750 1161 570 
Q 1363 391 1709 391 
Q 2188 391 2477 730 
Q 2766 1069 2766 1631 
L 2766 1759 
L 2194 1759 
z
M 3341 1997 
L 3341 0 
L 2766 0 
L 2766 531 
Q 2569 213 2275 61 
Q 1981 -91 1556 -91 
Q 1019 -91 701 211 
Q 384 513 384 1019 
Q 384 1609 779 1909 
Q 1175 2209 1959 2209 
L 2766 2209 
L 2766 2266 
Q 2766 2663 2505 2880 
Q 2244 3097 1772 3097 
Q 1472 3097 1187 3025 
Q 903 2953 641 2809 
L 641 3341 
Q 956 3463 1253 3523 
Q 1550 3584 1831 3584 
Q 2591 3584 2966 3190 
Q 3341 2797 3341 1997 
z
" transform="scale(0.015625)"/>
        <path id="DejaVuSans-63" d="M 3122 3366 
L 3122 2828 
Q 2878 2963 2633 3030 
Q 2388 3097 2138 3097 
Q 1578 3097 1268 2742 
Q 959 2388 959 1747 
Q 959 1106 1268 751 
Q 1578 397 2138 397 
Q 2388 397 2633 464 
Q 2878 531 3122 666 
L 3122 134 
Q 2881 22 2623 -34 
Q 2366 -91 2075 -91 
Q 1284 -91 818 406 
Q 353 903 353 1747 
Q 353 2603 823 3093 
Q 1294 3584 2113 3584 
Q 2378 3584 2631 3529 
Q 2884 3475 3122 3366 
z
" transform="scale(0.015625)"/>
        <path id="DejaVuSans-73" d="M 2834 3397 
L 2834 2853 
Q 2591 2978 2328 3040 
Q 2066 3103 1784 3103 
Q 1356 3103 1142 2972 
Q 928 2841 928 2578 
Q 928 2378 1081 2264 
Q 1234 2150 1697 2047 
L 1894 2003 
Q 2506 1872 2764 1633 
Q 3022 1394 3022 966 
Q 3022 478 2636 193 
Q 2250 -91 1575 -91 
Q 1294 -91 989 -36 
Q 684 19 347 128 
L 347 722 
Q 666 556 975 473 
Q 1284 391 1588 391 
Q 1994 391 2212 530 
Q 2431 669 2431 922 
Q 2431 1156 2273 1281 
Q 2116 1406 1581 1522 
L 1381 1569 
Q 847 1681 609 1914 
Q 372 2147 372 2553 
Q 372 3047 722 3315 
Q 1072 3584 1716 3584 
Q 2034 3584 2315 3537 
Q 2597 3491 2834 3397 
z
" transform="scale(0.015625)"/>
       </defs>
       <use xlink:href="#DejaVuSans-50"/>
       <use xlink:href="#DejaVuSans-61" transform="translate(55.802734 0)"/>
       <use xlink:href="#DejaVuSans-6e" transform="translate(117.082031 0)"/>
       <use xlink:href="#DejaVuSans-63" transform="translate(180.460938 0)"/>
       <use xlink:href="#DejaVuSans-72" transform="translate(235.441406 0)"/>
       <use xlink:href="#DejaVuSans-65" transform="translate(274.304688 0)"/>
       <use xlink:href="#DejaVuSans-61" transform="translate(335.828125 0)"/>
       <use xlink:href="#DejaVuSans-73" transform="translate(397.107422 0)"/>
      </g>
     </g>
    </g>
    <g id="xtick_5">
     <g id="line2d_5">
      <g>
       <use xlink:href="#m9b840ec9f2" x="429.056923" y="352.8" style="stroke: #000000; stroke-width: 0.8"/>
      </g>
     </g>
     <g id="text_5">
      <!-- Aorta -->
      <g transform="translate(418.583722 400.638866) rotate(-50) scale(0.16 -0.16)">
       <defs>
        <path id="DejaVuSans-41" d="M 2188 4044 
L 1331 1722 
L 3047 1722 
L 2188 4044 
z
M 1831 4666 
L 2547 4666 
L 4325 0 
L 3669 0 
L 3244 1197 
L 1141 1197 
L 716 0 
L 50 0 
L 1831 4666 
z
" transform="scale(0.015625)"/>
        <path id="DejaVuSans-6f" d="M 1959 3097 
Q 1497 3097 1228 2736 
Q 959 2375 959 1747 
Q 959 1119 1226 758 
Q 1494 397 1959 397 
Q 2419 397 2687 759 
Q 2956 1122 2956 1747 
Q 2956 2369 2687 2733 
Q 2419 3097 1959 3097 
z
M 1959 3584 
Q 2709 3584 3137 3096 
Q 3566 2609 3566 1747 
Q 3566 888 3137 398 
Q 2709 -91 1959 -91 
Q 1206 -91 779 398 
Q 353 888 353 1747 
Q 353 2609 779 3096 
Q 1206 3584 1959 3584 
z
" transform="scale(0.015625)"/>
       </defs>
       <use xlink:href="#DejaVuSans-41"/>
       <use xlink:href="#DejaVuSans-6f" transform="translate(66.658203 0)"/>
       <use xlink:href="#DejaVuSans-72" transform="translate(127.839844 0)"/>
       <use xlink:href="#DejaVuSans-74" transform="translate(168.953125 0)"/>
       <use xlink:href="#DejaVuSans-61" transform="translate(208.162109 0)"/>
      </g>
     </g>
    </g>
    <g id="xtick_6">
     <g id="line2d_6">
      <g>
       <use xlink:href="#m9b840ec9f2" x="512.838462" y="352.8" style="stroke: #000000; stroke-width: 0.8"/>
      </g>
     </g>
     <g id="text_6">
      <!-- Inferior Vena Cava -->
      <g transform="translate(468.768359 480.717322) rotate(-50) scale(0.16 -0.16)">
       <defs>
        <path id="DejaVuSans-49" d="M 628 4666 
L 1259 4666 
L 1259 0 
L 628 0 
L 628 4666 
z
" transform="scale(0.015625)"/>
        <path id="DejaVuSans-66" d="M 2375 4863 
L 2375 4384 
L 1825 4384 
Q 1516 4384 1395 4259 
Q 1275 4134 1275 3809 
L 1275 3500 
L 2222 3500 
L 2222 3053 
L 1275 3053 
L 1275 0 
L 697 0 
L 697 3053 
L 147 3053 
L 147 3500 
L 697 3500 
L 697 3744 
Q 697 4328 969 4595 
Q 1241 4863 1831 4863 
L 2375 4863 
z
" transform="scale(0.015625)"/>
        <path id="DejaVuSans-56" d="M 1831 0 
L 50 4666 
L 709 4666 
L 2188 738 
L 3669 4666 
L 4325 4666 
L 2547 0 
L 1831 0 
z
" transform="scale(0.015625)"/>
        <path id="DejaVuSans-43" d="M 4122 4306 
L 4122 3641 
Q 3803 3938 3442 4084 
Q 3081 4231 2675 4231 
Q 1875 4231 1450 3742 
Q 1025 3253 1025 2328 
Q 1025 1406 1450 917 
Q 1875 428 2675 428 
Q 3081 428 3442 575 
Q 3803 722 4122 1019 
L 4122 359 
Q 3791 134 3420 21 
Q 3050 -91 2638 -91 
Q 1578 -91 968 557 
Q 359 1206 359 2328 
Q 359 3453 968 4101 
Q 1578 4750 2638 4750 
Q 3056 4750 3426 4639 
Q 3797 4528 4122 4306 
z
" transform="scale(0.015625)"/>
       </defs>
       <use xlink:href="#DejaVuSans-49"/>
       <use xlink:href="#DejaVuSans-6e" transform="translate(29.492188 0)"/>
       <use xlink:href="#DejaVuSans-66" transform="translate(92.871094 0)"/>
       <use xlink:href="#DejaVuSans-65" transform="translate(128.076172 0)"/>
       <use xlink:href="#DejaVuSans-72" transform="translate(189.599609 0)"/>
       <use xlink:href="#DejaVuSans-69" transform="translate(230.712891 0)"/>
       <use xlink:href="#DejaVuSans-6f" transform="translate(258.496094 0)"/>
       <use xlink:href="#DejaVuSans-72" transform="translate(319.677734 0)"/>
       <use xlink:href="#DejaVuSans-20" transform="translate(360.791016 0)"/>
       <use xlink:href="#DejaVuSans-56" transform="translate(392.578125 0)"/>
       <use xlink:href="#DejaVuSans-65" transform="translate(453.236328 0)"/>
       <use xlink:href="#DejaVuSans-6e" transform="translate(514.759766 0)"/>
       <use xlink:href="#DejaVuSans-61" transform="translate(578.138672 0)"/>
       <use xlink:href="#DejaVuSans-20" transform="translate(639.417969 0)"/>
       <use xlink:href="#DejaVuSans-43" transform="translate(671.205078 0)"/>
       <use xlink:href="#DejaVuSans-61" transform="translate(741.029297 0)"/>
       <use xlink:href="#DejaVuSans-76" transform="translate(802.308594 0)"/>
       <use xlink:href="#DejaVuSans-61" transform="translate(861.488281 0)"/>
      </g>
     </g>
    </g>
    <g id="xtick_7">
     <g id="line2d_7">
      <g>
       <use xlink:href="#m9b840ec9f2" x="596.62" y="352.8" style="stroke: #000000; stroke-width: 0.8"/>
      </g>
     </g>
     <g id="text_7">
      <!-- Right Adrenal Gland -->
      <g transform="translate(548.411149 490.582059) rotate(-50) scale(0.16 -0.16)">
       <defs>
        <path id="DejaVuSans-47" d="M 3809 666 
L 3809 1919 
L 2778 1919 
L 2778 2438 
L 4434 2438 
L 4434 434 
Q 4069 175 3628 42 
Q 3188 -91 2688 -91 
Q 1594 -91 976 548 
Q 359 1188 359 2328 
Q 359 3472 976 4111 
Q 1594 4750 2688 4750 
Q 3144 4750 3555 4637 
Q 3966 4525 4313 4306 
L 4313 3634 
Q 3963 3931 3569 4081 
Q 3175 4231 2741 4231 
Q 1884 4231 1454 3753 
Q 1025 3275 1025 2328 
Q 1025 1384 1454 906 
Q 1884 428 2741 428 
Q 3075 428 3337 486 
Q 3600 544 3809 666 
z
" transform="scale(0.015625)"/>
       </defs>
       <use xlink:href="#DejaVuSans-52"/>
       <use xlink:href="#DejaVuSans-69" transform="translate(69.482422 0)"/>
       <use xlink:href="#DejaVuSans-67" transform="translate(97.265625 0)"/>
       <use xlink:href="#DejaVuSans-68" transform="translate(160.742188 0)"/>
       <use xlink:href="#DejaVuSans-74" transform="translate(224.121094 0)"/>
       <use xlink:href="#DejaVuSans-20" transform="translate(263.330078 0)"/>
       <use xlink:href="#DejaVuSans-41" transform="translate(295.117188 0)"/>
       <use xlink:href="#DejaVuSans-64" transform="translate(361.775391 0)"/>
       <use xlink:href="#DejaVuSans-72" transform="translate(425.251953 0)"/>
       <use xlink:href="#DejaVuSans-65" transform="translate(464.115234 0)"/>
       <use xlink:href="#DejaVuSans-6e" transform="translate(525.638672 0)"/>
       <use xlink:href="#DejaVuSans-61" transform="translate(589.017578 0)"/>
       <use xlink:href="#DejaVuSans-6c" transform="translate(650.296875 0)"/>
       <use xlink:href="#DejaVuSans-20" transform="translate(678.080078 0)"/>
       <use xlink:href="#DejaVuSans-47" transform="translate(709.867188 0)"/>
       <use xlink:href="#DejaVuSans-6c" transform="translate(787.357422 0)"/>
       <use xlink:href="#DejaVuSans-61" transform="translate(815.140625 0)"/>
       <use xlink:href="#DejaVuSans-6e" transform="translate(876.419922 0)"/>
       <use xlink:href="#DejaVuSans-64" transform="translate(939.798828 0)"/>
      </g>
     </g>
    </g>
    <g id="xtick_8">
     <g id="line2d_8">
      <g>
       <use xlink:href="#m9b840ec9f2" x="680.401538" y="352.8" style="stroke: #000000; stroke-width: 0.8"/>
      </g>
     </g>
     <g id="text_8">
      <!-- Left Adrenal Gland -->
      <g transform="translate(636.058252 481.36846) rotate(-50) scale(0.16 -0.16)">
       <use xlink:href="#DejaVuSans-4c"/>
       <use xlink:href="#DejaVuSans-65" transform="translate(53.962891 0)"/>
       <use xlink:href="#DejaVuSans-66" transform="translate(115.486328 0)"/>
       <use xlink:href="#DejaVuSans-74" transform="translate(148.941406 0)"/>
       <use xlink:href="#DejaVuSans-20" transform="translate(188.150391 0)"/>
       <use xlink:href="#DejaVuSans-41" transform="translate(219.9375 0)"/>
       <use xlink:href="#DejaVuSans-64" transform="translate(286.595703 0)"/>
       <use xlink:href="#DejaVuSans-72" transform="translate(350.072266 0)"/>
       <use xlink:href="#DejaVuSans-65" transform="translate(388.935547 0)"/>
       <use xlink:href="#DejaVuSans-6e" transform="translate(450.458984 0)"/>
       <use xlink:href="#DejaVuSans-61" transform="translate(513.837891 0)"/>
       <use xlink:href="#DejaVuSans-6c" transform="translate(575.117188 0)"/>
       <use xlink:href="#DejaVuSans-20" transform="translate(602.900391 0)"/>
       <use xlink:href="#DejaVuSans-47" transform="translate(634.6875 0)"/>
       <use xlink:href="#DejaVuSans-6c" transform="translate(712.177734 0)"/>
       <use xlink:href="#DejaVuSans-61" transform="translate(739.960938 0)"/>
       <use xlink:href="#DejaVuSans-6e" transform="translate(801.240234 0)"/>
       <use xlink:href="#DejaVuSans-64" transform="translate(864.619141 0)"/>
      </g>
     </g>
    </g>
    <g id="xtick_9">
     <g id="line2d_9">
      <g>
       <use xlink:href="#m9b840ec9f2" x="764.183077" y="352.8" style="stroke: #000000; stroke-width: 0.8"/>
      </g>
     </g>
     <g id="text_9">
      <!-- Gallbladder -->
      <g transform="translate(737.920602 438.272715) rotate(-50) scale(0.16 -0.16)">
       <defs>
        <path id="DejaVuSans-62" d="M 3116 1747 
Q 3116 2381 2855 2742 
Q 2594 3103 2138 3103 
Q 1681 3103 1420 2742 
Q 1159 2381 1159 1747 
Q 1159 1113 1420 752 
Q 1681 391 2138 391 
Q 2594 391 2855 752 
Q 3116 1113 3116 1747 
z
M 1159 2969 
Q 1341 3281 1617 3432 
Q 1894 3584 2278 3584 
Q 2916 3584 3314 3078 
Q 3713 2572 3713 1747 
Q 3713 922 3314 415 
Q 2916 -91 2278 -91 
Q 1894 -91 1617 61 
Q 1341 213 1159 525 
L 1159 0 
L 581 0 
L 581 4863 
L 1159 4863 
L 1159 2969 
z
" transform="scale(0.015625)"/>
       </defs>
       <use xlink:href="#DejaVuSans-47"/>
       <use xlink:href="#DejaVuSans-61" transform="translate(77.490234 0)"/>
       <use xlink:href="#DejaVuSans-6c" transform="translate(138.769531 0)"/>
       <use xlink:href="#DejaVuSans-6c" transform="translate(166.552734 0)"/>
       <use xlink:href="#DejaVuSans-62" transform="translate(194.335938 0)"/>
       <use xlink:href="#DejaVuSans-6c" transform="translate(257.8125 0)"/>
       <use xlink:href="#DejaVuSans-61" transform="translate(285.595703 0)"/>
       <use xlink:href="#DejaVuSans-64" transform="translate(346.875 0)"/>
       <use xlink:href="#DejaVuSans-64" transform="translate(410.351562 0)"/>
       <use xlink:href="#DejaVuSans-65" transform="translate(473.828125 0)"/>
       <use xlink:href="#DejaVuSans-72" transform="translate(535.351562 0)"/>
      </g>
     </g>
    </g>
    <g id="xtick_10">
     <g id="line2d_10">
      <g>
       <use xlink:href="#m9b840ec9f2" x="847.964615" y="352.8" style="stroke: #000000; stroke-width: 0.8"/>
      </g>
     </g>
     <g id="text_10">
      <!-- Esophagus -->
      <g transform="translate(823.395082 434.237576) rotate(-50) scale(0.16 -0.16)">
       <defs>
        <path id="DejaVuSans-45" d="M 628 4666 
L 3578 4666 
L 3578 4134 
L 1259 4134 
L 1259 2753 
L 3481 2753 
L 3481 2222 
L 1259 2222 
L 1259 531 
L 3634 531 
L 3634 0 
L 628 0 
L 628 4666 
z
" transform="scale(0.015625)"/>
        <path id="DejaVuSans-75" d="M 544 1381 
L 544 3500 
L 1119 3500 
L 1119 1403 
Q 1119 906 1312 657 
Q 1506 409 1894 409 
Q 2359 409 2629 706 
Q 2900 1003 2900 1516 
L 2900 3500 
L 3475 3500 
L 3475 0 
L 2900 0 
L 2900 538 
Q 2691 219 2414 64 
Q 2138 -91 1772 -91 
Q 1169 -91 856 284 
Q 544 659 544 1381 
z
M 1991 3584 
L 1991 3584 
z
" transform="scale(0.015625)"/>
       </defs>
       <use xlink:href="#DejaVuSans-45"/>
       <use xlink:href="#DejaVuSans-73" transform="translate(63.183594 0)"/>
       <use xlink:href="#DejaVuSans-6f" transform="translate(115.283203 0)"/>
       <use xlink:href="#DejaVuSans-70" transform="translate(176.464844 0)"/>
       <use xlink:href="#DejaVuSans-68" transform="translate(239.941406 0)"/>
       <use xlink:href="#DejaVuSans-61" transform="translate(303.320312 0)"/>
       <use xlink:href="#DejaVuSans-67" transform="translate(364.599609 0)"/>
       <use xlink:href="#DejaVuSans-75" transform="translate(428.076172 0)"/>
       <use xlink:href="#DejaVuSans-73" transform="translate(491.455078 0)"/>
      </g>
     </g>
    </g>
    <g id="xtick_11">
     <g id="line2d_11">
      <g>
       <use xlink:href="#m9b840ec9f2" x="931.746154" y="352.8" style="stroke: #000000; stroke-width: 0.8"/>
      </g>
     </g>
     <g id="text_11">
      <!-- Stomach -->
      <g transform="translate(912.454711 421.657211) rotate(-50) scale(0.16 -0.16)">
       <defs>
        <path id="DejaVuSans-6d" d="M 3328 2828 
Q 3544 3216 3844 3400 
Q 4144 3584 4550 3584 
Q 5097 3584 5394 3201 
Q 5691 2819 5691 2113 
L 5691 0 
L 5113 0 
L 5113 2094 
Q 5113 2597 4934 2840 
Q 4756 3084 4391 3084 
Q 3944 3084 3684 2787 
Q 3425 2491 3425 1978 
L 3425 0 
L 2847 0 
L 2847 2094 
Q 2847 2600 2669 2842 
Q 2491 3084 2119 3084 
Q 1678 3084 1418 2786 
Q 1159 2488 1159 1978 
L 1159 0 
L 581 0 
L 581 3500 
L 1159 3500 
L 1159 2956 
Q 1356 3278 1631 3431 
Q 1906 3584 2284 3584 
Q 2666 3584 2933 3390 
Q 3200 3197 3328 2828 
z
" transform="scale(0.015625)"/>
       </defs>
       <use xlink:href="#DejaVuSans-53"/>
       <use xlink:href="#DejaVuSans-74" transform="translate(63.476562 0)"/>
       <use xlink:href="#DejaVuSans-6f" transform="translate(102.685547 0)"/>
       <use xlink:href="#DejaVuSans-6d" transform="translate(163.867188 0)"/>
       <use xlink:href="#DejaVuSans-61" transform="translate(261.279297 0)"/>
       <use xlink:href="#DejaVuSans-63" transform="translate(322.558594 0)"/>
       <use xlink:href="#DejaVuSans-68" transform="translate(377.539062 0)"/>
      </g>
     </g>
    </g>
    <g id="xtick_12">
     <g id="line2d_12">
      <g>
       <use xlink:href="#m9b840ec9f2" x="1015.527692" y="352.8" style="stroke: #000000; stroke-width: 0.8"/>
      </g>
     </g>
     <g id="text_12">
      <!-- Duodenum -->
      <g transform="translate(990.58936 435.116612) rotate(-50) scale(0.16 -0.16)">
       <defs>
        <path id="DejaVuSans-44" d="M 1259 4147 
L 1259 519 
L 2022 519 
Q 2988 519 3436 956 
Q 3884 1394 3884 2338 
Q 3884 3275 3436 3711 
Q 2988 4147 2022 4147 
L 1259 4147 
z
M 628 4666 
L 1925 4666 
Q 3281 4666 3915 4102 
Q 4550 3538 4550 2338 
Q 4550 1131 3912 565 
Q 3275 0 1925 0 
L 628 0 
L 628 4666 
z
" transform="scale(0.015625)"/>
       </defs>
       <use xlink:href="#DejaVuSans-44"/>
       <use xlink:href="#DejaVuSans-75" transform="translate(77.001953 0)"/>
       <use xlink:href="#DejaVuSans-6f" transform="translate(140.380859 0)"/>
       <use xlink:href="#DejaVuSans-64" transform="translate(201.5625 0)"/>
       <use xlink:href="#DejaVuSans-65" transform="translate(265.039062 0)"/>
       <use xlink:href="#DejaVuSans-6e" transform="translate(326.5625 0)"/>
       <use xlink:href="#DejaVuSans-75" transform="translate(389.941406 0)"/>
       <use xlink:href="#DejaVuSans-6d" transform="translate(453.320312 0)"/>
      </g>
     </g>
    </g>
    <g id="xtick_13">
     <g id="line2d_13">
      <g>
       <use xlink:href="#m9b840ec9f2" x="1099.309231" y="352.8" style="stroke: #000000; stroke-width: 0.8"/>
      </g>
     </g>
     <g id="text_13">
      <!-- Left Kidney -->
      <g transform="translate(1073.849437 436.359519) rotate(-50) scale(0.16 -0.16)">
       <use xlink:href="#DejaVuSans-4c"/>
       <use xlink:href="#DejaVuSans-65" transform="translate(53.962891 0)"/>
       <use xlink:href="#DejaVuSans-66" transform="translate(115.486328 0)"/>
       <use xlink:href="#DejaVuSans-74" transform="translate(148.941406 0)"/>
       <use xlink:href="#DejaVuSans-20" transform="translate(188.150391 0)"/>
       <use xlink:href="#DejaVuSans-4b" transform="translate(219.9375 0)"/>
       <use xlink:href="#DejaVuSans-69" transform="translate(285.513672 0)"/>
       <use xlink:href="#DejaVuSans-64" transform="translate(313.296875 0)"/>
       <use xlink:href="#DejaVuSans-6e" transform="translate(376.773438 0)"/>
       <use xlink:href="#DejaVuSans-65" transform="translate(440.152344 0)"/>
       <use xlink:href="#DejaVuSans-79" transform="translate(501.675781 0)"/>
      </g>
     </g>
    </g>
   </g>
   <g id="matplotlib.axis_2">
    <g id="ytick_1">
     <g id="line2d_14">
      <defs>
       <path id="m06c3549da1" d="M 0 0 
L -3.5 0 
" style="stroke: #000000; stroke-width: 0.8"/>
      </defs>
      <g>
       <use xlink:href="#m06c3549da1" x="52.04" y="352.8" style="stroke: #000000; stroke-width: 0.8"/>
      </g>
     </g>
     <g id="text_14">
      <!-- 0.0 -->
      <g transform="translate(29.136875 356.599219) scale(0.1 -0.1)">
       <defs>
        <path id="DejaVuSans-30" d="M 2034 4250 
Q 1547 4250 1301 3770 
Q 1056 3291 1056 2328 
Q 1056 1369 1301 889 
Q 1547 409 2034 409 
Q 2525 409 2770 889 
Q 3016 1369 3016 2328 
Q 3016 3291 2770 3770 
Q 2525 4250 2034 4250 
z
M 2034 4750 
Q 2819 4750 3233 4129 
Q 3647 3509 3647 2328 
Q 3647 1150 3233 529 
Q 2819 -91 2034 -91 
Q 1250 -91 836 529 
Q 422 1150 422 2328 
Q 422 3509 836 4129 
Q 1250 4750 2034 4750 
z
" transform="scale(0.015625)"/>
        <path id="DejaVuSans-2e" d="M 684 794 
L 1344 794 
L 1344 0 
L 684 0 
L 684 794 
z
" transform="scale(0.015625)"/>
       </defs>
       <use xlink:href="#DejaVuSans-30"/>
       <use xlink:href="#DejaVuSans-2e" transform="translate(63.623047 0)"/>
       <use xlink:href="#DejaVuSans-30" transform="translate(95.410156 0)"/>
      </g>
     </g>
    </g>
    <g id="ytick_2">
     <g id="line2d_15">
      <g>
       <use xlink:href="#m06c3549da1" x="52.04" y="285.744473" style="stroke: #000000; stroke-width: 0.8"/>
      </g>
     </g>
     <g id="text_15">
      <!-- 0.2 -->
      <g transform="translate(29.136875 289.543692) scale(0.1 -0.1)">
       <defs>
        <path id="DejaVuSans-32" d="M 1228 531 
L 3431 531 
L 3431 0 
L 469 0 
L 469 531 
Q 828 903 1448 1529 
Q 2069 2156 2228 2338 
Q 2531 2678 2651 2914 
Q 2772 3150 2772 3378 
Q 2772 3750 2511 3984 
Q 2250 4219 1831 4219 
Q 1534 4219 1204 4116 
Q 875 4013 500 3803 
L 500 4441 
Q 881 4594 1212 4672 
Q 1544 4750 1819 4750 
Q 2544 4750 2975 4387 
Q 3406 4025 3406 3419 
Q 3406 3131 3298 2873 
Q 3191 2616 2906 2266 
Q 2828 2175 2409 1742 
Q 1991 1309 1228 531 
z
" transform="scale(0.015625)"/>
       </defs>
       <use xlink:href="#DejaVuSans-30"/>
       <use xlink:href="#DejaVuSans-2e" transform="translate(63.623047 0)"/>
       <use xlink:href="#DejaVuSans-32" transform="translate(95.410156 0)"/>
      </g>
     </g>
    </g>
    <g id="ytick_3">
     <g id="line2d_16">
      <g>
       <use xlink:href="#m06c3549da1" x="52.04" y="218.688947" style="stroke: #000000; stroke-width: 0.8"/>
      </g>
     </g>
     <g id="text_16">
      <!-- 0.4 -->
      <g transform="translate(29.136875 222.488165) scale(0.1 -0.1)">
       <defs>
        <path id="DejaVuSans-34" d="M 2419 4116 
L 825 1625 
L 2419 1625 
L 2419 4116 
z
M 2253 4666 
L 3047 4666 
L 3047 1625 
L 3713 1625 
L 3713 1100 
L 3047 1100 
L 3047 0 
L 2419 0 
L 2419 1100 
L 313 1100 
L 313 1709 
L 2253 4666 
z
" transform="scale(0.015625)"/>
       </defs>
       <use xlink:href="#DejaVuSans-30"/>
       <use xlink:href="#DejaVuSans-2e" transform="translate(63.623047 0)"/>
       <use xlink:href="#DejaVuSans-34" transform="translate(95.410156 0)"/>
      </g>
     </g>
    </g>
    <g id="ytick_4">
     <g id="line2d_17">
      <g>
       <use xlink:href="#m06c3549da1" x="52.04" y="151.63342" style="stroke: #000000; stroke-width: 0.8"/>
      </g>
     </g>
     <g id="text_17">
      <!-- 0.6 -->
      <g transform="translate(29.136875 155.432639) scale(0.1 -0.1)">
       <defs>
        <path id="DejaVuSans-36" d="M 2113 2584 
Q 1688 2584 1439 2293 
Q 1191 2003 1191 1497 
Q 1191 994 1439 701 
Q 1688 409 2113 409 
Q 2538 409 2786 701 
Q 3034 994 3034 1497 
Q 3034 2003 2786 2293 
Q 2538 2584 2113 2584 
z
M 3366 4563 
L 3366 3988 
Q 3128 4100 2886 4159 
Q 2644 4219 2406 4219 
Q 1781 4219 1451 3797 
Q 1122 3375 1075 2522 
Q 1259 2794 1537 2939 
Q 1816 3084 2150 3084 
Q 2853 3084 3261 2657 
Q 3669 2231 3669 1497 
Q 3669 778 3244 343 
Q 2819 -91 2113 -91 
Q 1303 -91 875 529 
Q 447 1150 447 2328 
Q 447 3434 972 4092 
Q 1497 4750 2381 4750 
Q 2619 4750 2861 4703 
Q 3103 4656 3366 4563 
z
" transform="scale(0.015625)"/>
       </defs>
       <use xlink:href="#DejaVuSans-30"/>
       <use xlink:href="#DejaVuSans-2e" transform="translate(63.623047 0)"/>
       <use xlink:href="#DejaVuSans-36" transform="translate(95.410156 0)"/>
      </g>
     </g>
    </g>
    <g id="ytick_5">
     <g id="line2d_18">
      <g>
       <use xlink:href="#m06c3549da1" x="52.04" y="84.577893" style="stroke: #000000; stroke-width: 0.8"/>
      </g>
     </g>
     <g id="text_18">
      <!-- 0.8 -->
      <g transform="translate(29.136875 88.377112) scale(0.1 -0.1)">
       <defs>
        <path id="DejaVuSans-38" d="M 2034 2216 
Q 1584 2216 1326 1975 
Q 1069 1734 1069 1313 
Q 1069 891 1326 650 
Q 1584 409 2034 409 
Q 2484 409 2743 651 
Q 3003 894 3003 1313 
Q 3003 1734 2745 1975 
Q 2488 2216 2034 2216 
z
M 1403 2484 
Q 997 2584 770 2862 
Q 544 3141 544 3541 
Q 544 4100 942 4425 
Q 1341 4750 2034 4750 
Q 2731 4750 3128 4425 
Q 3525 4100 3525 3541 
Q 3525 3141 3298 2862 
Q 3072 2584 2669 2484 
Q 3125 2378 3379 2068 
Q 3634 1759 3634 1313 
Q 3634 634 3220 271 
Q 2806 -91 2034 -91 
Q 1263 -91 848 271 
Q 434 634 434 1313 
Q 434 1759 690 2068 
Q 947 2378 1403 2484 
z
M 1172 3481 
Q 1172 3119 1398 2916 
Q 1625 2713 2034 2713 
Q 2441 2713 2670 2916 
Q 2900 3119 2900 3481 
Q 2900 3844 2670 4047 
Q 2441 4250 2034 4250 
Q 1625 4250 1398 4047 
Q 1172 3844 1172 3481 
z
" transform="scale(0.015625)"/>
       </defs>
       <use xlink:href="#DejaVuSans-30"/>
       <use xlink:href="#DejaVuSans-2e" transform="translate(63.623047 0)"/>
       <use xlink:href="#DejaVuSans-38" transform="translate(95.410156 0)"/>
      </g>
     </g>
    </g>
    <g id="ytick_6">
     <g id="line2d_19">
      <g>
       <use xlink:href="#m06c3549da1" x="52.04" y="17.522366" style="stroke: #000000; stroke-width: 0.8"/>
      </g>
     </g>
     <g id="text_19">
      <!-- 1.0 -->
      <g transform="translate(29.136875 21.321585) scale(0.1 -0.1)">
       <defs>
        <path id="DejaVuSans-31" d="M 794 531 
L 1825 531 
L 1825 4091 
L 703 3866 
L 703 4441 
L 1819 4666 
L 2450 4666 
L 2450 531 
L 3481 531 
L 3481 0 
L 794 0 
L 794 531 
z
" transform="scale(0.015625)"/>
       </defs>
       <use xlink:href="#DejaVuSans-31"/>
       <use xlink:href="#DejaVuSans-2e" transform="translate(63.623047 0)"/>
       <use xlink:href="#DejaVuSans-30" transform="translate(95.410156 0)"/>
      </g>
     </g>
    </g>
    <g id="text_20">
     <!-- IoU -->
     <g transform="translate(21.809375 194.91) rotate(-90) scale(0.16 -0.16)">
      <defs>
       <path id="DejaVuSans-55" d="M 556 4666 
L 1191 4666 
L 1191 1831 
Q 1191 1081 1462 751 
Q 1734 422 2344 422 
Q 2950 422 3222 751 
Q 3494 1081 3494 1831 
L 3494 4666 
L 4128 4666 
L 4128 1753 
Q 4128 841 3676 375 
Q 3225 -91 2344 -91 
Q 1459 -91 1007 375 
Q 556 841 556 1753 
L 556 4666 
z
" transform="scale(0.015625)"/>
      </defs>
      <use xlink:href="#DejaVuSans-49"/>
      <use xlink:href="#DejaVuSans-6f" transform="translate(29.492188 0)"/>
      <use xlink:href="#DejaVuSans-55" transform="translate(90.673828 0)"/>
     </g>
    </g>
   </g>
   <g id="line2d_20">
    <path d="M 66.00359 30.154168 
L 66.00359 28.454992 
" clip-path="url(#pe915615272)" style="fill: none; stroke: #424242; stroke-width: 2.25; stroke-linecap: square"/>
   </g>
   <g id="line2d_21">
    <path d="M 149.785128 39.873668 
L 149.785128 34.375116 
" clip-path="url(#pe915615272)" style="fill: none; stroke: #424242; stroke-width: 2.25; stroke-linecap: square"/>
   </g>
   <g id="line2d_22">
    <path d="M 233.566667 32.368551 
L 233.566667 27.40105 
" clip-path="url(#pe915615272)" style="fill: none; stroke: #424242; stroke-width: 2.25; stroke-linecap: square"/>
   </g>
   <g id="line2d_23">
    <path d="M 317.348205 159.035047 
L 317.348205 127.704304 
" clip-path="url(#pe915615272)" style="fill: none; stroke: #424242; stroke-width: 2.25; stroke-linecap: square"/>
   </g>
   <g id="line2d_24">
    <path d="M 401.129744 57.734039 
L 401.129744 46.860007 
" clip-path="url(#pe915615272)" style="fill: none; stroke: #424242; stroke-width: 2.25; stroke-linecap: square"/>
   </g>
   <g id="line2d_25">
    <path d="M 484.911282 123.814421 
L 484.911282 74.941315 
" clip-path="url(#pe915615272)" style="fill: none; stroke: #424242; stroke-width: 2.25; stroke-linecap: square"/>
   </g>
   <g id="line2d_26">
    <path d="M 568.692821 178.926437 
L 568.692821 135.371102 
" clip-path="url(#pe915615272)" style="fill: none; stroke: #424242; stroke-width: 2.25; stroke-linecap: square"/>
   </g>
   <g id="line2d_27">
    <path d="M 652.474359 178.650137 
L 652.474359 139.436875 
" clip-path="url(#pe915615272)" style="fill: none; stroke: #424242; stroke-width: 2.25; stroke-linecap: square"/>
   </g>
   <g id="line2d_28">
    <path d="M 736.255897 84.289172 
L 736.255897 61.47811 
" clip-path="url(#pe915615272)" style="fill: none; stroke: #424242; stroke-width: 2.25; stroke-linecap: square"/>
   </g>
   <g id="line2d_29">
    <path d="M 820.037436 171.186869 
L 820.037436 107.632261 
" clip-path="url(#pe915615272)" style="fill: none; stroke: #424242; stroke-width: 2.25; stroke-linecap: square"/>
   </g>
   <g id="line2d_30">
    <path d="M 903.818974 120.612168 
L 903.818974 90.224883 
" clip-path="url(#pe915615272)" style="fill: none; stroke: #424242; stroke-width: 2.25; stroke-linecap: square"/>
   </g>
   <g id="line2d_31">
    <path d="M 987.600513 239.429009 
L 987.600513 194.315624 
" clip-path="url(#pe915615272)" style="fill: none; stroke: #424242; stroke-width: 2.25; stroke-linecap: square"/>
   </g>
   <g id="line2d_32">
    <path d="M 1071.382051 56.250145 
L 1071.382051 36.590948 
" clip-path="url(#pe915615272)" style="fill: none; stroke: #424242; stroke-width: 2.25; stroke-linecap: square"/>
   </g>
   <g id="line2d_33">
    <path d="M 77.174462 31.613807 
L 77.174462 30.071351 
" clip-path="url(#pe915615272)" style="fill: none; stroke: #424242; stroke-width: 2.25; stroke-linecap: square"/>
   </g>
   <g id="line2d_34">
    <path d="M 160.956 52.328075 
L 160.956 39.386718 
" clip-path="url(#pe915615272)" style="fill: none; stroke: #424242; stroke-width: 2.25; stroke-linecap: square"/>
   </g>
   <g id="line2d_35">
    <path d="M 244.737538 29.929438 
L 244.737538 28.036033 
" clip-path="url(#pe915615272)" style="fill: none; stroke: #424242; stroke-width: 2.25; stroke-linecap: square"/>
   </g>
   <g id="line2d_36">
    <path d="M 328.519077 179.999013 
L 328.519077 155.163489 
" clip-path="url(#pe915615272)" style="fill: none; stroke: #424242; stroke-width: 2.25; stroke-linecap: square"/>
   </g>
   <g id="line2d_37">
    <path d="M 412.300615 72.314663 
L 412.300615 53.113177 
" clip-path="url(#pe915615272)" style="fill: none; stroke: #424242; stroke-width: 2.25; stroke-linecap: square"/>
   </g>
   <g id="line2d_38">
    <path d="M 496.082154 133.786182 
L 496.082154 95.069063 
" clip-path="url(#pe915615272)" style="fill: none; stroke: #424242; stroke-width: 2.25; stroke-linecap: square"/>
   </g>
   <g id="line2d_39">
    <path d="M 579.863692 187.161182 
L 579.863692 156.297112 
" clip-path="url(#pe915615272)" style="fill: none; stroke: #424242; stroke-width: 2.25; stroke-linecap: square"/>
   </g>
   <g id="line2d_40">
    <path d="M 663.645231 164.651951 
L 663.645231 138.509491 
" clip-path="url(#pe915615272)" style="fill: none; stroke: #424242; stroke-width: 2.25; stroke-linecap: square"/>
   </g>
   <g id="line2d_41">
    <path d="M 747.426769 76.216038 
L 747.426769 62.727576 
" clip-path="url(#pe915615272)" style="fill: none; stroke: #424242; stroke-width: 2.25; stroke-linecap: square"/>
   </g>
   <g id="line2d_42">
    <path d="M 831.208308 150.778568 
L 831.208308 116.94233 
" clip-path="url(#pe915615272)" style="fill: none; stroke: #424242; stroke-width: 2.25; stroke-linecap: square"/>
   </g>
   <g id="line2d_43">
    <path d="M 914.989846 130.551912 
L 914.989846 102.359898 
" clip-path="url(#pe915615272)" style="fill: none; stroke: #424242; stroke-width: 2.25; stroke-linecap: square"/>
   </g>
   <g id="line2d_44">
    <path d="M 998.771385 223.477453 
L 998.771385 191.551276 
" clip-path="url(#pe915615272)" style="fill: none; stroke: #424242; stroke-width: 2.25; stroke-linecap: square"/>
   </g>
   <g id="line2d_45">
    <path d="M 1082.552923 67.352619 
L 1082.552923 42.338016 
" clip-path="url(#pe915615272)" style="fill: none; stroke: #424242; stroke-width: 2.25; stroke-linecap: square"/>
   </g>
   <g id="line2d_46">
    <path d="M 88.345333 32.030925 
L 88.345333 29.451478 
" clip-path="url(#pe915615272)" style="fill: none; stroke: #424242; stroke-width: 2.25; stroke-linecap: square"/>
   </g>
   <g id="line2d_47">
    <path d="M 172.126872 49.178783 
L 172.126872 35.647534 
" clip-path="url(#pe915615272)" style="fill: none; stroke: #424242; stroke-width: 2.25; stroke-linecap: square"/>
   </g>
   <g id="line2d_48">
    <path d="M 255.90841 29.484985 
L 255.90841 27.085714 
" clip-path="url(#pe915615272)" style="fill: none; stroke: #424242; stroke-width: 2.25; stroke-linecap: square"/>
   </g>
   <g id="line2d_49">
    <path d="M 339.689949 352.8 
L 339.689949 352.8 
" clip-path="url(#pe915615272)" style="fill: none; stroke: #424242; stroke-width: 2.25; stroke-linecap: square"/>
   </g>
   <g id="line2d_50">
    <path d="M 423.471487 58.284971 
L 423.471487 48.142328 
" clip-path="url(#pe915615272)" style="fill: none; stroke: #424242; stroke-width: 2.25; stroke-linecap: square"/>
   </g>
   <g id="line2d_51">
    <path d="M 507.253026 85.105569 
L 507.253026 68.524785 
" clip-path="url(#pe915615272)" style="fill: none; stroke: #424242; stroke-width: 2.25; stroke-linecap: square"/>
   </g>
   <g id="line2d_52">
    <path d="M 591.034564 352.8 
L 591.034564 352.8 
" clip-path="url(#pe915615272)" style="fill: none; stroke: #424242; stroke-width: 2.25; stroke-linecap: square"/>
   </g>
   <g id="line2d_53">
    <path d="M 674.816103 352.8 
L 674.816103 352.8 
" clip-path="url(#pe915615272)" style="fill: none; stroke: #424242; stroke-width: 2.25; stroke-linecap: square"/>
   </g>
   <g id="line2d_54">
    <path d="M 758.597641 128.449543 
L 758.597641 65.085892 
" clip-path="url(#pe915615272)" style="fill: none; stroke: #424242; stroke-width: 2.25; stroke-linecap: square"/>
   </g>
   <g id="line2d_55">
    <path d="M 842.379179 167.745834 
L 842.379179 120.798755 
" clip-path="url(#pe915615272)" style="fill: none; stroke: #424242; stroke-width: 2.25; stroke-linecap: square"/>
   </g>
   <g id="line2d_56">
    <path d="M 926.160718 108.845039 
L 926.160718 70.322102 
" clip-path="url(#pe915615272)" style="fill: none; stroke: #424242; stroke-width: 2.25; stroke-linecap: square"/>
   </g>
   <g id="line2d_57">
    <path d="M 1009.942256 352.8 
L 1009.942256 352.8 
" clip-path="url(#pe915615272)" style="fill: none; stroke: #424242; stroke-width: 2.25; stroke-linecap: square"/>
   </g>
   <g id="line2d_58">
    <path d="M 1093.723795 43.805127 
L 1093.723795 36.192093 
" clip-path="url(#pe915615272)" style="fill: none; stroke: #424242; stroke-width: 2.25; stroke-linecap: square"/>
   </g>
   <g id="line2d_59">
    <path d="M 99.516205 57.518284 
L 99.516205 44.837351 
" clip-path="url(#pe915615272)" style="fill: none; stroke: #424242; stroke-width: 2.25; stroke-linecap: square"/>
   </g>
   <g id="line2d_60">
    <path d="M 183.297744 55.953875 
L 183.297744 52.223946 
" clip-path="url(#pe915615272)" style="fill: none; stroke: #424242; stroke-width: 2.25; stroke-linecap: square"/>
   </g>
   <g id="line2d_61">
    <path d="M 267.079282 48.852763 
L 267.079282 43.252591 
" clip-path="url(#pe915615272)" style="fill: none; stroke: #424242; stroke-width: 2.25; stroke-linecap: square"/>
   </g>
   <g id="line2d_62">
    <path d="M 350.860821 125.042781 
L 350.860821 110.773203 
" clip-path="url(#pe915615272)" style="fill: none; stroke: #424242; stroke-width: 2.25; stroke-linecap: square"/>
   </g>
   <g id="line2d_63">
    <path d="M 434.642359 113.328755 
L 434.642359 98.316141 
" clip-path="url(#pe915615272)" style="fill: none; stroke: #424242; stroke-width: 2.25; stroke-linecap: square"/>
   </g>
   <g id="line2d_64">
    <path d="M 518.423897 118.964754 
L 518.423897 101.942238 
" clip-path="url(#pe915615272)" style="fill: none; stroke: #424242; stroke-width: 2.25; stroke-linecap: square"/>
   </g>
   <g id="line2d_65">
    <path d="M 602.205436 191.290245 
L 602.205436 166.875914 
" clip-path="url(#pe915615272)" style="fill: none; stroke: #424242; stroke-width: 2.25; stroke-linecap: square"/>
   </g>
   <g id="line2d_66">
    <path d="M 685.986974 177.494345 
L 685.986974 157.131971 
" clip-path="url(#pe915615272)" style="fill: none; stroke: #424242; stroke-width: 2.25; stroke-linecap: square"/>
   </g>
   <g id="line2d_67">
    <path d="M 769.768513 126.360656 
L 769.768513 103.168726 
" clip-path="url(#pe915615272)" style="fill: none; stroke: #424242; stroke-width: 2.25; stroke-linecap: square"/>
   </g>
   <g id="line2d_68">
    <path d="M 853.550051 146.13591 
L 853.550051 125.919633 
" clip-path="url(#pe915615272)" style="fill: none; stroke: #424242; stroke-width: 2.25; stroke-linecap: square"/>
   </g>
   <g id="line2d_69">
    <path d="M 937.33159 85.662181 
L 937.33159 75.148464 
" clip-path="url(#pe915615272)" style="fill: none; stroke: #424242; stroke-width: 2.25; stroke-linecap: square"/>
   </g>
   <g id="line2d_70">
    <path d="M 1021.113128 153.029713 
L 1021.113128 138.618363 
" clip-path="url(#pe915615272)" style="fill: none; stroke: #424242; stroke-width: 2.25; stroke-linecap: square"/>
   </g>
   <g id="line2d_71">
    <path d="M 1104.894667 59.11206 
L 1104.894667 52.942303 
" clip-path="url(#pe915615272)" style="fill: none; stroke: #424242; stroke-width: 2.25; stroke-linecap: square"/>
   </g>
   <g id="line2d_72">
    <path d="M 110.687077 52.462882 
L 110.687077 42.874057 
" clip-path="url(#pe915615272)" style="fill: none; stroke: #424242; stroke-width: 2.25; stroke-linecap: square"/>
   </g>
   <g id="line2d_73">
    <path d="M 194.468615 77.454112 
L 194.468615 51.524 
" clip-path="url(#pe915615272)" style="fill: none; stroke: #424242; stroke-width: 2.25; stroke-linecap: square"/>
   </g>
   <g id="line2d_74">
    <path d="M 278.250154 69.153161 
L 278.250154 37.252679 
" clip-path="url(#pe915615272)" style="fill: none; stroke: #424242; stroke-width: 2.25; stroke-linecap: square"/>
   </g>
   <g id="line2d_75">
    <path d="M 362.031692 111.929766 
L 362.031692 88.033464 
" clip-path="url(#pe915615272)" style="fill: none; stroke: #424242; stroke-width: 2.25; stroke-linecap: square"/>
   </g>
   <g id="line2d_76">
    <path d="M 445.813231 84.414896 
L 445.813231 76.355492 
" clip-path="url(#pe915615272)" style="fill: none; stroke: #424242; stroke-width: 2.25; stroke-linecap: square"/>
   </g>
   <g id="line2d_77">
    <path d="M 529.594769 144.771053 
L 529.594769 118.392592 
" clip-path="url(#pe915615272)" style="fill: none; stroke: #424242; stroke-width: 2.25; stroke-linecap: square"/>
   </g>
   <g id="line2d_78">
    <path d="M 613.376308 132.104464 
L 613.376308 117.964886 
" clip-path="url(#pe915615272)" style="fill: none; stroke: #424242; stroke-width: 2.25; stroke-linecap: square"/>
   </g>
   <g id="line2d_79">
    <path d="M 697.157846 141.187143 
L 697.157846 120.317138 
" clip-path="url(#pe915615272)" style="fill: none; stroke: #424242; stroke-width: 2.25; stroke-linecap: square"/>
   </g>
   <g id="line2d_80">
    <path d="M 780.939385 84.235593 
L 780.939385 72.040266 
" clip-path="url(#pe915615272)" style="fill: none; stroke: #424242; stroke-width: 2.25; stroke-linecap: square"/>
   </g>
   <g id="line2d_81">
    <path d="M 864.720923 109.883335 
L 864.720923 98.633 
" clip-path="url(#pe915615272)" style="fill: none; stroke: #424242; stroke-width: 2.25; stroke-linecap: square"/>
   </g>
   <g id="line2d_82">
    <path d="M 948.502462 60.566942 
L 948.502462 53.988681 
" clip-path="url(#pe915615272)" style="fill: none; stroke: #424242; stroke-width: 2.25; stroke-linecap: square"/>
   </g>
   <g id="line2d_83">
    <path d="M 1032.284 206.624602 
L 1032.284 155.104309 
" clip-path="url(#pe915615272)" style="fill: none; stroke: #424242; stroke-width: 2.25; stroke-linecap: square"/>
   </g>
   <g id="line2d_84">
    <path d="M 1116.065538 120.496347 
L 1116.065538 71.596556 
" clip-path="url(#pe915615272)" style="fill: none; stroke: #424242; stroke-width: 2.25; stroke-linecap: square"/>
   </g>
   <g id="line2d_85">
    <path d="M 121.857949 32.711423 
L 121.857949 31.116628 
" clip-path="url(#pe915615272)" style="fill: none; stroke: #424242; stroke-width: 2.25; stroke-linecap: square"/>
   </g>
   <g id="line2d_86">
    <path d="M 205.639487 69.127628 
L 205.639487 51.083072 
" clip-path="url(#pe915615272)" style="fill: none; stroke: #424242; stroke-width: 2.25; stroke-linecap: square"/>
   </g>
   <g id="line2d_87">
    <path d="M 289.421026 37.018954 
L 289.421026 34.817728 
" clip-path="url(#pe915615272)" style="fill: none; stroke: #424242; stroke-width: 2.25; stroke-linecap: square"/>
   </g>
   <g id="line2d_88">
    <path d="M 373.202564 90.443381 
L 373.202564 81.218536 
" clip-path="url(#pe915615272)" style="fill: none; stroke: #424242; stroke-width: 2.25; stroke-linecap: square"/>
   </g>
   <g id="line2d_89">
    <path d="M 456.984103 63.343759 
L 456.984103 51.979662 
" clip-path="url(#pe915615272)" style="fill: none; stroke: #424242; stroke-width: 2.25; stroke-linecap: square"/>
   </g>
   <g id="line2d_90">
    <path d="M 540.765641 79.096675 
L 540.765641 70.734882 
" clip-path="url(#pe915615272)" style="fill: none; stroke: #424242; stroke-width: 2.25; stroke-linecap: square"/>
   </g>
   <g id="line2d_91">
    <path d="M 624.547179 123.658908 
L 624.547179 106.475686 
" clip-path="url(#pe915615272)" style="fill: none; stroke: #424242; stroke-width: 2.25; stroke-linecap: square"/>
   </g>
   <g id="line2d_92">
    <path d="M 708.328718 115.921611 
L 708.328718 101.852023 
" clip-path="url(#pe915615272)" style="fill: none; stroke: #424242; stroke-width: 2.25; stroke-linecap: square"/>
   </g>
   <g id="line2d_93">
    <path d="M 792.110256 77.69684 
L 792.110256 63.023972 
" clip-path="url(#pe915615272)" style="fill: none; stroke: #424242; stroke-width: 2.25; stroke-linecap: square"/>
   </g>
   <g id="line2d_94">
    <path d="M 875.891795 126.839972 
L 875.891795 107.850355 
" clip-path="url(#pe915615272)" style="fill: none; stroke: #424242; stroke-width: 2.25; stroke-linecap: square"/>
   </g>
   <g id="line2d_95">
    <path d="M 959.673333 49.145141 
L 959.673333 45.088917 
" clip-path="url(#pe915615272)" style="fill: none; stroke: #424242; stroke-width: 2.25; stroke-linecap: square"/>
   </g>
   <g id="line2d_96">
    <path d="M 1043.454872 119.635392 
L 1043.454872 108.274995 
" clip-path="url(#pe915615272)" style="fill: none; stroke: #424242; stroke-width: 2.25; stroke-linecap: square"/>
   </g>
   <g id="line2d_97">
    <path d="M 1127.23641 59.577418 
L 1127.23641 52.211161 
" clip-path="url(#pe915615272)" style="fill: none; stroke: #424242; stroke-width: 2.25; stroke-linecap: square"/>
   </g>
   <g id="line2d_98">
    <path d="M 135.821538 352.8 
L 135.821538 10.8 
" clip-path="url(#pe915615272)" style="fill: none; stroke-dasharray: 3.7,1.6; stroke-dashoffset: 0; stroke: #808080"/>
   </g>
   <g id="line2d_99">
    <path d="M 219.603077 352.8 
L 219.603077 10.8 
" clip-path="url(#pe915615272)" style="fill: none; stroke-dasharray: 3.7,1.6; stroke-dashoffset: 0; stroke: #808080"/>
   </g>
   <g id="line2d_100">
    <path d="M 303.384615 352.8 
L 303.384615 10.8 
" clip-path="url(#pe915615272)" style="fill: none; stroke-dasharray: 3.7,1.6; stroke-dashoffset: 0; stroke: #808080"/>
   </g>
   <g id="line2d_101">
    <path d="M 387.166154 352.8 
L 387.166154 10.8 
" clip-path="url(#pe915615272)" style="fill: none; stroke-dasharray: 3.7,1.6; stroke-dashoffset: 0; stroke: #808080"/>
   </g>
   <g id="line2d_102">
    <path d="M 470.947692 352.8 
L 470.947692 10.8 
" clip-path="url(#pe915615272)" style="fill: none; stroke-dasharray: 3.7,1.6; stroke-dashoffset: 0; stroke: #808080"/>
   </g>
   <g id="line2d_103">
    <path d="M 554.729231 352.8 
L 554.729231 10.8 
" clip-path="url(#pe915615272)" style="fill: none; stroke-dasharray: 3.7,1.6; stroke-dashoffset: 0; stroke: #808080"/>
   </g>
   <g id="line2d_104">
    <path d="M 638.510769 352.8 
L 638.510769 10.8 
" clip-path="url(#pe915615272)" style="fill: none; stroke-dasharray: 3.7,1.6; stroke-dashoffset: 0; stroke: #808080"/>
   </g>
   <g id="line2d_105">
    <path d="M 722.292308 352.8 
L 722.292308 10.8 
" clip-path="url(#pe915615272)" style="fill: none; stroke-dasharray: 3.7,1.6; stroke-dashoffset: 0; stroke: #808080"/>
   </g>
   <g id="line2d_106">
    <path d="M 806.073846 352.8 
L 806.073846 10.8 
" clip-path="url(#pe915615272)" style="fill: none; stroke-dasharray: 3.7,1.6; stroke-dashoffset: 0; stroke: #808080"/>
   </g>
   <g id="line2d_107">
    <path d="M 889.855385 352.8 
L 889.855385 10.8 
" clip-path="url(#pe915615272)" style="fill: none; stroke-dasharray: 3.7,1.6; stroke-dashoffset: 0; stroke: #808080"/>
   </g>
   <g id="line2d_108">
    <path d="M 973.636923 352.8 
L 973.636923 10.8 
" clip-path="url(#pe915615272)" style="fill: none; stroke-dasharray: 3.7,1.6; stroke-dashoffset: 0; stroke: #808080"/>
   </g>
   <g id="line2d_109">
    <path d="M 1057.418462 352.8 
L 1057.418462 10.8 
" clip-path="url(#pe915615272)" style="fill: none; stroke-dasharray: 3.7,1.6; stroke-dashoffset: 0; stroke: #808080"/>
   </g>
   <g id="patch_87">
    <path d="M 52.04 352.8 
L 52.04 10.8 
" style="fill: none; stroke: #000000; stroke-width: 0.8; stroke-linejoin: miter; stroke-linecap: square"/>
   </g>
   <g id="patch_88">
    <path d="M 1141.2 352.8 
L 1141.2 10.8 
" style="fill: none; stroke: #000000; stroke-width: 0.8; stroke-linejoin: miter; stroke-linecap: square"/>
   </g>
   <g id="patch_89">
    <path d="M 52.04 352.8 
L 1141.2 352.8 
" style="fill: none; stroke: #000000; stroke-width: 0.8; stroke-linejoin: miter; stroke-linecap: square"/>
   </g>
   <g id="patch_90">
    <path d="M 52.04 10.8 
L 1141.2 10.8 
" style="fill: none; stroke: #000000; stroke-width: 0.8; stroke-linejoin: miter; stroke-linecap: square"/>
   </g>
   <g id="legend_1">
    <g id="patch_91">
     <path d="M 60.44 346.8 
L 276.516875 346.8 
Q 278.916875 346.8 278.916875 344.4 
L 278.916875 219.366875 
Q 278.916875 216.966875 276.516875 216.966875 
L 60.44 216.966875 
Q 58.04 216.966875 58.04 219.366875 
L 58.04 344.4 
Q 58.04 346.8 60.44 346.8 
z
" style="fill: #ffffff; opacity: 0.8; stroke: #cccccc; stroke-linejoin: miter"/>
    </g>
    <g id="text_21">
     <!-- Model (Mode) -->
     <g transform="translate(120.699062 232.404688) scale(0.14 -0.14)">
      <defs>
       <path id="DejaVuSans-4d" d="M 628 4666 
L 1569 4666 
L 2759 1491 
L 3956 4666 
L 4897 4666 
L 4897 0 
L 4281 0 
L 4281 4097 
L 3078 897 
L 2444 897 
L 1241 4097 
L 1241 0 
L 628 0 
L 628 4666 
z
" transform="scale(0.015625)"/>
       <path id="DejaVuSans-28" d="M 1984 4856 
Q 1566 4138 1362 3434 
Q 1159 2731 1159 2009 
Q 1159 1288 1364 580 
Q 1569 -128 1984 -844 
L 1484 -844 
Q 1016 -109 783 600 
Q 550 1309 550 2009 
Q 550 2706 781 3412 
Q 1013 4119 1484 4856 
L 1984 4856 
z
" transform="scale(0.015625)"/>
       <path id="DejaVuSans-29" d="M 513 4856 
L 1013 4856 
Q 1481 4119 1714 3412 
Q 1947 2706 1947 2009 
Q 1947 1309 1714 600 
Q 1481 -109 1013 -844 
L 513 -844 
Q 928 -128 1133 580 
Q 1338 1288 1338 2009 
Q 1338 2731 1133 3434 
Q 928 4138 513 4856 
z
" transform="scale(0.015625)"/>
      </defs>
      <use xlink:href="#DejaVuSans-4d"/>
      <use xlink:href="#DejaVuSans-6f" transform="translate(86.279297 0)"/>
      <use xlink:href="#DejaVuSans-64" transform="translate(147.460938 0)"/>
      <use xlink:href="#DejaVuSans-65" transform="translate(210.9375 0)"/>
      <use xlink:href="#DejaVuSans-6c" transform="translate(272.460938 0)"/>
      <use xlink:href="#DejaVuSans-20" transform="translate(300.244141 0)"/>
      <use xlink:href="#DejaVuSans-28" transform="translate(332.03125 0)"/>
      <use xlink:href="#DejaVuSans-4d" transform="translate(371.044922 0)"/>
      <use xlink:href="#DejaVuSans-6f" transform="translate(457.324219 0)"/>
      <use xlink:href="#DejaVuSans-64" transform="translate(518.505859 0)"/>
      <use xlink:href="#DejaVuSans-65" transform="translate(581.982422 0)"/>
      <use xlink:href="#DejaVuSans-29" transform="translate(643.505859 0)"/>
     </g>
    </g>
    <g id="patch_92">
     <path d="M 62.84 250.434375 
L 86.84 250.434375 
L 86.84 242.034375 
L 62.84 242.034375 
z
" style="fill: #23a68a"/>
    </g>
    <g id="text_22">
     <!-- MedSAM2_latest (box) -->
     <g transform="translate(96.44 250.434375) scale(0.12 -0.12)">
      <defs>
       <path id="DejaVuSans-5f" d="M 3263 -1063 
L 3263 -1509 
L -63 -1509 
L -63 -1063 
L 3263 -1063 
z
" transform="scale(0.015625)"/>
       <path id="DejaVuSans-78" d="M 3513 3500 
L 2247 1797 
L 3578 0 
L 2900 0 
L 1881 1375 
L 863 0 
L 184 0 
L 1544 1831 
L 300 3500 
L 978 3500 
L 1906 2253 
L 2834 3500 
L 3513 3500 
z
" transform="scale(0.015625)"/>
      </defs>
      <use xlink:href="#DejaVuSans-4d"/>
      <use xlink:href="#DejaVuSans-65" transform="translate(86.279297 0)"/>
      <use xlink:href="#DejaVuSans-64" transform="translate(147.802734 0)"/>
      <use xlink:href="#DejaVuSans-53" transform="translate(211.279297 0)"/>
      <use xlink:href="#DejaVuSans-41" transform="translate(276.630859 0)"/>
      <use xlink:href="#DejaVuSans-4d" transform="translate(345.039062 0)"/>
      <use xlink:href="#DejaVuSans-32" transform="translate(431.318359 0)"/>
      <use xlink:href="#DejaVuSans-5f" transform="translate(494.941406 0)"/>
      <use xlink:href="#DejaVuSans-6c" transform="translate(544.941406 0)"/>
      <use xlink:href="#DejaVuSans-61" transform="translate(572.724609 0)"/>
      <use xlink:href="#DejaVuSans-74" transform="translate(634.003906 0)"/>
      <use xlink:href="#DejaVuSans-65" transform="translate(673.212891 0)"/>
      <use xlink:href="#DejaVuSans-73" transform="translate(734.736328 0)"/>
      <use xlink:href="#DejaVuSans-74" transform="translate(786.835938 0)"/>
      <use xlink:href="#DejaVuSans-20" transform="translate(826.044922 0)"/>
      <use xlink:href="#DejaVuSans-28" transform="translate(857.832031 0)"/>
      <use xlink:href="#DejaVuSans-62" transform="translate(896.845703 0)"/>
      <use xlink:href="#DejaVuSans-6f" transform="translate(960.322266 0)"/>
      <use xlink:href="#DejaVuSans-78" transform="translate(1018.378906 0)"/>
      <use xlink:href="#DejaVuSans-29" transform="translate(1077.558594 0)"/>
     </g>
    </g>
    <g id="patch_93">
     <path d="M 62.84 268.381875 
L 86.84 268.381875 
L 86.84 259.981875 
L 62.84 259.981875 
z
" style="fill: #3274a1"/>
    </g>
    <g id="text_23">
     <!-- MedSAM2_CT (box) -->
     <g transform="translate(96.44 268.381875) scale(0.12 -0.12)">
      <defs>
       <path id="DejaVuSans-54" d="M -19 4666 
L 3928 4666 
L 3928 4134 
L 2272 4134 
L 2272 0 
L 1638 0 
L 1638 4134 
L -19 4134 
L -19 4666 
z
" transform="scale(0.015625)"/>
      </defs>
      <use xlink:href="#DejaVuSans-4d"/>
      <use xlink:href="#DejaVuSans-65" transform="translate(86.279297 0)"/>
      <use xlink:href="#DejaVuSans-64" transform="translate(147.802734 0)"/>
      <use xlink:href="#DejaVuSans-53" transform="translate(211.279297 0)"/>
      <use xlink:href="#DejaVuSans-41" transform="translate(276.630859 0)"/>
      <use xlink:href="#DejaVuSans-4d" transform="translate(345.039062 0)"/>
      <use xlink:href="#DejaVuSans-32" transform="translate(431.318359 0)"/>
      <use xlink:href="#DejaVuSans-5f" transform="translate(494.941406 0)"/>
      <use xlink:href="#DejaVuSans-43" transform="translate(544.941406 0)"/>
      <use xlink:href="#DejaVuSans-54" transform="translate(614.765625 0)"/>
      <use xlink:href="#DejaVuSans-20" transform="translate(675.849609 0)"/>
      <use xlink:href="#DejaVuSans-28" transform="translate(707.636719 0)"/>
      <use xlink:href="#DejaVuSans-62" transform="translate(746.650391 0)"/>
      <use xlink:href="#DejaVuSans-6f" transform="translate(810.126953 0)"/>
      <use xlink:href="#DejaVuSans-78" transform="translate(868.183594 0)"/>
      <use xlink:href="#DejaVuSans-29" transform="translate(927.363281 0)"/>
     </g>
    </g>
    <g id="patch_94">
     <path d="M 62.84 286.329375 
L 86.84 286.329375 
L 86.84 277.929375 
L 62.84 277.929375 
z
" style="fill: #67a1cb"/>
    </g>
    <g id="text_24">
     <!-- MedSAM2_CT (BOB D-FINE-N) -->
     <g transform="translate(96.44 286.329375) scale(0.12 -0.12)">
      <defs>
       <path id="DejaVuSans-42" d="M 1259 2228 
L 1259 519 
L 2272 519 
Q 2781 519 3026 730 
Q 3272 941 3272 1375 
Q 3272 1813 3026 2020 
Q 2781 2228 2272 2228 
L 1259 2228 
z
M 1259 4147 
L 1259 2741 
L 2194 2741 
Q 2656 2741 2882 2914 
Q 3109 3088 3109 3444 
Q 3109 3797 2882 3972 
Q 2656 4147 2194 4147 
L 1259 4147 
z
M 628 4666 
L 2241 4666 
Q 2963 4666 3353 4366 
Q 3744 4066 3744 3513 
Q 3744 3084 3544 2831 
Q 3344 2578 2956 2516 
Q 3422 2416 3680 2098 
Q 3938 1781 3938 1306 
Q 3938 681 3513 340 
Q 3088 0 2303 0 
L 628 0 
L 628 4666 
z
" transform="scale(0.015625)"/>
       <path id="DejaVuSans-4f" d="M 2522 4238 
Q 1834 4238 1429 3725 
Q 1025 3213 1025 2328 
Q 1025 1447 1429 934 
Q 1834 422 2522 422 
Q 3209 422 3611 934 
Q 4013 1447 4013 2328 
Q 4013 3213 3611 3725 
Q 3209 4238 2522 4238 
z
M 2522 4750 
Q 3503 4750 4090 4092 
Q 4678 3434 4678 2328 
Q 4678 1225 4090 567 
Q 3503 -91 2522 -91 
Q 1538 -91 948 565 
Q 359 1222 359 2328 
Q 359 3434 948 4092 
Q 1538 4750 2522 4750 
z
" transform="scale(0.015625)"/>
       <path id="DejaVuSans-2d" d="M 313 2009 
L 1997 2009 
L 1997 1497 
L 313 1497 
L 313 2009 
z
" transform="scale(0.015625)"/>
       <path id="DejaVuSans-46" d="M 628 4666 
L 3309 4666 
L 3309 4134 
L 1259 4134 
L 1259 2759 
L 3109 2759 
L 3109 2228 
L 1259 2228 
L 1259 0 
L 628 0 
L 628 4666 
z
" transform="scale(0.015625)"/>
       <path id="DejaVuSans-4e" d="M 628 4666 
L 1478 4666 
L 3547 763 
L 3547 4666 
L 4159 4666 
L 4159 0 
L 3309 0 
L 1241 3903 
L 1241 0 
L 628 0 
L 628 4666 
z
" transform="scale(0.015625)"/>
      </defs>
      <use xlink:href="#DejaVuSans-4d"/>
      <use xlink:href="#DejaVuSans-65" transform="translate(86.279297 0)"/>
      <use xlink:href="#DejaVuSans-64" transform="translate(147.802734 0)"/>
      <use xlink:href="#DejaVuSans-53" transform="translate(211.279297 0)"/>
      <use xlink:href="#DejaVuSans-41" transform="translate(276.630859 0)"/>
      <use xlink:href="#DejaVuSans-4d" transform="translate(345.039062 0)"/>
      <use xlink:href="#DejaVuSans-32" transform="translate(431.318359 0)"/>
      <use xlink:href="#DejaVuSans-5f" transform="translate(494.941406 0)"/>
      <use xlink:href="#DejaVuSans-43" transform="translate(544.941406 0)"/>
      <use xlink:href="#DejaVuSans-54" transform="translate(614.765625 0)"/>
      <use xlink:href="#DejaVuSans-20" transform="translate(675.849609 0)"/>
      <use xlink:href="#DejaVuSans-28" transform="translate(707.636719 0)"/>
      <use xlink:href="#DejaVuSans-42" transform="translate(746.650391 0)"/>
      <use xlink:href="#DejaVuSans-4f" transform="translate(813.503906 0)"/>
      <use xlink:href="#DejaVuSans-42" transform="translate(892.214844 0)"/>
      <use xlink:href="#DejaVuSans-20" transform="translate(960.818359 0)"/>
      <use xlink:href="#DejaVuSans-44" transform="translate(992.605469 0)"/>
      <use xlink:href="#DejaVuSans-2d" transform="translate(1069.607422 0)"/>
      <use xlink:href="#DejaVuSans-46" transform="translate(1105.691406 0)"/>
      <use xlink:href="#DejaVuSans-49" transform="translate(1163.210938 0)"/>
      <use xlink:href="#DejaVuSans-4e" transform="translate(1192.703125 0)"/>
      <use xlink:href="#DejaVuSans-45" transform="translate(1267.507812 0)"/>
      <use xlink:href="#DejaVuSans-2d" transform="translate(1330.691406 0)"/>
      <use xlink:href="#DejaVuSans-4e" transform="translate(1366.775391 0)"/>
      <use xlink:href="#DejaVuSans-29" transform="translate(1441.580078 0)"/>
     </g>
    </g>
    <g id="patch_95">
     <path d="M 62.84 304.276875 
L 86.84 304.276875 
L 86.84 295.876875 
L 62.84 295.876875 
z
" style="fill: #145f14"/>
    </g>
    <g id="text_25">
     <!-- SAM-Med3D (point) -->
     <g transform="translate(96.44 304.276875) scale(0.12 -0.12)">
      <defs>
       <path id="DejaVuSans-33" d="M 2597 2516 
Q 3050 2419 3304 2112 
Q 3559 1806 3559 1356 
Q 3559 666 3084 287 
Q 2609 -91 1734 -91 
Q 1441 -91 1130 -33 
Q 819 25 488 141 
L 488 750 
Q 750 597 1062 519 
Q 1375 441 1716 441 
Q 2309 441 2620 675 
Q 2931 909 2931 1356 
Q 2931 1769 2642 2001 
Q 2353 2234 1838 2234 
L 1294 2234 
L 1294 2753 
L 1863 2753 
Q 2328 2753 2575 2939 
Q 2822 3125 2822 3475 
Q 2822 3834 2567 4026 
Q 2313 4219 1838 4219 
Q 1578 4219 1281 4162 
Q 984 4106 628 3988 
L 628 4550 
Q 988 4650 1302 4700 
Q 1616 4750 1894 4750 
Q 2613 4750 3031 4423 
Q 3450 4097 3450 3541 
Q 3450 3153 3228 2886 
Q 3006 2619 2597 2516 
z
" transform="scale(0.015625)"/>
      </defs>
      <use xlink:href="#DejaVuSans-53"/>
      <use xlink:href="#DejaVuSans-41" transform="translate(65.351562 0)"/>
      <use xlink:href="#DejaVuSans-4d" transform="translate(133.759766 0)"/>
      <use xlink:href="#DejaVuSans-2d" transform="translate(220.039062 0)"/>
      <use xlink:href="#DejaVuSans-4d" transform="translate(256.123047 0)"/>
      <use xlink:href="#DejaVuSans-65" transform="translate(342.402344 0)"/>
      <use xlink:href="#DejaVuSans-64" transform="translate(403.925781 0)"/>
      <use xlink:href="#DejaVuSans-33" transform="translate(467.402344 0)"/>
      <use xlink:href="#DejaVuSans-44" transform="translate(531.025391 0)"/>
      <use xlink:href="#DejaVuSans-20" transform="translate(608.027344 0)"/>
      <use xlink:href="#DejaVuSans-28" transform="translate(639.814453 0)"/>
      <use xlink:href="#DejaVuSans-70" transform="translate(678.828125 0)"/>
      <use xlink:href="#DejaVuSans-6f" transform="translate(742.304688 0)"/>
      <use xlink:href="#DejaVuSans-69" transform="translate(803.486328 0)"/>
      <use xlink:href="#DejaVuSans-6e" transform="translate(831.269531 0)"/>
      <use xlink:href="#DejaVuSans-74" transform="translate(894.648438 0)"/>
      <use xlink:href="#DejaVuSans-29" transform="translate(933.857422 0)"/>
     </g>
    </g>
    <g id="patch_96">
     <path d="M 62.84 321.890625 
L 86.84 321.890625 
L 86.84 313.490625 
L 62.84 313.490625 
z
" style="fill: #a02424"/>
    </g>
    <g id="text_26">
     <!-- VISTA3D (point) -->
     <g transform="translate(96.44 321.890625) scale(0.12 -0.12)">
      <use xlink:href="#DejaVuSans-56"/>
      <use xlink:href="#DejaVuSans-49" transform="translate(68.408203 0)"/>
      <use xlink:href="#DejaVuSans-53" transform="translate(97.900391 0)"/>
      <use xlink:href="#DejaVuSans-54" transform="translate(161.376953 0)"/>
      <use xlink:href="#DejaVuSans-41" transform="translate(214.710938 0)"/>
      <use xlink:href="#DejaVuSans-33" transform="translate(283.119141 0)"/>
      <use xlink:href="#DejaVuSans-44" transform="translate(346.742188 0)"/>
      <use xlink:href="#DejaVuSans-20" transform="translate(423.744141 0)"/>
      <use xlink:href="#DejaVuSans-28" transform="translate(455.53125 0)"/>
      <use xlink:href="#DejaVuSans-70" transform="translate(494.544922 0)"/>
      <use xlink:href="#DejaVuSans-6f" transform="translate(558.021484 0)"/>
      <use xlink:href="#DejaVuSans-69" transform="translate(619.203125 0)"/>
      <use xlink:href="#DejaVuSans-6e" transform="translate(646.986328 0)"/>
      <use xlink:href="#DejaVuSans-74" transform="translate(710.365234 0)"/>
      <use xlink:href="#DejaVuSans-29" transform="translate(749.574219 0)"/>
     </g>
    </g>
    <g id="patch_97">
     <path d="M 62.84 339.504375 
L 86.84 339.504375 
L 86.84 331.104375 
L 62.84 331.104375 
z
" style="fill: #d06262"/>
    </g>
    <g id="text_27">
     <!-- VISTA3D (label) -->
     <g transform="translate(96.44 339.504375) scale(0.12 -0.12)">
      <use xlink:href="#DejaVuSans-56"/>
      <use xlink:href="#DejaVuSans-49" transform="translate(68.408203 0)"/>
      <use xlink:href="#DejaVuSans-53" transform="translate(97.900391 0)"/>
      <use xlink:href="#DejaVuSans-54" transform="translate(161.376953 0)"/>
      <use xlink:href="#DejaVuSans-41" transform="translate(214.710938 0)"/>
      <use xlink:href="#DejaVuSans-33" transform="translate(283.119141 0)"/>
      <use xlink:href="#DejaVuSans-44" transform="translate(346.742188 0)"/>
      <use xlink:href="#DejaVuSans-20" transform="translate(423.744141 0)"/>
      <use xlink:href="#DejaVuSans-28" transform="translate(455.53125 0)"/>
      <use xlink:href="#DejaVuSans-6c" transform="translate(494.544922 0)"/>
      <use xlink:href="#DejaVuSans-61" transform="translate(522.328125 0)"/>
      <use xlink:href="#DejaVuSans-62" transform="translate(583.607422 0)"/>
      <use xlink:href="#DejaVuSans-65" transform="translate(647.083984 0)"/>
      <use xlink:href="#DejaVuSans-6c" transform="translate(708.607422 0)"/>
      <use xlink:href="#DejaVuSans-29" transform="translate(736.390625 0)"/>
     </g>
    </g>
   </g>
  </g>
 </g>
 <defs>
  <clipPath id="pe915615272">
   <rect x="52.04" y="10.8" width="1089.16" height="342"/>
  </clipPath>
 </defs>
</svg>
