<?xml version="1.0" encoding="utf-8" standalone="no"?>
<!DOCTYPE svg PUBLIC "-//W3C//DTD SVG 1.1//EN"
  "http://www.w3.org/Graphics/SVG/1.1/DTD/svg11.dtd">
<svg xmlns:xlink="http://www.w3.org/1999/xlink" width="1152pt" height="576pt" viewBox="0 0 1152 576" xmlns="http://www.w3.org/2000/svg" version="1.1">
 <metadata>
  <rdf:RDF xmlns:dc="http://purl.org/dc/elements/1.1/" xmlns:cc="http://creativecommons.org/ns#" xmlns:rdf="http://www.w3.org/1999/02/22-rdf-syntax-ns#">
   <cc:Work>
    <dc:type rdf:resource="http://purl.org/dc/dcmitype/StillImage"/>
    <dc:date>2025-09-09T19:47:42.218367</dc:date>
    <dc:format>image/svg+xml</dc:format>
    <dc:creator>
     <cc:Agent>
      <dc:title>Matplotlib v3.10.3, https://matplotlib.org/</dc:title>
     </cc:Agent>
    </dc:creator>
   </cc:Work>
  </rdf:RDF>
 </metadata>
 <defs>
  <style type="text/css">*{stroke-linejoin: round; stroke-linecap: butt}</style>
 </defs>
 <g id="figure_1">
  <g id="patch_1">
   <path d="M 0 576 
L 1152 576 
L 1152 0 
L 0 0 
z
" style="fill: #ffffff"/>
  </g>
  <g id="axes_1">
   <g id="patch_2">
    <path d="M 51.32 345.6 
L 1141.2 345.6 
L 1141.2 10.8 
L 51.32 10.8 
z
" style="fill: #ffffff"/>
   </g>
   <g id="patch_3">
    <path d="M 66.889714 345.6 
L 84.683673 345.6 
L 84.683673 208.72081 
L 66.889714 208.72081 
z
" clip-path="url(#pa28b0f0793)" style="fill: #a28c2b"/>
   </g>
   <g id="patch_4">
    <path d="M 222.586857 345.6 
L 240.380816 345.6 
L 240.380816 106.441962 
L 222.586857 106.441962 
z
" clip-path="url(#pa28b0f0793)" style="fill: #a28c2b"/>
   </g>
   <g id="patch_5">
    <path d="M 378.284 345.6 
L 396.077959 345.6 
L 396.077959 171.998039 
L 378.284 171.998039 
z
" clip-path="url(#pa28b0f0793)" style="fill: #a28c2b"/>
   </g>
   <g id="patch_6">
    <path d="M 533.981143 345.6 
L 551.775102 345.6 
L 551.775102 194.865563 
L 533.981143 194.865563 
z
" clip-path="url(#pa28b0f0793)" style="fill: #a28c2b"/>
   </g>
   <g id="patch_7">
    <path d="M 689.678286 345.6 
L 707.472245 345.6 
L 707.472245 157.613635 
L 689.678286 157.613635 
z
" clip-path="url(#pa28b0f0793)" style="fill: #a28c2b"/>
   </g>
   <g id="patch_8">
    <path d="M 845.375429 345.6 
L 863.169388 345.6 
L 863.169388 332.474367 
L 845.375429 332.474367 
z
" clip-path="url(#pa28b0f0793)" style="fill: #a28c2b"/>
   </g>
   <g id="patch_9">
    <path d="M 1001.072571 345.6 
L 1018.866531 345.6 
L 1018.866531 273.782013 
L 1001.072571 273.782013 
z
" clip-path="url(#pa28b0f0793)" style="fill: #a28c2b"/>
   </g>
   <g id="patch_10">
    <path d="M 84.683673 345.6 
L 102.477633 345.6 
L 102.477633 28.767331 
L 84.683673 28.767331 
z
" clip-path="url(#pa28b0f0793)" style="fill: #a92e37"/>
   </g>
   <g id="patch_11">
    <path d="M 240.380816 345.6 
L 258.174776 345.6 
L 258.174776 64.920418 
L 240.380816 64.920418 
z
" clip-path="url(#pa28b0f0793)" style="fill: #a92e37"/>
   </g>
   <g id="patch_12">
    <path d="M 396.077959 345.6 
L 413.871918 345.6 
L 413.871918 77.455562 
L 396.077959 77.455562 
z
" clip-path="url(#pa28b0f0793)" style="fill: #a92e37"/>
   </g>
   <g id="patch_13">
    <path d="M 551.775102 345.6 
L 569.569061 345.6 
L 569.569061 102.457993 
L 551.775102 102.457993 
z
" clip-path="url(#pa28b0f0793)" style="fill: #a92e37"/>
   </g>
   <g id="patch_14">
    <path d="M 707.472245 345.6 
L 725.266204 345.6 
L 725.266204 130.571506 
L 707.472245 130.571506 
z
" clip-path="url(#pa28b0f0793)" style="fill: #a92e37"/>
   </g>
   <g id="patch_15">
    <path d="M 863.169388 345.6 
L 880.963347 345.6 
L 880.963347 333.327685 
L 863.169388 333.327685 
z
" clip-path="url(#pa28b0f0793)" style="fill: #a92e37"/>
   </g>
   <g id="patch_16">
    <path d="M 1018.866531 345.6 
L 1036.66049 345.6 
L 1036.66049 127.894665 
L 1018.866531 127.894665 
z
" clip-path="url(#pa28b0f0793)" style="fill: #a92e37"/>
   </g>
   <g id="patch_17">
    <path d="M 102.477633 345.6 
L 120.271592 345.6 
L 120.271592 30.339015 
L 102.477633 30.339015 
z
" clip-path="url(#pa28b0f0793)" style="fill: #c65454"/>
   </g>
   <g id="patch_18">
    <path d="M 258.174776 345.6 
L 275.968735 345.6 
L 275.968735 63.474508 
L 258.174776 63.474508 
z
" clip-path="url(#pa28b0f0793)" style="fill: #c65454"/>
   </g>
   <g id="patch_19">
    <path d="M 413.871918 345.6 
L 431.665878 345.6 
L 431.665878 130.318581 
L 413.871918 130.318581 
z
" clip-path="url(#pa28b0f0793)" style="fill: #c65454"/>
   </g>
   <g id="patch_20">
    <path d="M 569.569061 345.6 
L 587.36302 345.6 
L 587.36302 111.255502 
L 569.569061 111.255502 
z
" clip-path="url(#pa28b0f0793)" style="fill: #c65454"/>
   </g>
   <g id="patch_21">
    <path d="M 120.271592 345.6 
L 138.065551 345.6 
L 138.065551 37.970577 
L 120.271592 37.970577 
z
" clip-path="url(#pa28b0f0793)" style="fill: #4a4a84"/>
   </g>
   <g id="patch_22">
    <path d="M 275.968735 345.6 
L 293.762694 345.6 
L 293.762694 111.781796 
L 275.968735 111.781796 
z
" clip-path="url(#pa28b0f0793)" style="fill: #4a4a84"/>
   </g>
   <g id="patch_23">
    <path d="M 431.665878 345.6 
L 449.459837 345.6 
L 449.459837 269.493339 
L 431.665878 269.493339 
z
" clip-path="url(#pa28b0f0793)" style="fill: #4a4a84"/>
   </g>
   <g id="patch_24">
    <path d="M 587.36302 345.6 
L 605.15698 345.6 
L 605.15698 113.805569 
L 587.36302 113.805569 
z
" clip-path="url(#pa28b0f0793)" style="fill: #4a4a84"/>
   </g>
   <g id="patch_25">
    <path d="M 743.060163 345.6 
L 760.854122 345.6 
L 760.854122 304.084756 
L 743.060163 304.084756 
z
" clip-path="url(#pa28b0f0793)" style="fill: #4a4a84"/>
   </g>
   <g id="patch_26">
    <path d="M 898.757306 345.6 
L 916.551265 345.6 
L 916.551265 337.723543 
L 898.757306 337.723543 
z
" clip-path="url(#pa28b0f0793)" style="fill: #4a4a84"/>
   </g>
   <g id="patch_27">
    <path d="M 1054.454449 345.6 
L 1072.248408 345.6 
L 1072.248408 173.231488 
L 1054.454449 173.231488 
z
" clip-path="url(#pa28b0f0793)" style="fill: #4a4a84"/>
   </g>
   <g id="patch_28">
    <path d="M 138.065551 345.6 
L 155.85951 345.6 
L 155.85951 50.662857 
L 138.065551 50.662857 
z
" clip-path="url(#pa28b0f0793)" style="fill: #16681e"/>
   </g>
   <g id="patch_29">
    <path d="M 605.15698 345.6 
L 622.950939 345.6 
L 622.950939 267.278314 
L 605.15698 267.278314 
z
" clip-path="url(#pa28b0f0793)" style="fill: #16681e"/>
   </g>
   <g id="patch_30">
    <path d="M 760.854122 345.6 
L 778.648082 345.6 
L 778.648082 309.245422 
L 760.854122 309.245422 
z
" clip-path="url(#pa28b0f0793)" style="fill: #16681e"/>
   </g>
   <g id="patch_31">
    <path d="M 916.551265 345.6 
L 934.345224 345.6 
L 934.345224 251.396157 
L 916.551265 251.396157 
z
" clip-path="url(#pa28b0f0793)" style="fill: #16681e"/>
   </g>
   <g id="patch_32">
    <path d="M 1072.248408 345.6 
L 1090.042367 345.6 
L 1090.042367 239.830749 
L 1072.248408 239.830749 
z
" clip-path="url(#pa28b0f0793)" style="fill: #16681e"/>
   </g>
   <g id="patch_33">
    <path d="M 155.85951 345.6 
L 173.653469 345.6 
L 173.653469 29.822089 
L 155.85951 29.822089 
z
" clip-path="url(#pa28b0f0793)" style="fill: #52a25a"/>
   </g>
   <g id="patch_34">
    <path d="M 934.345224 345.6 
L 952.139184 345.6 
L 952.139184 193.383656 
L 934.345224 193.383656 
z
" clip-path="url(#pa28b0f0793)" style="fill: #52a25a"/>
   </g>
   <g id="patch_35">
    <path d="M 1090.042367 345.6 
L 1107.836327 345.6 
L 1107.836327 114.002884 
L 1090.042367 114.002884 
z
" clip-path="url(#pa28b0f0793)" style="fill: #52a25a"/>
   </g>
   <g id="patch_36">
    <path d="M 173.653469 345.6 
L 191.447429 345.6 
L 191.447429 164.787645 
L 173.653469 164.787645 
z
" clip-path="url(#pa28b0f0793)" style="fill: #85e28e"/>
   </g>
   <g id="patch_37">
    <path d="M 640.744898 345.6 
L 658.538857 345.6 
L 658.538857 290.774587 
L 640.744898 290.774587 
z
" clip-path="url(#pa28b0f0793)" style="fill: #85e28e"/>
   </g>
   <g id="patch_38">
    <path d="M 796.442041 345.6 
L 814.236 345.6 
L 814.236 280.446293 
L 796.442041 280.446293 
z
" clip-path="url(#pa28b0f0793)" style="fill: #85e28e"/>
   </g>
   <g id="patch_39">
    <path d="M 952.139184 345.6 
L 969.933143 345.6 
L 969.933143 326.681434 
L 952.139184 326.681434 
z
" clip-path="url(#pa28b0f0793)" style="fill: #85e28e"/>
   </g>
   <g id="patch_40">
    <path d="M 1107.836327 345.6 
L 1125.630286 345.6 
L 1125.630286 181.625751 
L 1107.836327 181.625751 
z
" clip-path="url(#pa28b0f0793)" style="fill: #85e28e"/>
   </g>
   <g id="patch_41">
    <path d="M 129.168571 345.6 
L 129.168571 345.6 
L 129.168571 345.6 
L 129.168571 345.6 
z
" clip-path="url(#pa28b0f0793)" style="fill: #a28c2b"/>
   </g>
   <g id="patch_42">
    <path d="M 129.168571 345.6 
L 129.168571 345.6 
L 129.168571 345.6 
L 129.168571 345.6 
z
" clip-path="url(#pa28b0f0793)" style="fill: #a92e37"/>
   </g>
   <g id="patch_43">
    <path d="M 129.168571 345.6 
L 129.168571 345.6 
L 129.168571 345.6 
L 129.168571 345.6 
z
" clip-path="url(#pa28b0f0793)" style="fill: #c65454"/>
   </g>
   <g id="patch_44">
    <path d="M 129.168571 345.6 
L 129.168571 345.6 
L 129.168571 345.6 
L 129.168571 345.6 
z
" clip-path="url(#pa28b0f0793)" style="fill: #4a4a84"/>
   </g>
   <g id="patch_45">
    <path d="M 129.168571 345.6 
L 129.168571 345.6 
L 129.168571 345.6 
L 129.168571 345.6 
z
" clip-path="url(#pa28b0f0793)" style="fill: #16681e"/>
   </g>
   <g id="patch_46">
    <path d="M 129.168571 345.6 
L 129.168571 345.6 
L 129.168571 345.6 
L 129.168571 345.6 
z
" clip-path="url(#pa28b0f0793)" style="fill: #52a25a"/>
   </g>
   <g id="patch_47">
    <path d="M 129.168571 345.6 
L 129.168571 345.6 
L 129.168571 345.6 
L 129.168571 345.6 
z
" clip-path="url(#pa28b0f0793)" style="fill: #85e28e"/>
   </g>
   <g id="matplotlib.axis_1">
    <g id="xtick_1">
     <g id="line2d_1">
      <defs>
       <path id="m1d3aaa7b9b" d="M 0 0 
L 0 3.5 
" style="stroke: #000000; stroke-width: 0.8"/>
      </defs>
      <g>
       <use xlink:href="#m1d3aaa7b9b" x="129.168571" y="345.6" style="stroke: #000000; stroke-width: 0.8"/>
      </g>
     </g>
     <g id="text_1">
      <!-- Spleen -->
      <g transform="translate(98.461696 366.277187) scale(0.18 -0.18)">
       <defs>
        <path id="DejaVuSans-53" d="M 3425 4513 
L 3425 3897 
Q 3066 4069 2747 4153 
Q 2428 4238 2131 4238 
Q 1616 4238 1336 4038 
Q 1056 3838 1056 3469 
Q 1056 3159 1242 3001 
Q 1428 2844 1947 2747 
L 2328 2669 
Q 3034 2534 3370 2195 
Q 3706 1856 3706 1288 
Q 3706 609 3251 259 
Q 2797 -91 1919 -91 
Q 1588 -91 1214 -16 
Q 841 59 441 206 
L 441 856 
Q 825 641 1194 531 
Q 1563 422 1919 422 
Q 2459 422 2753 634 
Q 3047 847 3047 1241 
Q 3047 1584 2836 1778 
Q 2625 1972 2144 2069 
L 1759 2144 
Q 1053 2284 737 2584 
Q 422 2884 422 3419 
Q 422 4038 858 4394 
Q 1294 4750 2059 4750 
Q 2388 4750 2728 4690 
Q 3069 4631 3425 4513 
z
" transform="scale(0.015625)"/>
        <path id="DejaVuSans-70" d="M 1159 525 
L 1159 -1331 
L 581 -1331 
L 581 3500 
L 1159 3500 
L 1159 2969 
Q 1341 3281 1617 3432 
Q 1894 3584 2278 3584 
Q 2916 3584 3314 3078 
Q 3713 2572 3713 1747 
Q 3713 922 3314 415 
Q 2916 -91 2278 -91 
Q 1894 -91 1617 61 
Q 1341 213 1159 525 
z
M 3116 1747 
Q 3116 2381 2855 2742 
Q 2594 3103 2138 3103 
Q 1681 3103 1420 2742 
Q 1159 2381 1159 1747 
Q 1159 1113 1420 752 
Q 1681 391 2138 391 
Q 2594 391 2855 752 
Q 3116 1113 3116 1747 
z
" transform="scale(0.015625)"/>
        <path id="DejaVuSans-6c" d="M 603 4863 
L 1178 4863 
L 1178 0 
L 603 0 
L 603 4863 
z
" transform="scale(0.015625)"/>
        <path id="DejaVuSans-65" d="M 3597 1894 
L 3597 1613 
L 953 1613 
Q 991 1019 1311 708 
Q 1631 397 2203 397 
Q 2534 397 2845 478 
Q 3156 559 3463 722 
L 3463 178 
Q 3153 47 2828 -22 
Q 2503 -91 2169 -91 
Q 1331 -91 842 396 
Q 353 884 353 1716 
Q 353 2575 817 3079 
Q 1281 3584 2069 3584 
Q 2775 3584 3186 3129 
Q 3597 2675 3597 1894 
z
M 3022 2063 
Q 3016 2534 2758 2815 
Q 2500 3097 2075 3097 
Q 1594 3097 1305 2825 
Q 1016 2553 972 2059 
L 3022 2063 
z
" transform="scale(0.015625)"/>
        <path id="DejaVuSans-6e" d="M 3513 2113 
L 3513 0 
L 2938 0 
L 2938 2094 
Q 2938 2591 2744 2837 
Q 2550 3084 2163 3084 
Q 1697 3084 1428 2787 
Q 1159 2491 1159 1978 
L 1159 0 
L 581 0 
L 581 3500 
L 1159 3500 
L 1159 2956 
Q 1366 3272 1645 3428 
Q 1925 3584 2291 3584 
Q 2894 3584 3203 3211 
Q 3513 2838 3513 2113 
z
" transform="scale(0.015625)"/>
       </defs>
       <use xlink:href="#DejaVuSans-53"/>
       <use xlink:href="#DejaVuSans-70" transform="translate(63.476562 0)"/>
       <use xlink:href="#DejaVuSans-6c" transform="translate(126.953125 0)"/>
       <use xlink:href="#DejaVuSans-65" transform="translate(154.736328 0)"/>
       <use xlink:href="#DejaVuSans-65" transform="translate(216.259766 0)"/>
       <use xlink:href="#DejaVuSans-6e" transform="translate(277.783203 0)"/>
      </g>
     </g>
    </g>
    <g id="xtick_2">
     <g id="line2d_2">
      <g>
       <use xlink:href="#m1d3aaa7b9b" x="284.865714" y="345.6" style="stroke: #000000; stroke-width: 0.8"/>
      </g>
     </g>
     <g id="text_2">
      <!-- Prostate -->
      <g transform="translate(247.794152 366.277187) scale(0.18 -0.18)">
       <defs>
        <path id="DejaVuSans-50" d="M 1259 4147 
L 1259 2394 
L 2053 2394 
Q 2494 2394 2734 2622 
Q 2975 2850 2975 3272 
Q 2975 3691 2734 3919 
Q 2494 4147 2053 4147 
L 1259 4147 
z
M 628 4666 
L 2053 4666 
Q 2838 4666 3239 4311 
Q 3641 3956 3641 3272 
Q 3641 2581 3239 2228 
Q 2838 1875 2053 1875 
L 1259 1875 
L 1259 0 
L 628 0 
L 628 4666 
z
" transform="scale(0.015625)"/>
        <path id="DejaVuSans-72" d="M 2631 2963 
Q 2534 3019 2420 3045 
Q 2306 3072 2169 3072 
Q 1681 3072 1420 2755 
Q 1159 2438 1159 1844 
L 1159 0 
L 581 0 
L 581 3500 
L 1159 3500 
L 1159 2956 
Q 1341 3275 1631 3429 
Q 1922 3584 2338 3584 
Q 2397 3584 2469 3576 
Q 2541 3569 2628 3553 
L 2631 2963 
z
" transform="scale(0.015625)"/>
        <path id="DejaVuSans-6f" d="M 1959 3097 
Q 1497 3097 1228 2736 
Q 959 2375 959 1747 
Q 959 1119 1226 758 
Q 1494 397 1959 397 
Q 2419 397 2687 759 
Q 2956 1122 2956 1747 
Q 2956 2369 2687 2733 
Q 2419 3097 1959 3097 
z
M 1959 3584 
Q 2709 3584 3137 3096 
Q 3566 2609 3566 1747 
Q 3566 888 3137 398 
Q 2709 -91 1959 -91 
Q 1206 -91 779 398 
Q 353 888 353 1747 
Q 353 2609 779 3096 
Q 1206 3584 1959 3584 
z
" transform="scale(0.015625)"/>
        <path id="DejaVuSans-73" d="M 2834 3397 
L 2834 2853 
Q 2591 2978 2328 3040 
Q 2066 3103 1784 3103 
Q 1356 3103 1142 2972 
Q 928 2841 928 2578 
Q 928 2378 1081 2264 
Q 1234 2150 1697 2047 
L 1894 2003 
Q 2506 1872 2764 1633 
Q 3022 1394 3022 966 
Q 3022 478 2636 193 
Q 2250 -91 1575 -91 
Q 1294 -91 989 -36 
Q 684 19 347 128 
L 347 722 
Q 666 556 975 473 
Q 1284 391 1588 391 
Q 1994 391 2212 530 
Q 2431 669 2431 922 
Q 2431 1156 2273 1281 
Q 2116 1406 1581 1522 
L 1381 1569 
Q 847 1681 609 1914 
Q 372 2147 372 2553 
Q 372 3047 722 3315 
Q 1072 3584 1716 3584 
Q 2034 3584 2315 3537 
Q 2597 3491 2834 3397 
z
" transform="scale(0.015625)"/>
        <path id="DejaVuSans-74" d="M 1172 4494 
L 1172 3500 
L 2356 3500 
L 2356 3053 
L 1172 3053 
L 1172 1153 
Q 1172 725 1289 603 
Q 1406 481 1766 481 
L 2356 481 
L 2356 0 
L 1766 0 
Q 1100 0 847 248 
Q 594 497 594 1153 
L 594 3053 
L 172 3053 
L 172 3500 
L 594 3500 
L 594 4494 
L 1172 4494 
z
" transform="scale(0.015625)"/>
        <path id="DejaVuSans-61" d="M 2194 1759 
Q 1497 1759 1228 1600 
Q 959 1441 959 1056 
Q 959 750 1161 570 
Q 1363 391 1709 391 
Q 2188 391 2477 730 
Q 2766 1069 2766 1631 
L 2766 1759 
L 2194 1759 
z
M 3341 1997 
L 3341 0 
L 2766 0 
L 2766 531 
Q 2569 213 2275 61 
Q 1981 -91 1556 -91 
Q 1019 -91 701 211 
Q 384 513 384 1019 
Q 384 1609 779 1909 
Q 1175 2209 1959 2209 
L 2766 2209 
L 2766 2266 
Q 2766 2663 2505 2880 
Q 2244 3097 1772 3097 
Q 1472 3097 1187 3025 
Q 903 2953 641 2809 
L 641 3341 
Q 956 3463 1253 3523 
Q 1550 3584 1831 3584 
Q 2591 3584 2966 3190 
Q 3341 2797 3341 1997 
z
" transform="scale(0.015625)"/>
       </defs>
       <use xlink:href="#DejaVuSans-50"/>
       <use xlink:href="#DejaVuSans-72" transform="translate(58.552734 0)"/>
       <use xlink:href="#DejaVuSans-6f" transform="translate(97.416016 0)"/>
       <use xlink:href="#DejaVuSans-73" transform="translate(158.597656 0)"/>
       <use xlink:href="#DejaVuSans-74" transform="translate(210.697266 0)"/>
       <use xlink:href="#DejaVuSans-61" transform="translate(249.90625 0)"/>
       <use xlink:href="#DejaVuSans-74" transform="translate(311.185547 0)"/>
       <use xlink:href="#DejaVuSans-65" transform="translate(350.394531 0)"/>
      </g>
     </g>
    </g>
    <g id="xtick_3">
     <g id="line2d_3">
      <g>
       <use xlink:href="#m1d3aaa7b9b" x="440.562857" y="345.6" style="stroke: #000000; stroke-width: 0.8"/>
      </g>
     </g>
     <g id="text_3">
      <!-- Glioma -->
      <g transform="translate(408.799888 366.277187) scale(0.18 -0.18)">
       <defs>
        <path id="DejaVuSans-47" d="M 3809 666 
L 3809 1919 
L 2778 1919 
L 2778 2438 
L 4434 2438 
L 4434 434 
Q 4069 175 3628 42 
Q 3188 -91 2688 -91 
Q 1594 -91 976 548 
Q 359 1188 359 2328 
Q 359 3472 976 4111 
Q 1594 4750 2688 4750 
Q 3144 4750 3555 4637 
Q 3966 4525 4313 4306 
L 4313 3634 
Q 3963 3931 3569 4081 
Q 3175 4231 2741 4231 
Q 1884 4231 1454 3753 
Q 1025 3275 1025 2328 
Q 1025 1384 1454 906 
Q 1884 428 2741 428 
Q 3075 428 3337 486 
Q 3600 544 3809 666 
z
" transform="scale(0.015625)"/>
        <path id="DejaVuSans-69" d="M 603 3500 
L 1178 3500 
L 1178 0 
L 603 0 
L 603 3500 
z
M 603 4863 
L 1178 4863 
L 1178 4134 
L 603 4134 
L 603 4863 
z
" transform="scale(0.015625)"/>
        <path id="DejaVuSans-6d" d="M 3328 2828 
Q 3544 3216 3844 3400 
Q 4144 3584 4550 3584 
Q 5097 3584 5394 3201 
Q 5691 2819 5691 2113 
L 5691 0 
L 5113 0 
L 5113 2094 
Q 5113 2597 4934 2840 
Q 4756 3084 4391 3084 
Q 3944 3084 3684 2787 
Q 3425 2491 3425 1978 
L 3425 0 
L 2847 0 
L 2847 2094 
Q 2847 2600 2669 2842 
Q 2491 3084 2119 3084 
Q 1678 3084 1418 2786 
Q 1159 2488 1159 1978 
L 1159 0 
L 581 0 
L 581 3500 
L 1159 3500 
L 1159 2956 
Q 1356 3278 1631 3431 
Q 1906 3584 2284 3584 
Q 2666 3584 2933 3390 
Q 3200 3197 3328 2828 
z
" transform="scale(0.015625)"/>
       </defs>
       <use xlink:href="#DejaVuSans-47"/>
       <use xlink:href="#DejaVuSans-6c" transform="translate(77.490234 0)"/>
       <use xlink:href="#DejaVuSans-69" transform="translate(105.273438 0)"/>
       <use xlink:href="#DejaVuSans-6f" transform="translate(133.056641 0)"/>
       <use xlink:href="#DejaVuSans-6d" transform="translate(194.238281 0)"/>
       <use xlink:href="#DejaVuSans-61" transform="translate(291.650391 0)"/>
      </g>
     </g>
    </g>
    <g id="xtick_4">
     <g id="line2d_4">
      <g>
       <use xlink:href="#m1d3aaa7b9b" x="596.26" y="345.6" style="stroke: #000000; stroke-width: 0.8"/>
      </g>
     </g>
     <g id="text_4">
      <!-- Heart -->
      <g transform="translate(571.210469 366.277187) scale(0.18 -0.18)">
       <defs>
        <path id="DejaVuSans-48" d="M 628 4666 
L 1259 4666 
L 1259 2753 
L 3553 2753 
L 3553 4666 
L 4184 4666 
L 4184 0 
L 3553 0 
L 3553 2222 
L 1259 2222 
L 1259 0 
L 628 0 
L 628 4666 
z
" transform="scale(0.015625)"/>
       </defs>
       <use xlink:href="#DejaVuSans-48"/>
       <use xlink:href="#DejaVuSans-65" transform="translate(75.195312 0)"/>
       <use xlink:href="#DejaVuSans-61" transform="translate(136.71875 0)"/>
       <use xlink:href="#DejaVuSans-72" transform="translate(197.998047 0)"/>
       <use xlink:href="#DejaVuSans-74" transform="translate(239.111328 0)"/>
      </g>
     </g>
    </g>
    <g id="xtick_5">
     <g id="line2d_5">
      <g>
       <use xlink:href="#m1d3aaa7b9b" x="751.957143" y="345.6" style="stroke: #000000; stroke-width: 0.8"/>
      </g>
     </g>
     <g id="text_5">
      <!-- Hippocampus -->
      <g transform="translate(690.418237 366.277187) scale(0.18 -0.18)">
       <defs>
        <path id="DejaVuSans-63" d="M 3122 3366 
L 3122 2828 
Q 2878 2963 2633 3030 
Q 2388 3097 2138 3097 
Q 1578 3097 1268 2742 
Q 959 2388 959 1747 
Q 959 1106 1268 751 
Q 1578 397 2138 397 
Q 2388 397 2633 464 
Q 2878 531 3122 666 
L 3122 134 
Q 2881 22 2623 -34 
Q 2366 -91 2075 -91 
Q 1284 -91 818 406 
Q 353 903 353 1747 
Q 353 2603 823 3093 
Q 1294 3584 2113 3584 
Q 2378 3584 2631 3529 
Q 2884 3475 3122 3366 
z
" transform="scale(0.015625)"/>
        <path id="DejaVuSans-75" d="M 544 1381 
L 544 3500 
L 1119 3500 
L 1119 1403 
Q 1119 906 1312 657 
Q 1506 409 1894 409 
Q 2359 409 2629 706 
Q 2900 1003 2900 1516 
L 2900 3500 
L 3475 3500 
L 3475 0 
L 2900 0 
L 2900 538 
Q 2691 219 2414 64 
Q 2138 -91 1772 -91 
Q 1169 -91 856 284 
Q 544 659 544 1381 
z
M 1991 3584 
L 1991 3584 
z
" transform="scale(0.015625)"/>
       </defs>
       <use xlink:href="#DejaVuSans-48"/>
       <use xlink:href="#DejaVuSans-69" transform="translate(75.195312 0)"/>
       <use xlink:href="#DejaVuSans-70" transform="translate(102.978516 0)"/>
       <use xlink:href="#DejaVuSans-70" transform="translate(166.455078 0)"/>
       <use xlink:href="#DejaVuSans-6f" transform="translate(229.931641 0)"/>
       <use xlink:href="#DejaVuSans-63" transform="translate(291.113281 0)"/>
       <use xlink:href="#DejaVuSans-61" transform="translate(346.09375 0)"/>
       <use xlink:href="#DejaVuSans-6d" transform="translate(407.373047 0)"/>
       <use xlink:href="#DejaVuSans-70" transform="translate(504.785156 0)"/>
       <use xlink:href="#DejaVuSans-75" transform="translate(568.261719 0)"/>
       <use xlink:href="#DejaVuSans-73" transform="translate(631.640625 0)"/>
      </g>
     </g>
    </g>
    <g id="xtick_6">
     <g id="line2d_6">
      <g>
       <use xlink:href="#m1d3aaa7b9b" x="907.654286" y="345.6" style="stroke: #000000; stroke-width: 0.8"/>
      </g>
     </g>
     <g id="text_6">
      <!-- HepaticVessel -->
      <g transform="translate(844.730223 366.277187) scale(0.18 -0.18)">
       <defs>
        <path id="DejaVuSans-56" d="M 1831 0 
L 50 4666 
L 709 4666 
L 2188 738 
L 3669 4666 
L 4325 4666 
L 2547 0 
L 1831 0 
z
" transform="scale(0.015625)"/>
       </defs>
       <use xlink:href="#DejaVuSans-48"/>
       <use xlink:href="#DejaVuSans-65" transform="translate(75.195312 0)"/>
       <use xlink:href="#DejaVuSans-70" transform="translate(136.71875 0)"/>
       <use xlink:href="#DejaVuSans-61" transform="translate(200.195312 0)"/>
       <use xlink:href="#DejaVuSans-74" transform="translate(261.474609 0)"/>
       <use xlink:href="#DejaVuSans-69" transform="translate(300.683594 0)"/>
       <use xlink:href="#DejaVuSans-63" transform="translate(328.466797 0)"/>
       <use xlink:href="#DejaVuSans-56" transform="translate(383.447266 0)"/>
       <use xlink:href="#DejaVuSans-65" transform="translate(444.105469 0)"/>
       <use xlink:href="#DejaVuSans-73" transform="translate(505.628906 0)"/>
       <use xlink:href="#DejaVuSans-73" transform="translate(557.728516 0)"/>
       <use xlink:href="#DejaVuSans-65" transform="translate(609.828125 0)"/>
       <use xlink:href="#DejaVuSans-6c" transform="translate(671.351562 0)"/>
      </g>
     </g>
    </g>
    <g id="xtick_7">
     <g id="line2d_7">
      <g>
       <use xlink:href="#m1d3aaa7b9b" x="1063.351429" y="345.6" style="stroke: #000000; stroke-width: 0.8"/>
      </g>
     </g>
     <g id="text_7">
      <!-- HepaticTumor -->
      <g transform="translate(1001.026429 366.277187) scale(0.18 -0.18)">
       <defs>
        <path id="DejaVuSans-54" d="M -19 4666 
L 3928 4666 
L 3928 4134 
L 2272 4134 
L 2272 0 
L 1638 0 
L 1638 4134 
L -19 4134 
L -19 4666 
z
" transform="scale(0.015625)"/>
       </defs>
       <use xlink:href="#DejaVuSans-48"/>
       <use xlink:href="#DejaVuSans-65" transform="translate(75.195312 0)"/>
       <use xlink:href="#DejaVuSans-70" transform="translate(136.71875 0)"/>
       <use xlink:href="#DejaVuSans-61" transform="translate(200.195312 0)"/>
       <use xlink:href="#DejaVuSans-74" transform="translate(261.474609 0)"/>
       <use xlink:href="#DejaVuSans-69" transform="translate(300.683594 0)"/>
       <use xlink:href="#DejaVuSans-63" transform="translate(328.466797 0)"/>
       <use xlink:href="#DejaVuSans-54" transform="translate(383.447266 0)"/>
       <use xlink:href="#DejaVuSans-75" transform="translate(429.40625 0)"/>
       <use xlink:href="#DejaVuSans-6d" transform="translate(492.785156 0)"/>
       <use xlink:href="#DejaVuSans-6f" transform="translate(590.197266 0)"/>
       <use xlink:href="#DejaVuSans-72" transform="translate(651.378906 0)"/>
      </g>
     </g>
    </g>
   </g>
   <g id="matplotlib.axis_2">
    <g id="ytick_1">
     <g id="line2d_8">
      <defs>
       <path id="m9e4ef6f6a3" d="M 0 0 
L -3.5 0 
" style="stroke: #000000; stroke-width: 0.8"/>
      </defs>
      <g>
       <use xlink:href="#m9e4ef6f6a3" x="51.32" y="345.6" style="stroke: #000000; stroke-width: 0.8"/>
      </g>
     </g>
     <g id="text_8">
      <!-- 0.0 -->
      <g transform="translate(28.416875 349.399219) scale(0.1 -0.1)">
       <defs>
        <path id="DejaVuSans-30" d="M 2034 4250 
Q 1547 4250 1301 3770 
Q 1056 3291 1056 2328 
Q 1056 1369 1301 889 
Q 1547 409 2034 409 
Q 2525 409 2770 889 
Q 3016 1369 3016 2328 
Q 3016 3291 2770 3770 
Q 2525 4250 2034 4250 
z
M 2034 4750 
Q 2819 4750 3233 4129 
Q 3647 3509 3647 2328 
Q 3647 1150 3233 529 
Q 2819 -91 2034 -91 
Q 1250 -91 836 529 
Q 422 1150 422 2328 
Q 422 3509 836 4129 
Q 1250 4750 2034 4750 
z
" transform="scale(0.015625)"/>
        <path id="DejaVuSans-2e" d="M 684 794 
L 1344 794 
L 1344 0 
L 684 0 
L 684 794 
z
" transform="scale(0.015625)"/>
       </defs>
       <use xlink:href="#DejaVuSans-30"/>
       <use xlink:href="#DejaVuSans-2e" transform="translate(63.623047 0)"/>
       <use xlink:href="#DejaVuSans-30" transform="translate(95.410156 0)"/>
      </g>
     </g>
    </g>
    <g id="ytick_2">
     <g id="line2d_9">
      <g>
       <use xlink:href="#m9e4ef6f6a3" x="51.32" y="276.858502" style="stroke: #000000; stroke-width: 0.8"/>
      </g>
     </g>
     <g id="text_9">
      <!-- 0.2 -->
      <g transform="translate(28.416875 280.657721) scale(0.1 -0.1)">
       <defs>
        <path id="DejaVuSans-32" d="M 1228 531 
L 3431 531 
L 3431 0 
L 469 0 
L 469 531 
Q 828 903 1448 1529 
Q 2069 2156 2228 2338 
Q 2531 2678 2651 2914 
Q 2772 3150 2772 3378 
Q 2772 3750 2511 3984 
Q 2250 4219 1831 4219 
Q 1534 4219 1204 4116 
Q 875 4013 500 3803 
L 500 4441 
Q 881 4594 1212 4672 
Q 1544 4750 1819 4750 
Q 2544 4750 2975 4387 
Q 3406 4025 3406 3419 
Q 3406 3131 3298 2873 
Q 3191 2616 2906 2266 
Q 2828 2175 2409 1742 
Q 1991 1309 1228 531 
z
" transform="scale(0.015625)"/>
       </defs>
       <use xlink:href="#DejaVuSans-30"/>
       <use xlink:href="#DejaVuSans-2e" transform="translate(63.623047 0)"/>
       <use xlink:href="#DejaVuSans-32" transform="translate(95.410156 0)"/>
      </g>
     </g>
    </g>
    <g id="ytick_3">
     <g id="line2d_10">
      <g>
       <use xlink:href="#m9e4ef6f6a3" x="51.32" y="208.117005" style="stroke: #000000; stroke-width: 0.8"/>
      </g>
     </g>
     <g id="text_10">
      <!-- 0.4 -->
      <g transform="translate(28.416875 211.916223) scale(0.1 -0.1)">
       <defs>
        <path id="DejaVuSans-34" d="M 2419 4116 
L 825 1625 
L 2419 1625 
L 2419 4116 
z
M 2253 4666 
L 3047 4666 
L 3047 1625 
L 3713 1625 
L 3713 1100 
L 3047 1100 
L 3047 0 
L 2419 0 
L 2419 1100 
L 313 1100 
L 313 1709 
L 2253 4666 
z
" transform="scale(0.015625)"/>
       </defs>
       <use xlink:href="#DejaVuSans-30"/>
       <use xlink:href="#DejaVuSans-2e" transform="translate(63.623047 0)"/>
       <use xlink:href="#DejaVuSans-34" transform="translate(95.410156 0)"/>
      </g>
     </g>
    </g>
    <g id="ytick_4">
     <g id="line2d_11">
      <g>
       <use xlink:href="#m9e4ef6f6a3" x="51.32" y="139.375507" style="stroke: #000000; stroke-width: 0.8"/>
      </g>
     </g>
     <g id="text_11">
      <!-- 0.6 -->
      <g transform="translate(28.416875 143.174726) scale(0.1 -0.1)">
       <defs>
        <path id="DejaVuSans-36" d="M 2113 2584 
Q 1688 2584 1439 2293 
Q 1191 2003 1191 1497 
Q 1191 994 1439 701 
Q 1688 409 2113 409 
Q 2538 409 2786 701 
Q 3034 994 3034 1497 
Q 3034 2003 2786 2293 
Q 2538 2584 2113 2584 
z
M 3366 4563 
L 3366 3988 
Q 3128 4100 2886 4159 
Q 2644 4219 2406 4219 
Q 1781 4219 1451 3797 
Q 1122 3375 1075 2522 
Q 1259 2794 1537 2939 
Q 1816 3084 2150 3084 
Q 2853 3084 3261 2657 
Q 3669 2231 3669 1497 
Q 3669 778 3244 343 
Q 2819 -91 2113 -91 
Q 1303 -91 875 529 
Q 447 1150 447 2328 
Q 447 3434 972 4092 
Q 1497 4750 2381 4750 
Q 2619 4750 2861 4703 
Q 3103 4656 3366 4563 
z
" transform="scale(0.015625)"/>
       </defs>
       <use xlink:href="#DejaVuSans-30"/>
       <use xlink:href="#DejaVuSans-2e" transform="translate(63.623047 0)"/>
       <use xlink:href="#DejaVuSans-36" transform="translate(95.410156 0)"/>
      </g>
     </g>
    </g>
    <g id="ytick_5">
     <g id="line2d_12">
      <g>
       <use xlink:href="#m9e4ef6f6a3" x="51.32" y="70.634009" style="stroke: #000000; stroke-width: 0.8"/>
      </g>
     </g>
     <g id="text_12">
      <!-- 0.8 -->
      <g transform="translate(28.416875 74.433228) scale(0.1 -0.1)">
       <defs>
        <path id="DejaVuSans-38" d="M 2034 2216 
Q 1584 2216 1326 1975 
Q 1069 1734 1069 1313 
Q 1069 891 1326 650 
Q 1584 409 2034 409 
Q 2484 409 2743 651 
Q 3003 894 3003 1313 
Q 3003 1734 2745 1975 
Q 2488 2216 2034 2216 
z
M 1403 2484 
Q 997 2584 770 2862 
Q 544 3141 544 3541 
Q 544 4100 942 4425 
Q 1341 4750 2034 4750 
Q 2731 4750 3128 4425 
Q 3525 4100 3525 3541 
Q 3525 3141 3298 2862 
Q 3072 2584 2669 2484 
Q 3125 2378 3379 2068 
Q 3634 1759 3634 1313 
Q 3634 634 3220 271 
Q 2806 -91 2034 -91 
Q 1263 -91 848 271 
Q 434 634 434 1313 
Q 434 1759 690 2068 
Q 947 2378 1403 2484 
z
M 1172 3481 
Q 1172 3119 1398 2916 
Q 1625 2713 2034 2713 
Q 2441 2713 2670 2916 
Q 2900 3119 2900 3481 
Q 2900 3844 2670 4047 
Q 2441 4250 2034 4250 
Q 1625 4250 1398 4047 
Q 1172 3844 1172 3481 
z
" transform="scale(0.015625)"/>
       </defs>
       <use xlink:href="#DejaVuSans-30"/>
       <use xlink:href="#DejaVuSans-2e" transform="translate(63.623047 0)"/>
       <use xlink:href="#DejaVuSans-38" transform="translate(95.410156 0)"/>
      </g>
     </g>
    </g>
    <g id="text_13">
     <!-- IoU -->
     <g transform="translate(21.505312 189.67125) rotate(-90) scale(0.14 -0.14)">
      <defs>
       <path id="DejaVuSans-49" d="M 628 4666 
L 1259 4666 
L 1259 0 
L 628 0 
L 628 4666 
z
" transform="scale(0.015625)"/>
       <path id="DejaVuSans-55" d="M 556 4666 
L 1191 4666 
L 1191 1831 
Q 1191 1081 1462 751 
Q 1734 422 2344 422 
Q 2950 422 3222 751 
Q 3494 1081 3494 1831 
L 3494 4666 
L 4128 4666 
L 4128 1753 
Q 4128 841 3676 375 
Q 3225 -91 2344 -91 
Q 1459 -91 1007 375 
Q 556 841 556 1753 
L 556 4666 
z
" transform="scale(0.015625)"/>
      </defs>
      <use xlink:href="#DejaVuSans-49"/>
      <use xlink:href="#DejaVuSans-6f" transform="translate(29.492188 0)"/>
      <use xlink:href="#DejaVuSans-55" transform="translate(90.673828 0)"/>
     </g>
    </g>
   </g>
   <g id="line2d_13">
    <path d="M 75.786694 229.165457 
L 75.786694 185.546432 
" clip-path="url(#pa28b0f0793)" style="fill: none; stroke: #424242; stroke-width: 2.25; stroke-linecap: square"/>
   </g>
   <g id="line2d_14">
    <path d="M 231.483837 120.093765 
L 231.483837 93.700876 
" clip-path="url(#pa28b0f0793)" style="fill: none; stroke: #424242; stroke-width: 2.25; stroke-linecap: square"/>
   </g>
   <g id="line2d_15">
    <path d="M 387.18098 187.561774 
L 387.18098 155.798828 
" clip-path="url(#pa28b0f0793)" style="fill: none; stroke: #424242; stroke-width: 2.25; stroke-linecap: square"/>
   </g>
   <g id="line2d_16">
    <path d="M 542.878122 214.29002 
L 542.878122 174.776363 
" clip-path="url(#pa28b0f0793)" style="fill: none; stroke: #424242; stroke-width: 2.25; stroke-linecap: square"/>
   </g>
   <g id="line2d_17">
    <path d="M 698.575265 165.729289 
L 698.575265 149.458115 
" clip-path="url(#pa28b0f0793)" style="fill: none; stroke: #424242; stroke-width: 2.25; stroke-linecap: square"/>
   </g>
   <g id="line2d_18">
    <path d="M 854.272408 336.151271 
L 854.272408 328.308694 
" clip-path="url(#pa28b0f0793)" style="fill: none; stroke: #424242; stroke-width: 2.25; stroke-linecap: square"/>
   </g>
   <g id="line2d_19">
    <path d="M 1009.969551 300.59686 
L 1009.969551 242.943215 
" clip-path="url(#pa28b0f0793)" style="fill: none; stroke: #424242; stroke-width: 2.25; stroke-linecap: square"/>
   </g>
   <g id="line2d_20">
    <path d="M 93.580653 30.938222 
L 93.580653 26.742857 
" clip-path="url(#pa28b0f0793)" style="fill: none; stroke: #424242; stroke-width: 2.25; stroke-linecap: square"/>
   </g>
   <g id="line2d_21">
    <path d="M 249.277796 71.558198 
L 249.277796 58.694564 
" clip-path="url(#pa28b0f0793)" style="fill: none; stroke: #424242; stroke-width: 2.25; stroke-linecap: square"/>
   </g>
   <g id="line2d_22">
    <path d="M 404.974939 89.012779 
L 404.974939 66.675937 
" clip-path="url(#pa28b0f0793)" style="fill: none; stroke: #424242; stroke-width: 2.25; stroke-linecap: square"/>
   </g>
   <g id="line2d_23">
    <path d="M 560.672082 125.167468 
L 560.672082 83.446639 
" clip-path="url(#pa28b0f0793)" style="fill: none; stroke: #424242; stroke-width: 2.25; stroke-linecap: square"/>
   </g>
   <g id="line2d_24">
    <path d="M 716.369224 141.094008 
L 716.369224 121.902827 
" clip-path="url(#pa28b0f0793)" style="fill: none; stroke: #424242; stroke-width: 2.25; stroke-linecap: square"/>
   </g>
   <g id="line2d_25">
    <path d="M 872.066367 336.861281 
L 872.066367 328.715329 
" clip-path="url(#pa28b0f0793)" style="fill: none; stroke: #424242; stroke-width: 2.25; stroke-linecap: square"/>
   </g>
   <g id="line2d_26">
    <path d="M 1027.76351 165.949552 
L 1027.76351 93.298268 
" clip-path="url(#pa28b0f0793)" style="fill: none; stroke: #424242; stroke-width: 2.25; stroke-linecap: square"/>
   </g>
   <g id="line2d_27">
    <path d="M 111.374612 33.386525 
L 111.374612 27.795417 
" clip-path="url(#pa28b0f0793)" style="fill: none; stroke: #424242; stroke-width: 2.25; stroke-linecap: square"/>
   </g>
   <g id="line2d_28">
    <path d="M 267.071755 71.821436 
L 267.071755 56.427432 
" clip-path="url(#pa28b0f0793)" style="fill: none; stroke: #424242; stroke-width: 2.25; stroke-linecap: square"/>
   </g>
   <g id="line2d_29">
    <path d="M 422.768898 152.421344 
L 422.768898 110.832288 
" clip-path="url(#pa28b0f0793)" style="fill: none; stroke: #424242; stroke-width: 2.25; stroke-linecap: square"/>
   </g>
   <g id="line2d_30">
    <path d="M 578.466041 140.284242 
L 578.466041 87.245679 
" clip-path="url(#pa28b0f0793)" style="fill: none; stroke: #424242; stroke-width: 2.25; stroke-linecap: square"/>
   </g>
   <g id="line2d_31">
    <path d="M 129.168571 41.867338 
L 129.168571 34.761307 
" clip-path="url(#pa28b0f0793)" style="fill: none; stroke: #424242; stroke-width: 2.25; stroke-linecap: square"/>
   </g>
   <g id="line2d_32">
    <path d="M 284.865714 135.974612 
L 284.865714 90.462111 
" clip-path="url(#pa28b0f0793)" style="fill: none; stroke: #424242; stroke-width: 2.25; stroke-linecap: square"/>
   </g>
   <g id="line2d_33">
    <path d="M 440.562857 280.015988 
L 440.562857 257.904164 
" clip-path="url(#pa28b0f0793)" style="fill: none; stroke: #424242; stroke-width: 2.25; stroke-linecap: square"/>
   </g>
   <g id="line2d_34">
    <path d="M 596.26 128.548898 
L 596.26 99.743103 
" clip-path="url(#pa28b0f0793)" style="fill: none; stroke: #424242; stroke-width: 2.25; stroke-linecap: square"/>
   </g>
   <g id="line2d_35">
    <path d="M 751.957143 306.93865 
L 751.957143 301.276886 
" clip-path="url(#pa28b0f0793)" style="fill: none; stroke: #424242; stroke-width: 2.25; stroke-linecap: square"/>
   </g>
   <g id="line2d_36">
    <path d="M 907.654286 339.570636 
L 907.654286 335.689826 
" clip-path="url(#pa28b0f0793)" style="fill: none; stroke: #424242; stroke-width: 2.25; stroke-linecap: square"/>
   </g>
   <g id="line2d_37">
    <path d="M 1063.351429 208.070349 
L 1063.351429 139.316091 
" clip-path="url(#pa28b0f0793)" style="fill: none; stroke: #424242; stroke-width: 2.25; stroke-linecap: square"/>
   </g>
   <g id="line2d_38">
    <path d="M 146.962531 73.817297 
L 146.962531 34.224529 
" clip-path="url(#pa28b0f0793)" style="fill: none; stroke: #424242; stroke-width: 2.25; stroke-linecap: square"/>
   </g>
   <g id="line2d_39">
    <path d="M 614.053959 286.193747 
L 614.053959 246.412868 
" clip-path="url(#pa28b0f0793)" style="fill: none; stroke: #424242; stroke-width: 2.25; stroke-linecap: square"/>
   </g>
   <g id="line2d_40">
    <path d="M 769.751102 314.090084 
L 769.751102 304.522648 
" clip-path="url(#pa28b0f0793)" style="fill: none; stroke: #424242; stroke-width: 2.25; stroke-linecap: square"/>
   </g>
   <g id="line2d_41">
    <path d="M 925.448245 267.987772 
L 925.448245 233.762194 
" clip-path="url(#pa28b0f0793)" style="fill: none; stroke: #424242; stroke-width: 2.25; stroke-linecap: square"/>
   </g>
   <g id="line2d_42">
    <path d="M 1081.145388 270.958944 
L 1081.145388 208.334134 
" clip-path="url(#pa28b0f0793)" style="fill: none; stroke: #424242; stroke-width: 2.25; stroke-linecap: square"/>
   </g>
   <g id="line2d_43">
    <path d="M 164.75649 31.770859 
L 164.75649 28.193366 
" clip-path="url(#pa28b0f0793)" style="fill: none; stroke: #424242; stroke-width: 2.25; stroke-linecap: square"/>
   </g>
   <g id="line2d_44">
    <path d="M 943.242204 205.853835 
L 943.242204 179.717464 
" clip-path="url(#pa28b0f0793)" style="fill: none; stroke: #424242; stroke-width: 2.25; stroke-linecap: square"/>
   </g>
   <g id="line2d_45">
    <path d="M 1098.939347 140.434138 
L 1098.939347 90.874548 
" clip-path="url(#pa28b0f0793)" style="fill: none; stroke: #424242; stroke-width: 2.25; stroke-linecap: square"/>
   </g>
   <g id="line2d_46">
    <path d="M 182.550449 189.760286 
L 182.550449 141.475364 
" clip-path="url(#pa28b0f0793)" style="fill: none; stroke: #424242; stroke-width: 2.25; stroke-linecap: square"/>
   </g>
   <g id="line2d_47">
    <path d="M 649.641878 299.690697 
L 649.641878 281.846601 
" clip-path="url(#pa28b0f0793)" style="fill: none; stroke: #424242; stroke-width: 2.25; stroke-linecap: square"/>
   </g>
   <g id="line2d_48">
    <path d="M 805.33902 284.037272 
L 805.33902 276.641412 
" clip-path="url(#pa28b0f0793)" style="fill: none; stroke: #424242; stroke-width: 2.25; stroke-linecap: square"/>
   </g>
   <g id="line2d_49">
    <path d="M 961.036163 332.557684 
L 961.036163 320.05455 
" clip-path="url(#pa28b0f0793)" style="fill: none; stroke: #424242; stroke-width: 2.25; stroke-linecap: square"/>
   </g>
   <g id="line2d_50">
    <path d="M 1116.733306 207.77495 
L 1116.733306 152.690097 
" clip-path="url(#pa28b0f0793)" style="fill: none; stroke: #424242; stroke-width: 2.25; stroke-linecap: square"/>
   </g>
   <g id="line2d_51">
    <path d="M 207.017143 345.6 
L 207.017143 10.8 
" clip-path="url(#pa28b0f0793)" style="fill: none; stroke-dasharray: 3.7,1.6; stroke-dashoffset: 0; stroke: #808080"/>
   </g>
   <g id="line2d_52">
    <path d="M 362.714286 345.6 
L 362.714286 10.8 
" clip-path="url(#pa28b0f0793)" style="fill: none; stroke-dasharray: 3.7,1.6; stroke-dashoffset: 0; stroke: #808080"/>
   </g>
   <g id="line2d_53">
    <path d="M 518.411429 345.6 
L 518.411429 10.8 
" clip-path="url(#pa28b0f0793)" style="fill: none; stroke-dasharray: 3.7,1.6; stroke-dashoffset: 0; stroke: #808080"/>
   </g>
   <g id="line2d_54">
    <path d="M 674.108571 345.6 
L 674.108571 10.8 
" clip-path="url(#pa28b0f0793)" style="fill: none; stroke-dasharray: 3.7,1.6; stroke-dashoffset: 0; stroke: #808080"/>
   </g>
   <g id="line2d_55">
    <path d="M 829.805714 345.6 
L 829.805714 10.8 
" clip-path="url(#pa28b0f0793)" style="fill: none; stroke-dasharray: 3.7,1.6; stroke-dashoffset: 0; stroke: #808080"/>
   </g>
   <g id="line2d_56">
    <path d="M 985.502857 345.6 
L 985.502857 10.8 
" clip-path="url(#pa28b0f0793)" style="fill: none; stroke-dasharray: 3.7,1.6; stroke-dashoffset: 0; stroke: #808080"/>
   </g>
   <g id="patch_48">
    <path d="M 51.32 345.6 
L 51.32 10.8 
" style="fill: none; stroke: #000000; stroke-width: 0.8; stroke-linejoin: miter; stroke-linecap: square"/>
   </g>
   <g id="patch_49">
    <path d="M 1141.2 345.6 
L 1141.2 10.8 
" style="fill: none; stroke: #000000; stroke-width: 0.8; stroke-linejoin: miter; stroke-linecap: square"/>
   </g>
   <g id="patch_50">
    <path d="M 51.32 345.6 
L 1141.2 345.6 
" style="fill: none; stroke: #000000; stroke-width: 0.8; stroke-linejoin: miter; stroke-linecap: square"/>
   </g>
   <g id="patch_51">
    <path d="M 51.32 10.8 
L 1141.2 10.8 
" style="fill: none; stroke: #000000; stroke-width: 0.8; stroke-linejoin: miter; stroke-linecap: square"/>
   </g>
   <g id="legend_1">
    <g id="patch_52">
     <path d="M 63.92 570.96 
L 506.66375 570.96 
Q 510.26375 570.96 510.26375 567.36 
L 510.26375 382.71375 
Q 510.26375 379.11375 506.66375 379.11375 
L 63.92 379.11375 
Q 60.32 379.11375 60.32 382.71375 
L 60.32 567.36 
Q 60.32 570.96 63.92 570.96 
z
" style="fill: #ffffff; opacity: 0.8; stroke: #cccccc; stroke-linejoin: miter"/>
    </g>
    <g id="patch_53">
     <path d="M 67.52 399.990937 
L 103.52 399.990937 
L 103.52 387.390937 
L 67.52 387.390937 
z
" style="fill: #a28c2b"/>
    </g>
    <g id="text_14">
     <!-- sam2.1_hiera_tiny.pt (box) - 3.5s -->
     <g transform="translate(117.92 399.990937) scale(0.18 -0.18)">
      <defs>
       <path id="DejaVuSans-31" d="M 794 531 
L 1825 531 
L 1825 4091 
L 703 3866 
L 703 4441 
L 1819 4666 
L 2450 4666 
L 2450 531 
L 3481 531 
L 3481 0 
L 794 0 
L 794 531 
z
" transform="scale(0.015625)"/>
       <path id="DejaVuSans-5f" d="M 3263 -1063 
L 3263 -1509 
L -63 -1509 
L -63 -1063 
L 3263 -1063 
z
" transform="scale(0.015625)"/>
       <path id="DejaVuSans-68" d="M 3513 2113 
L 3513 0 
L 2938 0 
L 2938 2094 
Q 2938 2591 2744 2837 
Q 2550 3084 2163 3084 
Q 1697 3084 1428 2787 
Q 1159 2491 1159 1978 
L 1159 0 
L 581 0 
L 581 4863 
L 1159 4863 
L 1159 2956 
Q 1366 3272 1645 3428 
Q 1925 3584 2291 3584 
Q 2894 3584 3203 3211 
Q 3513 2838 3513 2113 
z
" transform="scale(0.015625)"/>
       <path id="DejaVuSans-79" d="M 2059 -325 
Q 1816 -950 1584 -1140 
Q 1353 -1331 966 -1331 
L 506 -1331 
L 506 -850 
L 844 -850 
Q 1081 -850 1212 -737 
Q 1344 -625 1503 -206 
L 1606 56 
L 191 3500 
L 800 3500 
L 1894 763 
L 2988 3500 
L 3597 3500 
L 2059 -325 
z
" transform="scale(0.015625)"/>
       <path id="DejaVuSans-20" transform="scale(0.015625)"/>
       <path id="DejaVuSans-28" d="M 1984 4856 
Q 1566 4138 1362 3434 
Q 1159 2731 1159 2009 
Q 1159 1288 1364 580 
Q 1569 -128 1984 -844 
L 1484 -844 
Q 1016 -109 783 600 
Q 550 1309 550 2009 
Q 550 2706 781 3412 
Q 1013 4119 1484 4856 
L 1984 4856 
z
" transform="scale(0.015625)"/>
       <path id="DejaVuSans-62" d="M 3116 1747 
Q 3116 2381 2855 2742 
Q 2594 3103 2138 3103 
Q 1681 3103 1420 2742 
Q 1159 2381 1159 1747 
Q 1159 1113 1420 752 
Q 1681 391 2138 391 
Q 2594 391 2855 752 
Q 3116 1113 3116 1747 
z
M 1159 2969 
Q 1341 3281 1617 3432 
Q 1894 3584 2278 3584 
Q 2916 3584 3314 3078 
Q 3713 2572 3713 1747 
Q 3713 922 3314 415 
Q 2916 -91 2278 -91 
Q 1894 -91 1617 61 
Q 1341 213 1159 525 
L 1159 0 
L 581 0 
L 581 4863 
L 1159 4863 
L 1159 2969 
z
" transform="scale(0.015625)"/>
       <path id="DejaVuSans-78" d="M 3513 3500 
L 2247 1797 
L 3578 0 
L 2900 0 
L 1881 1375 
L 863 0 
L 184 0 
L 1544 1831 
L 300 3500 
L 978 3500 
L 1906 2253 
L 2834 3500 
L 3513 3500 
z
" transform="scale(0.015625)"/>
       <path id="DejaVuSans-29" d="M 513 4856 
L 1013 4856 
Q 1481 4119 1714 3412 
Q 1947 2706 1947 2009 
Q 1947 1309 1714 600 
Q 1481 -109 1013 -844 
L 513 -844 
Q 928 -128 1133 580 
Q 1338 1288 1338 2009 
Q 1338 2731 1133 3434 
Q 928 4138 513 4856 
z
" transform="scale(0.015625)"/>
       <path id="DejaVuSans-2d" d="M 313 2009 
L 1997 2009 
L 1997 1497 
L 313 1497 
L 313 2009 
z
" transform="scale(0.015625)"/>
       <path id="DejaVuSans-33" d="M 2597 2516 
Q 3050 2419 3304 2112 
Q 3559 1806 3559 1356 
Q 3559 666 3084 287 
Q 2609 -91 1734 -91 
Q 1441 -91 1130 -33 
Q 819 25 488 141 
L 488 750 
Q 750 597 1062 519 
Q 1375 441 1716 441 
Q 2309 441 2620 675 
Q 2931 909 2931 1356 
Q 2931 1769 2642 2001 
Q 2353 2234 1838 2234 
L 1294 2234 
L 1294 2753 
L 1863 2753 
Q 2328 2753 2575 2939 
Q 2822 3125 2822 3475 
Q 2822 3834 2567 4026 
Q 2313 4219 1838 4219 
Q 1578 4219 1281 4162 
Q 984 4106 628 3988 
L 628 4550 
Q 988 4650 1302 4700 
Q 1616 4750 1894 4750 
Q 2613 4750 3031 4423 
Q 3450 4097 3450 3541 
Q 3450 3153 3228 2886 
Q 3006 2619 2597 2516 
z
" transform="scale(0.015625)"/>
       <path id="DejaVuSans-35" d="M 691 4666 
L 3169 4666 
L 3169 4134 
L 1269 4134 
L 1269 2991 
Q 1406 3038 1543 3061 
Q 1681 3084 1819 3084 
Q 2600 3084 3056 2656 
Q 3513 2228 3513 1497 
Q 3513 744 3044 326 
Q 2575 -91 1722 -91 
Q 1428 -91 1123 -41 
Q 819 9 494 109 
L 494 744 
Q 775 591 1075 516 
Q 1375 441 1709 441 
Q 2250 441 2565 725 
Q 2881 1009 2881 1497 
Q 2881 1984 2565 2268 
Q 2250 2553 1709 2553 
Q 1456 2553 1204 2497 
Q 953 2441 691 2322 
L 691 4666 
z
" transform="scale(0.015625)"/>
      </defs>
      <use xlink:href="#DejaVuSans-73"/>
      <use xlink:href="#DejaVuSans-61" transform="translate(52.099609 0)"/>
      <use xlink:href="#DejaVuSans-6d" transform="translate(113.378906 0)"/>
      <use xlink:href="#DejaVuSans-32" transform="translate(210.791016 0)"/>
      <use xlink:href="#DejaVuSans-2e" transform="translate(274.414062 0)"/>
      <use xlink:href="#DejaVuSans-31" transform="translate(306.201172 0)"/>
      <use xlink:href="#DejaVuSans-5f" transform="translate(369.824219 0)"/>
      <use xlink:href="#DejaVuSans-68" transform="translate(419.824219 0)"/>
      <use xlink:href="#DejaVuSans-69" transform="translate(483.203125 0)"/>
      <use xlink:href="#DejaVuSans-65" transform="translate(510.986328 0)"/>
      <use xlink:href="#DejaVuSans-72" transform="translate(572.509766 0)"/>
      <use xlink:href="#DejaVuSans-61" transform="translate(613.623047 0)"/>
      <use xlink:href="#DejaVuSans-5f" transform="translate(674.902344 0)"/>
      <use xlink:href="#DejaVuSans-74" transform="translate(724.902344 0)"/>
      <use xlink:href="#DejaVuSans-69" transform="translate(764.111328 0)"/>
      <use xlink:href="#DejaVuSans-6e" transform="translate(791.894531 0)"/>
      <use xlink:href="#DejaVuSans-79" transform="translate(855.273438 0)"/>
      <use xlink:href="#DejaVuSans-2e" transform="translate(900.203125 0)"/>
      <use xlink:href="#DejaVuSans-70" transform="translate(931.990234 0)"/>
      <use xlink:href="#DejaVuSans-74" transform="translate(995.466797 0)"/>
      <use xlink:href="#DejaVuSans-20" transform="translate(1034.675781 0)"/>
      <use xlink:href="#DejaVuSans-28" transform="translate(1066.462891 0)"/>
      <use xlink:href="#DejaVuSans-62" transform="translate(1105.476562 0)"/>
      <use xlink:href="#DejaVuSans-6f" transform="translate(1168.953125 0)"/>
      <use xlink:href="#DejaVuSans-78" transform="translate(1227.009766 0)"/>
      <use xlink:href="#DejaVuSans-29" transform="translate(1286.189453 0)"/>
      <use xlink:href="#DejaVuSans-20" transform="translate(1325.203125 0)"/>
      <use xlink:href="#DejaVuSans-2d" transform="translate(1356.990234 0)"/>
      <use xlink:href="#DejaVuSans-20" transform="translate(1393.074219 0)"/>
      <use xlink:href="#DejaVuSans-33" transform="translate(1424.861328 0)"/>
      <use xlink:href="#DejaVuSans-2e" transform="translate(1488.484375 0)"/>
      <use xlink:href="#DejaVuSans-35" transform="translate(1520.271484 0)"/>
      <use xlink:href="#DejaVuSans-73" transform="translate(1583.894531 0)"/>
     </g>
    </g>
    <g id="patch_54">
     <path d="M 67.52 426.912187 
L 103.52 426.912187 
L 103.52 414.312187 
L 67.52 414.312187 
z
" style="fill: #a92e37"/>
    </g>
    <g id="text_15">
     <!-- MedSAM2_latest.pt (box) - 0.71s -->
     <g transform="translate(117.92 426.912187) scale(0.18 -0.18)">
      <defs>
       <path id="DejaVuSans-4d" d="M 628 4666 
L 1569 4666 
L 2759 1491 
L 3956 4666 
L 4897 4666 
L 4897 0 
L 4281 0 
L 4281 4097 
L 3078 897 
L 2444 897 
L 1241 4097 
L 1241 0 
L 628 0 
L 628 4666 
z
" transform="scale(0.015625)"/>
       <path id="DejaVuSans-64" d="M 2906 2969 
L 2906 4863 
L 3481 4863 
L 3481 0 
L 2906 0 
L 2906 525 
Q 2725 213 2448 61 
Q 2172 -91 1784 -91 
Q 1150 -91 751 415 
Q 353 922 353 1747 
Q 353 2572 751 3078 
Q 1150 3584 1784 3584 
Q 2172 3584 2448 3432 
Q 2725 3281 2906 2969 
z
M 947 1747 
Q 947 1113 1208 752 
Q 1469 391 1925 391 
Q 2381 391 2643 752 
Q 2906 1113 2906 1747 
Q 2906 2381 2643 2742 
Q 2381 3103 1925 3103 
Q 1469 3103 1208 2742 
Q 947 2381 947 1747 
z
" transform="scale(0.015625)"/>
       <path id="DejaVuSans-41" d="M 2188 4044 
L 1331 1722 
L 3047 1722 
L 2188 4044 
z
M 1831 4666 
L 2547 4666 
L 4325 0 
L 3669 0 
L 3244 1197 
L 1141 1197 
L 716 0 
L 50 0 
L 1831 4666 
z
" transform="scale(0.015625)"/>
       <path id="DejaVuSans-37" d="M 525 4666 
L 3525 4666 
L 3525 4397 
L 1831 0 
L 1172 0 
L 2766 4134 
L 525 4134 
L 525 4666 
z
" transform="scale(0.015625)"/>
      </defs>
      <use xlink:href="#DejaVuSans-4d"/>
      <use xlink:href="#DejaVuSans-65" transform="translate(86.279297 0)"/>
      <use xlink:href="#DejaVuSans-64" transform="translate(147.802734 0)"/>
      <use xlink:href="#DejaVuSans-53" transform="translate(211.279297 0)"/>
      <use xlink:href="#DejaVuSans-41" transform="translate(276.630859 0)"/>
      <use xlink:href="#DejaVuSans-4d" transform="translate(345.039062 0)"/>
      <use xlink:href="#DejaVuSans-32" transform="translate(431.318359 0)"/>
      <use xlink:href="#DejaVuSans-5f" transform="translate(494.941406 0)"/>
      <use xlink:href="#DejaVuSans-6c" transform="translate(544.941406 0)"/>
      <use xlink:href="#DejaVuSans-61" transform="translate(572.724609 0)"/>
      <use xlink:href="#DejaVuSans-74" transform="translate(634.003906 0)"/>
      <use xlink:href="#DejaVuSans-65" transform="translate(673.212891 0)"/>
      <use xlink:href="#DejaVuSans-73" transform="translate(734.736328 0)"/>
      <use xlink:href="#DejaVuSans-74" transform="translate(786.835938 0)"/>
      <use xlink:href="#DejaVuSans-2e" transform="translate(826.044922 0)"/>
      <use xlink:href="#DejaVuSans-70" transform="translate(857.832031 0)"/>
      <use xlink:href="#DejaVuSans-74" transform="translate(921.308594 0)"/>
      <use xlink:href="#DejaVuSans-20" transform="translate(960.517578 0)"/>
      <use xlink:href="#DejaVuSans-28" transform="translate(992.304688 0)"/>
      <use xlink:href="#DejaVuSans-62" transform="translate(1031.318359 0)"/>
      <use xlink:href="#DejaVuSans-6f" transform="translate(1094.794922 0)"/>
      <use xlink:href="#DejaVuSans-78" transform="translate(1152.851562 0)"/>
      <use xlink:href="#DejaVuSans-29" transform="translate(1212.03125 0)"/>
      <use xlink:href="#DejaVuSans-20" transform="translate(1251.044922 0)"/>
      <use xlink:href="#DejaVuSans-2d" transform="translate(1282.832031 0)"/>
      <use xlink:href="#DejaVuSans-20" transform="translate(1318.916016 0)"/>
      <use xlink:href="#DejaVuSans-30" transform="translate(1350.703125 0)"/>
      <use xlink:href="#DejaVuSans-2e" transform="translate(1414.326172 0)"/>
      <use xlink:href="#DejaVuSans-37" transform="translate(1446.113281 0)"/>
      <use xlink:href="#DejaVuSans-31" transform="translate(1509.736328 0)"/>
      <use xlink:href="#DejaVuSans-73" transform="translate(1573.359375 0)"/>
     </g>
    </g>
    <g id="patch_55">
     <path d="M 67.52 453.833437 
L 103.52 453.833437 
L 103.52 441.233437 
L 67.52 441.233437 
z
" style="fill: #c65454"/>
    </g>
    <g id="text_16">
     <!-- MedSAM2_latest.pt (BOB D-FINE-N) - 0.72s -->
     <g transform="translate(117.92 453.833437) scale(0.18 -0.18)">
      <defs>
       <path id="DejaVuSans-42" d="M 1259 2228 
L 1259 519 
L 2272 519 
Q 2781 519 3026 730 
Q 3272 941 3272 1375 
Q 3272 1813 3026 2020 
Q 2781 2228 2272 2228 
L 1259 2228 
z
M 1259 4147 
L 1259 2741 
L 2194 2741 
Q 2656 2741 2882 2914 
Q 3109 3088 3109 3444 
Q 3109 3797 2882 3972 
Q 2656 4147 2194 4147 
L 1259 4147 
z
M 628 4666 
L 2241 4666 
Q 2963 4666 3353 4366 
Q 3744 4066 3744 3513 
Q 3744 3084 3544 2831 
Q 3344 2578 2956 2516 
Q 3422 2416 3680 2098 
Q 3938 1781 3938 1306 
Q 3938 681 3513 340 
Q 3088 0 2303 0 
L 628 0 
L 628 4666 
z
" transform="scale(0.015625)"/>
       <path id="DejaVuSans-4f" d="M 2522 4238 
Q 1834 4238 1429 3725 
Q 1025 3213 1025 2328 
Q 1025 1447 1429 934 
Q 1834 422 2522 422 
Q 3209 422 3611 934 
Q 4013 1447 4013 2328 
Q 4013 3213 3611 3725 
Q 3209 4238 2522 4238 
z
M 2522 4750 
Q 3503 4750 4090 4092 
Q 4678 3434 4678 2328 
Q 4678 1225 4090 567 
Q 3503 -91 2522 -91 
Q 1538 -91 948 565 
Q 359 1222 359 2328 
Q 359 3434 948 4092 
Q 1538 4750 2522 4750 
z
" transform="scale(0.015625)"/>
       <path id="DejaVuSans-44" d="M 1259 4147 
L 1259 519 
L 2022 519 
Q 2988 519 3436 956 
Q 3884 1394 3884 2338 
Q 3884 3275 3436 3711 
Q 2988 4147 2022 4147 
L 1259 4147 
z
M 628 4666 
L 1925 4666 
Q 3281 4666 3915 4102 
Q 4550 3538 4550 2338 
Q 4550 1131 3912 565 
Q 3275 0 1925 0 
L 628 0 
L 628 4666 
z
" transform="scale(0.015625)"/>
       <path id="DejaVuSans-46" d="M 628 4666 
L 3309 4666 
L 3309 4134 
L 1259 4134 
L 1259 2759 
L 3109 2759 
L 3109 2228 
L 1259 2228 
L 1259 0 
L 628 0 
L 628 4666 
z
" transform="scale(0.015625)"/>
       <path id="DejaVuSans-4e" d="M 628 4666 
L 1478 4666 
L 3547 763 
L 3547 4666 
L 4159 4666 
L 4159 0 
L 3309 0 
L 1241 3903 
L 1241 0 
L 628 0 
L 628 4666 
z
" transform="scale(0.015625)"/>
       <path id="DejaVuSans-45" d="M 628 4666 
L 3578 4666 
L 3578 4134 
L 1259 4134 
L 1259 2753 
L 3481 2753 
L 3481 2222 
L 1259 2222 
L 1259 531 
L 3634 531 
L 3634 0 
L 628 0 
L 628 4666 
z
" transform="scale(0.015625)"/>
      </defs>
      <use xlink:href="#DejaVuSans-4d"/>
      <use xlink:href="#DejaVuSans-65" transform="translate(86.279297 0)"/>
      <use xlink:href="#DejaVuSans-64" transform="translate(147.802734 0)"/>
      <use xlink:href="#DejaVuSans-53" transform="translate(211.279297 0)"/>
      <use xlink:href="#DejaVuSans-41" transform="translate(276.630859 0)"/>
      <use xlink:href="#DejaVuSans-4d" transform="translate(345.039062 0)"/>
      <use xlink:href="#DejaVuSans-32" transform="translate(431.318359 0)"/>
      <use xlink:href="#DejaVuSans-5f" transform="translate(494.941406 0)"/>
      <use xlink:href="#DejaVuSans-6c" transform="translate(544.941406 0)"/>
      <use xlink:href="#DejaVuSans-61" transform="translate(572.724609 0)"/>
      <use xlink:href="#DejaVuSans-74" transform="translate(634.003906 0)"/>
      <use xlink:href="#DejaVuSans-65" transform="translate(673.212891 0)"/>
      <use xlink:href="#DejaVuSans-73" transform="translate(734.736328 0)"/>
      <use xlink:href="#DejaVuSans-74" transform="translate(786.835938 0)"/>
      <use xlink:href="#DejaVuSans-2e" transform="translate(826.044922 0)"/>
      <use xlink:href="#DejaVuSans-70" transform="translate(857.832031 0)"/>
      <use xlink:href="#DejaVuSans-74" transform="translate(921.308594 0)"/>
      <use xlink:href="#DejaVuSans-20" transform="translate(960.517578 0)"/>
      <use xlink:href="#DejaVuSans-28" transform="translate(992.304688 0)"/>
      <use xlink:href="#DejaVuSans-42" transform="translate(1031.318359 0)"/>
      <use xlink:href="#DejaVuSans-4f" transform="translate(1098.171875 0)"/>
      <use xlink:href="#DejaVuSans-42" transform="translate(1176.882812 0)"/>
      <use xlink:href="#DejaVuSans-20" transform="translate(1245.486328 0)"/>
      <use xlink:href="#DejaVuSans-44" transform="translate(1277.273438 0)"/>
      <use xlink:href="#DejaVuSans-2d" transform="translate(1354.275391 0)"/>
      <use xlink:href="#DejaVuSans-46" transform="translate(1390.359375 0)"/>
      <use xlink:href="#DejaVuSans-49" transform="translate(1447.878906 0)"/>
      <use xlink:href="#DejaVuSans-4e" transform="translate(1477.371094 0)"/>
      <use xlink:href="#DejaVuSans-45" transform="translate(1552.175781 0)"/>
      <use xlink:href="#DejaVuSans-2d" transform="translate(1615.359375 0)"/>
      <use xlink:href="#DejaVuSans-4e" transform="translate(1651.443359 0)"/>
      <use xlink:href="#DejaVuSans-29" transform="translate(1726.248047 0)"/>
      <use xlink:href="#DejaVuSans-20" transform="translate(1765.261719 0)"/>
      <use xlink:href="#DejaVuSans-2d" transform="translate(1797.048828 0)"/>
      <use xlink:href="#DejaVuSans-20" transform="translate(1833.132812 0)"/>
      <use xlink:href="#DejaVuSans-30" transform="translate(1864.919922 0)"/>
      <use xlink:href="#DejaVuSans-2e" transform="translate(1928.542969 0)"/>
      <use xlink:href="#DejaVuSans-37" transform="translate(1960.330078 0)"/>
      <use xlink:href="#DejaVuSans-32" transform="translate(2023.953125 0)"/>
      <use xlink:href="#DejaVuSans-73" transform="translate(2087.576172 0)"/>
     </g>
    </g>
    <g id="patch_56">
     <path d="M 67.52 480.754687 
L 103.52 480.754687 
L 103.52 468.154687 
L 67.52 468.154687 
z
" style="fill: #4a4a84"/>
    </g>
    <g id="text_17">
     <!-- SAM-Med3D (random point) - 1.42s -->
     <g transform="translate(117.92 480.754687) scale(0.18 -0.18)">
      <use xlink:href="#DejaVuSans-53"/>
      <use xlink:href="#DejaVuSans-41" transform="translate(65.351562 0)"/>
      <use xlink:href="#DejaVuSans-4d" transform="translate(133.759766 0)"/>
      <use xlink:href="#DejaVuSans-2d" transform="translate(220.039062 0)"/>
      <use xlink:href="#DejaVuSans-4d" transform="translate(256.123047 0)"/>
      <use xlink:href="#DejaVuSans-65" transform="translate(342.402344 0)"/>
      <use xlink:href="#DejaVuSans-64" transform="translate(403.925781 0)"/>
      <use xlink:href="#DejaVuSans-33" transform="translate(467.402344 0)"/>
      <use xlink:href="#DejaVuSans-44" transform="translate(531.025391 0)"/>
      <use xlink:href="#DejaVuSans-20" transform="translate(608.027344 0)"/>
      <use xlink:href="#DejaVuSans-28" transform="translate(639.814453 0)"/>
      <use xlink:href="#DejaVuSans-72" transform="translate(678.828125 0)"/>
      <use xlink:href="#DejaVuSans-61" transform="translate(719.941406 0)"/>
      <use xlink:href="#DejaVuSans-6e" transform="translate(781.220703 0)"/>
      <use xlink:href="#DejaVuSans-64" transform="translate(844.599609 0)"/>
      <use xlink:href="#DejaVuSans-6f" transform="translate(908.076172 0)"/>
      <use xlink:href="#DejaVuSans-6d" transform="translate(969.257812 0)"/>
      <use xlink:href="#DejaVuSans-20" transform="translate(1066.669922 0)"/>
      <use xlink:href="#DejaVuSans-70" transform="translate(1098.457031 0)"/>
      <use xlink:href="#DejaVuSans-6f" transform="translate(1161.933594 0)"/>
      <use xlink:href="#DejaVuSans-69" transform="translate(1223.115234 0)"/>
      <use xlink:href="#DejaVuSans-6e" transform="translate(1250.898438 0)"/>
      <use xlink:href="#DejaVuSans-74" transform="translate(1314.277344 0)"/>
      <use xlink:href="#DejaVuSans-29" transform="translate(1353.486328 0)"/>
      <use xlink:href="#DejaVuSans-20" transform="translate(1392.5 0)"/>
      <use xlink:href="#DejaVuSans-2d" transform="translate(1424.287109 0)"/>
      <use xlink:href="#DejaVuSans-20" transform="translate(1460.371094 0)"/>
      <use xlink:href="#DejaVuSans-31" transform="translate(1492.158203 0)"/>
      <use xlink:href="#DejaVuSans-2e" transform="translate(1555.78125 0)"/>
      <use xlink:href="#DejaVuSans-34" transform="translate(1587.568359 0)"/>
      <use xlink:href="#DejaVuSans-32" transform="translate(1651.191406 0)"/>
      <use xlink:href="#DejaVuSans-73" transform="translate(1714.814453 0)"/>
     </g>
    </g>
    <g id="patch_57">
     <path d="M 67.52 507.175312 
L 103.52 507.175312 
L 103.52 494.575312 
L 67.52 494.575312 
z
" style="fill: #16681e"/>
    </g>
    <g id="text_18">
     <!-- VISTA3D (point) - 2.02s -->
     <g transform="translate(117.92 507.175312) scale(0.18 -0.18)">
      <use xlink:href="#DejaVuSans-56"/>
      <use xlink:href="#DejaVuSans-49" transform="translate(68.408203 0)"/>
      <use xlink:href="#DejaVuSans-53" transform="translate(97.900391 0)"/>
      <use xlink:href="#DejaVuSans-54" transform="translate(161.376953 0)"/>
      <use xlink:href="#DejaVuSans-41" transform="translate(214.710938 0)"/>
      <use xlink:href="#DejaVuSans-33" transform="translate(283.119141 0)"/>
      <use xlink:href="#DejaVuSans-44" transform="translate(346.742188 0)"/>
      <use xlink:href="#DejaVuSans-20" transform="translate(423.744141 0)"/>
      <use xlink:href="#DejaVuSans-28" transform="translate(455.53125 0)"/>
      <use xlink:href="#DejaVuSans-70" transform="translate(494.544922 0)"/>
      <use xlink:href="#DejaVuSans-6f" transform="translate(558.021484 0)"/>
      <use xlink:href="#DejaVuSans-69" transform="translate(619.203125 0)"/>
      <use xlink:href="#DejaVuSans-6e" transform="translate(646.986328 0)"/>
      <use xlink:href="#DejaVuSans-74" transform="translate(710.365234 0)"/>
      <use xlink:href="#DejaVuSans-29" transform="translate(749.574219 0)"/>
      <use xlink:href="#DejaVuSans-20" transform="translate(788.587891 0)"/>
      <use xlink:href="#DejaVuSans-2d" transform="translate(820.375 0)"/>
      <use xlink:href="#DejaVuSans-20" transform="translate(856.458984 0)"/>
      <use xlink:href="#DejaVuSans-32" transform="translate(888.246094 0)"/>
      <use xlink:href="#DejaVuSans-2e" transform="translate(951.869141 0)"/>
      <use xlink:href="#DejaVuSans-30" transform="translate(983.65625 0)"/>
      <use xlink:href="#DejaVuSans-32" transform="translate(1047.279297 0)"/>
      <use xlink:href="#DejaVuSans-73" transform="translate(1110.902344 0)"/>
     </g>
    </g>
    <g id="patch_58">
     <path d="M 67.52 533.595937 
L 103.52 533.595937 
L 103.52 520.995937 
L 67.52 520.995937 
z
" style="fill: #52a25a"/>
    </g>
    <g id="text_19">
     <!-- VISTA3D (label) - 13.39s -->
     <g transform="translate(117.92 533.595937) scale(0.18 -0.18)">
      <defs>
       <path id="DejaVuSans-39" d="M 703 97 
L 703 672 
Q 941 559 1184 500 
Q 1428 441 1663 441 
Q 2288 441 2617 861 
Q 2947 1281 2994 2138 
Q 2813 1869 2534 1725 
Q 2256 1581 1919 1581 
Q 1219 1581 811 2004 
Q 403 2428 403 3163 
Q 403 3881 828 4315 
Q 1253 4750 1959 4750 
Q 2769 4750 3195 4129 
Q 3622 3509 3622 2328 
Q 3622 1225 3098 567 
Q 2575 -91 1691 -91 
Q 1453 -91 1209 -44 
Q 966 3 703 97 
z
M 1959 2075 
Q 2384 2075 2632 2365 
Q 2881 2656 2881 3163 
Q 2881 3666 2632 3958 
Q 2384 4250 1959 4250 
Q 1534 4250 1286 3958 
Q 1038 3666 1038 3163 
Q 1038 2656 1286 2365 
Q 1534 2075 1959 2075 
z
" transform="scale(0.015625)"/>
      </defs>
      <use xlink:href="#DejaVuSans-56"/>
      <use xlink:href="#DejaVuSans-49" transform="translate(68.408203 0)"/>
      <use xlink:href="#DejaVuSans-53" transform="translate(97.900391 0)"/>
      <use xlink:href="#DejaVuSans-54" transform="translate(161.376953 0)"/>
      <use xlink:href="#DejaVuSans-41" transform="translate(214.710938 0)"/>
      <use xlink:href="#DejaVuSans-33" transform="translate(283.119141 0)"/>
      <use xlink:href="#DejaVuSans-44" transform="translate(346.742188 0)"/>
      <use xlink:href="#DejaVuSans-20" transform="translate(423.744141 0)"/>
      <use xlink:href="#DejaVuSans-28" transform="translate(455.53125 0)"/>
      <use xlink:href="#DejaVuSans-6c" transform="translate(494.544922 0)"/>
      <use xlink:href="#DejaVuSans-61" transform="translate(522.328125 0)"/>
      <use xlink:href="#DejaVuSans-62" transform="translate(583.607422 0)"/>
      <use xlink:href="#DejaVuSans-65" transform="translate(647.083984 0)"/>
      <use xlink:href="#DejaVuSans-6c" transform="translate(708.607422 0)"/>
      <use xlink:href="#DejaVuSans-29" transform="translate(736.390625 0)"/>
      <use xlink:href="#DejaVuSans-20" transform="translate(775.404297 0)"/>
      <use xlink:href="#DejaVuSans-2d" transform="translate(807.191406 0)"/>
      <use xlink:href="#DejaVuSans-20" transform="translate(843.275391 0)"/>
      <use xlink:href="#DejaVuSans-31" transform="translate(875.0625 0)"/>
      <use xlink:href="#DejaVuSans-33" transform="translate(938.685547 0)"/>
      <use xlink:href="#DejaVuSans-2e" transform="translate(1002.308594 0)"/>
      <use xlink:href="#DejaVuSans-33" transform="translate(1034.095703 0)"/>
      <use xlink:href="#DejaVuSans-39" transform="translate(1097.71875 0)"/>
      <use xlink:href="#DejaVuSans-73" transform="translate(1161.341797 0)"/>
     </g>
    </g>
    <g id="patch_59">
     <path d="M 67.52 560.016562 
L 103.52 560.016562 
L 103.52 547.416562 
L 67.52 547.416562 
z
" style="fill: #85e28e"/>
    </g>
    <g id="text_20">
     <!-- VISTA3D (zero-shot) - 2.18s -->
     <g transform="translate(117.92 560.016562) scale(0.18 -0.18)">
      <defs>
       <path id="DejaVuSans-7a" d="M 353 3500 
L 3084 3500 
L 3084 2975 
L 922 459 
L 3084 459 
L 3084 0 
L 275 0 
L 275 525 
L 2438 3041 
L 353 3041 
L 353 3500 
z
" transform="scale(0.015625)"/>
      </defs>
      <use xlink:href="#DejaVuSans-56"/>
      <use xlink:href="#DejaVuSans-49" transform="translate(68.408203 0)"/>
      <use xlink:href="#DejaVuSans-53" transform="translate(97.900391 0)"/>
      <use xlink:href="#DejaVuSans-54" transform="translate(161.376953 0)"/>
      <use xlink:href="#DejaVuSans-41" transform="translate(214.710938 0)"/>
      <use xlink:href="#DejaVuSans-33" transform="translate(283.119141 0)"/>
      <use xlink:href="#DejaVuSans-44" transform="translate(346.742188 0)"/>
      <use xlink:href="#DejaVuSans-20" transform="translate(423.744141 0)"/>
      <use xlink:href="#DejaVuSans-28" transform="translate(455.53125 0)"/>
      <use xlink:href="#DejaVuSans-7a" transform="translate(494.544922 0)"/>
      <use xlink:href="#DejaVuSans-65" transform="translate(547.035156 0)"/>
      <use xlink:href="#DejaVuSans-72" transform="translate(608.558594 0)"/>
      <use xlink:href="#DejaVuSans-6f" transform="translate(647.421875 0)"/>
      <use xlink:href="#DejaVuSans-2d" transform="translate(710.478516 0)"/>
      <use xlink:href="#DejaVuSans-73" transform="translate(746.5625 0)"/>
      <use xlink:href="#DejaVuSans-68" transform="translate(798.662109 0)"/>
      <use xlink:href="#DejaVuSans-6f" transform="translate(862.041016 0)"/>
      <use xlink:href="#DejaVuSans-74" transform="translate(923.222656 0)"/>
      <use xlink:href="#DejaVuSans-29" transform="translate(962.431641 0)"/>
      <use xlink:href="#DejaVuSans-20" transform="translate(1001.445312 0)"/>
      <use xlink:href="#DejaVuSans-2d" transform="translate(1033.232422 0)"/>
      <use xlink:href="#DejaVuSans-20" transform="translate(1069.316406 0)"/>
      <use xlink:href="#DejaVuSans-32" transform="translate(1101.103516 0)"/>
      <use xlink:href="#DejaVuSans-2e" transform="translate(1164.726562 0)"/>
      <use xlink:href="#DejaVuSans-31" transform="translate(1196.513672 0)"/>
      <use xlink:href="#DejaVuSans-38" transform="translate(1260.136719 0)"/>
      <use xlink:href="#DejaVuSans-73" transform="translate(1323.759766 0)"/>
     </g>
    </g>
   </g>
  </g>
 </g>
 <defs>
  <clipPath id="pa28b0f0793">
   <rect x="51.32" y="10.8" width="1089.88" height="334.8"/>
  </clipPath>
 </defs>
</svg>
