<?xml version="1.0" encoding="utf-8" standalone="no"?>
<!DOCTYPE svg PUBLIC "-//W3C//DTD SVG 1.1//EN"
  "http://www.w3.org/Graphics/SVG/1.1/DTD/svg11.dtd">
<svg xmlns:xlink="http://www.w3.org/1999/xlink" width="1152pt" height="396pt" viewBox="0 0 1152 396" xmlns="http://www.w3.org/2000/svg" version="1.1">
 <metadata>
  <rdf:RDF xmlns:dc="http://purl.org/dc/elements/1.1/" xmlns:cc="http://creativecommons.org/ns#" xmlns:rdf="http://www.w3.org/1999/02/22-rdf-syntax-ns#">
   <cc:Work>
    <dc:type rdf:resource="http://purl.org/dc/dcmitype/StillImage"/>
    <dc:date>2025-09-27T21:25:37.771622</dc:date>
    <dc:format>image/svg+xml</dc:format>
    <dc:creator>
     <cc:Agent>
      <dc:title>Matplotlib v3.10.6, https://matplotlib.org/</dc:title>
     </cc:Agent>
    </dc:creator>
   </cc:Work>
  </rdf:RDF>
 </metadata>
 <defs>
  <style type="text/css">*{stroke-linejoin: round; stroke-linecap: butt}</style>
 </defs>
 <g id="figure_1">
  <g id="patch_1">
   <path d="M 0 396 
L 1152 396 
L 1152 0 
L 0 0 
z
" style="fill: #ffffff"/>
  </g>
  <g id="axes_1">
   <g id="patch_2">
    <path d="M 76.89 253.836195 
L 863.67 253.836195 
L 863.67 19.44 
L 76.89 19.44 
z
" style="fill: #ffffff"/>
   </g>
   <g id="matplotlib.axis_1">
    <g id="xtick_1">
     <g id="text_1">
      <!-- Tiny -->
      <g style="fill: #262626" transform="translate(88.603774 299.732075) rotate(-45) scale(0.15 -0.15)">
       <defs>
        <path id="DejaVuSans-Bold-54" d="M 31 4666 
L 4331 4666 
L 4331 3756 
L 2784 3756 
L 2784 0 
L 1581 0 
L 1581 3756 
L 31 3756 
L 31 4666 
z
" transform="scale(0.015625)"/>
        <path id="DejaVuSans-Bold-69" d="M 538 3500 
L 1656 3500 
L 1656 0 
L 538 0 
L 538 3500 
z
M 538 4863 
L 1656 4863 
L 1656 3950 
L 538 3950 
L 538 4863 
z
" transform="scale(0.015625)"/>
        <path id="DejaVuSans-Bold-6e" d="M 4056 2131 
L 4056 0 
L 2931 0 
L 2931 347 
L 2931 1631 
Q 2931 2084 2911 2256 
Q 2891 2428 2841 2509 
Q 2775 2619 2662 2680 
Q 2550 2741 2406 2741 
Q 2056 2741 1856 2470 
Q 1656 2200 1656 1722 
L 1656 0 
L 538 0 
L 538 3500 
L 1656 3500 
L 1656 2988 
Q 1909 3294 2193 3439 
Q 2478 3584 2822 3584 
Q 3428 3584 3742 3212 
Q 4056 2841 4056 2131 
z
" transform="scale(0.015625)"/>
        <path id="DejaVuSans-Bold-79" d="M 78 3500 
L 1197 3500 
L 2138 1125 
L 2938 3500 
L 4056 3500 
L 2584 -331 
Q 2363 -916 2067 -1148 
Q 1772 -1381 1288 -1381 
L 641 -1381 
L 641 -647 
L 991 -647 
Q 1275 -647 1404 -556 
Q 1534 -466 1606 -231 
L 1638 -134 
L 78 3500 
z
" transform="scale(0.015625)"/>
       </defs>
       <use xlink:href="#DejaVuSans-Bold-54"/>
       <use xlink:href="#DejaVuSans-Bold-69" transform="translate(68.212891 0)"/>
       <use xlink:href="#DejaVuSans-Bold-6e" transform="translate(102.490234 0)"/>
       <use xlink:href="#DejaVuSans-Bold-79" transform="translate(173.681641 0)"/>
      </g>
     </g>
    </g>
    <g id="xtick_2">
     <g id="text_2">
      <!-- Small -->
      <g style="fill: #262626" transform="translate(159.580387 307.516326) rotate(-45) scale(0.15 -0.15)">
       <defs>
        <path id="DejaVuSans-Bold-53" d="M 3834 4519 
L 3834 3531 
Q 3450 3703 3084 3790 
Q 2719 3878 2394 3878 
Q 1963 3878 1756 3759 
Q 1550 3641 1550 3391 
Q 1550 3203 1689 3098 
Q 1828 2994 2194 2919 
L 2706 2816 
Q 3484 2659 3812 2340 
Q 4141 2022 4141 1434 
Q 4141 663 3683 286 
Q 3225 -91 2284 -91 
Q 1841 -91 1394 -6 
Q 947 78 500 244 
L 500 1259 
Q 947 1022 1364 901 
Q 1781 781 2169 781 
Q 2563 781 2772 912 
Q 2981 1044 2981 1288 
Q 2981 1506 2839 1625 
Q 2697 1744 2272 1838 
L 1806 1941 
Q 1106 2091 782 2419 
Q 459 2747 459 3303 
Q 459 4000 909 4375 
Q 1359 4750 2203 4750 
Q 2588 4750 2994 4692 
Q 3400 4634 3834 4519 
z
" transform="scale(0.015625)"/>
        <path id="DejaVuSans-Bold-6d" d="M 3781 2919 
Q 3994 3244 4286 3414 
Q 4578 3584 4928 3584 
Q 5531 3584 5847 3212 
Q 6163 2841 6163 2131 
L 6163 0 
L 5038 0 
L 5038 1825 
Q 5041 1866 5042 1909 
Q 5044 1953 5044 2034 
Q 5044 2406 4934 2573 
Q 4825 2741 4581 2741 
Q 4263 2741 4089 2478 
Q 3916 2216 3909 1719 
L 3909 0 
L 2784 0 
L 2784 1825 
Q 2784 2406 2684 2573 
Q 2584 2741 2328 2741 
Q 2006 2741 1831 2477 
Q 1656 2213 1656 1722 
L 1656 0 
L 531 0 
L 531 3500 
L 1656 3500 
L 1656 2988 
Q 1863 3284 2130 3434 
Q 2397 3584 2719 3584 
Q 3081 3584 3359 3409 
Q 3638 3234 3781 2919 
z
" transform="scale(0.015625)"/>
        <path id="DejaVuSans-Bold-61" d="M 2106 1575 
Q 1756 1575 1579 1456 
Q 1403 1338 1403 1106 
Q 1403 894 1545 773 
Q 1688 653 1941 653 
Q 2256 653 2472 879 
Q 2688 1106 2688 1447 
L 2688 1575 
L 2106 1575 
z
M 3816 1997 
L 3816 0 
L 2688 0 
L 2688 519 
Q 2463 200 2181 54 
Q 1900 -91 1497 -91 
Q 953 -91 614 226 
Q 275 544 275 1050 
Q 275 1666 698 1953 
Q 1122 2241 2028 2241 
L 2688 2241 
L 2688 2328 
Q 2688 2594 2478 2717 
Q 2269 2841 1825 2841 
Q 1466 2841 1156 2769 
Q 847 2697 581 2553 
L 581 3406 
Q 941 3494 1303 3539 
Q 1666 3584 2028 3584 
Q 2975 3584 3395 3211 
Q 3816 2838 3816 1997 
z
" transform="scale(0.015625)"/>
        <path id="DejaVuSans-Bold-6c" d="M 538 4863 
L 1656 4863 
L 1656 0 
L 538 0 
L 538 4863 
z
" transform="scale(0.015625)"/>
       </defs>
       <use xlink:href="#DejaVuSans-Bold-53"/>
       <use xlink:href="#DejaVuSans-Bold-6d" transform="translate(72.021484 0)"/>
       <use xlink:href="#DejaVuSans-Bold-61" transform="translate(176.220703 0)"/>
       <use xlink:href="#DejaVuSans-Bold-6c" transform="translate(243.701172 0)"/>
       <use xlink:href="#DejaVuSans-Bold-6c" transform="translate(277.978516 0)"/>
      </g>
     </g>
    </g>
    <g id="xtick_3">
     <g id="text_3">
      <!-- Base+ -->
      <g style="fill: #262626" transform="translate(233.742295 312.032418) rotate(-45) scale(0.15 -0.15)">
       <defs>
        <path id="DejaVuSans-Bold-42" d="M 2456 2859 
Q 2741 2859 2887 2984 
Q 3034 3109 3034 3353 
Q 3034 3594 2887 3720 
Q 2741 3847 2456 3847 
L 1791 3847 
L 1791 2859 
L 2456 2859 
z
M 2497 819 
Q 2859 819 3042 972 
Q 3225 1125 3225 1434 
Q 3225 1738 3044 1889 
Q 2863 2041 2497 2041 
L 1791 2041 
L 1791 819 
L 2497 819 
z
M 3616 2497 
Q 4003 2384 4215 2081 
Q 4428 1778 4428 1338 
Q 4428 663 3972 331 
Q 3516 0 2584 0 
L 588 0 
L 588 4666 
L 2394 4666 
Q 3366 4666 3802 4372 
Q 4238 4078 4238 3431 
Q 4238 3091 4078 2852 
Q 3919 2613 3616 2497 
z
" transform="scale(0.015625)"/>
        <path id="DejaVuSans-Bold-73" d="M 3272 3391 
L 3272 2541 
Q 2913 2691 2578 2766 
Q 2244 2841 1947 2841 
Q 1628 2841 1473 2761 
Q 1319 2681 1319 2516 
Q 1319 2381 1436 2309 
Q 1553 2238 1856 2203 
L 2053 2175 
Q 2913 2066 3209 1816 
Q 3506 1566 3506 1031 
Q 3506 472 3093 190 
Q 2681 -91 1863 -91 
Q 1516 -91 1145 -36 
Q 775 19 384 128 
L 384 978 
Q 719 816 1070 734 
Q 1422 653 1784 653 
Q 2113 653 2278 743 
Q 2444 834 2444 1013 
Q 2444 1163 2330 1236 
Q 2216 1309 1875 1350 
L 1678 1375 
Q 931 1469 631 1722 
Q 331 1975 331 2491 
Q 331 3047 712 3315 
Q 1094 3584 1881 3584 
Q 2191 3584 2531 3537 
Q 2872 3491 3272 3391 
z
" transform="scale(0.015625)"/>
        <path id="DejaVuSans-Bold-65" d="M 4031 1759 
L 4031 1441 
L 1416 1441 
Q 1456 1047 1700 850 
Q 1944 653 2381 653 
Q 2734 653 3104 758 
Q 3475 863 3866 1075 
L 3866 213 
Q 3469 63 3072 -14 
Q 2675 -91 2278 -91 
Q 1328 -91 801 392 
Q 275 875 275 1747 
Q 275 2603 792 3093 
Q 1309 3584 2216 3584 
Q 3041 3584 3536 3087 
Q 4031 2591 4031 1759 
z
M 2881 2131 
Q 2881 2450 2695 2645 
Q 2509 2841 2209 2841 
Q 1884 2841 1681 2658 
Q 1478 2475 1428 2131 
L 2881 2131 
z
" transform="scale(0.015625)"/>
        <path id="DejaVuSans-Bold-2b" d="M 3053 4013 
L 3053 2375 
L 4684 2375 
L 4684 1638 
L 3053 1638 
L 3053 0 
L 2309 0 
L 2309 1638 
L 678 1638 
L 678 2375 
L 2309 2375 
L 2309 4013 
L 3053 4013 
z
" transform="scale(0.015625)"/>
       </defs>
       <use xlink:href="#DejaVuSans-Bold-42"/>
       <use xlink:href="#DejaVuSans-Bold-61" transform="translate(76.220703 0)"/>
       <use xlink:href="#DejaVuSans-Bold-73" transform="translate(143.701172 0)"/>
       <use xlink:href="#DejaVuSans-Bold-65" transform="translate(203.222656 0)"/>
       <use xlink:href="#DejaVuSans-Bold-2b" transform="translate(271.044922 0)"/>
      </g>
     </g>
    </g>
    <g id="xtick_4">
     <g id="text_4">
      <!-- Large -->
      <g style="fill: #262626" transform="translate(316.041455 308.24553) rotate(-45) scale(0.15 -0.15)">
       <defs>
        <path id="DejaVuSans-Bold-4c" d="M 588 4666 
L 1791 4666 
L 1791 909 
L 3903 909 
L 3903 0 
L 588 0 
L 588 4666 
z
" transform="scale(0.015625)"/>
        <path id="DejaVuSans-Bold-72" d="M 3138 2547 
Q 2991 2616 2845 2648 
Q 2700 2681 2553 2681 
Q 2122 2681 1889 2404 
Q 1656 2128 1656 1613 
L 1656 0 
L 538 0 
L 538 3500 
L 1656 3500 
L 1656 2925 
Q 1872 3269 2151 3426 
Q 2431 3584 2822 3584 
Q 2878 3584 2943 3579 
Q 3009 3575 3134 3559 
L 3138 2547 
z
" transform="scale(0.015625)"/>
        <path id="DejaVuSans-Bold-67" d="M 2919 594 
Q 2688 288 2409 144 
Q 2131 0 1766 0 
Q 1125 0 706 504 
Q 288 1009 288 1791 
Q 288 2575 706 3076 
Q 1125 3578 1766 3578 
Q 2131 3578 2409 3434 
Q 2688 3291 2919 2981 
L 2919 3500 
L 4044 3500 
L 4044 353 
Q 4044 -491 3511 -936 
Q 2978 -1381 1966 -1381 
Q 1638 -1381 1331 -1331 
Q 1025 -1281 716 -1178 
L 716 -306 
Q 1009 -475 1290 -558 
Q 1572 -641 1856 -641 
Q 2406 -641 2662 -400 
Q 2919 -159 2919 353 
L 2919 594 
z
M 2181 2772 
Q 1834 2772 1640 2515 
Q 1447 2259 1447 1791 
Q 1447 1309 1634 1061 
Q 1822 813 2181 813 
Q 2531 813 2725 1069 
Q 2919 1325 2919 1791 
Q 2919 2259 2725 2515 
Q 2531 2772 2181 2772 
z
" transform="scale(0.015625)"/>
       </defs>
       <use xlink:href="#DejaVuSans-Bold-4c"/>
       <use xlink:href="#DejaVuSans-Bold-61" transform="translate(63.720703 0)"/>
       <use xlink:href="#DejaVuSans-Bold-72" transform="translate(131.201172 0)"/>
       <use xlink:href="#DejaVuSans-Bold-67" transform="translate(180.517578 0)"/>
       <use xlink:href="#DejaVuSans-Bold-65" transform="translate(252.099609 0)"/>
      </g>
     </g>
    </g>
    <g id="xtick_5">
     <g id="text_5">
      <!-- MedSAM2_latest -->
      <g style="fill: #262626" transform="translate(329.573376 373.262341) rotate(-45) scale(0.15 -0.15)">
       <defs>
        <path id="DejaVuSans-Bold-4d" d="M 588 4666 
L 2119 4666 
L 3181 2169 
L 4250 4666 
L 5778 4666 
L 5778 0 
L 4641 0 
L 4641 3413 
L 3566 897 
L 2803 897 
L 1728 3413 
L 1728 0 
L 588 0 
L 588 4666 
z
" transform="scale(0.015625)"/>
        <path id="DejaVuSans-Bold-64" d="M 2919 2988 
L 2919 4863 
L 4044 4863 
L 4044 0 
L 2919 0 
L 2919 506 
Q 2688 197 2409 53 
Q 2131 -91 1766 -91 
Q 1119 -91 703 423 
Q 288 938 288 1747 
Q 288 2556 703 3070 
Q 1119 3584 1766 3584 
Q 2128 3584 2408 3439 
Q 2688 3294 2919 2988 
z
M 2181 722 
Q 2541 722 2730 984 
Q 2919 1247 2919 1747 
Q 2919 2247 2730 2509 
Q 2541 2772 2181 2772 
Q 1825 2772 1636 2509 
Q 1447 2247 1447 1747 
Q 1447 1247 1636 984 
Q 1825 722 2181 722 
z
" transform="scale(0.015625)"/>
        <path id="DejaVuSans-Bold-41" d="M 3419 850 
L 1538 850 
L 1241 0 
L 31 0 
L 1759 4666 
L 3194 4666 
L 4922 0 
L 3713 0 
L 3419 850 
z
M 1838 1716 
L 3116 1716 
L 2478 3572 
L 1838 1716 
z
" transform="scale(0.015625)"/>
        <path id="DejaVuSans-Bold-32" d="M 1844 884 
L 3897 884 
L 3897 0 
L 506 0 
L 506 884 
L 2209 2388 
Q 2438 2594 2547 2791 
Q 2656 2988 2656 3200 
Q 2656 3528 2436 3728 
Q 2216 3928 1850 3928 
Q 1569 3928 1234 3808 
Q 900 3688 519 3450 
L 519 4475 
Q 925 4609 1322 4679 
Q 1719 4750 2100 4750 
Q 2938 4750 3402 4381 
Q 3866 4013 3866 3353 
Q 3866 2972 3669 2642 
Q 3472 2313 2841 1759 
L 1844 884 
z
" transform="scale(0.015625)"/>
        <path id="DejaVuSans-Bold-5f" d="M 3200 -916 
L 3200 -1509 
L 0 -1509 
L 0 -916 
L 3200 -916 
z
" transform="scale(0.015625)"/>
        <path id="DejaVuSans-Bold-74" d="M 1759 4494 
L 1759 3500 
L 2913 3500 
L 2913 2700 
L 1759 2700 
L 1759 1216 
Q 1759 972 1856 886 
Q 1953 800 2241 800 
L 2816 800 
L 2816 0 
L 1856 0 
Q 1194 0 917 276 
Q 641 553 641 1216 
L 641 2700 
L 84 2700 
L 84 3500 
L 641 3500 
L 641 4494 
L 1759 4494 
z
" transform="scale(0.015625)"/>
       </defs>
       <use xlink:href="#DejaVuSans-Bold-4d"/>
       <use xlink:href="#DejaVuSans-Bold-65" transform="translate(99.511719 0)"/>
       <use xlink:href="#DejaVuSans-Bold-64" transform="translate(167.333984 0)"/>
       <use xlink:href="#DejaVuSans-Bold-53" transform="translate(238.916016 0)"/>
       <use xlink:href="#DejaVuSans-Bold-41" transform="translate(310.9375 0)"/>
       <use xlink:href="#DejaVuSans-Bold-4d" transform="translate(388.330078 0)"/>
       <use xlink:href="#DejaVuSans-Bold-32" transform="translate(487.841797 0)"/>
       <use xlink:href="#DejaVuSans-Bold-5f" transform="translate(557.421875 0)"/>
       <use xlink:href="#DejaVuSans-Bold-6c" transform="translate(607.421875 0)"/>
       <use xlink:href="#DejaVuSans-Bold-61" transform="translate(641.699219 0)"/>
       <use xlink:href="#DejaVuSans-Bold-74" transform="translate(709.179688 0)"/>
       <use xlink:href="#DejaVuSans-Bold-65" transform="translate(756.982422 0)"/>
       <use xlink:href="#DejaVuSans-Bold-73" transform="translate(824.804688 0)"/>
       <use xlink:href="#DejaVuSans-Bold-74" transform="translate(884.326172 0)"/>
      </g>
     </g>
    </g>
    <g id="xtick_6">
     <g id="text_6">
      <!-- SAM-Med2D -->
      <g style="fill: #262626" transform="translate(435.082764 346.72595) rotate(-45) scale(0.15 -0.15)">
       <defs>
        <path id="DejaVuSans-Bold-2d" d="M 347 2297 
L 2309 2297 
L 2309 1388 
L 347 1388 
L 347 2297 
z
" transform="scale(0.015625)"/>
        <path id="DejaVuSans-Bold-44" d="M 1791 3756 
L 1791 909 
L 2222 909 
Q 2959 909 3348 1275 
Q 3738 1641 3738 2338 
Q 3738 3031 3350 3393 
Q 2963 3756 2222 3756 
L 1791 3756 
z
M 588 4666 
L 1856 4666 
Q 2919 4666 3439 4514 
Q 3959 4363 4331 4000 
Q 4659 3684 4818 3271 
Q 4978 2859 4978 2338 
Q 4978 1809 4818 1395 
Q 4659 981 4331 666 
Q 3956 303 3431 151 
Q 2906 0 1856 0 
L 588 0 
L 588 4666 
z
" transform="scale(0.015625)"/>
       </defs>
       <use xlink:href="#DejaVuSans-Bold-53"/>
       <use xlink:href="#DejaVuSans-Bold-41" transform="translate(72.021484 0)"/>
       <use xlink:href="#DejaVuSans-Bold-4d" transform="translate(149.414062 0)"/>
       <use xlink:href="#DejaVuSans-Bold-2d" transform="translate(248.925781 0)"/>
       <use xlink:href="#DejaVuSans-Bold-4d" transform="translate(290.429688 0)"/>
       <use xlink:href="#DejaVuSans-Bold-65" transform="translate(389.941406 0)"/>
       <use xlink:href="#DejaVuSans-Bold-64" transform="translate(457.763672 0)"/>
       <use xlink:href="#DejaVuSans-Bold-32" transform="translate(529.345703 0)"/>
       <use xlink:href="#DejaVuSans-Bold-44" transform="translate(598.925781 0)"/>
      </g>
     </g>
    </g>
    <g id="xtick_7">
     <g id="text_7">
      <!-- Tiny_FT300 -->
      <g style="fill: #262626" transform="translate(518.535392 341.656325) rotate(-45) scale(0.15 -0.15)">
       <defs>
        <path id="DejaVuSans-Bold-46" d="M 588 4666 
L 3834 4666 
L 3834 3756 
L 1791 3756 
L 1791 2888 
L 3713 2888 
L 3713 1978 
L 1791 1978 
L 1791 0 
L 588 0 
L 588 4666 
z
" transform="scale(0.015625)"/>
        <path id="DejaVuSans-Bold-33" d="M 2981 2516 
Q 3453 2394 3698 2092 
Q 3944 1791 3944 1325 
Q 3944 631 3412 270 
Q 2881 -91 1863 -91 
Q 1503 -91 1142 -33 
Q 781 25 428 141 
L 428 1069 
Q 766 900 1098 814 
Q 1431 728 1753 728 
Q 2231 728 2486 893 
Q 2741 1059 2741 1369 
Q 2741 1688 2480 1852 
Q 2219 2016 1709 2016 
L 1228 2016 
L 1228 2791 
L 1734 2791 
Q 2188 2791 2409 2933 
Q 2631 3075 2631 3366 
Q 2631 3634 2415 3781 
Q 2200 3928 1806 3928 
Q 1516 3928 1219 3862 
Q 922 3797 628 3669 
L 628 4550 
Q 984 4650 1334 4700 
Q 1684 4750 2022 4750 
Q 2931 4750 3382 4451 
Q 3834 4153 3834 3553 
Q 3834 3144 3618 2883 
Q 3403 2622 2981 2516 
z
" transform="scale(0.015625)"/>
        <path id="DejaVuSans-Bold-30" d="M 2944 2338 
Q 2944 3213 2780 3570 
Q 2616 3928 2228 3928 
Q 1841 3928 1675 3570 
Q 1509 3213 1509 2338 
Q 1509 1453 1675 1090 
Q 1841 728 2228 728 
Q 2613 728 2778 1090 
Q 2944 1453 2944 2338 
z
M 4147 2328 
Q 4147 1169 3647 539 
Q 3147 -91 2228 -91 
Q 1306 -91 806 539 
Q 306 1169 306 2328 
Q 306 3491 806 4120 
Q 1306 4750 2228 4750 
Q 3147 4750 3647 4120 
Q 4147 3491 4147 2328 
z
" transform="scale(0.015625)"/>
       </defs>
       <use xlink:href="#DejaVuSans-Bold-54"/>
       <use xlink:href="#DejaVuSans-Bold-69" transform="translate(68.212891 0)"/>
       <use xlink:href="#DejaVuSans-Bold-6e" transform="translate(102.490234 0)"/>
       <use xlink:href="#DejaVuSans-Bold-79" transform="translate(173.681641 0)"/>
       <use xlink:href="#DejaVuSans-Bold-5f" transform="translate(238.867188 0)"/>
       <use xlink:href="#DejaVuSans-Bold-46" transform="translate(288.867188 0)"/>
       <use xlink:href="#DejaVuSans-Bold-54" transform="translate(357.177734 0)"/>
       <use xlink:href="#DejaVuSans-Bold-33" transform="translate(425.390625 0)"/>
       <use xlink:href="#DejaVuSans-Bold-30" transform="translate(494.970703 0)"/>
       <use xlink:href="#DejaVuSans-Bold-30" transform="translate(564.550781 0)"/>
      </g>
     </g>
    </g>
    <g id="xtick_8">
     <g id="text_8">
      <!-- Tiny_FT500 -->
      <g style="fill: #262626" transform="translate(597.213392 341.656325) rotate(-45) scale(0.15 -0.15)">
       <defs>
        <path id="DejaVuSans-Bold-35" d="M 678 4666 
L 3669 4666 
L 3669 3781 
L 1638 3781 
L 1638 3059 
Q 1775 3097 1914 3117 
Q 2053 3138 2203 3138 
Q 3056 3138 3531 2711 
Q 4006 2284 4006 1522 
Q 4006 766 3489 337 
Q 2972 -91 2053 -91 
Q 1656 -91 1267 -14 
Q 878 63 494 219 
L 494 1166 
Q 875 947 1217 837 
Q 1559 728 1863 728 
Q 2300 728 2551 942 
Q 2803 1156 2803 1522 
Q 2803 1891 2551 2103 
Q 2300 2316 1863 2316 
Q 1603 2316 1309 2248 
Q 1016 2181 678 2041 
L 678 4666 
z
" transform="scale(0.015625)"/>
       </defs>
       <use xlink:href="#DejaVuSans-Bold-54"/>
       <use xlink:href="#DejaVuSans-Bold-69" transform="translate(68.212891 0)"/>
       <use xlink:href="#DejaVuSans-Bold-6e" transform="translate(102.490234 0)"/>
       <use xlink:href="#DejaVuSans-Bold-79" transform="translate(173.681641 0)"/>
       <use xlink:href="#DejaVuSans-Bold-5f" transform="translate(238.867188 0)"/>
       <use xlink:href="#DejaVuSans-Bold-46" transform="translate(288.867188 0)"/>
       <use xlink:href="#DejaVuSans-Bold-54" transform="translate(357.177734 0)"/>
       <use xlink:href="#DejaVuSans-Bold-35" transform="translate(425.390625 0)"/>
       <use xlink:href="#DejaVuSans-Bold-30" transform="translate(494.970703 0)"/>
       <use xlink:href="#DejaVuSans-Bold-30" transform="translate(564.550781 0)"/>
      </g>
     </g>
    </g>
    <g id="xtick_9">
     <g id="text_9">
      <!-- Tiny_FT1k -->
      <g style="fill: #262626" transform="translate(683.597751 333.949966) rotate(-45) scale(0.15 -0.15)">
       <defs>
        <path id="DejaVuSans-Bold-31" d="M 750 831 
L 1813 831 
L 1813 3847 
L 722 3622 
L 722 4441 
L 1806 4666 
L 2950 4666 
L 2950 831 
L 4013 831 
L 4013 0 
L 750 0 
L 750 831 
z
" transform="scale(0.015625)"/>
        <path id="DejaVuSans-Bold-6b" d="M 538 4863 
L 1656 4863 
L 1656 2216 
L 2944 3500 
L 4244 3500 
L 2534 1894 
L 4378 0 
L 3022 0 
L 1656 1459 
L 1656 0 
L 538 0 
L 538 4863 
z
" transform="scale(0.015625)"/>
       </defs>
       <use xlink:href="#DejaVuSans-Bold-54"/>
       <use xlink:href="#DejaVuSans-Bold-69" transform="translate(68.212891 0)"/>
       <use xlink:href="#DejaVuSans-Bold-6e" transform="translate(102.490234 0)"/>
       <use xlink:href="#DejaVuSans-Bold-79" transform="translate(173.681641 0)"/>
       <use xlink:href="#DejaVuSans-Bold-5f" transform="translate(238.867188 0)"/>
       <use xlink:href="#DejaVuSans-Bold-46" transform="translate(288.867188 0)"/>
       <use xlink:href="#DejaVuSans-Bold-54" transform="translate(357.177734 0)"/>
       <use xlink:href="#DejaVuSans-Bold-31" transform="translate(425.390625 0)"/>
       <use xlink:href="#DejaVuSans-Bold-6b" transform="translate(494.970703 0)"/>
      </g>
     </g>
    </g>
    <g id="xtick_10">
     <g id="text_10">
      <!-- TinyGlottis_FT1k -->
      <g style="fill: #262626" transform="translate(722.558999 373.666718) rotate(-45) scale(0.15 -0.15)">
       <defs>
        <path id="DejaVuSans-Bold-47" d="M 4781 347 
Q 4331 128 3847 18 
Q 3363 -91 2847 -91 
Q 1681 -91 1000 561 
Q 319 1213 319 2328 
Q 319 3456 1012 4103 
Q 1706 4750 2913 4750 
Q 3378 4750 3804 4662 
Q 4231 4575 4609 4403 
L 4609 3438 
Q 4219 3659 3833 3768 
Q 3447 3878 3059 3878 
Q 2341 3878 1952 3476 
Q 1563 3075 1563 2328 
Q 1563 1588 1938 1184 
Q 2313 781 3003 781 
Q 3191 781 3352 804 
Q 3513 828 3641 878 
L 3641 1784 
L 2906 1784 
L 2906 2591 
L 4781 2591 
L 4781 347 
z
" transform="scale(0.015625)"/>
        <path id="DejaVuSans-Bold-6f" d="M 2203 2784 
Q 1831 2784 1636 2517 
Q 1441 2250 1441 1747 
Q 1441 1244 1636 976 
Q 1831 709 2203 709 
Q 2569 709 2762 976 
Q 2956 1244 2956 1747 
Q 2956 2250 2762 2517 
Q 2569 2784 2203 2784 
z
M 2203 3584 
Q 3106 3584 3614 3096 
Q 4122 2609 4122 1747 
Q 4122 884 3614 396 
Q 3106 -91 2203 -91 
Q 1297 -91 786 396 
Q 275 884 275 1747 
Q 275 2609 786 3096 
Q 1297 3584 2203 3584 
z
" transform="scale(0.015625)"/>
       </defs>
       <use xlink:href="#DejaVuSans-Bold-54"/>
       <use xlink:href="#DejaVuSans-Bold-69" transform="translate(68.212891 0)"/>
       <use xlink:href="#DejaVuSans-Bold-6e" transform="translate(102.490234 0)"/>
       <use xlink:href="#DejaVuSans-Bold-79" transform="translate(173.681641 0)"/>
       <use xlink:href="#DejaVuSans-Bold-47" transform="translate(238.867188 0)"/>
       <use xlink:href="#DejaVuSans-Bold-6c" transform="translate(320.947266 0)"/>
       <use xlink:href="#DejaVuSans-Bold-6f" transform="translate(355.224609 0)"/>
       <use xlink:href="#DejaVuSans-Bold-74" transform="translate(423.925781 0)"/>
       <use xlink:href="#DejaVuSans-Bold-74" transform="translate(471.728516 0)"/>
       <use xlink:href="#DejaVuSans-Bold-69" transform="translate(519.53125 0)"/>
       <use xlink:href="#DejaVuSans-Bold-73" transform="translate(553.808594 0)"/>
       <use xlink:href="#DejaVuSans-Bold-5f" transform="translate(613.330078 0)"/>
       <use xlink:href="#DejaVuSans-Bold-46" transform="translate(663.330078 0)"/>
       <use xlink:href="#DejaVuSans-Bold-54" transform="translate(731.640625 0)"/>
       <use xlink:href="#DejaVuSans-Bold-31" transform="translate(799.853516 0)"/>
       <use xlink:href="#DejaVuSans-Bold-6b" transform="translate(869.433594 0)"/>
      </g>
     </g>
    </g>
   </g>
   <g id="matplotlib.axis_2">
    <g id="ytick_1">
     <g id="line2d_1">
      <path d="M 76.89 243.181822 
L 863.67 243.181822 
" clip-path="url(#p4ec557b2e4)" style="fill: none; stroke: #cccccc; stroke-width: 1.5; stroke-linecap: round"/>
     </g>
     <g id="text_11">
      <!-- 0.0 -->
      <g style="fill: #262626" transform="translate(37.818906 248.880651) scale(0.15 -0.15)">
       <defs>
        <path id="DejaVuSans-Bold-2e" d="M 653 1209 
L 1778 1209 
L 1778 0 
L 653 0 
L 653 1209 
z
" transform="scale(0.015625)"/>
       </defs>
       <use xlink:href="#DejaVuSans-Bold-30"/>
       <use xlink:href="#DejaVuSans-Bold-2e" transform="translate(69.580078 0)"/>
       <use xlink:href="#DejaVuSans-Bold-30" transform="translate(107.568359 0)"/>
      </g>
     </g>
    </g>
    <g id="ytick_2">
     <g id="line2d_2">
      <path d="M 76.89 200.555877 
L 863.67 200.555877 
" clip-path="url(#p4ec557b2e4)" style="fill: none; stroke: #cccccc; stroke-width: 1.5; stroke-linecap: round"/>
     </g>
     <g id="text_12">
      <!-- 0.2 -->
      <g style="fill: #262626" transform="translate(37.818906 206.254705) scale(0.15 -0.15)">
       <use xlink:href="#DejaVuSans-Bold-30"/>
       <use xlink:href="#DejaVuSans-Bold-2e" transform="translate(69.580078 0)"/>
       <use xlink:href="#DejaVuSans-Bold-32" transform="translate(107.568359 0)"/>
      </g>
     </g>
    </g>
    <g id="ytick_3">
     <g id="line2d_3">
      <path d="M 76.89 157.929932 
L 863.67 157.929932 
" clip-path="url(#p4ec557b2e4)" style="fill: none; stroke: #cccccc; stroke-width: 1.5; stroke-linecap: round"/>
     </g>
     <g id="text_13">
      <!-- 0.4 -->
      <g style="fill: #262626" transform="translate(37.818906 163.62876) scale(0.15 -0.15)">
       <defs>
        <path id="DejaVuSans-Bold-34" d="M 2356 3675 
L 1038 1722 
L 2356 1722 
L 2356 3675 
z
M 2156 4666 
L 3494 4666 
L 3494 1722 
L 4159 1722 
L 4159 850 
L 3494 850 
L 3494 0 
L 2356 0 
L 2356 850 
L 288 850 
L 288 1881 
L 2156 4666 
z
" transform="scale(0.015625)"/>
       </defs>
       <use xlink:href="#DejaVuSans-Bold-30"/>
       <use xlink:href="#DejaVuSans-Bold-2e" transform="translate(69.580078 0)"/>
       <use xlink:href="#DejaVuSans-Bold-34" transform="translate(107.568359 0)"/>
      </g>
     </g>
    </g>
    <g id="ytick_4">
     <g id="line2d_4">
      <path d="M 76.89 115.303986 
L 863.67 115.303986 
" clip-path="url(#p4ec557b2e4)" style="fill: none; stroke: #cccccc; stroke-width: 1.5; stroke-linecap: round"/>
     </g>
     <g id="text_14">
      <!-- 0.6 -->
      <g style="fill: #262626" transform="translate(37.818906 121.002814) scale(0.15 -0.15)">
       <defs>
        <path id="DejaVuSans-Bold-36" d="M 2316 2303 
Q 2000 2303 1842 2098 
Q 1684 1894 1684 1484 
Q 1684 1075 1842 870 
Q 2000 666 2316 666 
Q 2634 666 2792 870 
Q 2950 1075 2950 1484 
Q 2950 1894 2792 2098 
Q 2634 2303 2316 2303 
z
M 3803 4544 
L 3803 3681 
Q 3506 3822 3243 3889 
Q 2981 3956 2731 3956 
Q 2194 3956 1894 3657 
Q 1594 3359 1544 2772 
Q 1750 2925 1990 3001 
Q 2231 3078 2516 3078 
Q 3231 3078 3670 2659 
Q 4109 2241 4109 1563 
Q 4109 813 3618 361 
Q 3128 -91 2303 -91 
Q 1394 -91 895 523 
Q 397 1138 397 2266 
Q 397 3422 980 4083 
Q 1563 4744 2578 4744 
Q 2900 4744 3203 4694 
Q 3506 4644 3803 4544 
z
" transform="scale(0.015625)"/>
       </defs>
       <use xlink:href="#DejaVuSans-Bold-30"/>
       <use xlink:href="#DejaVuSans-Bold-2e" transform="translate(69.580078 0)"/>
       <use xlink:href="#DejaVuSans-Bold-36" transform="translate(107.568359 0)"/>
      </g>
     </g>
    </g>
    <g id="ytick_5">
     <g id="line2d_5">
      <path d="M 76.89 72.678041 
L 863.67 72.678041 
" clip-path="url(#p4ec557b2e4)" style="fill: none; stroke: #cccccc; stroke-width: 1.5; stroke-linecap: round"/>
     </g>
     <g id="text_15">
      <!-- 0.8 -->
      <g style="fill: #262626" transform="translate(37.818906 78.376869) scale(0.15 -0.15)">
       <defs>
        <path id="DejaVuSans-Bold-38" d="M 2228 2088 
Q 1891 2088 1709 1903 
Q 1528 1719 1528 1375 
Q 1528 1031 1709 848 
Q 1891 666 2228 666 
Q 2563 666 2741 848 
Q 2919 1031 2919 1375 
Q 2919 1722 2741 1905 
Q 2563 2088 2228 2088 
z
M 1350 2484 
Q 925 2613 709 2878 
Q 494 3144 494 3541 
Q 494 4131 934 4440 
Q 1375 4750 2228 4750 
Q 3075 4750 3515 4442 
Q 3956 4134 3956 3541 
Q 3956 3144 3739 2878 
Q 3522 2613 3097 2484 
Q 3572 2353 3814 2058 
Q 4056 1763 4056 1313 
Q 4056 619 3595 264 
Q 3134 -91 2228 -91 
Q 1319 -91 855 264 
Q 391 619 391 1313 
Q 391 1763 633 2058 
Q 875 2353 1350 2484 
z
M 1631 3419 
Q 1631 3141 1786 2991 
Q 1941 2841 2228 2841 
Q 2509 2841 2662 2991 
Q 2816 3141 2816 3419 
Q 2816 3697 2662 3845 
Q 2509 3994 2228 3994 
Q 1941 3994 1786 3844 
Q 1631 3694 1631 3419 
z
" transform="scale(0.015625)"/>
       </defs>
       <use xlink:href="#DejaVuSans-Bold-30"/>
       <use xlink:href="#DejaVuSans-Bold-2e" transform="translate(69.580078 0)"/>
       <use xlink:href="#DejaVuSans-Bold-38" transform="translate(107.568359 0)"/>
      </g>
     </g>
    </g>
    <g id="ytick_6">
     <g id="line2d_6">
      <path d="M 76.89 30.052095 
L 863.67 30.052095 
" clip-path="url(#p4ec557b2e4)" style="fill: none; stroke: #cccccc; stroke-width: 1.5; stroke-linecap: round"/>
     </g>
     <g id="text_16">
      <!-- 1.0 -->
      <g style="fill: #262626" transform="translate(37.818906 35.750923) scale(0.15 -0.15)">
       <use xlink:href="#DejaVuSans-Bold-31"/>
       <use xlink:href="#DejaVuSans-Bold-2e" transform="translate(69.580078 0)"/>
       <use xlink:href="#DejaVuSans-Bold-30" transform="translate(107.568359 0)"/>
      </g>
     </g>
    </g>
    <g id="text_17">
     <!-- IoU -->
     <g style="fill: #262626" transform="translate(30.699375 150.671301) rotate(-90) scale(0.15 -0.15)">
      <defs>
       <path id="DejaVuSans-Bold-49" d="M 588 4666 
L 1791 4666 
L 1791 0 
L 588 0 
L 588 4666 
z
" transform="scale(0.015625)"/>
       <path id="DejaVuSans-Bold-55" d="M 588 4666 
L 1791 4666 
L 1791 1869 
Q 1791 1291 1980 1042 
Q 2169 794 2597 794 
Q 3028 794 3217 1042 
Q 3406 1291 3406 1869 
L 3406 4666 
L 4609 4666 
L 4609 1869 
Q 4609 878 4112 393 
Q 3616 -91 2597 -91 
Q 1581 -91 1084 393 
Q 588 878 588 1869 
L 588 4666 
z
" transform="scale(0.015625)"/>
      </defs>
      <use xlink:href="#DejaVuSans-Bold-49"/>
      <use xlink:href="#DejaVuSans-Bold-6f" transform="translate(37.207031 0)"/>
      <use xlink:href="#DejaVuSans-Bold-55" transform="translate(105.908203 0)"/>
     </g>
    </g>
   </g>
   <g id="patch_3">
    <path d="M 116.229 243.181822 
L 116.229 243.181822 
L 116.229 243.181822 
L 116.229 243.181822 
z
" clip-path="url(#p4ec557b2e4)" style="fill: #96cac1; stroke: #6a6a6a; stroke-width: 1.5; stroke-linejoin: miter"/>
   </g>
   <g id="patch_4">
    <path d="M 116.229 243.181822 
L 116.229 243.181822 
L 116.229 243.181822 
L 116.229 243.181822 
z
" clip-path="url(#p4ec557b2e4)" style="fill: #f6f6bc; stroke: #6a6a6a; stroke-width: 1.5; stroke-linejoin: miter"/>
   </g>
   <g id="patch_5">
    <path d="M 116.229 243.181822 
L 116.229 243.181822 
L 116.229 243.181822 
L 116.229 243.181822 
z
" clip-path="url(#p4ec557b2e4)" style="fill: #c1bed6; stroke: #6a6a6a; stroke-width: 1.5; stroke-linejoin: miter"/>
   </g>
   <g id="patch_6">
    <path d="M 116.229 243.181822 
L 116.229 243.181822 
L 116.229 243.181822 
L 116.229 243.181822 
z
" clip-path="url(#p4ec557b2e4)" style="fill: #ea8e83; stroke: #6a6a6a; stroke-width: 1.5; stroke-linejoin: miter"/>
   </g>
   <g id="patch_7">
    <path d="M 84.7578 171.399385 
L 100.4934 171.399385 
L 100.4934 87.19075 
L 84.7578 87.19075 
L 84.7578 171.399385 
z
" clip-path="url(#p4ec557b2e4)" style="fill: #96cac1; stroke: #6a6a6a; stroke-linejoin: miter"/>
   </g>
   <g id="line2d_7">
    <path d="M 92.6256 171.399385 
L 92.6256 243.041235 
" clip-path="url(#p4ec557b2e4)" style="fill: none; stroke: #6a6a6a"/>
   </g>
   <g id="line2d_8">
    <path d="M 92.6256 87.19075 
L 92.6256 32.461902 
" clip-path="url(#p4ec557b2e4)" style="fill: none; stroke: #6a6a6a"/>
   </g>
   <g id="line2d_9">
    <path d="M 88.6917 243.041235 
L 96.5595 243.041235 
" clip-path="url(#p4ec557b2e4)" style="fill: none; stroke: #6a6a6a; stroke-linecap: round"/>
   </g>
   <g id="line2d_10">
    <path d="M 88.6917 32.461902 
L 96.5595 32.461902 
" clip-path="url(#p4ec557b2e4)" style="fill: none; stroke: #6a6a6a; stroke-linecap: round"/>
   </g>
   <g id="patch_8">
    <path d="M 163.4358 164.009519 
L 179.1714 164.009519 
L 179.1714 75.13629 
L 163.4358 75.13629 
L 163.4358 164.009519 
z
" clip-path="url(#p4ec557b2e4)" style="fill: #96cac1; stroke: #6a6a6a; stroke-linejoin: miter"/>
   </g>
   <g id="line2d_11">
    <path d="M 171.3036 164.009519 
L 171.3036 243.164971 
" clip-path="url(#p4ec557b2e4)" style="fill: none; stroke: #6a6a6a"/>
   </g>
   <g id="line2d_12">
    <path d="M 171.3036 75.13629 
L 171.3036 33.406437 
" clip-path="url(#p4ec557b2e4)" style="fill: none; stroke: #6a6a6a"/>
   </g>
   <g id="line2d_13">
    <path d="M 167.3697 243.164971 
L 175.2375 243.164971 
" clip-path="url(#p4ec557b2e4)" style="fill: none; stroke: #6a6a6a; stroke-linecap: round"/>
   </g>
   <g id="line2d_14">
    <path d="M 167.3697 33.406437 
L 175.2375 33.406437 
" clip-path="url(#p4ec557b2e4)" style="fill: none; stroke: #6a6a6a; stroke-linecap: round"/>
   </g>
   <g id="patch_9">
    <path d="M 242.1138 160.367486 
L 257.8494 160.367486 
L 257.8494 66.007966 
L 242.1138 66.007966 
L 242.1138 160.367486 
z
" clip-path="url(#p4ec557b2e4)" style="fill: #96cac1; stroke: #6a6a6a; stroke-linejoin: miter"/>
   </g>
   <g id="line2d_15">
    <path d="M 249.9816 160.367486 
L 249.9816 243.181822 
" clip-path="url(#p4ec557b2e4)" style="fill: none; stroke: #6a6a6a"/>
   </g>
   <g id="line2d_16">
    <path d="M 249.9816 66.007966 
L 249.9816 33.997913 
" clip-path="url(#p4ec557b2e4)" style="fill: none; stroke: #6a6a6a"/>
   </g>
   <g id="line2d_17">
    <path d="M 246.0477 243.181822 
L 253.9155 243.181822 
" clip-path="url(#p4ec557b2e4)" style="fill: none; stroke: #6a6a6a; stroke-linecap: round"/>
   </g>
   <g id="line2d_18">
    <path d="M 246.0477 33.997913 
L 253.9155 33.997913 
" clip-path="url(#p4ec557b2e4)" style="fill: none; stroke: #6a6a6a; stroke-linecap: round"/>
   </g>
   <g id="patch_10">
    <path d="M 320.7918 154.11313 
L 336.5274 154.11313 
L 336.5274 60.169118 
L 320.7918 60.169118 
L 320.7918 154.11313 
z
" clip-path="url(#p4ec557b2e4)" style="fill: #96cac1; stroke: #6a6a6a; stroke-linejoin: miter"/>
   </g>
   <g id="line2d_19">
    <path d="M 328.6596 154.11313 
L 328.6596 243.056259 
" clip-path="url(#p4ec557b2e4)" style="fill: none; stroke: #6a6a6a"/>
   </g>
   <g id="line2d_20">
    <path d="M 328.6596 60.169118 
L 328.6596 34.624097 
" clip-path="url(#p4ec557b2e4)" style="fill: none; stroke: #6a6a6a"/>
   </g>
   <g id="line2d_21">
    <path d="M 324.7257 243.056259 
L 332.5935 243.056259 
" clip-path="url(#p4ec557b2e4)" style="fill: none; stroke: #6a6a6a; stroke-linecap: round"/>
   </g>
   <g id="line2d_22">
    <path d="M 324.7257 34.624097 
L 332.5935 34.624097 
" clip-path="url(#p4ec557b2e4)" style="fill: none; stroke: #6a6a6a; stroke-linecap: round"/>
   </g>
   <g id="patch_11">
    <path d="M 399.4698 159.587253 
L 415.2054 159.587253 
L 415.2054 62.218704 
L 399.4698 62.218704 
L 399.4698 159.587253 
z
" clip-path="url(#p4ec557b2e4)" style="fill: #96cac1; stroke: #6a6a6a; stroke-linejoin: miter"/>
   </g>
   <g id="line2d_23">
    <path d="M 407.3376 159.587253 
L 407.3376 243.110791 
" clip-path="url(#p4ec557b2e4)" style="fill: none; stroke: #6a6a6a"/>
   </g>
   <g id="line2d_24">
    <path d="M 407.3376 62.218704 
L 407.3376 35.982881 
" clip-path="url(#p4ec557b2e4)" style="fill: none; stroke: #6a6a6a"/>
   </g>
   <g id="line2d_25">
    <path d="M 403.4037 243.110791 
L 411.2715 243.110791 
" clip-path="url(#p4ec557b2e4)" style="fill: none; stroke: #6a6a6a; stroke-linecap: round"/>
   </g>
   <g id="line2d_26">
    <path d="M 403.4037 35.982881 
L 411.2715 35.982881 
" clip-path="url(#p4ec557b2e4)" style="fill: none; stroke: #6a6a6a; stroke-linecap: round"/>
   </g>
   <g id="patch_12">
    <path d="M 478.1478 197.160855 
L 493.8834 197.160855 
L 493.8834 117.700886 
L 478.1478 117.700886 
L 478.1478 197.160855 
z
" clip-path="url(#p4ec557b2e4)" style="fill: #96cac1; stroke: #6a6a6a; stroke-linejoin: miter"/>
   </g>
   <g id="line2d_27">
    <path d="M 486.0156 197.160855 
L 486.0156 243.026338 
" clip-path="url(#p4ec557b2e4)" style="fill: none; stroke: #6a6a6a"/>
   </g>
   <g id="line2d_28">
    <path d="M 486.0156 117.700886 
L 486.0156 43.471374 
" clip-path="url(#p4ec557b2e4)" style="fill: none; stroke: #6a6a6a"/>
   </g>
   <g id="line2d_29">
    <path d="M 482.0817 243.026338 
L 489.9495 243.026338 
" clip-path="url(#p4ec557b2e4)" style="fill: none; stroke: #6a6a6a; stroke-linecap: round"/>
   </g>
   <g id="line2d_30">
    <path d="M 482.0817 43.471374 
L 489.9495 43.471374 
" clip-path="url(#p4ec557b2e4)" style="fill: none; stroke: #6a6a6a; stroke-linecap: round"/>
   </g>
   <g id="patch_13">
    <path d="M 556.8258 117.13736 
L 572.5614 117.13736 
L 572.5614 56.375486 
L 556.8258 56.375486 
L 556.8258 117.13736 
z
" clip-path="url(#p4ec557b2e4)" style="fill: #96cac1; stroke: #6a6a6a; stroke-linejoin: miter"/>
   </g>
   <g id="line2d_31">
    <path d="M 564.6936 117.13736 
L 564.6936 208.0119 
" clip-path="url(#p4ec557b2e4)" style="fill: none; stroke: #6a6a6a"/>
   </g>
   <g id="line2d_32">
    <path d="M 564.6936 56.375486 
L 564.6936 36.347847 
" clip-path="url(#p4ec557b2e4)" style="fill: none; stroke: #6a6a6a"/>
   </g>
   <g id="line2d_33">
    <path d="M 560.7597 208.0119 
L 568.6275 208.0119 
" clip-path="url(#p4ec557b2e4)" style="fill: none; stroke: #6a6a6a; stroke-linecap: round"/>
   </g>
   <g id="line2d_34">
    <path d="M 560.7597 36.347847 
L 568.6275 36.347847 
" clip-path="url(#p4ec557b2e4)" style="fill: none; stroke: #6a6a6a; stroke-linecap: round"/>
   </g>
   <g id="patch_14">
    <path d="M 635.5038 95.630472 
L 651.2394 95.630472 
L 651.2394 52.153886 
L 635.5038 52.153886 
L 635.5038 95.630472 
z
" clip-path="url(#p4ec557b2e4)" style="fill: #96cac1; stroke: #6a6a6a; stroke-linejoin: miter"/>
   </g>
   <g id="line2d_35">
    <path d="M 643.3716 95.630472 
L 643.3716 160.395238 
" clip-path="url(#p4ec557b2e4)" style="fill: none; stroke: #6a6a6a"/>
   </g>
   <g id="line2d_36">
    <path d="M 643.3716 52.153886 
L 643.3716 34.929296 
" clip-path="url(#p4ec557b2e4)" style="fill: none; stroke: #6a6a6a"/>
   </g>
   <g id="line2d_37">
    <path d="M 639.4377 160.395238 
L 647.3055 160.395238 
" clip-path="url(#p4ec557b2e4)" style="fill: none; stroke: #6a6a6a; stroke-linecap: round"/>
   </g>
   <g id="line2d_38">
    <path d="M 639.4377 34.929296 
L 647.3055 34.929296 
" clip-path="url(#p4ec557b2e4)" style="fill: none; stroke: #6a6a6a; stroke-linecap: round"/>
   </g>
   <g id="patch_15">
    <path d="M 714.1818 79.908072 
L 729.9174 79.908072 
L 729.9174 48.5155 
L 714.1818 48.5155 
L 714.1818 79.908072 
z
" clip-path="url(#p4ec557b2e4)" style="fill: #96cac1; stroke: #6a6a6a; stroke-linejoin: miter"/>
   </g>
   <g id="line2d_39">
    <path d="M 722.0496 79.908072 
L 722.0496 126.988964 
" clip-path="url(#p4ec557b2e4)" style="fill: none; stroke: #6a6a6a"/>
   </g>
   <g id="line2d_40">
    <path d="M 722.0496 48.5155 
L 722.0496 33.653238 
" clip-path="url(#p4ec557b2e4)" style="fill: none; stroke: #6a6a6a"/>
   </g>
   <g id="line2d_41">
    <path d="M 718.1157 126.988964 
L 725.9835 126.988964 
" clip-path="url(#p4ec557b2e4)" style="fill: none; stroke: #6a6a6a; stroke-linecap: round"/>
   </g>
   <g id="line2d_42">
    <path d="M 718.1157 33.653238 
L 725.9835 33.653238 
" clip-path="url(#p4ec557b2e4)" style="fill: none; stroke: #6a6a6a; stroke-linecap: round"/>
   </g>
   <g id="patch_16">
    <path d="M 792.8598 240.808486 
L 808.5954 240.808486 
L 808.5954 104.376938 
L 792.8598 104.376938 
L 792.8598 240.808486 
z
" clip-path="url(#p4ec557b2e4)" style="fill: #96cac1; stroke: #6a6a6a; stroke-linejoin: miter"/>
   </g>
   <g id="line2d_43">
    <path d="M 800.7276 240.808486 
L 800.7276 243.181822 
" clip-path="url(#p4ec557b2e4)" style="fill: none; stroke: #6a6a6a"/>
   </g>
   <g id="line2d_44">
    <path d="M 800.7276 104.376938 
L 800.7276 34.59466 
" clip-path="url(#p4ec557b2e4)" style="fill: none; stroke: #6a6a6a"/>
   </g>
   <g id="line2d_45">
    <path d="M 796.7937 243.181822 
L 804.6615 243.181822 
" clip-path="url(#p4ec557b2e4)" style="fill: none; stroke: #6a6a6a; stroke-linecap: round"/>
   </g>
   <g id="line2d_46">
    <path d="M 796.7937 34.59466 
L 804.6615 34.59466 
" clip-path="url(#p4ec557b2e4)" style="fill: none; stroke: #6a6a6a; stroke-linecap: round"/>
   </g>
   <g id="patch_17">
    <path d="M 100.4934 91.446928 
L 116.229 91.446928 
L 116.229 50.619114 
L 100.4934 50.619114 
L 100.4934 91.446928 
z
" clip-path="url(#p4ec557b2e4)" style="fill: #f6f6bc; stroke: #6a6a6a; stroke-linejoin: miter"/>
   </g>
   <g id="line2d_47">
    <path d="M 108.3612 91.446928 
L 108.3612 152.054243 
" clip-path="url(#p4ec557b2e4)" style="fill: none; stroke: #6a6a6a"/>
   </g>
   <g id="line2d_48">
    <path d="M 108.3612 50.619114 
L 108.3612 30.094372 
" clip-path="url(#p4ec557b2e4)" style="fill: none; stroke: #6a6a6a"/>
   </g>
   <g id="line2d_49">
    <path d="M 104.4273 152.054243 
L 112.2951 152.054243 
" clip-path="url(#p4ec557b2e4)" style="fill: none; stroke: #6a6a6a; stroke-linecap: round"/>
   </g>
   <g id="line2d_50">
    <path d="M 104.4273 30.094372 
L 112.2951 30.094372 
" clip-path="url(#p4ec557b2e4)" style="fill: none; stroke: #6a6a6a; stroke-linecap: round"/>
   </g>
   <g id="patch_18">
    <path d="M 179.1714 92.524437 
L 194.907 92.524437 
L 194.907 51.583746 
L 179.1714 51.583746 
L 179.1714 92.524437 
z
" clip-path="url(#p4ec557b2e4)" style="fill: #f6f6bc; stroke: #6a6a6a; stroke-linejoin: miter"/>
   </g>
   <g id="line2d_51">
    <path d="M 187.0392 92.524437 
L 187.0392 153.605558 
" clip-path="url(#p4ec557b2e4)" style="fill: none; stroke: #6a6a6a"/>
   </g>
   <g id="line2d_52">
    <path d="M 187.0392 51.583746 
L 187.0392 30.354541 
" clip-path="url(#p4ec557b2e4)" style="fill: none; stroke: #6a6a6a"/>
   </g>
   <g id="line2d_53">
    <path d="M 183.1053 153.605558 
L 190.9731 153.605558 
" clip-path="url(#p4ec557b2e4)" style="fill: none; stroke: #6a6a6a; stroke-linecap: round"/>
   </g>
   <g id="line2d_54">
    <path d="M 183.1053 30.354541 
L 190.9731 30.354541 
" clip-path="url(#p4ec557b2e4)" style="fill: none; stroke: #6a6a6a; stroke-linecap: round"/>
   </g>
   <g id="patch_19">
    <path d="M 257.8494 93.581148 
L 273.585 93.581148 
L 273.585 47.738092 
L 257.8494 47.738092 
L 257.8494 93.581148 
z
" clip-path="url(#p4ec557b2e4)" style="fill: #f6f6bc; stroke: #6a6a6a; stroke-linejoin: miter"/>
   </g>
   <g id="line2d_55">
    <path d="M 265.7172 93.581148 
L 265.7172 161.761476 
" clip-path="url(#p4ec557b2e4)" style="fill: none; stroke: #6a6a6a"/>
   </g>
   <g id="line2d_56">
    <path d="M 265.7172 47.738092 
L 265.7172 32.296045 
" clip-path="url(#p4ec557b2e4)" style="fill: none; stroke: #6a6a6a"/>
   </g>
   <g id="line2d_57">
    <path d="M 261.7833 161.761476 
L 269.6511 161.761476 
" clip-path="url(#p4ec557b2e4)" style="fill: none; stroke: #6a6a6a; stroke-linecap: round"/>
   </g>
   <g id="line2d_58">
    <path d="M 261.7833 32.296045 
L 269.6511 32.296045 
" clip-path="url(#p4ec557b2e4)" style="fill: none; stroke: #6a6a6a; stroke-linecap: round"/>
   </g>
   <g id="patch_20">
    <path d="M 336.5274 85.545283 
L 352.263 85.545283 
L 352.263 46.631169 
L 336.5274 46.631169 
L 336.5274 85.545283 
z
" clip-path="url(#p4ec557b2e4)" style="fill: #f6f6bc; stroke: #6a6a6a; stroke-linejoin: miter"/>
   </g>
   <g id="line2d_59">
    <path d="M 344.3952 85.545283 
L 344.3952 143.517918 
" clip-path="url(#p4ec557b2e4)" style="fill: none; stroke: #6a6a6a"/>
   </g>
   <g id="line2d_60">
    <path d="M 344.3952 46.631169 
L 344.3952 30.455356 
" clip-path="url(#p4ec557b2e4)" style="fill: none; stroke: #6a6a6a"/>
   </g>
   <g id="line2d_61">
    <path d="M 340.4613 143.517918 
L 348.3291 143.517918 
" clip-path="url(#p4ec557b2e4)" style="fill: none; stroke: #6a6a6a; stroke-linecap: round"/>
   </g>
   <g id="line2d_62">
    <path d="M 340.4613 30.455356 
L 348.3291 30.455356 
" clip-path="url(#p4ec557b2e4)" style="fill: none; stroke: #6a6a6a; stroke-linecap: round"/>
   </g>
   <g id="patch_21">
    <path d="M 415.2054 99.923497 
L 430.941 99.923497 
L 430.941 53.973245 
L 415.2054 53.973245 
L 415.2054 99.923497 
z
" clip-path="url(#p4ec557b2e4)" style="fill: #f6f6bc; stroke: #6a6a6a; stroke-linejoin: miter"/>
   </g>
   <g id="line2d_63">
    <path d="M 423.0732 99.923497 
L 423.0732 168.411721 
" clip-path="url(#p4ec557b2e4)" style="fill: none; stroke: #6a6a6a"/>
   </g>
   <g id="line2d_64">
    <path d="M 423.0732 53.973245 
L 423.0732 36.781892 
" clip-path="url(#p4ec557b2e4)" style="fill: none; stroke: #6a6a6a"/>
   </g>
   <g id="line2d_65">
    <path d="M 419.1393 168.411721 
L 427.0071 168.411721 
" clip-path="url(#p4ec557b2e4)" style="fill: none; stroke: #6a6a6a; stroke-linecap: round"/>
   </g>
   <g id="line2d_66">
    <path d="M 419.1393 36.781892 
L 427.0071 36.781892 
" clip-path="url(#p4ec557b2e4)" style="fill: none; stroke: #6a6a6a; stroke-linecap: round"/>
   </g>
   <g id="patch_22">
    <path d="M 493.8834 141.533992 
L 509.619 141.533992 
L 509.619 80.672677 
L 493.8834 80.672677 
L 493.8834 141.533992 
z
" clip-path="url(#p4ec557b2e4)" style="fill: #f6f6bc; stroke: #6a6a6a; stroke-linejoin: miter"/>
   </g>
   <g id="line2d_67">
    <path d="M 501.7512 141.533992 
L 501.7512 232.630846 
" clip-path="url(#p4ec557b2e4)" style="fill: none; stroke: #6a6a6a"/>
   </g>
   <g id="line2d_68">
    <path d="M 501.7512 80.672677 
L 501.7512 38.270465 
" clip-path="url(#p4ec557b2e4)" style="fill: none; stroke: #6a6a6a"/>
   </g>
   <g id="line2d_69">
    <path d="M 497.8173 232.630846 
L 505.6851 232.630846 
" clip-path="url(#p4ec557b2e4)" style="fill: none; stroke: #6a6a6a; stroke-linecap: round"/>
   </g>
   <g id="line2d_70">
    <path d="M 497.8173 38.270465 
L 505.6851 38.270465 
" clip-path="url(#p4ec557b2e4)" style="fill: none; stroke: #6a6a6a; stroke-linecap: round"/>
   </g>
   <g id="patch_23">
    <path d="M 116.229 93.442715 
L 131.9646 93.442715 
L 131.9646 51.172165 
L 116.229 51.172165 
L 116.229 93.442715 
z
" clip-path="url(#p4ec557b2e4)" style="fill: #c1bed6; stroke: #6a6a6a; stroke-linejoin: miter"/>
   </g>
   <g id="line2d_71">
    <path d="M 124.0968 93.442715 
L 124.0968 156.696979 
" clip-path="url(#p4ec557b2e4)" style="fill: none; stroke: #6a6a6a"/>
   </g>
   <g id="line2d_72">
    <path d="M 124.0968 51.172165 
L 124.0968 33.859176 
" clip-path="url(#p4ec557b2e4)" style="fill: none; stroke: #6a6a6a"/>
   </g>
   <g id="line2d_73">
    <path d="M 120.1629 156.696979 
L 128.0307 156.696979 
" clip-path="url(#p4ec557b2e4)" style="fill: none; stroke: #6a6a6a; stroke-linecap: round"/>
   </g>
   <g id="line2d_74">
    <path d="M 120.1629 33.859176 
L 128.0307 33.859176 
" clip-path="url(#p4ec557b2e4)" style="fill: none; stroke: #6a6a6a; stroke-linecap: round"/>
   </g>
   <g id="patch_24">
    <path d="M 194.907 95.29934 
L 210.6426 95.29934 
L 210.6426 52.729446 
L 194.907 52.729446 
L 194.907 95.29934 
z
" clip-path="url(#p4ec557b2e4)" style="fill: #c1bed6; stroke: #6a6a6a; stroke-linejoin: miter"/>
   </g>
   <g id="line2d_75">
    <path d="M 202.7748 95.29934 
L 202.7748 159.147816 
" clip-path="url(#p4ec557b2e4)" style="fill: none; stroke: #6a6a6a"/>
   </g>
   <g id="line2d_76">
    <path d="M 202.7748 52.729446 
L 202.7748 33.226601 
" clip-path="url(#p4ec557b2e4)" style="fill: none; stroke: #6a6a6a"/>
   </g>
   <g id="line2d_77">
    <path d="M 198.8409 159.147816 
L 206.7087 159.147816 
" clip-path="url(#p4ec557b2e4)" style="fill: none; stroke: #6a6a6a; stroke-linecap: round"/>
   </g>
   <g id="line2d_78">
    <path d="M 198.8409 33.226601 
L 206.7087 33.226601 
" clip-path="url(#p4ec557b2e4)" style="fill: none; stroke: #6a6a6a; stroke-linecap: round"/>
   </g>
   <g id="patch_25">
    <path d="M 273.585 94.063916 
L 289.3206 94.063916 
L 289.3206 47.844562 
L 273.585 47.844562 
L 273.585 94.063916 
z
" clip-path="url(#p4ec557b2e4)" style="fill: #c1bed6; stroke: #6a6a6a; stroke-linejoin: miter"/>
   </g>
   <g id="line2d_79">
    <path d="M 281.4528 94.063916 
L 281.4528 163.372188 
" clip-path="url(#p4ec557b2e4)" style="fill: none; stroke: #6a6a6a"/>
   </g>
   <g id="line2d_80">
    <path d="M 281.4528 47.844562 
L 281.4528 32.489024 
" clip-path="url(#p4ec557b2e4)" style="fill: none; stroke: #6a6a6a"/>
   </g>
   <g id="line2d_81">
    <path d="M 277.5189 163.372188 
L 285.3867 163.372188 
" clip-path="url(#p4ec557b2e4)" style="fill: none; stroke: #6a6a6a; stroke-linecap: round"/>
   </g>
   <g id="line2d_82">
    <path d="M 277.5189 32.489024 
L 285.3867 32.489024 
" clip-path="url(#p4ec557b2e4)" style="fill: none; stroke: #6a6a6a; stroke-linecap: round"/>
   </g>
   <g id="patch_26">
    <path d="M 352.263 88.999935 
L 367.9986 88.999935 
L 367.9986 47.191983 
L 352.263 47.191983 
L 352.263 88.999935 
z
" clip-path="url(#p4ec557b2e4)" style="fill: #c1bed6; stroke: #6a6a6a; stroke-linejoin: miter"/>
   </g>
   <g id="line2d_83">
    <path d="M 360.1308 88.999935 
L 360.1308 151.644103 
" clip-path="url(#p4ec557b2e4)" style="fill: none; stroke: #6a6a6a"/>
   </g>
   <g id="line2d_84">
    <path d="M 360.1308 47.191983 
L 360.1308 32.992515 
" clip-path="url(#p4ec557b2e4)" style="fill: none; stroke: #6a6a6a"/>
   </g>
   <g id="line2d_85">
    <path d="M 356.1969 151.644103 
L 364.0647 151.644103 
" clip-path="url(#p4ec557b2e4)" style="fill: none; stroke: #6a6a6a; stroke-linecap: round"/>
   </g>
   <g id="line2d_86">
    <path d="M 356.1969 32.992515 
L 364.0647 32.992515 
" clip-path="url(#p4ec557b2e4)" style="fill: none; stroke: #6a6a6a; stroke-linecap: round"/>
   </g>
   <g id="patch_27">
    <path d="M 430.941 101.351672 
L 446.6766 101.351672 
L 446.6766 54.596592 
L 430.941 54.596592 
L 430.941 101.351672 
z
" clip-path="url(#p4ec557b2e4)" style="fill: #c1bed6; stroke: #6a6a6a; stroke-linejoin: miter"/>
   </g>
   <g id="line2d_87">
    <path d="M 438.8088 101.351672 
L 438.8088 171.052078 
" clip-path="url(#p4ec557b2e4)" style="fill: none; stroke: #6a6a6a"/>
   </g>
   <g id="line2d_88">
    <path d="M 438.8088 54.596592 
L 438.8088 36.24609 
" clip-path="url(#p4ec557b2e4)" style="fill: none; stroke: #6a6a6a"/>
   </g>
   <g id="line2d_89">
    <path d="M 434.8749 171.052078 
L 442.7427 171.052078 
" clip-path="url(#p4ec557b2e4)" style="fill: none; stroke: #6a6a6a; stroke-linecap: round"/>
   </g>
   <g id="line2d_90">
    <path d="M 434.8749 36.24609 
L 442.7427 36.24609 
" clip-path="url(#p4ec557b2e4)" style="fill: none; stroke: #6a6a6a; stroke-linecap: round"/>
   </g>
   <g id="patch_28">
    <path d="M 131.9646 98.141893 
L 147.7002 98.141893 
L 147.7002 52.230792 
L 131.9646 52.230792 
L 131.9646 98.141893 
z
" clip-path="url(#p4ec557b2e4)" style="fill: #ea8e83; stroke: #6a6a6a; stroke-linejoin: miter"/>
   </g>
   <g id="line2d_91">
    <path d="M 139.8324 98.141893 
L 139.8324 166.407136 
" clip-path="url(#p4ec557b2e4)" style="fill: none; stroke: #6a6a6a"/>
   </g>
   <g id="line2d_92">
    <path d="M 139.8324 52.230792 
L 139.8324 34.360697 
" clip-path="url(#p4ec557b2e4)" style="fill: none; stroke: #6a6a6a"/>
   </g>
   <g id="line2d_93">
    <path d="M 135.8985 166.407136 
L 143.7663 166.407136 
" clip-path="url(#p4ec557b2e4)" style="fill: none; stroke: #6a6a6a; stroke-linecap: round"/>
   </g>
   <g id="line2d_94">
    <path d="M 135.8985 34.360697 
L 143.7663 34.360697 
" clip-path="url(#p4ec557b2e4)" style="fill: none; stroke: #6a6a6a; stroke-linecap: round"/>
   </g>
   <g id="patch_29">
    <path d="M 210.6426 99.886282 
L 226.3782 99.886282 
L 226.3782 53.954645 
L 210.6426 53.954645 
L 210.6426 99.886282 
z
" clip-path="url(#p4ec557b2e4)" style="fill: #ea8e83; stroke: #6a6a6a; stroke-linejoin: miter"/>
   </g>
   <g id="line2d_95">
    <path d="M 218.5104 99.886282 
L 218.5104 167.776276 
" clip-path="url(#p4ec557b2e4)" style="fill: none; stroke: #6a6a6a"/>
   </g>
   <g id="line2d_96">
    <path d="M 218.5104 53.954645 
L 218.5104 32.995137 
" clip-path="url(#p4ec557b2e4)" style="fill: none; stroke: #6a6a6a"/>
   </g>
   <g id="line2d_97">
    <path d="M 214.5765 167.776276 
L 222.4443 167.776276 
" clip-path="url(#p4ec557b2e4)" style="fill: none; stroke: #6a6a6a; stroke-linecap: round"/>
   </g>
   <g id="line2d_98">
    <path d="M 214.5765 32.995137 
L 222.4443 32.995137 
" clip-path="url(#p4ec557b2e4)" style="fill: none; stroke: #6a6a6a; stroke-linecap: round"/>
   </g>
   <g id="patch_30">
    <path d="M 289.3206 101.465765 
L 305.0562 101.465765 
L 305.0562 49.371411 
L 289.3206 49.371411 
L 289.3206 101.465765 
z
" clip-path="url(#p4ec557b2e4)" style="fill: #ea8e83; stroke: #6a6a6a; stroke-linejoin: miter"/>
   </g>
   <g id="line2d_99">
    <path d="M 297.1884 101.465765 
L 297.1884 178.562296 
" clip-path="url(#p4ec557b2e4)" style="fill: none; stroke: #6a6a6a"/>
   </g>
   <g id="line2d_100">
    <path d="M 297.1884 49.371411 
L 297.1884 33.928463 
" clip-path="url(#p4ec557b2e4)" style="fill: none; stroke: #6a6a6a"/>
   </g>
   <g id="line2d_101">
    <path d="M 293.2545 178.562296 
L 301.1223 178.562296 
" clip-path="url(#p4ec557b2e4)" style="fill: none; stroke: #6a6a6a; stroke-linecap: round"/>
   </g>
   <g id="line2d_102">
    <path d="M 293.2545 33.928463 
L 301.1223 33.928463 
" clip-path="url(#p4ec557b2e4)" style="fill: none; stroke: #6a6a6a; stroke-linecap: round"/>
   </g>
   <g id="patch_31">
    <path d="M 367.9986 95.198644 
L 383.7342 95.198644 
L 383.7342 48.299074 
L 367.9986 48.299074 
L 367.9986 95.198644 
z
" clip-path="url(#p4ec557b2e4)" style="fill: #ea8e83; stroke: #6a6a6a; stroke-linejoin: miter"/>
   </g>
   <g id="line2d_103">
    <path d="M 375.8664 95.198644 
L 375.8664 165.034256 
" clip-path="url(#p4ec557b2e4)" style="fill: none; stroke: #6a6a6a"/>
   </g>
   <g id="line2d_104">
    <path d="M 375.8664 48.299074 
L 375.8664 34.101457 
" clip-path="url(#p4ec557b2e4)" style="fill: none; stroke: #6a6a6a"/>
   </g>
   <g id="line2d_105">
    <path d="M 371.9325 165.034256 
L 379.8003 165.034256 
" clip-path="url(#p4ec557b2e4)" style="fill: none; stroke: #6a6a6a; stroke-linecap: round"/>
   </g>
   <g id="line2d_106">
    <path d="M 371.9325 34.101457 
L 379.8003 34.101457 
" clip-path="url(#p4ec557b2e4)" style="fill: none; stroke: #6a6a6a; stroke-linecap: round"/>
   </g>
   <g id="patch_32">
    <path d="M 446.6766 104.246686 
L 462.4122 104.246686 
L 462.4122 55.230284 
L 446.6766 55.230284 
L 446.6766 104.246686 
z
" clip-path="url(#p4ec557b2e4)" style="fill: #ea8e83; stroke: #6a6a6a; stroke-linejoin: miter"/>
   </g>
   <g id="line2d_107">
    <path d="M 454.5444 104.246686 
L 454.5444 177.293137 
" clip-path="url(#p4ec557b2e4)" style="fill: none; stroke: #6a6a6a"/>
   </g>
   <g id="line2d_108">
    <path d="M 454.5444 55.230284 
L 454.5444 36.980559 
" clip-path="url(#p4ec557b2e4)" style="fill: none; stroke: #6a6a6a"/>
   </g>
   <g id="line2d_109">
    <path d="M 450.6105 177.293137 
L 458.4783 177.293137 
" clip-path="url(#p4ec557b2e4)" style="fill: none; stroke: #6a6a6a; stroke-linecap: round"/>
   </g>
   <g id="line2d_110">
    <path d="M 450.6105 36.980559 
L 458.4783 36.980559 
" clip-path="url(#p4ec557b2e4)" style="fill: none; stroke: #6a6a6a; stroke-linecap: round"/>
   </g>
   <g id="line2d_111">
    <path d="M 84.7578 141.011693 
L 100.4934 141.011693 
" clip-path="url(#p4ec557b2e4)" style="fill: none; stroke: #6a6a6a"/>
   </g>
   <g id="line2d_112">
    <path d="M 163.4358 134.771045 
L 179.1714 134.771045 
" clip-path="url(#p4ec557b2e4)" style="fill: none; stroke: #6a6a6a"/>
   </g>
   <g id="line2d_113">
    <path d="M 242.1138 131.225511 
L 257.8494 131.225511 
" clip-path="url(#p4ec557b2e4)" style="fill: none; stroke: #6a6a6a"/>
   </g>
   <g id="line2d_114">
    <path d="M 320.7918 124.15263 
L 336.5274 124.15263 
" clip-path="url(#p4ec557b2e4)" style="fill: none; stroke: #6a6a6a"/>
   </g>
   <g id="line2d_115">
    <path d="M 399.4698 104.091688 
L 415.2054 104.091688 
" clip-path="url(#p4ec557b2e4)" style="fill: none; stroke: #6a6a6a"/>
   </g>
   <g id="line2d_116">
    <path d="M 478.1478 157.205676 
L 493.8834 157.205676 
" clip-path="url(#p4ec557b2e4)" style="fill: none; stroke: #6a6a6a"/>
   </g>
   <g id="line2d_117">
    <path d="M 556.8258 77.88042 
L 572.5614 77.88042 
" clip-path="url(#p4ec557b2e4)" style="fill: none; stroke: #6a6a6a"/>
   </g>
   <g id="line2d_118">
    <path d="M 635.5038 67.045026 
L 651.2394 67.045026 
" clip-path="url(#p4ec557b2e4)" style="fill: none; stroke: #6a6a6a"/>
   </g>
   <g id="line2d_119">
    <path d="M 714.1818 59.408555 
L 729.9174 59.408555 
" clip-path="url(#p4ec557b2e4)" style="fill: none; stroke: #6a6a6a"/>
   </g>
   <g id="line2d_120">
    <path d="M 792.8598 235.827549 
L 808.5954 235.827549 
" clip-path="url(#p4ec557b2e4)" style="fill: none; stroke: #6a6a6a"/>
   </g>
   <g id="line2d_121">
    <path d="M 100.4934 65.41313 
L 116.229 65.41313 
" clip-path="url(#p4ec557b2e4)" style="fill: none; stroke: #6a6a6a"/>
   </g>
   <g id="line2d_122">
    <path d="M 179.1714 67.927958 
L 194.907 67.927958 
" clip-path="url(#p4ec557b2e4)" style="fill: none; stroke: #6a6a6a"/>
   </g>
   <g id="line2d_123">
    <path d="M 257.8494 62.63559 
L 273.585 62.63559 
" clip-path="url(#p4ec557b2e4)" style="fill: none; stroke: #6a6a6a"/>
   </g>
   <g id="line2d_124">
    <path d="M 336.5274 59.765907 
L 352.263 59.765907 
" clip-path="url(#p4ec557b2e4)" style="fill: none; stroke: #6a6a6a"/>
   </g>
   <g id="line2d_125">
    <path d="M 415.2054 69.584222 
L 430.941 69.584222 
" clip-path="url(#p4ec557b2e4)" style="fill: none; stroke: #6a6a6a"/>
   </g>
   <g id="line2d_126">
    <path d="M 493.8834 106.888473 
L 509.619 106.888473 
" clip-path="url(#p4ec557b2e4)" style="fill: none; stroke: #6a6a6a"/>
   </g>
   <g id="line2d_127">
    <path d="M 116.229 66.217753 
L 131.9646 66.217753 
" clip-path="url(#p4ec557b2e4)" style="fill: none; stroke: #6a6a6a"/>
   </g>
   <g id="line2d_128">
    <path d="M 194.907 68.732798 
L 210.6426 68.732798 
" clip-path="url(#p4ec557b2e4)" style="fill: none; stroke: #6a6a6a"/>
   </g>
   <g id="line2d_129">
    <path d="M 273.585 62.862126 
L 289.3206 62.862126 
" clip-path="url(#p4ec557b2e4)" style="fill: none; stroke: #6a6a6a"/>
   </g>
   <g id="line2d_130">
    <path d="M 352.263 60.706426 
L 367.9986 60.706426 
" clip-path="url(#p4ec557b2e4)" style="fill: none; stroke: #6a6a6a"/>
   </g>
   <g id="line2d_131">
    <path d="M 430.941 70.091429 
L 446.6766 70.091429 
" clip-path="url(#p4ec557b2e4)" style="fill: none; stroke: #6a6a6a"/>
   </g>
   <g id="line2d_132">
    <path d="M 131.9646 69.046837 
L 147.7002 69.046837 
" clip-path="url(#p4ec557b2e4)" style="fill: none; stroke: #6a6a6a"/>
   </g>
   <g id="line2d_133">
    <path d="M 210.6426 71.261468 
L 226.3782 71.261468 
" clip-path="url(#p4ec557b2e4)" style="fill: none; stroke: #6a6a6a"/>
   </g>
   <g id="line2d_134">
    <path d="M 289.3206 67.062647 
L 305.0562 67.062647 
" clip-path="url(#p4ec557b2e4)" style="fill: none; stroke: #6a6a6a"/>
   </g>
   <g id="line2d_135">
    <path d="M 367.9986 64.21682 
L 383.7342 64.21682 
" clip-path="url(#p4ec557b2e4)" style="fill: none; stroke: #6a6a6a"/>
   </g>
   <g id="line2d_136">
    <path d="M 446.6766 72.781585 
L 462.4122 72.781585 
" clip-path="url(#p4ec557b2e4)" style="fill: none; stroke: #6a6a6a"/>
   </g>
   <g id="patch_33">
    <path d="M 76.89 253.836195 
L 76.89 19.44 
" style="fill: none; stroke: #cccccc; stroke-width: 1.875; stroke-linejoin: miter; stroke-linecap: square"/>
   </g>
   <g id="patch_34">
    <path d="M 863.67 253.836195 
L 863.67 19.44 
" style="fill: none; stroke: #cccccc; stroke-width: 1.875; stroke-linejoin: miter; stroke-linecap: square"/>
   </g>
   <g id="patch_35">
    <path d="M 76.89 253.836195 
L 863.67 253.836195 
" style="fill: none; stroke: #cccccc; stroke-width: 1.875; stroke-linejoin: miter; stroke-linecap: square"/>
   </g>
   <g id="patch_36">
    <path d="M 76.89 19.44 
L 863.67 19.44 
" style="fill: none; stroke: #cccccc; stroke-width: 1.875; stroke-linejoin: miter; stroke-linecap: square"/>
   </g>
   <g id="legend_1">
    <g id="patch_37">
     <path d="M 914.559 155.18625 
L 1124.390016 155.18625 
Q 1127.690016 155.18625 1127.690016 151.88625 
L 1127.690016 30.99 
Q 1127.690016 27.69 1124.390016 27.69 
L 914.559 27.69 
Q 911.259 27.69 911.259 30.99 
L 911.259 151.88625 
Q 911.259 155.18625 914.559 155.18625 
z
" style="fill: #ffffff; opacity: 0.8; stroke: #cccccc; stroke-width: 1.5; stroke-linejoin: miter"/>
    </g>
    <g id="text_18">
     <!-- Mode -->
     <g style="fill: #262626" transform="translate(994.950914 47.967188) scale(0.18 -0.18)">
      <defs>
       <path id="DejaVuSans-4d" d="M 628 4666 
L 1569 4666 
L 2759 1491 
L 3956 4666 
L 4897 4666 
L 4897 0 
L 4281 0 
L 4281 4097 
L 3078 897 
L 2444 897 
L 1241 4097 
L 1241 0 
L 628 0 
L 628 4666 
z
" transform="scale(0.015625)"/>
       <path id="DejaVuSans-6f" d="M 1959 3097 
Q 1497 3097 1228 2736 
Q 959 2375 959 1747 
Q 959 1119 1226 758 
Q 1494 397 1959 397 
Q 2419 397 2687 759 
Q 2956 1122 2956 1747 
Q 2956 2369 2687 2733 
Q 2419 3097 1959 3097 
z
M 1959 3584 
Q 2709 3584 3137 3096 
Q 3566 2609 3566 1747 
Q 3566 888 3137 398 
Q 2709 -91 1959 -91 
Q 1206 -91 779 398 
Q 353 888 353 1747 
Q 353 2609 779 3096 
Q 1206 3584 1959 3584 
z
" transform="scale(0.015625)"/>
       <path id="DejaVuSans-64" d="M 2906 2969 
L 2906 4863 
L 3481 4863 
L 3481 0 
L 2906 0 
L 2906 525 
Q 2725 213 2448 61 
Q 2172 -91 1784 -91 
Q 1150 -91 751 415 
Q 353 922 353 1747 
Q 353 2572 751 3078 
Q 1150 3584 1784 3584 
Q 2172 3584 2448 3432 
Q 2725 3281 2906 2969 
z
M 947 1747 
Q 947 1113 1208 752 
Q 1469 391 1925 391 
Q 2381 391 2643 752 
Q 2906 1113 2906 1747 
Q 2906 2381 2643 2742 
Q 2381 3103 1925 3103 
Q 1469 3103 1208 2742 
Q 947 2381 947 1747 
z
" transform="scale(0.015625)"/>
       <path id="DejaVuSans-65" d="M 3597 1894 
L 3597 1613 
L 953 1613 
Q 991 1019 1311 708 
Q 1631 397 2203 397 
Q 2534 397 2845 478 
Q 3156 559 3463 722 
L 3463 178 
Q 3153 47 2828 -22 
Q 2503 -91 2169 -91 
Q 1331 -91 842 396 
Q 353 884 353 1716 
Q 353 2575 817 3079 
Q 1281 3584 2069 3584 
Q 2775 3584 3186 3129 
Q 3597 2675 3597 1894 
z
M 3022 2063 
Q 3016 2534 2758 2815 
Q 2500 3097 2075 3097 
Q 1594 3097 1305 2825 
Q 1016 2553 972 2059 
L 3022 2063 
z
" transform="scale(0.015625)"/>
      </defs>
      <use xlink:href="#DejaVuSans-4d"/>
      <use xlink:href="#DejaVuSans-6f" transform="translate(86.279297 0)"/>
      <use xlink:href="#DejaVuSans-64" transform="translate(147.460938 0)"/>
      <use xlink:href="#DejaVuSans-65" transform="translate(210.9375 0)"/>
     </g>
    </g>
    <g id="patch_38">
     <path d="M 917.859 72.498047 
L 950.859 72.498047 
L 950.859 60.948047 
L 917.859 60.948047 
z
" style="fill: #96cac1; stroke: #6a6a6a; stroke-width: 1.5; stroke-linejoin: miter"/>
    </g>
    <g id="text_19">
     <!-- point -->
     <g style="fill: #262626" transform="translate(964.059 72.498047) scale(0.165 -0.165)">
      <defs>
       <path id="DejaVuSans-70" d="M 1159 525 
L 1159 -1331 
L 581 -1331 
L 581 3500 
L 1159 3500 
L 1159 2969 
Q 1341 3281 1617 3432 
Q 1894 3584 2278 3584 
Q 2916 3584 3314 3078 
Q 3713 2572 3713 1747 
Q 3713 922 3314 415 
Q 2916 -91 2278 -91 
Q 1894 -91 1617 61 
Q 1341 213 1159 525 
z
M 3116 1747 
Q 3116 2381 2855 2742 
Q 2594 3103 2138 3103 
Q 1681 3103 1420 2742 
Q 1159 2381 1159 1747 
Q 1159 1113 1420 752 
Q 1681 391 2138 391 
Q 2594 391 2855 752 
Q 3116 1113 3116 1747 
z
" transform="scale(0.015625)"/>
       <path id="DejaVuSans-69" d="M 603 3500 
L 1178 3500 
L 1178 0 
L 603 0 
L 603 3500 
z
M 603 4863 
L 1178 4863 
L 1178 4134 
L 603 4134 
L 603 4863 
z
" transform="scale(0.015625)"/>
       <path id="DejaVuSans-6e" d="M 3513 2113 
L 3513 0 
L 2938 0 
L 2938 2094 
Q 2938 2591 2744 2837 
Q 2550 3084 2163 3084 
Q 1697 3084 1428 2787 
Q 1159 2491 1159 1978 
L 1159 0 
L 581 0 
L 581 3500 
L 1159 3500 
L 1159 2956 
Q 1366 3272 1645 3428 
Q 1925 3584 2291 3584 
Q 2894 3584 3203 3211 
Q 3513 2838 3513 2113 
z
" transform="scale(0.015625)"/>
       <path id="DejaVuSans-74" d="M 1172 4494 
L 1172 3500 
L 2356 3500 
L 2356 3053 
L 1172 3053 
L 1172 1153 
Q 1172 725 1289 603 
Q 1406 481 1766 481 
L 2356 481 
L 2356 0 
L 1766 0 
Q 1100 0 847 248 
Q 594 497 594 1153 
L 594 3053 
L 172 3053 
L 172 3500 
L 594 3500 
L 594 4494 
L 1172 4494 
z
" transform="scale(0.015625)"/>
      </defs>
      <use xlink:href="#DejaVuSans-70"/>
      <use xlink:href="#DejaVuSans-6f" transform="translate(63.476562 0)"/>
      <use xlink:href="#DejaVuSans-69" transform="translate(124.658203 0)"/>
      <use xlink:href="#DejaVuSans-6e" transform="translate(152.441406 0)"/>
      <use xlink:href="#DejaVuSans-74" transform="translate(215.820312 0)"/>
     </g>
    </g>
    <g id="patch_39">
     <path d="M 917.859 96.716953 
L 950.859 96.716953 
L 950.859 85.166953 
L 917.859 85.166953 
z
" style="fill: #f6f6bc; stroke: #6a6a6a; stroke-width: 1.5; stroke-linejoin: miter"/>
    </g>
    <g id="text_20">
     <!-- box -->
     <g style="fill: #262626" transform="translate(964.059 96.716953) scale(0.165 -0.165)">
      <defs>
       <path id="DejaVuSans-62" d="M 3116 1747 
Q 3116 2381 2855 2742 
Q 2594 3103 2138 3103 
Q 1681 3103 1420 2742 
Q 1159 2381 1159 1747 
Q 1159 1113 1420 752 
Q 1681 391 2138 391 
Q 2594 391 2855 752 
Q 3116 1113 3116 1747 
z
M 1159 2969 
Q 1341 3281 1617 3432 
Q 1894 3584 2278 3584 
Q 2916 3584 3314 3078 
Q 3713 2572 3713 1747 
Q 3713 922 3314 415 
Q 2916 -91 2278 -91 
Q 1894 -91 1617 61 
Q 1341 213 1159 525 
L 1159 0 
L 581 0 
L 581 4863 
L 1159 4863 
L 1159 2969 
z
" transform="scale(0.015625)"/>
       <path id="DejaVuSans-78" d="M 3513 3500 
L 2247 1797 
L 3578 0 
L 2900 0 
L 1881 1375 
L 863 0 
L 184 0 
L 1544 1831 
L 300 3500 
L 978 3500 
L 1906 2253 
L 2834 3500 
L 3513 3500 
z
" transform="scale(0.015625)"/>
      </defs>
      <use xlink:href="#DejaVuSans-62"/>
      <use xlink:href="#DejaVuSans-6f" transform="translate(63.476562 0)"/>
      <use xlink:href="#DejaVuSans-78" transform="translate(121.533203 0)"/>
     </g>
    </g>
    <g id="patch_40">
     <path d="M 917.859 120.935859 
L 950.859 120.935859 
L 950.859 109.385859 
L 917.859 109.385859 
z
" style="fill: #c1bed6; stroke: #6a6a6a; stroke-width: 1.5; stroke-linejoin: miter"/>
    </g>
    <g id="text_21">
     <!-- BOB D-FINE-N 0.5 -->
     <g style="fill: #262626" transform="translate(964.059 120.935859) scale(0.165 -0.165)">
      <defs>
       <path id="DejaVuSans-42" d="M 1259 2228 
L 1259 519 
L 2272 519 
Q 2781 519 3026 730 
Q 3272 941 3272 1375 
Q 3272 1813 3026 2020 
Q 2781 2228 2272 2228 
L 1259 2228 
z
M 1259 4147 
L 1259 2741 
L 2194 2741 
Q 2656 2741 2882 2914 
Q 3109 3088 3109 3444 
Q 3109 3797 2882 3972 
Q 2656 4147 2194 4147 
L 1259 4147 
z
M 628 4666 
L 2241 4666 
Q 2963 4666 3353 4366 
Q 3744 4066 3744 3513 
Q 3744 3084 3544 2831 
Q 3344 2578 2956 2516 
Q 3422 2416 3680 2098 
Q 3938 1781 3938 1306 
Q 3938 681 3513 340 
Q 3088 0 2303 0 
L 628 0 
L 628 4666 
z
" transform="scale(0.015625)"/>
       <path id="DejaVuSans-4f" d="M 2522 4238 
Q 1834 4238 1429 3725 
Q 1025 3213 1025 2328 
Q 1025 1447 1429 934 
Q 1834 422 2522 422 
Q 3209 422 3611 934 
Q 4013 1447 4013 2328 
Q 4013 3213 3611 3725 
Q 3209 4238 2522 4238 
z
M 2522 4750 
Q 3503 4750 4090 4092 
Q 4678 3434 4678 2328 
Q 4678 1225 4090 567 
Q 3503 -91 2522 -91 
Q 1538 -91 948 565 
Q 359 1222 359 2328 
Q 359 3434 948 4092 
Q 1538 4750 2522 4750 
z
" transform="scale(0.015625)"/>
       <path id="DejaVuSans-20" transform="scale(0.015625)"/>
       <path id="DejaVuSans-44" d="M 1259 4147 
L 1259 519 
L 2022 519 
Q 2988 519 3436 956 
Q 3884 1394 3884 2338 
Q 3884 3275 3436 3711 
Q 2988 4147 2022 4147 
L 1259 4147 
z
M 628 4666 
L 1925 4666 
Q 3281 4666 3915 4102 
Q 4550 3538 4550 2338 
Q 4550 1131 3912 565 
Q 3275 0 1925 0 
L 628 0 
L 628 4666 
z
" transform="scale(0.015625)"/>
       <path id="DejaVuSans-2d" d="M 313 2009 
L 1997 2009 
L 1997 1497 
L 313 1497 
L 313 2009 
z
" transform="scale(0.015625)"/>
       <path id="DejaVuSans-46" d="M 628 4666 
L 3309 4666 
L 3309 4134 
L 1259 4134 
L 1259 2759 
L 3109 2759 
L 3109 2228 
L 1259 2228 
L 1259 0 
L 628 0 
L 628 4666 
z
" transform="scale(0.015625)"/>
       <path id="DejaVuSans-49" d="M 628 4666 
L 1259 4666 
L 1259 0 
L 628 0 
L 628 4666 
z
" transform="scale(0.015625)"/>
       <path id="DejaVuSans-4e" d="M 628 4666 
L 1478 4666 
L 3547 763 
L 3547 4666 
L 4159 4666 
L 4159 0 
L 3309 0 
L 1241 3903 
L 1241 0 
L 628 0 
L 628 4666 
z
" transform="scale(0.015625)"/>
       <path id="DejaVuSans-45" d="M 628 4666 
L 3578 4666 
L 3578 4134 
L 1259 4134 
L 1259 2753 
L 3481 2753 
L 3481 2222 
L 1259 2222 
L 1259 531 
L 3634 531 
L 3634 0 
L 628 0 
L 628 4666 
z
" transform="scale(0.015625)"/>
       <path id="DejaVuSans-30" d="M 2034 4250 
Q 1547 4250 1301 3770 
Q 1056 3291 1056 2328 
Q 1056 1369 1301 889 
Q 1547 409 2034 409 
Q 2525 409 2770 889 
Q 3016 1369 3016 2328 
Q 3016 3291 2770 3770 
Q 2525 4250 2034 4250 
z
M 2034 4750 
Q 2819 4750 3233 4129 
Q 3647 3509 3647 2328 
Q 3647 1150 3233 529 
Q 2819 -91 2034 -91 
Q 1250 -91 836 529 
Q 422 1150 422 2328 
Q 422 3509 836 4129 
Q 1250 4750 2034 4750 
z
" transform="scale(0.015625)"/>
       <path id="DejaVuSans-2e" d="M 684 794 
L 1344 794 
L 1344 0 
L 684 0 
L 684 794 
z
" transform="scale(0.015625)"/>
       <path id="DejaVuSans-35" d="M 691 4666 
L 3169 4666 
L 3169 4134 
L 1269 4134 
L 1269 2991 
Q 1406 3038 1543 3061 
Q 1681 3084 1819 3084 
Q 2600 3084 3056 2656 
Q 3513 2228 3513 1497 
Q 3513 744 3044 326 
Q 2575 -91 1722 -91 
Q 1428 -91 1123 -41 
Q 819 9 494 109 
L 494 744 
Q 775 591 1075 516 
Q 1375 441 1709 441 
Q 2250 441 2565 725 
Q 2881 1009 2881 1497 
Q 2881 1984 2565 2268 
Q 2250 2553 1709 2553 
Q 1456 2553 1204 2497 
Q 953 2441 691 2322 
L 691 4666 
z
" transform="scale(0.015625)"/>
      </defs>
      <use xlink:href="#DejaVuSans-42"/>
      <use xlink:href="#DejaVuSans-4f" transform="translate(66.853516 0)"/>
      <use xlink:href="#DejaVuSans-42" transform="translate(145.564453 0)"/>
      <use xlink:href="#DejaVuSans-20" transform="translate(214.167969 0)"/>
      <use xlink:href="#DejaVuSans-44" transform="translate(245.955078 0)"/>
      <use xlink:href="#DejaVuSans-2d" transform="translate(322.957031 0)"/>
      <use xlink:href="#DejaVuSans-46" transform="translate(359.041016 0)"/>
      <use xlink:href="#DejaVuSans-49" transform="translate(416.560547 0)"/>
      <use xlink:href="#DejaVuSans-4e" transform="translate(446.052734 0)"/>
      <use xlink:href="#DejaVuSans-45" transform="translate(520.857422 0)"/>
      <use xlink:href="#DejaVuSans-2d" transform="translate(584.041016 0)"/>
      <use xlink:href="#DejaVuSans-4e" transform="translate(620.125 0)"/>
      <use xlink:href="#DejaVuSans-20" transform="translate(694.929688 0)"/>
      <use xlink:href="#DejaVuSans-30" transform="translate(726.716797 0)"/>
      <use xlink:href="#DejaVuSans-2e" transform="translate(790.339844 0)"/>
      <use xlink:href="#DejaVuSans-35" transform="translate(822.126953 0)"/>
     </g>
    </g>
    <g id="patch_41">
     <path d="M 917.859 145.154766 
L 950.859 145.154766 
L 950.859 133.604766 
L 917.859 133.604766 
z
" style="fill: #ea8e83; stroke: #6a6a6a; stroke-width: 1.5; stroke-linejoin: miter"/>
    </g>
    <g id="text_22">
     <!-- BOB YOLOv12n 0.3 -->
     <g style="fill: #262626" transform="translate(964.059 145.154766) scale(0.165 -0.165)">
      <defs>
       <path id="DejaVuSans-59" d="M -13 4666 
L 666 4666 
L 1959 2747 
L 3244 4666 
L 3922 4666 
L 2272 2222 
L 2272 0 
L 1638 0 
L 1638 2222 
L -13 4666 
z
" transform="scale(0.015625)"/>
       <path id="DejaVuSans-4c" d="M 628 4666 
L 1259 4666 
L 1259 531 
L 3531 531 
L 3531 0 
L 628 0 
L 628 4666 
z
" transform="scale(0.015625)"/>
       <path id="DejaVuSans-76" d="M 191 3500 
L 800 3500 
L 1894 563 
L 2988 3500 
L 3597 3500 
L 2284 0 
L 1503 0 
L 191 3500 
z
" transform="scale(0.015625)"/>
       <path id="DejaVuSans-31" d="M 794 531 
L 1825 531 
L 1825 4091 
L 703 3866 
L 703 4441 
L 1819 4666 
L 2450 4666 
L 2450 531 
L 3481 531 
L 3481 0 
L 794 0 
L 794 531 
z
" transform="scale(0.015625)"/>
       <path id="DejaVuSans-32" d="M 1228 531 
L 3431 531 
L 3431 0 
L 469 0 
L 469 531 
Q 828 903 1448 1529 
Q 2069 2156 2228 2338 
Q 2531 2678 2651 2914 
Q 2772 3150 2772 3378 
Q 2772 3750 2511 3984 
Q 2250 4219 1831 4219 
Q 1534 4219 1204 4116 
Q 875 4013 500 3803 
L 500 4441 
Q 881 4594 1212 4672 
Q 1544 4750 1819 4750 
Q 2544 4750 2975 4387 
Q 3406 4025 3406 3419 
Q 3406 3131 3298 2873 
Q 3191 2616 2906 2266 
Q 2828 2175 2409 1742 
Q 1991 1309 1228 531 
z
" transform="scale(0.015625)"/>
       <path id="DejaVuSans-33" d="M 2597 2516 
Q 3050 2419 3304 2112 
Q 3559 1806 3559 1356 
Q 3559 666 3084 287 
Q 2609 -91 1734 -91 
Q 1441 -91 1130 -33 
Q 819 25 488 141 
L 488 750 
Q 750 597 1062 519 
Q 1375 441 1716 441 
Q 2309 441 2620 675 
Q 2931 909 2931 1356 
Q 2931 1769 2642 2001 
Q 2353 2234 1838 2234 
L 1294 2234 
L 1294 2753 
L 1863 2753 
Q 2328 2753 2575 2939 
Q 2822 3125 2822 3475 
Q 2822 3834 2567 4026 
Q 2313 4219 1838 4219 
Q 1578 4219 1281 4162 
Q 984 4106 628 3988 
L 628 4550 
Q 988 4650 1302 4700 
Q 1616 4750 1894 4750 
Q 2613 4750 3031 4423 
Q 3450 4097 3450 3541 
Q 3450 3153 3228 2886 
Q 3006 2619 2597 2516 
z
" transform="scale(0.015625)"/>
      </defs>
      <use xlink:href="#DejaVuSans-42"/>
      <use xlink:href="#DejaVuSans-4f" transform="translate(66.853516 0)"/>
      <use xlink:href="#DejaVuSans-42" transform="translate(145.564453 0)"/>
      <use xlink:href="#DejaVuSans-20" transform="translate(214.167969 0)"/>
      <use xlink:href="#DejaVuSans-59" transform="translate(245.955078 0)"/>
      <use xlink:href="#DejaVuSans-4f" transform="translate(301.539062 0)"/>
      <use xlink:href="#DejaVuSans-4c" transform="translate(380.25 0)"/>
      <use xlink:href="#DejaVuSans-4f" transform="translate(432.337891 0)"/>
      <use xlink:href="#DejaVuSans-76" transform="translate(511.048828 0)"/>
      <use xlink:href="#DejaVuSans-31" transform="translate(570.228516 0)"/>
      <use xlink:href="#DejaVuSans-32" transform="translate(633.851562 0)"/>
      <use xlink:href="#DejaVuSans-6e" transform="translate(697.474609 0)"/>
      <use xlink:href="#DejaVuSans-20" transform="translate(760.853516 0)"/>
      <use xlink:href="#DejaVuSans-30" transform="translate(792.640625 0)"/>
      <use xlink:href="#DejaVuSans-2e" transform="translate(856.263672 0)"/>
      <use xlink:href="#DejaVuSans-33" transform="translate(888.050781 0)"/>
     </g>
    </g>
   </g>
  </g>
 </g>
 <defs>
  <clipPath id="p4ec557b2e4">
   <rect x="76.89" y="19.44" width="786.78" height="234.396195"/>
  </clipPath>
 </defs>
</svg>
