<?xml version="1.0" encoding="utf-8" standalone="no"?>
<!DOCTYPE svg PUBLIC "-//W3C//DTD SVG 1.1//EN"
  "http://www.w3.org/Graphics/SVG/1.1/DTD/svg11.dtd">
<svg xmlns:xlink="http://www.w3.org/1999/xlink" width="846.070219pt" height="446.817812pt" viewBox="0 0 846.070219 446.817812" xmlns="http://www.w3.org/2000/svg" version="1.1">
 <metadata>
  <rdf:RDF xmlns:dc="http://purl.org/dc/elements/1.1/" xmlns:cc="http://creativecommons.org/ns#" xmlns:rdf="http://www.w3.org/1999/02/22-rdf-syntax-ns#">
   <cc:Work>
    <dc:type rdf:resource="http://purl.org/dc/dcmitype/StillImage"/>
    <dc:date>2025-09-08T22:37:27.852705</dc:date>
    <dc:format>image/svg+xml</dc:format>
    <dc:creator>
     <cc:Agent>
      <dc:title>Matplotlib v3.10.3, https://matplotlib.org/</dc:title>
     </cc:Agent>
    </dc:creator>
   </cc:Work>
  </rdf:RDF>
 </metadata>
 <defs>
  <style type="text/css">*{stroke-linejoin: round; stroke-linecap: butt}</style>
 </defs>
 <g id="figure_1">
  <g id="patch_1">
   <path d="M 0 446.817812 
L 846.070219 446.817812 
L 846.070219 0 
L 0 0 
z
" style="fill: #ffffff"/>
  </g>
  <g id="axes_1">
   <g id="patch_2">
    <path d="M 169.032812 403.858125 
L 707.352812 403.858125 
L 707.352812 22.318125 
L 169.032812 22.318125 
z
" style="fill: #ffffff"/>
   </g>
   <g id="matplotlib.axis_1">
    <g id="xtick_1">
     <g id="line2d_1">
      <path d="M 193.501903 403.858125 
L 193.501903 22.318125 
" clip-path="url(#pf401731219)" style="fill: none; stroke: #cccccc; stroke-linecap: round"/>
     </g>
     <g id="text_1">
      <!-- 0.0 -->
      <g style="fill: #262626" transform="translate(184.755185 421.716406) scale(0.11 -0.11)">
       <defs>
        <path id="DejaVuSans-30" d="M 2034 4250 
Q 1547 4250 1301 3770 
Q 1056 3291 1056 2328 
Q 1056 1369 1301 889 
Q 1547 409 2034 409 
Q 2525 409 2770 889 
Q 3016 1369 3016 2328 
Q 3016 3291 2770 3770 
Q 2525 4250 2034 4250 
z
M 2034 4750 
Q 2819 4750 3233 4129 
Q 3647 3509 3647 2328 
Q 3647 1150 3233 529 
Q 2819 -91 2034 -91 
Q 1250 -91 836 529 
Q 422 1150 422 2328 
Q 422 3509 836 4129 
Q 1250 4750 2034 4750 
z
" transform="scale(0.015625)"/>
        <path id="DejaVuSans-2e" d="M 684 794 
L 1344 794 
L 1344 0 
L 684 0 
L 684 794 
z
" transform="scale(0.015625)"/>
       </defs>
       <use xlink:href="#DejaVuSans-30"/>
       <use xlink:href="#DejaVuSans-2e" transform="translate(63.623047 0)"/>
       <use xlink:href="#DejaVuSans-30" transform="translate(95.410156 0)"/>
      </g>
     </g>
    </g>
    <g id="xtick_2">
     <g id="line2d_2">
      <path d="M 291.378267 403.858125 
L 291.378267 22.318125 
" clip-path="url(#pf401731219)" style="fill: none; stroke: #cccccc; stroke-linecap: round"/>
     </g>
     <g id="text_2">
      <!-- 0.2 -->
      <g style="fill: #262626" transform="translate(282.631548 421.716406) scale(0.11 -0.11)">
       <defs>
        <path id="DejaVuSans-32" d="M 1228 531 
L 3431 531 
L 3431 0 
L 469 0 
L 469 531 
Q 828 903 1448 1529 
Q 2069 2156 2228 2338 
Q 2531 2678 2651 2914 
Q 2772 3150 2772 3378 
Q 2772 3750 2511 3984 
Q 2250 4219 1831 4219 
Q 1534 4219 1204 4116 
Q 875 4013 500 3803 
L 500 4441 
Q 881 4594 1212 4672 
Q 1544 4750 1819 4750 
Q 2544 4750 2975 4387 
Q 3406 4025 3406 3419 
Q 3406 3131 3298 2873 
Q 3191 2616 2906 2266 
Q 2828 2175 2409 1742 
Q 1991 1309 1228 531 
z
" transform="scale(0.015625)"/>
       </defs>
       <use xlink:href="#DejaVuSans-30"/>
       <use xlink:href="#DejaVuSans-2e" transform="translate(63.623047 0)"/>
       <use xlink:href="#DejaVuSans-32" transform="translate(95.410156 0)"/>
      </g>
     </g>
    </g>
    <g id="xtick_3">
     <g id="line2d_3">
      <path d="M 389.254631 403.858125 
L 389.254631 22.318125 
" clip-path="url(#pf401731219)" style="fill: none; stroke: #cccccc; stroke-linecap: round"/>
     </g>
     <g id="text_3">
      <!-- 0.4 -->
      <g style="fill: #262626" transform="translate(380.507912 421.716406) scale(0.11 -0.11)">
       <defs>
        <path id="DejaVuSans-34" d="M 2419 4116 
L 825 1625 
L 2419 1625 
L 2419 4116 
z
M 2253 4666 
L 3047 4666 
L 3047 1625 
L 3713 1625 
L 3713 1100 
L 3047 1100 
L 3047 0 
L 2419 0 
L 2419 1100 
L 313 1100 
L 313 1709 
L 2253 4666 
z
" transform="scale(0.015625)"/>
       </defs>
       <use xlink:href="#DejaVuSans-30"/>
       <use xlink:href="#DejaVuSans-2e" transform="translate(63.623047 0)"/>
       <use xlink:href="#DejaVuSans-34" transform="translate(95.410156 0)"/>
      </g>
     </g>
    </g>
    <g id="xtick_4">
     <g id="line2d_4">
      <path d="M 487.130994 403.858125 
L 487.130994 22.318125 
" clip-path="url(#pf401731219)" style="fill: none; stroke: #cccccc; stroke-linecap: round"/>
     </g>
     <g id="text_4">
      <!-- 0.6 -->
      <g style="fill: #262626" transform="translate(478.384276 421.716406) scale(0.11 -0.11)">
       <defs>
        <path id="DejaVuSans-36" d="M 2113 2584 
Q 1688 2584 1439 2293 
Q 1191 2003 1191 1497 
Q 1191 994 1439 701 
Q 1688 409 2113 409 
Q 2538 409 2786 701 
Q 3034 994 3034 1497 
Q 3034 2003 2786 2293 
Q 2538 2584 2113 2584 
z
M 3366 4563 
L 3366 3988 
Q 3128 4100 2886 4159 
Q 2644 4219 2406 4219 
Q 1781 4219 1451 3797 
Q 1122 3375 1075 2522 
Q 1259 2794 1537 2939 
Q 1816 3084 2150 3084 
Q 2853 3084 3261 2657 
Q 3669 2231 3669 1497 
Q 3669 778 3244 343 
Q 2819 -91 2113 -91 
Q 1303 -91 875 529 
Q 447 1150 447 2328 
Q 447 3434 972 4092 
Q 1497 4750 2381 4750 
Q 2619 4750 2861 4703 
Q 3103 4656 3366 4563 
z
" transform="scale(0.015625)"/>
       </defs>
       <use xlink:href="#DejaVuSans-30"/>
       <use xlink:href="#DejaVuSans-2e" transform="translate(63.623047 0)"/>
       <use xlink:href="#DejaVuSans-36" transform="translate(95.410156 0)"/>
      </g>
     </g>
    </g>
    <g id="xtick_5">
     <g id="line2d_5">
      <path d="M 585.007358 403.858125 
L 585.007358 22.318125 
" clip-path="url(#pf401731219)" style="fill: none; stroke: #cccccc; stroke-linecap: round"/>
     </g>
     <g id="text_5">
      <!-- 0.8 -->
      <g style="fill: #262626" transform="translate(576.260639 421.716406) scale(0.11 -0.11)">
       <defs>
        <path id="DejaVuSans-38" d="M 2034 2216 
Q 1584 2216 1326 1975 
Q 1069 1734 1069 1313 
Q 1069 891 1326 650 
Q 1584 409 2034 409 
Q 2484 409 2743 651 
Q 3003 894 3003 1313 
Q 3003 1734 2745 1975 
Q 2488 2216 2034 2216 
z
M 1403 2484 
Q 997 2584 770 2862 
Q 544 3141 544 3541 
Q 544 4100 942 4425 
Q 1341 4750 2034 4750 
Q 2731 4750 3128 4425 
Q 3525 4100 3525 3541 
Q 3525 3141 3298 2862 
Q 3072 2584 2669 2484 
Q 3125 2378 3379 2068 
Q 3634 1759 3634 1313 
Q 3634 634 3220 271 
Q 2806 -91 2034 -91 
Q 1263 -91 848 271 
Q 434 634 434 1313 
Q 434 1759 690 2068 
Q 947 2378 1403 2484 
z
M 1172 3481 
Q 1172 3119 1398 2916 
Q 1625 2713 2034 2713 
Q 2441 2713 2670 2916 
Q 2900 3119 2900 3481 
Q 2900 3844 2670 4047 
Q 2441 4250 2034 4250 
Q 1625 4250 1398 4047 
Q 1172 3844 1172 3481 
z
" transform="scale(0.015625)"/>
       </defs>
       <use xlink:href="#DejaVuSans-30"/>
       <use xlink:href="#DejaVuSans-2e" transform="translate(63.623047 0)"/>
       <use xlink:href="#DejaVuSans-38" transform="translate(95.410156 0)"/>
      </g>
     </g>
    </g>
    <g id="xtick_6">
     <g id="line2d_6">
      <path d="M 682.883722 403.858125 
L 682.883722 22.318125 
" clip-path="url(#pf401731219)" style="fill: none; stroke: #cccccc; stroke-linecap: round"/>
     </g>
     <g id="text_6">
      <!-- 1.0 -->
      <g style="fill: #262626" transform="translate(674.137003 421.716406) scale(0.11 -0.11)">
       <defs>
        <path id="DejaVuSans-31" d="M 794 531 
L 1825 531 
L 1825 4091 
L 703 3866 
L 703 4441 
L 1819 4666 
L 2450 4666 
L 2450 531 
L 3481 531 
L 3481 0 
L 794 0 
L 794 531 
z
" transform="scale(0.015625)"/>
       </defs>
       <use xlink:href="#DejaVuSans-31"/>
       <use xlink:href="#DejaVuSans-2e" transform="translate(63.623047 0)"/>
       <use xlink:href="#DejaVuSans-30" transform="translate(95.410156 0)"/>
      </g>
     </g>
    </g>
    <g id="text_7">
     <!-- IoU -->
     <g style="fill: #262626" transform="translate(428.360312 437.122187) scale(0.12 -0.12)">
      <defs>
       <path id="DejaVuSans-49" d="M 628 4666 
L 1259 4666 
L 1259 0 
L 628 0 
L 628 4666 
z
" transform="scale(0.015625)"/>
       <path id="DejaVuSans-6f" d="M 1959 3097 
Q 1497 3097 1228 2736 
Q 959 2375 959 1747 
Q 959 1119 1226 758 
Q 1494 397 1959 397 
Q 2419 397 2687 759 
Q 2956 1122 2956 1747 
Q 2956 2369 2687 2733 
Q 2419 3097 1959 3097 
z
M 1959 3584 
Q 2709 3584 3137 3096 
Q 3566 2609 3566 1747 
Q 3566 888 3137 398 
Q 2709 -91 1959 -91 
Q 1206 -91 779 398 
Q 353 888 353 1747 
Q 353 2609 779 3096 
Q 1206 3584 1959 3584 
z
" transform="scale(0.015625)"/>
       <path id="DejaVuSans-55" d="M 556 4666 
L 1191 4666 
L 1191 1831 
Q 1191 1081 1462 751 
Q 1734 422 2344 422 
Q 2950 422 3222 751 
Q 3494 1081 3494 1831 
L 3494 4666 
L 4128 4666 
L 4128 1753 
Q 4128 841 3676 375 
Q 3225 -91 2344 -91 
Q 1459 -91 1007 375 
Q 556 841 556 1753 
L 556 4666 
z
" transform="scale(0.015625)"/>
      </defs>
      <use xlink:href="#DejaVuSans-49"/>
      <use xlink:href="#DejaVuSans-6f" transform="translate(29.492188 0)"/>
      <use xlink:href="#DejaVuSans-55" transform="translate(90.673828 0)"/>
     </g>
    </g>
   </g>
   <g id="matplotlib.axis_2">
    <g id="ytick_1">
     <g id="text_8">
      <!-- MedSAM2-CT point 1p0n -->
      <g style="fill: #262626" transform="translate(23.720625 38.420391) scale(0.11 -0.11)">
       <defs>
        <path id="DejaVuSans-4d" d="M 628 4666 
L 1569 4666 
L 2759 1491 
L 3956 4666 
L 4897 4666 
L 4897 0 
L 4281 0 
L 4281 4097 
L 3078 897 
L 2444 897 
L 1241 4097 
L 1241 0 
L 628 0 
L 628 4666 
z
" transform="scale(0.015625)"/>
        <path id="DejaVuSans-65" d="M 3597 1894 
L 3597 1613 
L 953 1613 
Q 991 1019 1311 708 
Q 1631 397 2203 397 
Q 2534 397 2845 478 
Q 3156 559 3463 722 
L 3463 178 
Q 3153 47 2828 -22 
Q 2503 -91 2169 -91 
Q 1331 -91 842 396 
Q 353 884 353 1716 
Q 353 2575 817 3079 
Q 1281 3584 2069 3584 
Q 2775 3584 3186 3129 
Q 3597 2675 3597 1894 
z
M 3022 2063 
Q 3016 2534 2758 2815 
Q 2500 3097 2075 3097 
Q 1594 3097 1305 2825 
Q 1016 2553 972 2059 
L 3022 2063 
z
" transform="scale(0.015625)"/>
        <path id="DejaVuSans-64" d="M 2906 2969 
L 2906 4863 
L 3481 4863 
L 3481 0 
L 2906 0 
L 2906 525 
Q 2725 213 2448 61 
Q 2172 -91 1784 -91 
Q 1150 -91 751 415 
Q 353 922 353 1747 
Q 353 2572 751 3078 
Q 1150 3584 1784 3584 
Q 2172 3584 2448 3432 
Q 2725 3281 2906 2969 
z
M 947 1747 
Q 947 1113 1208 752 
Q 1469 391 1925 391 
Q 2381 391 2643 752 
Q 2906 1113 2906 1747 
Q 2906 2381 2643 2742 
Q 2381 3103 1925 3103 
Q 1469 3103 1208 2742 
Q 947 2381 947 1747 
z
" transform="scale(0.015625)"/>
        <path id="DejaVuSans-53" d="M 3425 4513 
L 3425 3897 
Q 3066 4069 2747 4153 
Q 2428 4238 2131 4238 
Q 1616 4238 1336 4038 
Q 1056 3838 1056 3469 
Q 1056 3159 1242 3001 
Q 1428 2844 1947 2747 
L 2328 2669 
Q 3034 2534 3370 2195 
Q 3706 1856 3706 1288 
Q 3706 609 3251 259 
Q 2797 -91 1919 -91 
Q 1588 -91 1214 -16 
Q 841 59 441 206 
L 441 856 
Q 825 641 1194 531 
Q 1563 422 1919 422 
Q 2459 422 2753 634 
Q 3047 847 3047 1241 
Q 3047 1584 2836 1778 
Q 2625 1972 2144 2069 
L 1759 2144 
Q 1053 2284 737 2584 
Q 422 2884 422 3419 
Q 422 4038 858 4394 
Q 1294 4750 2059 4750 
Q 2388 4750 2728 4690 
Q 3069 4631 3425 4513 
z
" transform="scale(0.015625)"/>
        <path id="DejaVuSans-41" d="M 2188 4044 
L 1331 1722 
L 3047 1722 
L 2188 4044 
z
M 1831 4666 
L 2547 4666 
L 4325 0 
L 3669 0 
L 3244 1197 
L 1141 1197 
L 716 0 
L 50 0 
L 1831 4666 
z
" transform="scale(0.015625)"/>
        <path id="DejaVuSans-2d" d="M 313 2009 
L 1997 2009 
L 1997 1497 
L 313 1497 
L 313 2009 
z
" transform="scale(0.015625)"/>
        <path id="DejaVuSans-43" d="M 4122 4306 
L 4122 3641 
Q 3803 3938 3442 4084 
Q 3081 4231 2675 4231 
Q 1875 4231 1450 3742 
Q 1025 3253 1025 2328 
Q 1025 1406 1450 917 
Q 1875 428 2675 428 
Q 3081 428 3442 575 
Q 3803 722 4122 1019 
L 4122 359 
Q 3791 134 3420 21 
Q 3050 -91 2638 -91 
Q 1578 -91 968 557 
Q 359 1206 359 2328 
Q 359 3453 968 4101 
Q 1578 4750 2638 4750 
Q 3056 4750 3426 4639 
Q 3797 4528 4122 4306 
z
" transform="scale(0.015625)"/>
        <path id="DejaVuSans-54" d="M -19 4666 
L 3928 4666 
L 3928 4134 
L 2272 4134 
L 2272 0 
L 1638 0 
L 1638 4134 
L -19 4134 
L -19 4666 
z
" transform="scale(0.015625)"/>
        <path id="DejaVuSans-20" transform="scale(0.015625)"/>
        <path id="DejaVuSans-70" d="M 1159 525 
L 1159 -1331 
L 581 -1331 
L 581 3500 
L 1159 3500 
L 1159 2969 
Q 1341 3281 1617 3432 
Q 1894 3584 2278 3584 
Q 2916 3584 3314 3078 
Q 3713 2572 3713 1747 
Q 3713 922 3314 415 
Q 2916 -91 2278 -91 
Q 1894 -91 1617 61 
Q 1341 213 1159 525 
z
M 3116 1747 
Q 3116 2381 2855 2742 
Q 2594 3103 2138 3103 
Q 1681 3103 1420 2742 
Q 1159 2381 1159 1747 
Q 1159 1113 1420 752 
Q 1681 391 2138 391 
Q 2594 391 2855 752 
Q 3116 1113 3116 1747 
z
" transform="scale(0.015625)"/>
        <path id="DejaVuSans-69" d="M 603 3500 
L 1178 3500 
L 1178 0 
L 603 0 
L 603 3500 
z
M 603 4863 
L 1178 4863 
L 1178 4134 
L 603 4134 
L 603 4863 
z
" transform="scale(0.015625)"/>
        <path id="DejaVuSans-6e" d="M 3513 2113 
L 3513 0 
L 2938 0 
L 2938 2094 
Q 2938 2591 2744 2837 
Q 2550 3084 2163 3084 
Q 1697 3084 1428 2787 
Q 1159 2491 1159 1978 
L 1159 0 
L 581 0 
L 581 3500 
L 1159 3500 
L 1159 2956 
Q 1366 3272 1645 3428 
Q 1925 3584 2291 3584 
Q 2894 3584 3203 3211 
Q 3513 2838 3513 2113 
z
" transform="scale(0.015625)"/>
        <path id="DejaVuSans-74" d="M 1172 4494 
L 1172 3500 
L 2356 3500 
L 2356 3053 
L 1172 3053 
L 1172 1153 
Q 1172 725 1289 603 
Q 1406 481 1766 481 
L 2356 481 
L 2356 0 
L 1766 0 
Q 1100 0 847 248 
Q 594 497 594 1153 
L 594 3053 
L 172 3053 
L 172 3500 
L 594 3500 
L 594 4494 
L 1172 4494 
z
" transform="scale(0.015625)"/>
       </defs>
       <use xlink:href="#DejaVuSans-4d"/>
       <use xlink:href="#DejaVuSans-65" transform="translate(86.279297 0)"/>
       <use xlink:href="#DejaVuSans-64" transform="translate(147.802734 0)"/>
       <use xlink:href="#DejaVuSans-53" transform="translate(211.279297 0)"/>
       <use xlink:href="#DejaVuSans-41" transform="translate(276.630859 0)"/>
       <use xlink:href="#DejaVuSans-4d" transform="translate(345.039062 0)"/>
       <use xlink:href="#DejaVuSans-32" transform="translate(431.318359 0)"/>
       <use xlink:href="#DejaVuSans-2d" transform="translate(494.941406 0)"/>
       <use xlink:href="#DejaVuSans-43" transform="translate(531.025391 0)"/>
       <use xlink:href="#DejaVuSans-54" transform="translate(600.849609 0)"/>
       <use xlink:href="#DejaVuSans-20" transform="translate(661.933594 0)"/>
       <use xlink:href="#DejaVuSans-70" transform="translate(693.720703 0)"/>
       <use xlink:href="#DejaVuSans-6f" transform="translate(757.197266 0)"/>
       <use xlink:href="#DejaVuSans-69" transform="translate(818.378906 0)"/>
       <use xlink:href="#DejaVuSans-6e" transform="translate(846.162109 0)"/>
       <use xlink:href="#DejaVuSans-74" transform="translate(909.541016 0)"/>
       <use xlink:href="#DejaVuSans-20" transform="translate(948.75 0)"/>
       <use xlink:href="#DejaVuSans-31" transform="translate(980.537109 0)"/>
       <use xlink:href="#DejaVuSans-70" transform="translate(1044.160156 0)"/>
       <use xlink:href="#DejaVuSans-30" transform="translate(1107.636719 0)"/>
       <use xlink:href="#DejaVuSans-6e" transform="translate(1171.259766 0)"/>
      </g>
     </g>
    </g>
    <g id="ytick_2">
     <g id="text_9">
      <!-- MedSAM2-latest point 1p0n -->
      <g style="fill: #262626" transform="translate(7.2 62.266641) scale(0.11 -0.11)">
       <defs>
        <path id="DejaVuSans-6c" d="M 603 4863 
L 1178 4863 
L 1178 0 
L 603 0 
L 603 4863 
z
" transform="scale(0.015625)"/>
        <path id="DejaVuSans-61" d="M 2194 1759 
Q 1497 1759 1228 1600 
Q 959 1441 959 1056 
Q 959 750 1161 570 
Q 1363 391 1709 391 
Q 2188 391 2477 730 
Q 2766 1069 2766 1631 
L 2766 1759 
L 2194 1759 
z
M 3341 1997 
L 3341 0 
L 2766 0 
L 2766 531 
Q 2569 213 2275 61 
Q 1981 -91 1556 -91 
Q 1019 -91 701 211 
Q 384 513 384 1019 
Q 384 1609 779 1909 
Q 1175 2209 1959 2209 
L 2766 2209 
L 2766 2266 
Q 2766 2663 2505 2880 
Q 2244 3097 1772 3097 
Q 1472 3097 1187 3025 
Q 903 2953 641 2809 
L 641 3341 
Q 956 3463 1253 3523 
Q 1550 3584 1831 3584 
Q 2591 3584 2966 3190 
Q 3341 2797 3341 1997 
z
" transform="scale(0.015625)"/>
        <path id="DejaVuSans-73" d="M 2834 3397 
L 2834 2853 
Q 2591 2978 2328 3040 
Q 2066 3103 1784 3103 
Q 1356 3103 1142 2972 
Q 928 2841 928 2578 
Q 928 2378 1081 2264 
Q 1234 2150 1697 2047 
L 1894 2003 
Q 2506 1872 2764 1633 
Q 3022 1394 3022 966 
Q 3022 478 2636 193 
Q 2250 -91 1575 -91 
Q 1294 -91 989 -36 
Q 684 19 347 128 
L 347 722 
Q 666 556 975 473 
Q 1284 391 1588 391 
Q 1994 391 2212 530 
Q 2431 669 2431 922 
Q 2431 1156 2273 1281 
Q 2116 1406 1581 1522 
L 1381 1569 
Q 847 1681 609 1914 
Q 372 2147 372 2553 
Q 372 3047 722 3315 
Q 1072 3584 1716 3584 
Q 2034 3584 2315 3537 
Q 2597 3491 2834 3397 
z
" transform="scale(0.015625)"/>
       </defs>
       <use xlink:href="#DejaVuSans-4d"/>
       <use xlink:href="#DejaVuSans-65" transform="translate(86.279297 0)"/>
       <use xlink:href="#DejaVuSans-64" transform="translate(147.802734 0)"/>
       <use xlink:href="#DejaVuSans-53" transform="translate(211.279297 0)"/>
       <use xlink:href="#DejaVuSans-41" transform="translate(276.630859 0)"/>
       <use xlink:href="#DejaVuSans-4d" transform="translate(345.039062 0)"/>
       <use xlink:href="#DejaVuSans-32" transform="translate(431.318359 0)"/>
       <use xlink:href="#DejaVuSans-2d" transform="translate(494.941406 0)"/>
       <use xlink:href="#DejaVuSans-6c" transform="translate(531.025391 0)"/>
       <use xlink:href="#DejaVuSans-61" transform="translate(558.808594 0)"/>
       <use xlink:href="#DejaVuSans-74" transform="translate(620.087891 0)"/>
       <use xlink:href="#DejaVuSans-65" transform="translate(659.296875 0)"/>
       <use xlink:href="#DejaVuSans-73" transform="translate(720.820312 0)"/>
       <use xlink:href="#DejaVuSans-74" transform="translate(772.919922 0)"/>
       <use xlink:href="#DejaVuSans-20" transform="translate(812.128906 0)"/>
       <use xlink:href="#DejaVuSans-70" transform="translate(843.916016 0)"/>
       <use xlink:href="#DejaVuSans-6f" transform="translate(907.392578 0)"/>
       <use xlink:href="#DejaVuSans-69" transform="translate(968.574219 0)"/>
       <use xlink:href="#DejaVuSans-6e" transform="translate(996.357422 0)"/>
       <use xlink:href="#DejaVuSans-74" transform="translate(1059.736328 0)"/>
       <use xlink:href="#DejaVuSans-20" transform="translate(1098.945312 0)"/>
       <use xlink:href="#DejaVuSans-31" transform="translate(1130.732422 0)"/>
       <use xlink:href="#DejaVuSans-70" transform="translate(1194.355469 0)"/>
       <use xlink:href="#DejaVuSans-30" transform="translate(1257.832031 0)"/>
       <use xlink:href="#DejaVuSans-6e" transform="translate(1321.455078 0)"/>
      </g>
     </g>
    </g>
    <g id="ytick_3">
     <g id="text_10">
      <!-- SAM-Med2D point 1p0n -->
      <g style="fill: #262626" transform="translate(29.650312 86.112891) scale(0.11 -0.11)">
       <defs>
        <path id="DejaVuSans-44" d="M 1259 4147 
L 1259 519 
L 2022 519 
Q 2988 519 3436 956 
Q 3884 1394 3884 2338 
Q 3884 3275 3436 3711 
Q 2988 4147 2022 4147 
L 1259 4147 
z
M 628 4666 
L 1925 4666 
Q 3281 4666 3915 4102 
Q 4550 3538 4550 2338 
Q 4550 1131 3912 565 
Q 3275 0 1925 0 
L 628 0 
L 628 4666 
z
" transform="scale(0.015625)"/>
       </defs>
       <use xlink:href="#DejaVuSans-53"/>
       <use xlink:href="#DejaVuSans-41" transform="translate(65.351562 0)"/>
       <use xlink:href="#DejaVuSans-4d" transform="translate(133.759766 0)"/>
       <use xlink:href="#DejaVuSans-2d" transform="translate(220.039062 0)"/>
       <use xlink:href="#DejaVuSans-4d" transform="translate(256.123047 0)"/>
       <use xlink:href="#DejaVuSans-65" transform="translate(342.402344 0)"/>
       <use xlink:href="#DejaVuSans-64" transform="translate(403.925781 0)"/>
       <use xlink:href="#DejaVuSans-32" transform="translate(467.402344 0)"/>
       <use xlink:href="#DejaVuSans-44" transform="translate(531.025391 0)"/>
       <use xlink:href="#DejaVuSans-20" transform="translate(608.027344 0)"/>
       <use xlink:href="#DejaVuSans-70" transform="translate(639.814453 0)"/>
       <use xlink:href="#DejaVuSans-6f" transform="translate(703.291016 0)"/>
       <use xlink:href="#DejaVuSans-69" transform="translate(764.472656 0)"/>
       <use xlink:href="#DejaVuSans-6e" transform="translate(792.255859 0)"/>
       <use xlink:href="#DejaVuSans-74" transform="translate(855.634766 0)"/>
       <use xlink:href="#DejaVuSans-20" transform="translate(894.84375 0)"/>
       <use xlink:href="#DejaVuSans-31" transform="translate(926.630859 0)"/>
       <use xlink:href="#DejaVuSans-70" transform="translate(990.253906 0)"/>
       <use xlink:href="#DejaVuSans-30" transform="translate(1053.730469 0)"/>
       <use xlink:href="#DejaVuSans-6e" transform="translate(1117.353516 0)"/>
      </g>
     </g>
    </g>
    <g id="ytick_4">
     <g id="text_11">
      <!-- SAM2.1 Tiny point 1p0n -->
      <g style="fill: #262626" transform="translate(28.428281 109.959141) scale(0.11 -0.11)">
       <defs>
        <path id="DejaVuSans-79" d="M 2059 -325 
Q 1816 -950 1584 -1140 
Q 1353 -1331 966 -1331 
L 506 -1331 
L 506 -850 
L 844 -850 
Q 1081 -850 1212 -737 
Q 1344 -625 1503 -206 
L 1606 56 
L 191 3500 
L 800 3500 
L 1894 763 
L 2988 3500 
L 3597 3500 
L 2059 -325 
z
" transform="scale(0.015625)"/>
       </defs>
       <use xlink:href="#DejaVuSans-53"/>
       <use xlink:href="#DejaVuSans-41" transform="translate(65.351562 0)"/>
       <use xlink:href="#DejaVuSans-4d" transform="translate(133.759766 0)"/>
       <use xlink:href="#DejaVuSans-32" transform="translate(220.039062 0)"/>
       <use xlink:href="#DejaVuSans-2e" transform="translate(283.662109 0)"/>
       <use xlink:href="#DejaVuSans-31" transform="translate(315.449219 0)"/>
       <use xlink:href="#DejaVuSans-20" transform="translate(379.072266 0)"/>
       <use xlink:href="#DejaVuSans-54" transform="translate(410.859375 0)"/>
       <use xlink:href="#DejaVuSans-69" transform="translate(468.818359 0)"/>
       <use xlink:href="#DejaVuSans-6e" transform="translate(496.601562 0)"/>
       <use xlink:href="#DejaVuSans-79" transform="translate(559.980469 0)"/>
       <use xlink:href="#DejaVuSans-20" transform="translate(619.160156 0)"/>
       <use xlink:href="#DejaVuSans-70" transform="translate(650.947266 0)"/>
       <use xlink:href="#DejaVuSans-6f" transform="translate(714.423828 0)"/>
       <use xlink:href="#DejaVuSans-69" transform="translate(775.605469 0)"/>
       <use xlink:href="#DejaVuSans-6e" transform="translate(803.388672 0)"/>
       <use xlink:href="#DejaVuSans-74" transform="translate(866.767578 0)"/>
       <use xlink:href="#DejaVuSans-20" transform="translate(905.976562 0)"/>
       <use xlink:href="#DejaVuSans-31" transform="translate(937.763672 0)"/>
       <use xlink:href="#DejaVuSans-70" transform="translate(1001.386719 0)"/>
       <use xlink:href="#DejaVuSans-30" transform="translate(1064.863281 0)"/>
       <use xlink:href="#DejaVuSans-6e" transform="translate(1128.486328 0)"/>
      </g>
     </g>
    </g>
    <g id="ytick_5">
     <g id="text_12">
      <!-- MedSAM2-CT point 4p2n -->
      <g style="fill: #262626" transform="translate(23.720625 133.805391) scale(0.11 -0.11)">
       <use xlink:href="#DejaVuSans-4d"/>
       <use xlink:href="#DejaVuSans-65" transform="translate(86.279297 0)"/>
       <use xlink:href="#DejaVuSans-64" transform="translate(147.802734 0)"/>
       <use xlink:href="#DejaVuSans-53" transform="translate(211.279297 0)"/>
       <use xlink:href="#DejaVuSans-41" transform="translate(276.630859 0)"/>
       <use xlink:href="#DejaVuSans-4d" transform="translate(345.039062 0)"/>
       <use xlink:href="#DejaVuSans-32" transform="translate(431.318359 0)"/>
       <use xlink:href="#DejaVuSans-2d" transform="translate(494.941406 0)"/>
       <use xlink:href="#DejaVuSans-43" transform="translate(531.025391 0)"/>
       <use xlink:href="#DejaVuSans-54" transform="translate(600.849609 0)"/>
       <use xlink:href="#DejaVuSans-20" transform="translate(661.933594 0)"/>
       <use xlink:href="#DejaVuSans-70" transform="translate(693.720703 0)"/>
       <use xlink:href="#DejaVuSans-6f" transform="translate(757.197266 0)"/>
       <use xlink:href="#DejaVuSans-69" transform="translate(818.378906 0)"/>
       <use xlink:href="#DejaVuSans-6e" transform="translate(846.162109 0)"/>
       <use xlink:href="#DejaVuSans-74" transform="translate(909.541016 0)"/>
       <use xlink:href="#DejaVuSans-20" transform="translate(948.75 0)"/>
       <use xlink:href="#DejaVuSans-34" transform="translate(980.537109 0)"/>
       <use xlink:href="#DejaVuSans-70" transform="translate(1044.160156 0)"/>
       <use xlink:href="#DejaVuSans-32" transform="translate(1107.636719 0)"/>
       <use xlink:href="#DejaVuSans-6e" transform="translate(1171.259766 0)"/>
      </g>
     </g>
    </g>
    <g id="ytick_6">
     <g id="text_13">
      <!-- MedSAM2-latest point 4p2n -->
      <g style="fill: #262626" transform="translate(7.2 157.651641) scale(0.11 -0.11)">
       <use xlink:href="#DejaVuSans-4d"/>
       <use xlink:href="#DejaVuSans-65" transform="translate(86.279297 0)"/>
       <use xlink:href="#DejaVuSans-64" transform="translate(147.802734 0)"/>
       <use xlink:href="#DejaVuSans-53" transform="translate(211.279297 0)"/>
       <use xlink:href="#DejaVuSans-41" transform="translate(276.630859 0)"/>
       <use xlink:href="#DejaVuSans-4d" transform="translate(345.039062 0)"/>
       <use xlink:href="#DejaVuSans-32" transform="translate(431.318359 0)"/>
       <use xlink:href="#DejaVuSans-2d" transform="translate(494.941406 0)"/>
       <use xlink:href="#DejaVuSans-6c" transform="translate(531.025391 0)"/>
       <use xlink:href="#DejaVuSans-61" transform="translate(558.808594 0)"/>
       <use xlink:href="#DejaVuSans-74" transform="translate(620.087891 0)"/>
       <use xlink:href="#DejaVuSans-65" transform="translate(659.296875 0)"/>
       <use xlink:href="#DejaVuSans-73" transform="translate(720.820312 0)"/>
       <use xlink:href="#DejaVuSans-74" transform="translate(772.919922 0)"/>
       <use xlink:href="#DejaVuSans-20" transform="translate(812.128906 0)"/>
       <use xlink:href="#DejaVuSans-70" transform="translate(843.916016 0)"/>
       <use xlink:href="#DejaVuSans-6f" transform="translate(907.392578 0)"/>
       <use xlink:href="#DejaVuSans-69" transform="translate(968.574219 0)"/>
       <use xlink:href="#DejaVuSans-6e" transform="translate(996.357422 0)"/>
       <use xlink:href="#DejaVuSans-74" transform="translate(1059.736328 0)"/>
       <use xlink:href="#DejaVuSans-20" transform="translate(1098.945312 0)"/>
       <use xlink:href="#DejaVuSans-34" transform="translate(1130.732422 0)"/>
       <use xlink:href="#DejaVuSans-70" transform="translate(1194.355469 0)"/>
       <use xlink:href="#DejaVuSans-32" transform="translate(1257.832031 0)"/>
       <use xlink:href="#DejaVuSans-6e" transform="translate(1321.455078 0)"/>
      </g>
     </g>
    </g>
    <g id="ytick_7">
     <g id="text_14">
      <!-- SAM-Med2D point 4p2n -->
      <g style="fill: #262626" transform="translate(29.650312 181.497891) scale(0.11 -0.11)">
       <use xlink:href="#DejaVuSans-53"/>
       <use xlink:href="#DejaVuSans-41" transform="translate(65.351562 0)"/>
       <use xlink:href="#DejaVuSans-4d" transform="translate(133.759766 0)"/>
       <use xlink:href="#DejaVuSans-2d" transform="translate(220.039062 0)"/>
       <use xlink:href="#DejaVuSans-4d" transform="translate(256.123047 0)"/>
       <use xlink:href="#DejaVuSans-65" transform="translate(342.402344 0)"/>
       <use xlink:href="#DejaVuSans-64" transform="translate(403.925781 0)"/>
       <use xlink:href="#DejaVuSans-32" transform="translate(467.402344 0)"/>
       <use xlink:href="#DejaVuSans-44" transform="translate(531.025391 0)"/>
       <use xlink:href="#DejaVuSans-20" transform="translate(608.027344 0)"/>
       <use xlink:href="#DejaVuSans-70" transform="translate(639.814453 0)"/>
       <use xlink:href="#DejaVuSans-6f" transform="translate(703.291016 0)"/>
       <use xlink:href="#DejaVuSans-69" transform="translate(764.472656 0)"/>
       <use xlink:href="#DejaVuSans-6e" transform="translate(792.255859 0)"/>
       <use xlink:href="#DejaVuSans-74" transform="translate(855.634766 0)"/>
       <use xlink:href="#DejaVuSans-20" transform="translate(894.84375 0)"/>
       <use xlink:href="#DejaVuSans-34" transform="translate(926.630859 0)"/>
       <use xlink:href="#DejaVuSans-70" transform="translate(990.253906 0)"/>
       <use xlink:href="#DejaVuSans-32" transform="translate(1053.730469 0)"/>
       <use xlink:href="#DejaVuSans-6e" transform="translate(1117.353516 0)"/>
      </g>
     </g>
    </g>
    <g id="ytick_8">
     <g id="text_15">
      <!-- SAM2.1 Tiny point 4p2n -->
      <g style="fill: #262626" transform="translate(28.428281 205.344141) scale(0.11 -0.11)">
       <use xlink:href="#DejaVuSans-53"/>
       <use xlink:href="#DejaVuSans-41" transform="translate(65.351562 0)"/>
       <use xlink:href="#DejaVuSans-4d" transform="translate(133.759766 0)"/>
       <use xlink:href="#DejaVuSans-32" transform="translate(220.039062 0)"/>
       <use xlink:href="#DejaVuSans-2e" transform="translate(283.662109 0)"/>
       <use xlink:href="#DejaVuSans-31" transform="translate(315.449219 0)"/>
       <use xlink:href="#DejaVuSans-20" transform="translate(379.072266 0)"/>
       <use xlink:href="#DejaVuSans-54" transform="translate(410.859375 0)"/>
       <use xlink:href="#DejaVuSans-69" transform="translate(468.818359 0)"/>
       <use xlink:href="#DejaVuSans-6e" transform="translate(496.601562 0)"/>
       <use xlink:href="#DejaVuSans-79" transform="translate(559.980469 0)"/>
       <use xlink:href="#DejaVuSans-20" transform="translate(619.160156 0)"/>
       <use xlink:href="#DejaVuSans-70" transform="translate(650.947266 0)"/>
       <use xlink:href="#DejaVuSans-6f" transform="translate(714.423828 0)"/>
       <use xlink:href="#DejaVuSans-69" transform="translate(775.605469 0)"/>
       <use xlink:href="#DejaVuSans-6e" transform="translate(803.388672 0)"/>
       <use xlink:href="#DejaVuSans-74" transform="translate(866.767578 0)"/>
       <use xlink:href="#DejaVuSans-20" transform="translate(905.976562 0)"/>
       <use xlink:href="#DejaVuSans-34" transform="translate(937.763672 0)"/>
       <use xlink:href="#DejaVuSans-70" transform="translate(1001.386719 0)"/>
       <use xlink:href="#DejaVuSans-32" transform="translate(1064.863281 0)"/>
       <use xlink:href="#DejaVuSans-6e" transform="translate(1128.486328 0)"/>
      </g>
     </g>
    </g>
    <g id="ytick_9">
     <g id="text_16">
      <!-- MedSAM2-CT box 0px -->
      <g style="fill: #262626" transform="translate(39.352656 229.190391) scale(0.11 -0.11)">
       <defs>
        <path id="DejaVuSans-62" d="M 3116 1747 
Q 3116 2381 2855 2742 
Q 2594 3103 2138 3103 
Q 1681 3103 1420 2742 
Q 1159 2381 1159 1747 
Q 1159 1113 1420 752 
Q 1681 391 2138 391 
Q 2594 391 2855 752 
Q 3116 1113 3116 1747 
z
M 1159 2969 
Q 1341 3281 1617 3432 
Q 1894 3584 2278 3584 
Q 2916 3584 3314 3078 
Q 3713 2572 3713 1747 
Q 3713 922 3314 415 
Q 2916 -91 2278 -91 
Q 1894 -91 1617 61 
Q 1341 213 1159 525 
L 1159 0 
L 581 0 
L 581 4863 
L 1159 4863 
L 1159 2969 
z
" transform="scale(0.015625)"/>
        <path id="DejaVuSans-78" d="M 3513 3500 
L 2247 1797 
L 3578 0 
L 2900 0 
L 1881 1375 
L 863 0 
L 184 0 
L 1544 1831 
L 300 3500 
L 978 3500 
L 1906 2253 
L 2834 3500 
L 3513 3500 
z
" transform="scale(0.015625)"/>
       </defs>
       <use xlink:href="#DejaVuSans-4d"/>
       <use xlink:href="#DejaVuSans-65" transform="translate(86.279297 0)"/>
       <use xlink:href="#DejaVuSans-64" transform="translate(147.802734 0)"/>
       <use xlink:href="#DejaVuSans-53" transform="translate(211.279297 0)"/>
       <use xlink:href="#DejaVuSans-41" transform="translate(276.630859 0)"/>
       <use xlink:href="#DejaVuSans-4d" transform="translate(345.039062 0)"/>
       <use xlink:href="#DejaVuSans-32" transform="translate(431.318359 0)"/>
       <use xlink:href="#DejaVuSans-2d" transform="translate(494.941406 0)"/>
       <use xlink:href="#DejaVuSans-43" transform="translate(531.025391 0)"/>
       <use xlink:href="#DejaVuSans-54" transform="translate(600.849609 0)"/>
       <use xlink:href="#DejaVuSans-20" transform="translate(661.933594 0)"/>
       <use xlink:href="#DejaVuSans-62" transform="translate(693.720703 0)"/>
       <use xlink:href="#DejaVuSans-6f" transform="translate(757.197266 0)"/>
       <use xlink:href="#DejaVuSans-78" transform="translate(815.253906 0)"/>
       <use xlink:href="#DejaVuSans-20" transform="translate(874.433594 0)"/>
       <use xlink:href="#DejaVuSans-30" transform="translate(906.220703 0)"/>
       <use xlink:href="#DejaVuSans-70" transform="translate(969.84375 0)"/>
       <use xlink:href="#DejaVuSans-78" transform="translate(1033.320312 0)"/>
      </g>
     </g>
    </g>
    <g id="ytick_10">
     <g id="text_17">
      <!-- MedSAM2-latest box 0px -->
      <g style="fill: #262626" transform="translate(22.832031 253.036641) scale(0.11 -0.11)">
       <use xlink:href="#DejaVuSans-4d"/>
       <use xlink:href="#DejaVuSans-65" transform="translate(86.279297 0)"/>
       <use xlink:href="#DejaVuSans-64" transform="translate(147.802734 0)"/>
       <use xlink:href="#DejaVuSans-53" transform="translate(211.279297 0)"/>
       <use xlink:href="#DejaVuSans-41" transform="translate(276.630859 0)"/>
       <use xlink:href="#DejaVuSans-4d" transform="translate(345.039062 0)"/>
       <use xlink:href="#DejaVuSans-32" transform="translate(431.318359 0)"/>
       <use xlink:href="#DejaVuSans-2d" transform="translate(494.941406 0)"/>
       <use xlink:href="#DejaVuSans-6c" transform="translate(531.025391 0)"/>
       <use xlink:href="#DejaVuSans-61" transform="translate(558.808594 0)"/>
       <use xlink:href="#DejaVuSans-74" transform="translate(620.087891 0)"/>
       <use xlink:href="#DejaVuSans-65" transform="translate(659.296875 0)"/>
       <use xlink:href="#DejaVuSans-73" transform="translate(720.820312 0)"/>
       <use xlink:href="#DejaVuSans-74" transform="translate(772.919922 0)"/>
       <use xlink:href="#DejaVuSans-20" transform="translate(812.128906 0)"/>
       <use xlink:href="#DejaVuSans-62" transform="translate(843.916016 0)"/>
       <use xlink:href="#DejaVuSans-6f" transform="translate(907.392578 0)"/>
       <use xlink:href="#DejaVuSans-78" transform="translate(965.449219 0)"/>
       <use xlink:href="#DejaVuSans-20" transform="translate(1024.628906 0)"/>
       <use xlink:href="#DejaVuSans-30" transform="translate(1056.416016 0)"/>
       <use xlink:href="#DejaVuSans-70" transform="translate(1120.039062 0)"/>
       <use xlink:href="#DejaVuSans-78" transform="translate(1183.515625 0)"/>
      </g>
     </g>
    </g>
    <g id="ytick_11">
     <g id="text_18">
      <!-- SAM-Med2D box 0px -->
      <g style="fill: #262626" transform="translate(45.282344 276.882891) scale(0.11 -0.11)">
       <use xlink:href="#DejaVuSans-53"/>
       <use xlink:href="#DejaVuSans-41" transform="translate(65.351562 0)"/>
       <use xlink:href="#DejaVuSans-4d" transform="translate(133.759766 0)"/>
       <use xlink:href="#DejaVuSans-2d" transform="translate(220.039062 0)"/>
       <use xlink:href="#DejaVuSans-4d" transform="translate(256.123047 0)"/>
       <use xlink:href="#DejaVuSans-65" transform="translate(342.402344 0)"/>
       <use xlink:href="#DejaVuSans-64" transform="translate(403.925781 0)"/>
       <use xlink:href="#DejaVuSans-32" transform="translate(467.402344 0)"/>
       <use xlink:href="#DejaVuSans-44" transform="translate(531.025391 0)"/>
       <use xlink:href="#DejaVuSans-20" transform="translate(608.027344 0)"/>
       <use xlink:href="#DejaVuSans-62" transform="translate(639.814453 0)"/>
       <use xlink:href="#DejaVuSans-6f" transform="translate(703.291016 0)"/>
       <use xlink:href="#DejaVuSans-78" transform="translate(761.347656 0)"/>
       <use xlink:href="#DejaVuSans-20" transform="translate(820.527344 0)"/>
       <use xlink:href="#DejaVuSans-30" transform="translate(852.314453 0)"/>
       <use xlink:href="#DejaVuSans-70" transform="translate(915.9375 0)"/>
       <use xlink:href="#DejaVuSans-78" transform="translate(979.414062 0)"/>
      </g>
     </g>
    </g>
    <g id="ytick_12">
     <g id="text_19">
      <!-- SAM2.1 Tiny box 0px -->
      <g style="fill: #262626" transform="translate(44.060312 300.729141) scale(0.11 -0.11)">
       <use xlink:href="#DejaVuSans-53"/>
       <use xlink:href="#DejaVuSans-41" transform="translate(65.351562 0)"/>
       <use xlink:href="#DejaVuSans-4d" transform="translate(133.759766 0)"/>
       <use xlink:href="#DejaVuSans-32" transform="translate(220.039062 0)"/>
       <use xlink:href="#DejaVuSans-2e" transform="translate(283.662109 0)"/>
       <use xlink:href="#DejaVuSans-31" transform="translate(315.449219 0)"/>
       <use xlink:href="#DejaVuSans-20" transform="translate(379.072266 0)"/>
       <use xlink:href="#DejaVuSans-54" transform="translate(410.859375 0)"/>
       <use xlink:href="#DejaVuSans-69" transform="translate(468.818359 0)"/>
       <use xlink:href="#DejaVuSans-6e" transform="translate(496.601562 0)"/>
       <use xlink:href="#DejaVuSans-79" transform="translate(559.980469 0)"/>
       <use xlink:href="#DejaVuSans-20" transform="translate(619.160156 0)"/>
       <use xlink:href="#DejaVuSans-62" transform="translate(650.947266 0)"/>
       <use xlink:href="#DejaVuSans-6f" transform="translate(714.423828 0)"/>
       <use xlink:href="#DejaVuSans-78" transform="translate(772.480469 0)"/>
       <use xlink:href="#DejaVuSans-20" transform="translate(831.660156 0)"/>
       <use xlink:href="#DejaVuSans-30" transform="translate(863.447266 0)"/>
       <use xlink:href="#DejaVuSans-70" transform="translate(927.070312 0)"/>
       <use xlink:href="#DejaVuSans-78" transform="translate(990.546875 0)"/>
      </g>
     </g>
    </g>
    <g id="ytick_13">
     <g id="text_20">
      <!-- MedSAM2-CT box 10% -->
      <g style="fill: #262626" transform="translate(35.396094 324.575391) scale(0.11 -0.11)">
       <defs>
        <path id="DejaVuSans-25" d="M 4653 2053 
Q 4381 2053 4226 1822 
Q 4072 1591 4072 1178 
Q 4072 772 4226 539 
Q 4381 306 4653 306 
Q 4919 306 5073 539 
Q 5228 772 5228 1178 
Q 5228 1588 5073 1820 
Q 4919 2053 4653 2053 
z
M 4653 2450 
Q 5147 2450 5437 2106 
Q 5728 1763 5728 1178 
Q 5728 594 5436 251 
Q 5144 -91 4653 -91 
Q 4153 -91 3862 251 
Q 3572 594 3572 1178 
Q 3572 1766 3864 2108 
Q 4156 2450 4653 2450 
z
M 1428 4353 
Q 1159 4353 1004 4120 
Q 850 3888 850 3481 
Q 850 3069 1003 2837 
Q 1156 2606 1428 2606 
Q 1700 2606 1854 2837 
Q 2009 3069 2009 3481 
Q 2009 3884 1853 4118 
Q 1697 4353 1428 4353 
z
M 4250 4750 
L 4750 4750 
L 1831 -91 
L 1331 -91 
L 4250 4750 
z
M 1428 4750 
Q 1922 4750 2215 4408 
Q 2509 4066 2509 3481 
Q 2509 2891 2217 2550 
Q 1925 2209 1428 2209 
Q 931 2209 642 2551 
Q 353 2894 353 3481 
Q 353 4063 643 4406 
Q 934 4750 1428 4750 
z
" transform="scale(0.015625)"/>
       </defs>
       <use xlink:href="#DejaVuSans-4d"/>
       <use xlink:href="#DejaVuSans-65" transform="translate(86.279297 0)"/>
       <use xlink:href="#DejaVuSans-64" transform="translate(147.802734 0)"/>
       <use xlink:href="#DejaVuSans-53" transform="translate(211.279297 0)"/>
       <use xlink:href="#DejaVuSans-41" transform="translate(276.630859 0)"/>
       <use xlink:href="#DejaVuSans-4d" transform="translate(345.039062 0)"/>
       <use xlink:href="#DejaVuSans-32" transform="translate(431.318359 0)"/>
       <use xlink:href="#DejaVuSans-2d" transform="translate(494.941406 0)"/>
       <use xlink:href="#DejaVuSans-43" transform="translate(531.025391 0)"/>
       <use xlink:href="#DejaVuSans-54" transform="translate(600.849609 0)"/>
       <use xlink:href="#DejaVuSans-20" transform="translate(661.933594 0)"/>
       <use xlink:href="#DejaVuSans-62" transform="translate(693.720703 0)"/>
       <use xlink:href="#DejaVuSans-6f" transform="translate(757.197266 0)"/>
       <use xlink:href="#DejaVuSans-78" transform="translate(815.253906 0)"/>
       <use xlink:href="#DejaVuSans-20" transform="translate(874.433594 0)"/>
       <use xlink:href="#DejaVuSans-31" transform="translate(906.220703 0)"/>
       <use xlink:href="#DejaVuSans-30" transform="translate(969.84375 0)"/>
       <use xlink:href="#DejaVuSans-25" transform="translate(1033.466797 0)"/>
      </g>
     </g>
    </g>
    <g id="ytick_14">
     <g id="text_21">
      <!-- MedSAM2-latest box 10% -->
      <g style="fill: #262626" transform="translate(18.875469 348.421641) scale(0.11 -0.11)">
       <use xlink:href="#DejaVuSans-4d"/>
       <use xlink:href="#DejaVuSans-65" transform="translate(86.279297 0)"/>
       <use xlink:href="#DejaVuSans-64" transform="translate(147.802734 0)"/>
       <use xlink:href="#DejaVuSans-53" transform="translate(211.279297 0)"/>
       <use xlink:href="#DejaVuSans-41" transform="translate(276.630859 0)"/>
       <use xlink:href="#DejaVuSans-4d" transform="translate(345.039062 0)"/>
       <use xlink:href="#DejaVuSans-32" transform="translate(431.318359 0)"/>
       <use xlink:href="#DejaVuSans-2d" transform="translate(494.941406 0)"/>
       <use xlink:href="#DejaVuSans-6c" transform="translate(531.025391 0)"/>
       <use xlink:href="#DejaVuSans-61" transform="translate(558.808594 0)"/>
       <use xlink:href="#DejaVuSans-74" transform="translate(620.087891 0)"/>
       <use xlink:href="#DejaVuSans-65" transform="translate(659.296875 0)"/>
       <use xlink:href="#DejaVuSans-73" transform="translate(720.820312 0)"/>
       <use xlink:href="#DejaVuSans-74" transform="translate(772.919922 0)"/>
       <use xlink:href="#DejaVuSans-20" transform="translate(812.128906 0)"/>
       <use xlink:href="#DejaVuSans-62" transform="translate(843.916016 0)"/>
       <use xlink:href="#DejaVuSans-6f" transform="translate(907.392578 0)"/>
       <use xlink:href="#DejaVuSans-78" transform="translate(965.449219 0)"/>
       <use xlink:href="#DejaVuSans-20" transform="translate(1024.628906 0)"/>
       <use xlink:href="#DejaVuSans-31" transform="translate(1056.416016 0)"/>
       <use xlink:href="#DejaVuSans-30" transform="translate(1120.039062 0)"/>
       <use xlink:href="#DejaVuSans-25" transform="translate(1183.662109 0)"/>
      </g>
     </g>
    </g>
    <g id="ytick_15">
     <g id="text_22">
      <!-- SAM-Med2D box 10% -->
      <g style="fill: #262626" transform="translate(41.325781 372.267891) scale(0.11 -0.11)">
       <use xlink:href="#DejaVuSans-53"/>
       <use xlink:href="#DejaVuSans-41" transform="translate(65.351562 0)"/>
       <use xlink:href="#DejaVuSans-4d" transform="translate(133.759766 0)"/>
       <use xlink:href="#DejaVuSans-2d" transform="translate(220.039062 0)"/>
       <use xlink:href="#DejaVuSans-4d" transform="translate(256.123047 0)"/>
       <use xlink:href="#DejaVuSans-65" transform="translate(342.402344 0)"/>
       <use xlink:href="#DejaVuSans-64" transform="translate(403.925781 0)"/>
       <use xlink:href="#DejaVuSans-32" transform="translate(467.402344 0)"/>
       <use xlink:href="#DejaVuSans-44" transform="translate(531.025391 0)"/>
       <use xlink:href="#DejaVuSans-20" transform="translate(608.027344 0)"/>
       <use xlink:href="#DejaVuSans-62" transform="translate(639.814453 0)"/>
       <use xlink:href="#DejaVuSans-6f" transform="translate(703.291016 0)"/>
       <use xlink:href="#DejaVuSans-78" transform="translate(761.347656 0)"/>
       <use xlink:href="#DejaVuSans-20" transform="translate(820.527344 0)"/>
       <use xlink:href="#DejaVuSans-31" transform="translate(852.314453 0)"/>
       <use xlink:href="#DejaVuSans-30" transform="translate(915.9375 0)"/>
       <use xlink:href="#DejaVuSans-25" transform="translate(979.560547 0)"/>
      </g>
     </g>
    </g>
    <g id="ytick_16">
     <g id="text_23">
      <!-- SAM2.1 Tiny box 10% -->
      <g style="fill: #262626" transform="translate(40.10375 396.114141) scale(0.11 -0.11)">
       <use xlink:href="#DejaVuSans-53"/>
       <use xlink:href="#DejaVuSans-41" transform="translate(65.351562 0)"/>
       <use xlink:href="#DejaVuSans-4d" transform="translate(133.759766 0)"/>
       <use xlink:href="#DejaVuSans-32" transform="translate(220.039062 0)"/>
       <use xlink:href="#DejaVuSans-2e" transform="translate(283.662109 0)"/>
       <use xlink:href="#DejaVuSans-31" transform="translate(315.449219 0)"/>
       <use xlink:href="#DejaVuSans-20" transform="translate(379.072266 0)"/>
       <use xlink:href="#DejaVuSans-54" transform="translate(410.859375 0)"/>
       <use xlink:href="#DejaVuSans-69" transform="translate(468.818359 0)"/>
       <use xlink:href="#DejaVuSans-6e" transform="translate(496.601562 0)"/>
       <use xlink:href="#DejaVuSans-79" transform="translate(559.980469 0)"/>
       <use xlink:href="#DejaVuSans-20" transform="translate(619.160156 0)"/>
       <use xlink:href="#DejaVuSans-62" transform="translate(650.947266 0)"/>
       <use xlink:href="#DejaVuSans-6f" transform="translate(714.423828 0)"/>
       <use xlink:href="#DejaVuSans-78" transform="translate(772.480469 0)"/>
       <use xlink:href="#DejaVuSans-20" transform="translate(831.660156 0)"/>
       <use xlink:href="#DejaVuSans-31" transform="translate(863.447266 0)"/>
       <use xlink:href="#DejaVuSans-30" transform="translate(927.070312 0)"/>
       <use xlink:href="#DejaVuSans-25" transform="translate(990.693359 0)"/>
      </g>
     </g>
    </g>
   </g>
   <g id="patch_3">
    <path d="M 193.501903 34.24125 
L 193.501903 34.24125 
L 193.501903 34.24125 
L 193.501903 34.24125 
z
" clip-path="url(#pf401731219)" style="fill: #72b6a1; stroke: #595959; stroke-linejoin: miter"/>
   </g>
   <g id="patch_4">
    <path d="M 193.501903 34.24125 
L 193.501903 34.24125 
L 193.501903 34.24125 
L 193.501903 34.24125 
z
" clip-path="url(#pf401731219)" style="fill: #e99675; stroke: #595959; stroke-linejoin: miter"/>
   </g>
   <g id="patch_5">
    <path d="M 193.501903 34.24125 
L 193.501903 34.24125 
L 193.501903 34.24125 
L 193.501903 34.24125 
z
" clip-path="url(#pf401731219)" style="fill: #95a3c3; stroke: #595959; stroke-linejoin: miter"/>
   </g>
   <g id="patch_6">
    <path d="M 193.501903 34.24125 
L 193.501903 34.24125 
L 193.501903 34.24125 
L 193.501903 34.24125 
z
" clip-path="url(#pf401731219)" style="fill: #db96c0; stroke: #595959; stroke-linejoin: miter"/>
   </g>
   <g id="patch_7">
    <path d="M 309.01733 24.70275 
L 309.01733 43.77975 
L 601.320085 43.77975 
L 601.320085 24.70275 
L 309.01733 24.70275 
z
" clip-path="url(#pf401731219)" style="fill: #72b6a1; stroke: #595959; stroke-linejoin: miter"/>
   </g>
   <g id="line2d_7">
    <path d="M 309.01733 34.24125 
L 193.501903 34.24125 
" clip-path="url(#pf401731219)" style="fill: none; stroke: #595959"/>
   </g>
   <g id="line2d_8">
    <path d="M 601.320085 34.24125 
L 675.098646 34.24125 
" clip-path="url(#pf401731219)" style="fill: none; stroke: #595959"/>
   </g>
   <g id="line2d_9">
    <path d="M 193.501903 29.472 
L 193.501903 39.0105 
" clip-path="url(#pf401731219)" style="fill: none; stroke: #595959; stroke-linecap: round"/>
   </g>
   <g id="line2d_10">
    <path d="M 675.098646 29.472 
L 675.098646 39.0105 
" clip-path="url(#pf401731219)" style="fill: none; stroke: #595959; stroke-linecap: round"/>
   </g>
   <g id="patch_8">
    <path d="M 343.932398 48.549 
L 343.932398 67.626 
L 604.412305 67.626 
L 604.412305 48.549 
L 343.932398 48.549 
z
" clip-path="url(#pf401731219)" style="fill: #72b6a1; stroke: #595959; stroke-linejoin: miter"/>
   </g>
   <g id="line2d_11">
    <path d="M 343.932398 58.0875 
L 193.501903 58.0875 
" clip-path="url(#pf401731219)" style="fill: none; stroke: #595959"/>
   </g>
   <g id="line2d_12">
    <path d="M 604.412305 58.0875 
L 682.883722 58.0875 
" clip-path="url(#pf401731219)" style="fill: none; stroke: #595959"/>
   </g>
   <g id="line2d_13">
    <path d="M 193.501903 53.31825 
L 193.501903 62.85675 
" clip-path="url(#pf401731219)" style="fill: none; stroke: #595959; stroke-linecap: round"/>
   </g>
   <g id="line2d_14">
    <path d="M 682.883722 53.31825 
L 682.883722 62.85675 
" clip-path="url(#pf401731219)" style="fill: none; stroke: #595959; stroke-linecap: round"/>
   </g>
   <g id="patch_9">
    <path d="M 330.106325 72.39525 
L 330.106325 91.47225 
L 599.823505 91.47225 
L 599.823505 72.39525 
L 330.106325 72.39525 
z
" clip-path="url(#pf401731219)" style="fill: #72b6a1; stroke: #595959; stroke-linejoin: miter"/>
   </g>
   <g id="line2d_15">
    <path d="M 330.106325 81.93375 
L 193.501903 81.93375 
" clip-path="url(#pf401731219)" style="fill: none; stroke: #595959"/>
   </g>
   <g id="line2d_16">
    <path d="M 599.823505 81.93375 
L 678.595187 81.93375 
" clip-path="url(#pf401731219)" style="fill: none; stroke: #595959"/>
   </g>
   <g id="line2d_17">
    <path d="M 193.501903 77.1645 
L 193.501903 86.703 
" clip-path="url(#pf401731219)" style="fill: none; stroke: #595959; stroke-linecap: round"/>
   </g>
   <g id="line2d_18">
    <path d="M 678.595187 77.1645 
L 678.595187 86.703 
" clip-path="url(#pf401731219)" style="fill: none; stroke: #595959; stroke-linecap: round"/>
   </g>
   <g id="patch_10">
    <path d="M 239.566699 96.2415 
L 239.566699 115.3185 
L 571.002023 115.3185 
L 571.002023 96.2415 
L 239.566699 96.2415 
z
" clip-path="url(#pf401731219)" style="fill: #72b6a1; stroke: #595959; stroke-linejoin: miter"/>
   </g>
   <g id="line2d_19">
    <path d="M 239.566699 105.78 
L 193.501903 105.78 
" clip-path="url(#pf401731219)" style="fill: none; stroke: #595959"/>
   </g>
   <g id="line2d_20">
    <path d="M 571.002023 105.78 
L 676.667708 105.78 
" clip-path="url(#pf401731219)" style="fill: none; stroke: #595959"/>
   </g>
   <g id="line2d_21">
    <path d="M 193.501903 101.01075 
L 193.501903 110.54925 
" clip-path="url(#pf401731219)" style="fill: none; stroke: #595959; stroke-linecap: round"/>
   </g>
   <g id="line2d_22">
    <path d="M 676.667708 101.01075 
L 676.667708 110.54925 
" clip-path="url(#pf401731219)" style="fill: none; stroke: #595959; stroke-linecap: round"/>
   </g>
   <g id="patch_11">
    <path d="M 396.2458 120.08775 
L 396.2458 139.16475 
L 579.207575 139.16475 
L 579.207575 120.08775 
L 396.2458 120.08775 
z
" clip-path="url(#pf401731219)" style="fill: #e99675; stroke: #595959; stroke-linejoin: miter"/>
   </g>
   <g id="line2d_23">
    <path d="M 396.2458 129.62625 
L 193.501903 129.62625 
" clip-path="url(#pf401731219)" style="fill: none; stroke: #595959"/>
   </g>
   <g id="line2d_24">
    <path d="M 579.207575 129.62625 
L 670.727483 129.62625 
" clip-path="url(#pf401731219)" style="fill: none; stroke: #595959"/>
   </g>
   <g id="line2d_25">
    <path d="M 193.501903 124.857 
L 193.501903 134.3955 
" clip-path="url(#pf401731219)" style="fill: none; stroke: #595959; stroke-linecap: round"/>
   </g>
   <g id="line2d_26">
    <path d="M 670.727483 124.857 
L 670.727483 134.3955 
" clip-path="url(#pf401731219)" style="fill: none; stroke: #595959; stroke-linecap: round"/>
   </g>
   <g id="patch_12">
    <path d="M 416.53165 143.934 
L 416.53165 163.011 
L 600.217874 163.011 
L 600.217874 143.934 
L 416.53165 143.934 
z
" clip-path="url(#pf401731219)" style="fill: #e99675; stroke: #595959; stroke-linejoin: miter"/>
   </g>
   <g id="line2d_27">
    <path d="M 416.53165 153.4725 
L 193.530928 153.4725 
" clip-path="url(#pf401731219)" style="fill: none; stroke: #595959"/>
   </g>
   <g id="line2d_28">
    <path d="M 600.217874 153.4725 
L 675.47171 153.4725 
" clip-path="url(#pf401731219)" style="fill: none; stroke: #595959"/>
   </g>
   <g id="line2d_29">
    <path d="M 193.530928 148.70325 
L 193.530928 158.24175 
" clip-path="url(#pf401731219)" style="fill: none; stroke: #595959; stroke-linecap: round"/>
   </g>
   <g id="line2d_30">
    <path d="M 675.47171 148.70325 
L 675.47171 158.24175 
" clip-path="url(#pf401731219)" style="fill: none; stroke: #595959; stroke-linecap: round"/>
   </g>
   <g id="patch_13">
    <path d="M 373.800468 167.78025 
L 373.800468 186.85725 
L 601.901448 186.85725 
L 601.901448 167.78025 
L 373.800468 167.78025 
z
" clip-path="url(#pf401731219)" style="fill: #e99675; stroke: #595959; stroke-linejoin: miter"/>
   </g>
   <g id="line2d_31">
    <path d="M 373.800468 177.31875 
L 193.501903 177.31875 
" clip-path="url(#pf401731219)" style="fill: none; stroke: #595959"/>
   </g>
   <g id="line2d_32">
    <path d="M 601.901448 177.31875 
L 678.894095 177.31875 
" clip-path="url(#pf401731219)" style="fill: none; stroke: #595959"/>
   </g>
   <g id="line2d_33">
    <path d="M 193.501903 172.5495 
L 193.501903 182.088 
" clip-path="url(#pf401731219)" style="fill: none; stroke: #595959; stroke-linecap: round"/>
   </g>
   <g id="line2d_34">
    <path d="M 678.894095 172.5495 
L 678.894095 182.088 
" clip-path="url(#pf401731219)" style="fill: none; stroke: #595959; stroke-linecap: round"/>
   </g>
   <g id="patch_14">
    <path d="M 369.899305 191.6265 
L 369.899305 210.7035 
L 605.334622 210.7035 
L 605.334622 191.6265 
L 369.899305 191.6265 
z
" clip-path="url(#pf401731219)" style="fill: #e99675; stroke: #595959; stroke-linejoin: miter"/>
   </g>
   <g id="line2d_35">
    <path d="M 369.899305 201.165 
L 193.525115 201.165 
" clip-path="url(#pf401731219)" style="fill: none; stroke: #595959"/>
   </g>
   <g id="line2d_36">
    <path d="M 605.334622 201.165 
L 675.308594 201.165 
" clip-path="url(#pf401731219)" style="fill: none; stroke: #595959"/>
   </g>
   <g id="line2d_37">
    <path d="M 193.525115 196.39575 
L 193.525115 205.93425 
" clip-path="url(#pf401731219)" style="fill: none; stroke: #595959; stroke-linecap: round"/>
   </g>
   <g id="line2d_38">
    <path d="M 675.308594 196.39575 
L 675.308594 205.93425 
" clip-path="url(#pf401731219)" style="fill: none; stroke: #595959; stroke-linecap: round"/>
   </g>
   <g id="patch_15">
    <path d="M 511.830202 215.47275 
L 511.830202 234.54975 
L 635.122839 234.54975 
L 635.122839 215.47275 
L 511.830202 215.47275 
z
" clip-path="url(#pf401731219)" style="fill: #95a3c3; stroke: #595959; stroke-linejoin: miter"/>
   </g>
   <g id="line2d_39">
    <path d="M 511.830202 225.01125 
L 326.988171 225.01125 
" clip-path="url(#pf401731219)" style="fill: none; stroke: #595959"/>
   </g>
   <g id="line2d_40">
    <path d="M 635.122839 225.01125 
L 682.883722 225.01125 
" clip-path="url(#pf401731219)" style="fill: none; stroke: #595959"/>
   </g>
   <g id="line2d_41">
    <path d="M 326.988171 220.242 
L 326.988171 229.7805 
" clip-path="url(#pf401731219)" style="fill: none; stroke: #595959; stroke-linecap: round"/>
   </g>
   <g id="line2d_42">
    <path d="M 682.883722 220.242 
L 682.883722 229.7805 
" clip-path="url(#pf401731219)" style="fill: none; stroke: #595959; stroke-linecap: round"/>
   </g>
   <g id="patch_16">
    <path d="M 511.880419 239.319 
L 511.880419 258.396 
L 636.64292 258.396 
L 636.64292 239.319 
L 511.880419 239.319 
z
" clip-path="url(#pf401731219)" style="fill: #95a3c3; stroke: #595959; stroke-linejoin: miter"/>
   </g>
   <g id="line2d_43">
    <path d="M 511.880419 248.8575 
L 324.880061 248.8575 
" clip-path="url(#pf401731219)" style="fill: none; stroke: #595959"/>
   </g>
   <g id="line2d_44">
    <path d="M 636.64292 248.8575 
L 682.883722 248.8575 
" clip-path="url(#pf401731219)" style="fill: none; stroke: #595959"/>
   </g>
   <g id="line2d_45">
    <path d="M 324.880061 244.08825 
L 324.880061 253.62675 
" clip-path="url(#pf401731219)" style="fill: none; stroke: #595959; stroke-linecap: round"/>
   </g>
   <g id="line2d_46">
    <path d="M 682.883722 244.08825 
L 682.883722 253.62675 
" clip-path="url(#pf401731219)" style="fill: none; stroke: #595959; stroke-linecap: round"/>
   </g>
   <g id="patch_17">
    <path d="M 450.570174 263.16525 
L 450.570174 282.24225 
L 622.105795 282.24225 
L 622.105795 263.16525 
L 450.570174 263.16525 
z
" clip-path="url(#pf401731219)" style="fill: #95a3c3; stroke: #595959; stroke-linejoin: miter"/>
   </g>
   <g id="line2d_47">
    <path d="M 450.570174 272.70375 
L 193.501903 272.70375 
" clip-path="url(#pf401731219)" style="fill: none; stroke: #595959"/>
   </g>
   <g id="line2d_48">
    <path d="M 622.105795 272.70375 
L 678.653032 272.70375 
" clip-path="url(#pf401731219)" style="fill: none; stroke: #595959"/>
   </g>
   <g id="line2d_49">
    <path d="M 193.501903 267.9345 
L 193.501903 277.473 
" clip-path="url(#pf401731219)" style="fill: none; stroke: #595959; stroke-linecap: round"/>
   </g>
   <g id="line2d_50">
    <path d="M 678.653032 267.9345 
L 678.653032 277.473 
" clip-path="url(#pf401731219)" style="fill: none; stroke: #595959; stroke-linecap: round"/>
   </g>
   <g id="patch_18">
    <path d="M 488.453648 287.0115 
L 488.453648 306.0885 
L 629.148869 306.0885 
L 629.148869 287.0115 
L 488.453648 287.0115 
z
" clip-path="url(#pf401731219)" style="fill: #95a3c3; stroke: #595959; stroke-linejoin: miter"/>
   </g>
   <g id="line2d_51">
    <path d="M 488.453648 296.55 
L 277.44696 296.55 
" clip-path="url(#pf401731219)" style="fill: none; stroke: #595959"/>
   </g>
   <g id="line2d_52">
    <path d="M 629.148869 296.55 
L 682.883722 296.55 
" clip-path="url(#pf401731219)" style="fill: none; stroke: #595959"/>
   </g>
   <g id="line2d_53">
    <path d="M 277.44696 291.78075 
L 277.44696 301.31925 
" clip-path="url(#pf401731219)" style="fill: none; stroke: #595959; stroke-linecap: round"/>
   </g>
   <g id="line2d_54">
    <path d="M 682.883722 291.78075 
L 682.883722 301.31925 
" clip-path="url(#pf401731219)" style="fill: none; stroke: #595959; stroke-linecap: round"/>
   </g>
   <g id="patch_19">
    <path d="M 440.568452 310.85775 
L 440.568452 329.93475 
L 611.26687 329.93475 
L 611.26687 310.85775 
L 440.568452 310.85775 
z
" clip-path="url(#pf401731219)" style="fill: #db96c0; stroke: #595959; stroke-linejoin: miter"/>
   </g>
   <g id="line2d_55">
    <path d="M 440.568452 320.39625 
L 193.501903 320.39625 
" clip-path="url(#pf401731219)" style="fill: none; stroke: #595959"/>
   </g>
   <g id="line2d_56">
    <path d="M 611.26687 320.39625 
L 677.13842 320.39625 
" clip-path="url(#pf401731219)" style="fill: none; stroke: #595959"/>
   </g>
   <g id="line2d_57">
    <path d="M 193.501903 315.627 
L 193.501903 325.1655 
" clip-path="url(#pf401731219)" style="fill: none; stroke: #595959; stroke-linecap: round"/>
   </g>
   <g id="line2d_58">
    <path d="M 677.13842 315.627 
L 677.13842 325.1655 
" clip-path="url(#pf401731219)" style="fill: none; stroke: #595959; stroke-linecap: round"/>
   </g>
   <g id="patch_20">
    <path d="M 441.071529 334.704 
L 441.071529 353.781 
L 609.027791 353.781 
L 609.027791 334.704 
L 441.071529 334.704 
z
" clip-path="url(#pf401731219)" style="fill: #db96c0; stroke: #595959; stroke-linejoin: miter"/>
   </g>
   <g id="line2d_59">
    <path d="M 441.071529 344.2425 
L 193.501903 344.2425 
" clip-path="url(#pf401731219)" style="fill: none; stroke: #595959"/>
   </g>
   <g id="line2d_60">
    <path d="M 609.027791 344.2425 
L 678.062226 344.2425 
" clip-path="url(#pf401731219)" style="fill: none; stroke: #595959"/>
   </g>
   <g id="line2d_61">
    <path d="M 193.501903 339.47325 
L 193.501903 349.01175 
" clip-path="url(#pf401731219)" style="fill: none; stroke: #595959; stroke-linecap: round"/>
   </g>
   <g id="line2d_62">
    <path d="M 678.062226 339.47325 
L 678.062226 349.01175 
" clip-path="url(#pf401731219)" style="fill: none; stroke: #595959; stroke-linecap: round"/>
   </g>
   <g id="patch_21">
    <path d="M 407.92789 358.55025 
L 407.92789 377.62725 
L 589.113839 377.62725 
L 589.113839 358.55025 
L 407.92789 358.55025 
z
" clip-path="url(#pf401731219)" style="fill: #db96c0; stroke: #595959; stroke-linejoin: miter"/>
   </g>
   <g id="line2d_63">
    <path d="M 407.92789 368.08875 
L 193.501903 368.08875 
" clip-path="url(#pf401731219)" style="fill: none; stroke: #595959"/>
   </g>
   <g id="line2d_64">
    <path d="M 589.113839 368.08875 
L 678.468603 368.08875 
" clip-path="url(#pf401731219)" style="fill: none; stroke: #595959"/>
   </g>
   <g id="line2d_65">
    <path d="M 193.501903 363.3195 
L 193.501903 372.858 
" clip-path="url(#pf401731219)" style="fill: none; stroke: #595959; stroke-linecap: round"/>
   </g>
   <g id="line2d_66">
    <path d="M 678.468603 363.3195 
L 678.468603 372.858 
" clip-path="url(#pf401731219)" style="fill: none; stroke: #595959; stroke-linecap: round"/>
   </g>
   <g id="patch_22">
    <path d="M 425.066791 382.3965 
L 425.066791 401.4735 
L 592.475197 401.4735 
L 592.475197 382.3965 
L 425.066791 382.3965 
z
" clip-path="url(#pf401731219)" style="fill: #db96c0; stroke: #595959; stroke-linejoin: miter"/>
   </g>
   <g id="line2d_67">
    <path d="M 425.066791 391.935 
L 193.501903 391.935 
" clip-path="url(#pf401731219)" style="fill: none; stroke: #595959"/>
   </g>
   <g id="line2d_68">
    <path d="M 592.475197 391.935 
L 678.412767 391.935 
" clip-path="url(#pf401731219)" style="fill: none; stroke: #595959"/>
   </g>
   <g id="line2d_69">
    <path d="M 193.501903 387.16575 
L 193.501903 396.70425 
" clip-path="url(#pf401731219)" style="fill: none; stroke: #595959; stroke-linecap: round"/>
   </g>
   <g id="line2d_70">
    <path d="M 678.412767 387.16575 
L 678.412767 396.70425 
" clip-path="url(#pf401731219)" style="fill: none; stroke: #595959; stroke-linecap: round"/>
   </g>
   <g id="line2d_71">
    <path d="M 490.477195 24.70275 
L 490.477195 43.77975 
" clip-path="url(#pf401731219)" style="fill: none; stroke: #595959"/>
   </g>
   <g id="line2d_72">
    <path d="M 511.644669 48.549 
L 511.644669 67.626 
" clip-path="url(#pf401731219)" style="fill: none; stroke: #595959"/>
   </g>
   <g id="line2d_73">
    <path d="M 478.974631 72.39525 
L 478.974631 91.47225 
" clip-path="url(#pf401731219)" style="fill: none; stroke: #595959"/>
   </g>
   <g id="line2d_74">
    <path d="M 365.915359 96.2415 
L 365.915359 115.3185 
" clip-path="url(#pf401731219)" style="fill: none; stroke: #595959"/>
   </g>
   <g id="line2d_75">
    <path d="M 507.672947 120.08775 
L 507.672947 139.16475 
" clip-path="url(#pf401731219)" style="fill: none; stroke: #595959"/>
   </g>
   <g id="line2d_76">
    <path d="M 531.094625 143.934 
L 531.094625 163.011 
" clip-path="url(#pf401731219)" style="fill: none; stroke: #595959"/>
   </g>
   <g id="line2d_77">
    <path d="M 504.703726 167.78025 
L 504.703726 186.85725 
" clip-path="url(#pf401731219)" style="fill: none; stroke: #595959"/>
   </g>
   <g id="line2d_78">
    <path d="M 512.548242 191.6265 
L 512.548242 210.7035 
" clip-path="url(#pf401731219)" style="fill: none; stroke: #595959"/>
   </g>
   <g id="line2d_79">
    <path d="M 600.224221 215.47275 
L 600.224221 234.54975 
" clip-path="url(#pf401731219)" style="fill: none; stroke: #595959"/>
   </g>
   <g id="line2d_80">
    <path d="M 602.294949 239.319 
L 602.294949 258.396 
" clip-path="url(#pf401731219)" style="fill: none; stroke: #595959"/>
   </g>
   <g id="line2d_81">
    <path d="M 564.220559 263.16525 
L 564.220559 282.24225 
" clip-path="url(#pf401731219)" style="fill: none; stroke: #595959"/>
   </g>
   <g id="line2d_82">
    <path d="M 585.809623 287.0115 
L 585.809623 306.0885 
" clip-path="url(#pf401731219)" style="fill: none; stroke: #595959"/>
   </g>
   <g id="line2d_83">
    <path d="M 549.415953 310.85775 
L 549.415953 329.93475 
" clip-path="url(#pf401731219)" style="fill: none; stroke: #595959"/>
   </g>
   <g id="line2d_84">
    <path d="M 550.071147 334.704 
L 550.071147 353.781 
" clip-path="url(#pf401731219)" style="fill: none; stroke: #595959"/>
   </g>
   <g id="line2d_85">
    <path d="M 512.143011 358.55025 
L 512.143011 377.62725 
" clip-path="url(#pf401731219)" style="fill: none; stroke: #595959"/>
   </g>
   <g id="line2d_86">
    <path d="M 527.67098 382.3965 
L 527.67098 401.4735 
" clip-path="url(#pf401731219)" style="fill: none; stroke: #595959"/>
   </g>
   <g id="patch_23">
    <path d="M 169.032812 403.858125 
L 169.032812 22.318125 
" style="fill: none; stroke: #cccccc; stroke-width: 1.25; stroke-linejoin: miter; stroke-linecap: square"/>
   </g>
   <g id="patch_24">
    <path d="M 707.352812 403.858125 
L 707.352812 22.318125 
" style="fill: none; stroke: #cccccc; stroke-width: 1.25; stroke-linejoin: miter; stroke-linecap: square"/>
   </g>
   <g id="patch_25">
    <path d="M 169.032812 403.858125 
L 707.352812 403.858125 
" style="fill: none; stroke: #cccccc; stroke-width: 1.25; stroke-linejoin: miter; stroke-linecap: square"/>
   </g>
   <g id="patch_26">
    <path d="M 169.032812 22.318125 
L 707.352812 22.318125 
" style="fill: none; stroke: #cccccc; stroke-width: 1.25; stroke-linejoin: miter; stroke-linecap: square"/>
   </g>
   <g id="text_24">
    <!-- IMed361  - IoU Distribution by Model and Prompt Config -->
    <g style="fill: #262626" transform="translate(270.693437 16.318125) scale(0.12 -0.12)">
     <defs>
      <path id="DejaVuSans-33" d="M 2597 2516 
Q 3050 2419 3304 2112 
Q 3559 1806 3559 1356 
Q 3559 666 3084 287 
Q 2609 -91 1734 -91 
Q 1441 -91 1130 -33 
Q 819 25 488 141 
L 488 750 
Q 750 597 1062 519 
Q 1375 441 1716 441 
Q 2309 441 2620 675 
Q 2931 909 2931 1356 
Q 2931 1769 2642 2001 
Q 2353 2234 1838 2234 
L 1294 2234 
L 1294 2753 
L 1863 2753 
Q 2328 2753 2575 2939 
Q 2822 3125 2822 3475 
Q 2822 3834 2567 4026 
Q 2313 4219 1838 4219 
Q 1578 4219 1281 4162 
Q 984 4106 628 3988 
L 628 4550 
Q 988 4650 1302 4700 
Q 1616 4750 1894 4750 
Q 2613 4750 3031 4423 
Q 3450 4097 3450 3541 
Q 3450 3153 3228 2886 
Q 3006 2619 2597 2516 
z
" transform="scale(0.015625)"/>
      <path id="DejaVuSans-72" d="M 2631 2963 
Q 2534 3019 2420 3045 
Q 2306 3072 2169 3072 
Q 1681 3072 1420 2755 
Q 1159 2438 1159 1844 
L 1159 0 
L 581 0 
L 581 3500 
L 1159 3500 
L 1159 2956 
Q 1341 3275 1631 3429 
Q 1922 3584 2338 3584 
Q 2397 3584 2469 3576 
Q 2541 3569 2628 3553 
L 2631 2963 
z
" transform="scale(0.015625)"/>
      <path id="DejaVuSans-75" d="M 544 1381 
L 544 3500 
L 1119 3500 
L 1119 1403 
Q 1119 906 1312 657 
Q 1506 409 1894 409 
Q 2359 409 2629 706 
Q 2900 1003 2900 1516 
L 2900 3500 
L 3475 3500 
L 3475 0 
L 2900 0 
L 2900 538 
Q 2691 219 2414 64 
Q 2138 -91 1772 -91 
Q 1169 -91 856 284 
Q 544 659 544 1381 
z
M 1991 3584 
L 1991 3584 
z
" transform="scale(0.015625)"/>
      <path id="DejaVuSans-50" d="M 1259 4147 
L 1259 2394 
L 2053 2394 
Q 2494 2394 2734 2622 
Q 2975 2850 2975 3272 
Q 2975 3691 2734 3919 
Q 2494 4147 2053 4147 
L 1259 4147 
z
M 628 4666 
L 2053 4666 
Q 2838 4666 3239 4311 
Q 3641 3956 3641 3272 
Q 3641 2581 3239 2228 
Q 2838 1875 2053 1875 
L 1259 1875 
L 1259 0 
L 628 0 
L 628 4666 
z
" transform="scale(0.015625)"/>
      <path id="DejaVuSans-6d" d="M 3328 2828 
Q 3544 3216 3844 3400 
Q 4144 3584 4550 3584 
Q 5097 3584 5394 3201 
Q 5691 2819 5691 2113 
L 5691 0 
L 5113 0 
L 5113 2094 
Q 5113 2597 4934 2840 
Q 4756 3084 4391 3084 
Q 3944 3084 3684 2787 
Q 3425 2491 3425 1978 
L 3425 0 
L 2847 0 
L 2847 2094 
Q 2847 2600 2669 2842 
Q 2491 3084 2119 3084 
Q 1678 3084 1418 2786 
Q 1159 2488 1159 1978 
L 1159 0 
L 581 0 
L 581 3500 
L 1159 3500 
L 1159 2956 
Q 1356 3278 1631 3431 
Q 1906 3584 2284 3584 
Q 2666 3584 2933 3390 
Q 3200 3197 3328 2828 
z
" transform="scale(0.015625)"/>
      <path id="DejaVuSans-66" d="M 2375 4863 
L 2375 4384 
L 1825 4384 
Q 1516 4384 1395 4259 
Q 1275 4134 1275 3809 
L 1275 3500 
L 2222 3500 
L 2222 3053 
L 1275 3053 
L 1275 0 
L 697 0 
L 697 3053 
L 147 3053 
L 147 3500 
L 697 3500 
L 697 3744 
Q 697 4328 969 4595 
Q 1241 4863 1831 4863 
L 2375 4863 
z
" transform="scale(0.015625)"/>
      <path id="DejaVuSans-67" d="M 2906 1791 
Q 2906 2416 2648 2759 
Q 2391 3103 1925 3103 
Q 1463 3103 1205 2759 
Q 947 2416 947 1791 
Q 947 1169 1205 825 
Q 1463 481 1925 481 
Q 2391 481 2648 825 
Q 2906 1169 2906 1791 
z
M 3481 434 
Q 3481 -459 3084 -895 
Q 2688 -1331 1869 -1331 
Q 1566 -1331 1297 -1286 
Q 1028 -1241 775 -1147 
L 775 -588 
Q 1028 -725 1275 -790 
Q 1522 -856 1778 -856 
Q 2344 -856 2625 -561 
Q 2906 -266 2906 331 
L 2906 616 
Q 2728 306 2450 153 
Q 2172 0 1784 0 
Q 1141 0 747 490 
Q 353 981 353 1791 
Q 353 2603 747 3093 
Q 1141 3584 1784 3584 
Q 2172 3584 2450 3431 
Q 2728 3278 2906 2969 
L 2906 3500 
L 3481 3500 
L 3481 434 
z
" transform="scale(0.015625)"/>
     </defs>
     <use xlink:href="#DejaVuSans-49"/>
     <use xlink:href="#DejaVuSans-4d" transform="translate(29.492188 0)"/>
     <use xlink:href="#DejaVuSans-65" transform="translate(115.771484 0)"/>
     <use xlink:href="#DejaVuSans-64" transform="translate(177.294922 0)"/>
     <use xlink:href="#DejaVuSans-33" transform="translate(240.771484 0)"/>
     <use xlink:href="#DejaVuSans-36" transform="translate(304.394531 0)"/>
     <use xlink:href="#DejaVuSans-31" transform="translate(368.017578 0)"/>
     <use xlink:href="#DejaVuSans-20" transform="translate(431.640625 0)"/>
     <use xlink:href="#DejaVuSans-20" transform="translate(463.427734 0)"/>
     <use xlink:href="#DejaVuSans-2d" transform="translate(495.214844 0)"/>
     <use xlink:href="#DejaVuSans-20" transform="translate(531.298828 0)"/>
     <use xlink:href="#DejaVuSans-49" transform="translate(563.085938 0)"/>
     <use xlink:href="#DejaVuSans-6f" transform="translate(592.578125 0)"/>
     <use xlink:href="#DejaVuSans-55" transform="translate(653.759766 0)"/>
     <use xlink:href="#DejaVuSans-20" transform="translate(726.953125 0)"/>
     <use xlink:href="#DejaVuSans-44" transform="translate(758.740234 0)"/>
     <use xlink:href="#DejaVuSans-69" transform="translate(835.742188 0)"/>
     <use xlink:href="#DejaVuSans-73" transform="translate(863.525391 0)"/>
     <use xlink:href="#DejaVuSans-74" transform="translate(915.625 0)"/>
     <use xlink:href="#DejaVuSans-72" transform="translate(954.833984 0)"/>
     <use xlink:href="#DejaVuSans-69" transform="translate(995.947266 0)"/>
     <use xlink:href="#DejaVuSans-62" transform="translate(1023.730469 0)"/>
     <use xlink:href="#DejaVuSans-75" transform="translate(1087.207031 0)"/>
     <use xlink:href="#DejaVuSans-74" transform="translate(1150.585938 0)"/>
     <use xlink:href="#DejaVuSans-69" transform="translate(1189.794922 0)"/>
     <use xlink:href="#DejaVuSans-6f" transform="translate(1217.578125 0)"/>
     <use xlink:href="#DejaVuSans-6e" transform="translate(1278.759766 0)"/>
     <use xlink:href="#DejaVuSans-20" transform="translate(1342.138672 0)"/>
     <use xlink:href="#DejaVuSans-62" transform="translate(1373.925781 0)"/>
     <use xlink:href="#DejaVuSans-79" transform="translate(1437.402344 0)"/>
     <use xlink:href="#DejaVuSans-20" transform="translate(1496.582031 0)"/>
     <use xlink:href="#DejaVuSans-4d" transform="translate(1528.369141 0)"/>
     <use xlink:href="#DejaVuSans-6f" transform="translate(1614.648438 0)"/>
     <use xlink:href="#DejaVuSans-64" transform="translate(1675.830078 0)"/>
     <use xlink:href="#DejaVuSans-65" transform="translate(1739.306641 0)"/>
     <use xlink:href="#DejaVuSans-6c" transform="translate(1800.830078 0)"/>
     <use xlink:href="#DejaVuSans-20" transform="translate(1828.613281 0)"/>
     <use xlink:href="#DejaVuSans-61" transform="translate(1860.400391 0)"/>
     <use xlink:href="#DejaVuSans-6e" transform="translate(1921.679688 0)"/>
     <use xlink:href="#DejaVuSans-64" transform="translate(1985.058594 0)"/>
     <use xlink:href="#DejaVuSans-20" transform="translate(2048.535156 0)"/>
     <use xlink:href="#DejaVuSans-50" transform="translate(2080.322266 0)"/>
     <use xlink:href="#DejaVuSans-72" transform="translate(2138.875 0)"/>
     <use xlink:href="#DejaVuSans-6f" transform="translate(2177.738281 0)"/>
     <use xlink:href="#DejaVuSans-6d" transform="translate(2238.919922 0)"/>
     <use xlink:href="#DejaVuSans-70" transform="translate(2336.332031 0)"/>
     <use xlink:href="#DejaVuSans-74" transform="translate(2399.808594 0)"/>
     <use xlink:href="#DejaVuSans-20" transform="translate(2439.017578 0)"/>
     <use xlink:href="#DejaVuSans-43" transform="translate(2470.804688 0)"/>
     <use xlink:href="#DejaVuSans-6f" transform="translate(2540.628906 0)"/>
     <use xlink:href="#DejaVuSans-6e" transform="translate(2601.810547 0)"/>
     <use xlink:href="#DejaVuSans-66" transform="translate(2665.189453 0)"/>
     <use xlink:href="#DejaVuSans-69" transform="translate(2700.394531 0)"/>
     <use xlink:href="#DejaVuSans-67" transform="translate(2728.177734 0)"/>
    </g>
   </g>
   <g id="legend_1">
    <g id="patch_27">
     <path d="M 741.968813 112.815625 
L 836.670219 112.815625 
Q 838.870219 112.815625 838.870219 110.615625 
L 838.870219 30.018125 
Q 838.870219 27.818125 836.670219 27.818125 
L 741.968813 27.818125 
Q 739.768812 27.818125 739.768812 30.018125 
L 739.768812 110.615625 
Q 739.768812 112.815625 741.968813 112.815625 
z
" style="fill: #ffffff; opacity: 0.8; stroke: #cccccc; stroke-linejoin: miter"/>
    </g>
    <g id="text_25">
     <!-- Prompt Type -->
     <g style="fill: #262626" transform="translate(752.112016 41.33625) scale(0.12 -0.12)">
      <use xlink:href="#DejaVuSans-50"/>
      <use xlink:href="#DejaVuSans-72" transform="translate(58.552734 0)"/>
      <use xlink:href="#DejaVuSans-6f" transform="translate(97.416016 0)"/>
      <use xlink:href="#DejaVuSans-6d" transform="translate(158.597656 0)"/>
      <use xlink:href="#DejaVuSans-70" transform="translate(256.009766 0)"/>
      <use xlink:href="#DejaVuSans-74" transform="translate(319.486328 0)"/>
      <use xlink:href="#DejaVuSans-20" transform="translate(358.695312 0)"/>
      <use xlink:href="#DejaVuSans-54" transform="translate(390.482422 0)"/>
      <use xlink:href="#DejaVuSans-79" transform="translate(435.941406 0)"/>
      <use xlink:href="#DejaVuSans-70" transform="translate(495.121094 0)"/>
      <use xlink:href="#DejaVuSans-65" transform="translate(558.597656 0)"/>
     </g>
    </g>
    <g id="patch_28">
     <path d="M 744.168812 57.690156 
L 766.168812 57.690156 
L 766.168812 49.990156 
L 744.168812 49.990156 
z
" style="fill: #72b6a1; stroke: #595959; stroke-linejoin: miter"/>
    </g>
    <g id="text_26">
     <!-- point 1p0n -->
     <g style="fill: #262626" transform="translate(774.968812 57.690156) scale(0.11 -0.11)">
      <use xlink:href="#DejaVuSans-70"/>
      <use xlink:href="#DejaVuSans-6f" transform="translate(63.476562 0)"/>
      <use xlink:href="#DejaVuSans-69" transform="translate(124.658203 0)"/>
      <use xlink:href="#DejaVuSans-6e" transform="translate(152.441406 0)"/>
      <use xlink:href="#DejaVuSans-74" transform="translate(215.820312 0)"/>
      <use xlink:href="#DejaVuSans-20" transform="translate(255.029297 0)"/>
      <use xlink:href="#DejaVuSans-31" transform="translate(286.816406 0)"/>
      <use xlink:href="#DejaVuSans-70" transform="translate(350.439453 0)"/>
      <use xlink:href="#DejaVuSans-30" transform="translate(413.916016 0)"/>
      <use xlink:href="#DejaVuSans-6e" transform="translate(477.539062 0)"/>
     </g>
    </g>
    <g id="patch_29">
     <path d="M 744.168812 73.836094 
L 766.168812 73.836094 
L 766.168812 66.136094 
L 744.168812 66.136094 
z
" style="fill: #e99675; stroke: #595959; stroke-linejoin: miter"/>
    </g>
    <g id="text_27">
     <!-- point 4p2n -->
     <g style="fill: #262626" transform="translate(774.968812 73.836094) scale(0.11 -0.11)">
      <use xlink:href="#DejaVuSans-70"/>
      <use xlink:href="#DejaVuSans-6f" transform="translate(63.476562 0)"/>
      <use xlink:href="#DejaVuSans-69" transform="translate(124.658203 0)"/>
      <use xlink:href="#DejaVuSans-6e" transform="translate(152.441406 0)"/>
      <use xlink:href="#DejaVuSans-74" transform="translate(215.820312 0)"/>
      <use xlink:href="#DejaVuSans-20" transform="translate(255.029297 0)"/>
      <use xlink:href="#DejaVuSans-34" transform="translate(286.816406 0)"/>
      <use xlink:href="#DejaVuSans-70" transform="translate(350.439453 0)"/>
      <use xlink:href="#DejaVuSans-32" transform="translate(413.916016 0)"/>
      <use xlink:href="#DejaVuSans-6e" transform="translate(477.539062 0)"/>
     </g>
    </g>
    <g id="patch_30">
     <path d="M 744.168812 89.982031 
L 766.168812 89.982031 
L 766.168812 82.282031 
L 744.168812 82.282031 
z
" style="fill: #95a3c3; stroke: #595959; stroke-linejoin: miter"/>
    </g>
    <g id="text_28">
     <!-- box 0px -->
     <g style="fill: #262626" transform="translate(774.968812 89.982031) scale(0.11 -0.11)">
      <use xlink:href="#DejaVuSans-62"/>
      <use xlink:href="#DejaVuSans-6f" transform="translate(63.476562 0)"/>
      <use xlink:href="#DejaVuSans-78" transform="translate(121.533203 0)"/>
      <use xlink:href="#DejaVuSans-20" transform="translate(180.712891 0)"/>
      <use xlink:href="#DejaVuSans-30" transform="translate(212.5 0)"/>
      <use xlink:href="#DejaVuSans-70" transform="translate(276.123047 0)"/>
      <use xlink:href="#DejaVuSans-78" transform="translate(339.599609 0)"/>
     </g>
    </g>
    <g id="patch_31">
     <path d="M 744.168812 106.127969 
L 766.168812 106.127969 
L 766.168812 98.427969 
L 744.168812 98.427969 
z
" style="fill: #db96c0; stroke: #595959; stroke-linejoin: miter"/>
    </g>
    <g id="text_29">
     <!-- box 10% -->
     <g style="fill: #262626" transform="translate(774.968812 106.127969) scale(0.11 -0.11)">
      <use xlink:href="#DejaVuSans-62"/>
      <use xlink:href="#DejaVuSans-6f" transform="translate(63.476562 0)"/>
      <use xlink:href="#DejaVuSans-78" transform="translate(121.533203 0)"/>
      <use xlink:href="#DejaVuSans-20" transform="translate(180.712891 0)"/>
      <use xlink:href="#DejaVuSans-31" transform="translate(212.5 0)"/>
      <use xlink:href="#DejaVuSans-30" transform="translate(276.123047 0)"/>
      <use xlink:href="#DejaVuSans-25" transform="translate(339.746094 0)"/>
     </g>
    </g>
   </g>
  </g>
 </g>
 <defs>
  <clipPath id="pf401731219">
   <rect x="169.032812" y="22.318125" width="538.32" height="381.54"/>
  </clipPath>
 </defs>
</svg>
