<?xml version="1.0" encoding="utf-8" standalone="no"?>
<!DOCTYPE svg PUBLIC "-//W3C//DTD SVG 1.1//EN"
  "http://www.w3.org/Graphics/SVG/1.1/DTD/svg11.dtd">
<svg xmlns:xlink="http://www.w3.org/1999/xlink" width="840.37662pt" height="662.690057pt" viewBox="0 0 840.37662 662.690057" xmlns="http://www.w3.org/2000/svg" version="1.1">
 <metadata>
  <rdf:RDF xmlns:dc="http://purl.org/dc/elements/1.1/" xmlns:cc="http://creativecommons.org/ns#" xmlns:rdf="http://www.w3.org/1999/02/22-rdf-syntax-ns#">
   <cc:Work>
    <dc:type rdf:resource="http://purl.org/dc/dcmitype/StillImage"/>
    <dc:date>2025-09-08T23:19:23.453034</dc:date>
    <dc:format>image/svg+xml</dc:format>
    <dc:creator>
     <cc:Agent>
      <dc:title>Matplotlib v3.10.3, https://matplotlib.org/</dc:title>
     </cc:Agent>
    </dc:creator>
   </cc:Work>
  </rdf:RDF>
 </metadata>
 <defs>
  <style type="text/css">*{stroke-linejoin: round; stroke-linecap: butt}</style>
 </defs>
 <g id="figure_1">
  <g id="patch_1">
   <path d="M 0 662.690057 
L 840.37662 662.690057 
L 840.37662 0 
L 0 0 
z
" style="fill: #ffffff"/>
  </g>
  <g id="axes_1">
   <g id="patch_2">
    <path d="M 666.293375 348.966491 
C 666.293375 310.690729 658.753884 272.78715 644.106384 237.424957 
C 629.458884 202.062763 607.988231 169.929661 580.92318 142.86461 
C 553.858129 115.799559 521.725027 94.328906 486.362833 79.681406 
C 451.00064 65.033906 413.097061 57.494415 374.821299 57.494415 
C 336.545537 57.494415 298.641958 65.033906 263.279765 79.681406 
C 227.917571 94.328906 195.784469 115.799559 168.719418 142.86461 
C 141.654367 169.929661 120.183714 202.062763 105.536214 237.424957 
C 90.888714 272.78715 83.349223 310.690729 83.349223 348.966491 
C 83.349223 387.242253 90.888714 425.145832 105.536214 460.508025 
C 120.183714 495.870219 141.654367 528.003321 168.719418 555.068372 
C 195.784469 582.133423 227.917571 603.604076 263.279765 618.251576 
C 298.641958 632.899076 336.545537 640.438567 374.821299 640.438567 
C 413.097061 640.438567 451.00064 632.899076 486.362833 618.251576 
C 521.725027 603.604076 553.858129 582.133423 580.92318 555.068372 
C 607.988231 528.003321 629.458884 495.870219 644.106384 460.508025 
C 658.753884 425.145832 666.293375 387.242253 666.293375 348.966491 
M 374.821299 348.966491 
C 374.821299 348.966491 374.821299 348.966491 374.821299 348.966491 
C 374.821299 348.966491 374.821299 348.966491 374.821299 348.966491 
C 374.821299 348.966491 374.821299 348.966491 374.821299 348.966491 
C 374.821299 348.966491 374.821299 348.966491 374.821299 348.966491 
C 374.821299 348.966491 374.821299 348.966491 374.821299 348.966491 
C 374.821299 348.966491 374.821299 348.966491 374.821299 348.966491 
C 374.821299 348.966491 374.821299 348.966491 374.821299 348.966491 
C 374.821299 348.966491 374.821299 348.966491 374.821299 348.966491 
C 374.821299 348.966491 374.821299 348.966491 374.821299 348.966491 
C 374.821299 348.966491 374.821299 348.966491 374.821299 348.966491 
C 374.821299 348.966491 374.821299 348.966491 374.821299 348.966491 
C 374.821299 348.966491 374.821299 348.966491 374.821299 348.966491 
C 374.821299 348.966491 374.821299 348.966491 374.821299 348.966491 
C 374.821299 348.966491 374.821299 348.966491 374.821299 348.966491 
C 374.821299 348.966491 374.821299 348.966491 374.821299 348.966491 
C 374.821299 348.966491 374.821299 348.966491 374.821299 348.966491 
z
" style="fill: #ffffff"/>
   </g>
   <g id="patch_3">
    <path d="M 590.394897 348.966491 
L 539.559092 142.391832 
L 318.597717 102.634883 
L 172.728111 251.643541 
L 187.692127 439.083151 
L 324.612583 568.945249 
L 540.381629 556.572578 
z
" clip-path="url(#p58b5479438)" style="fill: #1f77b4; opacity: 0.1; stroke: #1f77b4; stroke-linejoin: miter"/>
   </g>
   <g id="patch_4">
    <path d="M 601.358558 348.966491 
L 509.047285 180.652428 
L 321.075459 113.490581 
L 209.698444 269.447515 
L 186.205609 439.79902 
L 324.333547 570.167784 
L 477.104987 477.226178 
z
" clip-path="url(#p58b5479438)" style="fill: #ff7f0e; opacity: 0.1; stroke: #ff7f0e; stroke-linejoin: miter"/>
   </g>
   <g id="patch_5">
    <path d="M 600.762895 348.966491 
L 518.725243 168.516653 
L 321.15065 113.820014 
L 227.59085 278.064043 
L 197.326545 434.443459 
L 322.841383 576.705385 
L 526.344166 538.970156 
z
" clip-path="url(#p58b5479438)" style="fill: #2ca02c; opacity: 0.1; stroke: #2ca02c; stroke-linejoin: miter"/>
   </g>
   <g id="patch_6">
    <path d="M 583.830971 348.966491 
L 536.360354 146.402923 
L 325.105157 131.145842 
L 225.761013 277.18284 
L 204.34778 431.062211 
L 334.395903 526.081724 
L 535.42889 550.36204 
z
" clip-path="url(#p58b5479438)" style="fill: #d62728; opacity: 0.1; stroke: #d62728; stroke-linejoin: miter"/>
   </g>
   <g id="matplotlib.axis_1">
    <g id="xtick_1">
     <g id="line2d_1">
      <path d="M 374.821299 348.966491 
L 666.293375 348.966491 
" clip-path="url(#p58b5479438)" style="fill: none; stroke: #b0b0b0; stroke-width: 0.8; stroke-linecap: square"/>
     </g>
     <g id="text_1">
      <!-- CT -->
      <g transform="translate(668.511812 353.933366) scale(0.18 -0.18)">
       <defs>
        <path id="DejaVuSans-43" d="M 4122 4306 
L 4122 3641 
Q 3803 3938 3442 4084 
Q 3081 4231 2675 4231 
Q 1875 4231 1450 3742 
Q 1025 3253 1025 2328 
Q 1025 1406 1450 917 
Q 1875 428 2675 428 
Q 3081 428 3442 575 
Q 3803 722 4122 1019 
L 4122 359 
Q 3791 134 3420 21 
Q 3050 -91 2638 -91 
Q 1578 -91 968 557 
Q 359 1206 359 2328 
Q 359 3453 968 4101 
Q 1578 4750 2638 4750 
Q 3056 4750 3426 4639 
Q 3797 4528 4122 4306 
z
" transform="scale(0.015625)"/>
        <path id="DejaVuSans-54" d="M -19 4666 
L 3928 4666 
L 3928 4134 
L 2272 4134 
L 2272 0 
L 1638 0 
L 1638 4134 
L -19 4134 
L -19 4666 
z
" transform="scale(0.015625)"/>
       </defs>
       <use xlink:href="#DejaVuSans-43"/>
       <use xlink:href="#DejaVuSans-54" transform="translate(69.824219 0)"/>
      </g>
     </g>
    </g>
    <g id="xtick_2">
     <g id="line2d_2">
      <path d="M 374.821299 348.966491 
L 556.551166 121.084446 
" clip-path="url(#p58b5479438)" style="fill: none; stroke: #b0b0b0; stroke-width: 0.8; stroke-linecap: square"/>
     </g>
     <g id="text_2">
      <!-- Dermoscopy -->
      <g transform="translate(508.812054 115.10568) scale(0.18 -0.18)">
       <defs>
        <path id="DejaVuSans-44" d="M 1259 4147 
L 1259 519 
L 2022 519 
Q 2988 519 3436 956 
Q 3884 1394 3884 2338 
Q 3884 3275 3436 3711 
Q 2988 4147 2022 4147 
L 1259 4147 
z
M 628 4666 
L 1925 4666 
Q 3281 4666 3915 4102 
Q 4550 3538 4550 2338 
Q 4550 1131 3912 565 
Q 3275 0 1925 0 
L 628 0 
L 628 4666 
z
" transform="scale(0.015625)"/>
        <path id="DejaVuSans-65" d="M 3597 1894 
L 3597 1613 
L 953 1613 
Q 991 1019 1311 708 
Q 1631 397 2203 397 
Q 2534 397 2845 478 
Q 3156 559 3463 722 
L 3463 178 
Q 3153 47 2828 -22 
Q 2503 -91 2169 -91 
Q 1331 -91 842 396 
Q 353 884 353 1716 
Q 353 2575 817 3079 
Q 1281 3584 2069 3584 
Q 2775 3584 3186 3129 
Q 3597 2675 3597 1894 
z
M 3022 2063 
Q 3016 2534 2758 2815 
Q 2500 3097 2075 3097 
Q 1594 3097 1305 2825 
Q 1016 2553 972 2059 
L 3022 2063 
z
" transform="scale(0.015625)"/>
        <path id="DejaVuSans-72" d="M 2631 2963 
Q 2534 3019 2420 3045 
Q 2306 3072 2169 3072 
Q 1681 3072 1420 2755 
Q 1159 2438 1159 1844 
L 1159 0 
L 581 0 
L 581 3500 
L 1159 3500 
L 1159 2956 
Q 1341 3275 1631 3429 
Q 1922 3584 2338 3584 
Q 2397 3584 2469 3576 
Q 2541 3569 2628 3553 
L 2631 2963 
z
" transform="scale(0.015625)"/>
        <path id="DejaVuSans-6d" d="M 3328 2828 
Q 3544 3216 3844 3400 
Q 4144 3584 4550 3584 
Q 5097 3584 5394 3201 
Q 5691 2819 5691 2113 
L 5691 0 
L 5113 0 
L 5113 2094 
Q 5113 2597 4934 2840 
Q 4756 3084 4391 3084 
Q 3944 3084 3684 2787 
Q 3425 2491 3425 1978 
L 3425 0 
L 2847 0 
L 2847 2094 
Q 2847 2600 2669 2842 
Q 2491 3084 2119 3084 
Q 1678 3084 1418 2786 
Q 1159 2488 1159 1978 
L 1159 0 
L 581 0 
L 581 3500 
L 1159 3500 
L 1159 2956 
Q 1356 3278 1631 3431 
Q 1906 3584 2284 3584 
Q 2666 3584 2933 3390 
Q 3200 3197 3328 2828 
z
" transform="scale(0.015625)"/>
        <path id="DejaVuSans-6f" d="M 1959 3097 
Q 1497 3097 1228 2736 
Q 959 2375 959 1747 
Q 959 1119 1226 758 
Q 1494 397 1959 397 
Q 2419 397 2687 759 
Q 2956 1122 2956 1747 
Q 2956 2369 2687 2733 
Q 2419 3097 1959 3097 
z
M 1959 3584 
Q 2709 3584 3137 3096 
Q 3566 2609 3566 1747 
Q 3566 888 3137 398 
Q 2709 -91 1959 -91 
Q 1206 -91 779 398 
Q 353 888 353 1747 
Q 353 2609 779 3096 
Q 1206 3584 1959 3584 
z
" transform="scale(0.015625)"/>
        <path id="DejaVuSans-73" d="M 2834 3397 
L 2834 2853 
Q 2591 2978 2328 3040 
Q 2066 3103 1784 3103 
Q 1356 3103 1142 2972 
Q 928 2841 928 2578 
Q 928 2378 1081 2264 
Q 1234 2150 1697 2047 
L 1894 2003 
Q 2506 1872 2764 1633 
Q 3022 1394 3022 966 
Q 3022 478 2636 193 
Q 2250 -91 1575 -91 
Q 1294 -91 989 -36 
Q 684 19 347 128 
L 347 722 
Q 666 556 975 473 
Q 1284 391 1588 391 
Q 1994 391 2212 530 
Q 2431 669 2431 922 
Q 2431 1156 2273 1281 
Q 2116 1406 1581 1522 
L 1381 1569 
Q 847 1681 609 1914 
Q 372 2147 372 2553 
Q 372 3047 722 3315 
Q 1072 3584 1716 3584 
Q 2034 3584 2315 3537 
Q 2597 3491 2834 3397 
z
" transform="scale(0.015625)"/>
        <path id="DejaVuSans-63" d="M 3122 3366 
L 3122 2828 
Q 2878 2963 2633 3030 
Q 2388 3097 2138 3097 
Q 1578 3097 1268 2742 
Q 959 2388 959 1747 
Q 959 1106 1268 751 
Q 1578 397 2138 397 
Q 2388 397 2633 464 
Q 2878 531 3122 666 
L 3122 134 
Q 2881 22 2623 -34 
Q 2366 -91 2075 -91 
Q 1284 -91 818 406 
Q 353 903 353 1747 
Q 353 2603 823 3093 
Q 1294 3584 2113 3584 
Q 2378 3584 2631 3529 
Q 2884 3475 3122 3366 
z
" transform="scale(0.015625)"/>
        <path id="DejaVuSans-70" d="M 1159 525 
L 1159 -1331 
L 581 -1331 
L 581 3500 
L 1159 3500 
L 1159 2969 
Q 1341 3281 1617 3432 
Q 1894 3584 2278 3584 
Q 2916 3584 3314 3078 
Q 3713 2572 3713 1747 
Q 3713 922 3314 415 
Q 2916 -91 2278 -91 
Q 1894 -91 1617 61 
Q 1341 213 1159 525 
z
M 3116 1747 
Q 3116 2381 2855 2742 
Q 2594 3103 2138 3103 
Q 1681 3103 1420 2742 
Q 1159 2381 1159 1747 
Q 1159 1113 1420 752 
Q 1681 391 2138 391 
Q 2594 391 2855 752 
Q 3116 1113 3116 1747 
z
" transform="scale(0.015625)"/>
        <path id="DejaVuSans-79" d="M 2059 -325 
Q 1816 -950 1584 -1140 
Q 1353 -1331 966 -1331 
L 506 -1331 
L 506 -850 
L 844 -850 
Q 1081 -850 1212 -737 
Q 1344 -625 1503 -206 
L 1606 56 
L 191 3500 
L 800 3500 
L 1894 763 
L 2988 3500 
L 3597 3500 
L 2059 -325 
z
" transform="scale(0.015625)"/>
       </defs>
       <use xlink:href="#DejaVuSans-44"/>
       <use xlink:href="#DejaVuSans-65" transform="translate(77.001953 0)"/>
       <use xlink:href="#DejaVuSans-72" transform="translate(138.525391 0)"/>
       <use xlink:href="#DejaVuSans-6d" transform="translate(177.888672 0)"/>
       <use xlink:href="#DejaVuSans-6f" transform="translate(275.300781 0)"/>
       <use xlink:href="#DejaVuSans-73" transform="translate(336.482422 0)"/>
       <use xlink:href="#DejaVuSans-63" transform="translate(388.582031 0)"/>
       <use xlink:href="#DejaVuSans-6f" transform="translate(443.5625 0)"/>
       <use xlink:href="#DejaVuSans-70" transform="translate(504.744141 0)"/>
       <use xlink:href="#DejaVuSans-79" transform="translate(568.220703 0)"/>
      </g>
     </g>
    </g>
    <g id="xtick_3">
     <g id="line2d_3">
      <path d="M 374.821299 348.966491 
L 309.962661 64.802229 
" clip-path="url(#p58b5479438)" style="fill: none; stroke: #b0b0b0; stroke-width: 0.8; stroke-linecap: square"/>
     </g>
     <g id="text_3">
      <!-- Endoscopy -->
      <g transform="translate(258.051899 56.120113) scale(0.18 -0.18)">
       <defs>
        <path id="DejaVuSans-45" d="M 628 4666 
L 3578 4666 
L 3578 4134 
L 1259 4134 
L 1259 2753 
L 3481 2753 
L 3481 2222 
L 1259 2222 
L 1259 531 
L 3634 531 
L 3634 0 
L 628 0 
L 628 4666 
z
" transform="scale(0.015625)"/>
        <path id="DejaVuSans-6e" d="M 3513 2113 
L 3513 0 
L 2938 0 
L 2938 2094 
Q 2938 2591 2744 2837 
Q 2550 3084 2163 3084 
Q 1697 3084 1428 2787 
Q 1159 2491 1159 1978 
L 1159 0 
L 581 0 
L 581 3500 
L 1159 3500 
L 1159 2956 
Q 1366 3272 1645 3428 
Q 1925 3584 2291 3584 
Q 2894 3584 3203 3211 
Q 3513 2838 3513 2113 
z
" transform="scale(0.015625)"/>
        <path id="DejaVuSans-64" d="M 2906 2969 
L 2906 4863 
L 3481 4863 
L 3481 0 
L 2906 0 
L 2906 525 
Q 2725 213 2448 61 
Q 2172 -91 1784 -91 
Q 1150 -91 751 415 
Q 353 922 353 1747 
Q 353 2572 751 3078 
Q 1150 3584 1784 3584 
Q 2172 3584 2448 3432 
Q 2725 3281 2906 2969 
z
M 947 1747 
Q 947 1113 1208 752 
Q 1469 391 1925 391 
Q 2381 391 2643 752 
Q 2906 1113 2906 1747 
Q 2906 2381 2643 2742 
Q 2381 3103 1925 3103 
Q 1469 3103 1208 2742 
Q 947 2381 947 1747 
z
" transform="scale(0.015625)"/>
       </defs>
       <use xlink:href="#DejaVuSans-45"/>
       <use xlink:href="#DejaVuSans-6e" transform="translate(63.183594 0)"/>
       <use xlink:href="#DejaVuSans-64" transform="translate(126.5625 0)"/>
       <use xlink:href="#DejaVuSans-6f" transform="translate(190.039062 0)"/>
       <use xlink:href="#DejaVuSans-73" transform="translate(251.220703 0)"/>
       <use xlink:href="#DejaVuSans-63" transform="translate(303.320312 0)"/>
       <use xlink:href="#DejaVuSans-6f" transform="translate(358.300781 0)"/>
       <use xlink:href="#DejaVuSans-70" transform="translate(419.482422 0)"/>
       <use xlink:href="#DejaVuSans-79" transform="translate(482.958984 0)"/>
      </g>
     </g>
    </g>
    <g id="xtick_4">
     <g id="line2d_4">
      <path d="M 374.821299 348.966491 
L 112.214033 222.501497 
" clip-path="url(#p58b5479438)" style="fill: none; stroke: #b0b0b0; stroke-width: 0.8; stroke-linecap: square"/>
     </g>
     <g id="text_4">
      <!-- Fundus Photography -->
      <g transform="translate(7.2 221.394) scale(0.18 -0.18)">
       <defs>
        <path id="DejaVuSans-46" d="M 628 4666 
L 3309 4666 
L 3309 4134 
L 1259 4134 
L 1259 2759 
L 3109 2759 
L 3109 2228 
L 1259 2228 
L 1259 0 
L 628 0 
L 628 4666 
z
" transform="scale(0.015625)"/>
        <path id="DejaVuSans-75" d="M 544 1381 
L 544 3500 
L 1119 3500 
L 1119 1403 
Q 1119 906 1312 657 
Q 1506 409 1894 409 
Q 2359 409 2629 706 
Q 2900 1003 2900 1516 
L 2900 3500 
L 3475 3500 
L 3475 0 
L 2900 0 
L 2900 538 
Q 2691 219 2414 64 
Q 2138 -91 1772 -91 
Q 1169 -91 856 284 
Q 544 659 544 1381 
z
M 1991 3584 
L 1991 3584 
z
" transform="scale(0.015625)"/>
        <path id="DejaVuSans-20" transform="scale(0.015625)"/>
        <path id="DejaVuSans-50" d="M 1259 4147 
L 1259 2394 
L 2053 2394 
Q 2494 2394 2734 2622 
Q 2975 2850 2975 3272 
Q 2975 3691 2734 3919 
Q 2494 4147 2053 4147 
L 1259 4147 
z
M 628 4666 
L 2053 4666 
Q 2838 4666 3239 4311 
Q 3641 3956 3641 3272 
Q 3641 2581 3239 2228 
Q 2838 1875 2053 1875 
L 1259 1875 
L 1259 0 
L 628 0 
L 628 4666 
z
" transform="scale(0.015625)"/>
        <path id="DejaVuSans-68" d="M 3513 2113 
L 3513 0 
L 2938 0 
L 2938 2094 
Q 2938 2591 2744 2837 
Q 2550 3084 2163 3084 
Q 1697 3084 1428 2787 
Q 1159 2491 1159 1978 
L 1159 0 
L 581 0 
L 581 4863 
L 1159 4863 
L 1159 2956 
Q 1366 3272 1645 3428 
Q 1925 3584 2291 3584 
Q 2894 3584 3203 3211 
Q 3513 2838 3513 2113 
z
" transform="scale(0.015625)"/>
        <path id="DejaVuSans-74" d="M 1172 4494 
L 1172 3500 
L 2356 3500 
L 2356 3053 
L 1172 3053 
L 1172 1153 
Q 1172 725 1289 603 
Q 1406 481 1766 481 
L 2356 481 
L 2356 0 
L 1766 0 
Q 1100 0 847 248 
Q 594 497 594 1153 
L 594 3053 
L 172 3053 
L 172 3500 
L 594 3500 
L 594 4494 
L 1172 4494 
z
" transform="scale(0.015625)"/>
        <path id="DejaVuSans-67" d="M 2906 1791 
Q 2906 2416 2648 2759 
Q 2391 3103 1925 3103 
Q 1463 3103 1205 2759 
Q 947 2416 947 1791 
Q 947 1169 1205 825 
Q 1463 481 1925 481 
Q 2391 481 2648 825 
Q 2906 1169 2906 1791 
z
M 3481 434 
Q 3481 -459 3084 -895 
Q 2688 -1331 1869 -1331 
Q 1566 -1331 1297 -1286 
Q 1028 -1241 775 -1147 
L 775 -588 
Q 1028 -725 1275 -790 
Q 1522 -856 1778 -856 
Q 2344 -856 2625 -561 
Q 2906 -266 2906 331 
L 2906 616 
Q 2728 306 2450 153 
Q 2172 0 1784 0 
Q 1141 0 747 490 
Q 353 981 353 1791 
Q 353 2603 747 3093 
Q 1141 3584 1784 3584 
Q 2172 3584 2450 3431 
Q 2728 3278 2906 2969 
L 2906 3500 
L 3481 3500 
L 3481 434 
z
" transform="scale(0.015625)"/>
        <path id="DejaVuSans-61" d="M 2194 1759 
Q 1497 1759 1228 1600 
Q 959 1441 959 1056 
Q 959 750 1161 570 
Q 1363 391 1709 391 
Q 2188 391 2477 730 
Q 2766 1069 2766 1631 
L 2766 1759 
L 2194 1759 
z
M 3341 1997 
L 3341 0 
L 2766 0 
L 2766 531 
Q 2569 213 2275 61 
Q 1981 -91 1556 -91 
Q 1019 -91 701 211 
Q 384 513 384 1019 
Q 384 1609 779 1909 
Q 1175 2209 1959 2209 
L 2766 2209 
L 2766 2266 
Q 2766 2663 2505 2880 
Q 2244 3097 1772 3097 
Q 1472 3097 1187 3025 
Q 903 2953 641 2809 
L 641 3341 
Q 956 3463 1253 3523 
Q 1550 3584 1831 3584 
Q 2591 3584 2966 3190 
Q 3341 2797 3341 1997 
z
" transform="scale(0.015625)"/>
       </defs>
       <use xlink:href="#DejaVuSans-46"/>
       <use xlink:href="#DejaVuSans-75" transform="translate(52.019531 0)"/>
       <use xlink:href="#DejaVuSans-6e" transform="translate(115.398438 0)"/>
       <use xlink:href="#DejaVuSans-64" transform="translate(178.777344 0)"/>
       <use xlink:href="#DejaVuSans-75" transform="translate(242.253906 0)"/>
       <use xlink:href="#DejaVuSans-73" transform="translate(305.632812 0)"/>
       <use xlink:href="#DejaVuSans-20" transform="translate(357.732422 0)"/>
       <use xlink:href="#DejaVuSans-50" transform="translate(389.519531 0)"/>
       <use xlink:href="#DejaVuSans-68" transform="translate(449.822266 0)"/>
       <use xlink:href="#DejaVuSans-6f" transform="translate(513.201172 0)"/>
       <use xlink:href="#DejaVuSans-74" transform="translate(574.382812 0)"/>
       <use xlink:href="#DejaVuSans-6f" transform="translate(613.591797 0)"/>
       <use xlink:href="#DejaVuSans-67" transform="translate(674.773438 0)"/>
       <use xlink:href="#DejaVuSans-72" transform="translate(738.25 0)"/>
       <use xlink:href="#DejaVuSans-61" transform="translate(779.363281 0)"/>
       <use xlink:href="#DejaVuSans-70" transform="translate(840.642578 0)"/>
       <use xlink:href="#DejaVuSans-68" transform="translate(904.119141 0)"/>
       <use xlink:href="#DejaVuSans-79" transform="translate(967.498047 0)"/>
      </g>
     </g>
    </g>
    <g id="xtick_5">
     <g id="line2d_5">
      <path d="M 374.821299 348.966491 
L 112.214033 475.431485 
" clip-path="url(#p58b5479438)" style="fill: none; stroke: #b0b0b0; stroke-width: 0.8; stroke-linecap: square"/>
     </g>
     <g id="text_5">
      <!-- MR -->
      <g transform="translate(85.581563 486.472732) scale(0.18 -0.18)">
       <defs>
        <path id="DejaVuSans-4d" d="M 628 4666 
L 1569 4666 
L 2759 1491 
L 3956 4666 
L 4897 4666 
L 4897 0 
L 4281 0 
L 4281 4097 
L 3078 897 
L 2444 897 
L 1241 4097 
L 1241 0 
L 628 0 
L 628 4666 
z
" transform="scale(0.015625)"/>
        <path id="DejaVuSans-52" d="M 2841 2188 
Q 3044 2119 3236 1894 
Q 3428 1669 3622 1275 
L 4263 0 
L 3584 0 
L 2988 1197 
Q 2756 1666 2539 1819 
Q 2322 1972 1947 1972 
L 1259 1972 
L 1259 0 
L 628 0 
L 628 4666 
L 2053 4666 
Q 2853 4666 3247 4331 
Q 3641 3997 3641 3322 
Q 3641 2881 3436 2590 
Q 3231 2300 2841 2188 
z
M 1259 4147 
L 1259 2491 
L 2053 2491 
Q 2509 2491 2742 2702 
Q 2975 2913 2975 3322 
Q 2975 3731 2742 3939 
Q 2509 4147 2053 4147 
L 1259 4147 
z
" transform="scale(0.015625)"/>
       </defs>
       <use xlink:href="#DejaVuSans-4d"/>
       <use xlink:href="#DejaVuSans-52" transform="translate(86.279297 0)"/>
      </g>
     </g>
    </g>
    <g id="xtick_6">
     <g id="line2d_6">
      <path d="M 374.821299 348.966491 
L 309.962661 633.130753 
" clip-path="url(#p58b5479438)" style="fill: none; stroke: #b0b0b0; stroke-width: 0.8; stroke-linecap: square"/>
     </g>
     <g id="text_6">
      <!-- Ultrasound -->
      <g transform="translate(257.700336 651.746619) scale(0.18 -0.18)">
       <defs>
        <path id="DejaVuSans-55" d="M 556 4666 
L 1191 4666 
L 1191 1831 
Q 1191 1081 1462 751 
Q 1734 422 2344 422 
Q 2950 422 3222 751 
Q 3494 1081 3494 1831 
L 3494 4666 
L 4128 4666 
L 4128 1753 
Q 4128 841 3676 375 
Q 3225 -91 2344 -91 
Q 1459 -91 1007 375 
Q 556 841 556 1753 
L 556 4666 
z
" transform="scale(0.015625)"/>
        <path id="DejaVuSans-6c" d="M 603 4863 
L 1178 4863 
L 1178 0 
L 603 0 
L 603 4863 
z
" transform="scale(0.015625)"/>
       </defs>
       <use xlink:href="#DejaVuSans-55"/>
       <use xlink:href="#DejaVuSans-6c" transform="translate(73.193359 0)"/>
       <use xlink:href="#DejaVuSans-74" transform="translate(100.976562 0)"/>
       <use xlink:href="#DejaVuSans-72" transform="translate(140.185547 0)"/>
       <use xlink:href="#DejaVuSans-61" transform="translate(181.298828 0)"/>
       <use xlink:href="#DejaVuSans-73" transform="translate(242.578125 0)"/>
       <use xlink:href="#DejaVuSans-6f" transform="translate(294.677734 0)"/>
       <use xlink:href="#DejaVuSans-75" transform="translate(355.859375 0)"/>
       <use xlink:href="#DejaVuSans-6e" transform="translate(419.238281 0)"/>
       <use xlink:href="#DejaVuSans-64" transform="translate(482.617188 0)"/>
      </g>
     </g>
    </g>
    <g id="xtick_7">
     <g id="line2d_7">
      <path d="M 374.821299 348.966491 
L 556.551166 576.848536 
" clip-path="url(#p58b5479438)" style="fill: none; stroke: #b0b0b0; stroke-width: 0.8; stroke-linecap: square"/>
     </g>
     <g id="text_7">
      <!-- X-Ray -->
      <g transform="translate(539.424711 592.761052) scale(0.18 -0.18)">
       <defs>
        <path id="DejaVuSans-58" d="M 403 4666 
L 1081 4666 
L 2241 2931 
L 3406 4666 
L 4084 4666 
L 2584 2425 
L 4184 0 
L 3506 0 
L 2194 1984 
L 872 0 
L 191 0 
L 1856 2491 
L 403 4666 
z
" transform="scale(0.015625)"/>
        <path id="DejaVuSans-2d" d="M 313 2009 
L 1997 2009 
L 1997 1497 
L 313 1497 
L 313 2009 
z
" transform="scale(0.015625)"/>
       </defs>
       <use xlink:href="#DejaVuSans-58"/>
       <use xlink:href="#DejaVuSans-2d" transform="translate(63.505859 0)"/>
       <use xlink:href="#DejaVuSans-52" transform="translate(99.589844 0)"/>
       <use xlink:href="#DejaVuSans-61" transform="translate(166.822266 0)"/>
       <use xlink:href="#DejaVuSans-79" transform="translate(228.101562 0)"/>
      </g>
     </g>
    </g>
   </g>
   <g id="matplotlib.axis_2">
    <g id="ytick_1">
     <g id="line2d_8">
      <path d="M 433.115714 348.966491 
C 433.115714 341.311339 431.607816 333.730623 428.678316 326.658184 
C 425.748816 319.585745 421.454686 313.159125 416.041675 307.746115 
C 410.628665 302.333104 404.202045 298.038974 397.129606 295.109474 
C 390.057167 292.179974 382.476452 290.672076 374.821299 290.672076 
C 367.166147 290.672076 359.585431 292.179974 352.512992 295.109474 
C 345.440554 298.038974 339.013933 302.333104 333.600923 307.746115 
C 328.187913 313.159125 323.893782 319.585745 320.964282 326.658184 
C 318.034782 333.730623 316.526884 341.311339 316.526884 348.966491 
C 316.526884 356.621643 318.034782 364.202359 320.964282 371.274798 
C 323.893782 378.347237 328.187913 384.773857 333.600923 390.186867 
C 339.013933 395.599877 345.440554 399.894008 352.512992 402.823508 
C 359.585431 405.753008 367.166147 407.260906 374.821299 407.260906 
C 382.476452 407.260906 390.057167 405.753008 397.129606 402.823508 
C 404.202045 399.894008 410.628665 395.599877 416.041675 390.186867 
C 421.454686 384.773857 425.748816 378.347237 428.678316 371.274798 
C 431.607816 364.202359 433.115714 356.621643 433.115714 348.966491 
" clip-path="url(#p58b5479438)" style="fill: none; stroke: #b0b0b0; stroke-width: 0.8; stroke-linecap: square"/>
     </g>
     <g id="text_8">
      <!-- 0.2 -->
      <g transform="translate(428.678316 323.330684) scale(0.16 -0.16)">
       <defs>
        <path id="DejaVuSans-30" d="M 2034 4250 
Q 1547 4250 1301 3770 
Q 1056 3291 1056 2328 
Q 1056 1369 1301 889 
Q 1547 409 2034 409 
Q 2525 409 2770 889 
Q 3016 1369 3016 2328 
Q 3016 3291 2770 3770 
Q 2525 4250 2034 4250 
z
M 2034 4750 
Q 2819 4750 3233 4129 
Q 3647 3509 3647 2328 
Q 3647 1150 3233 529 
Q 2819 -91 2034 -91 
Q 1250 -91 836 529 
Q 422 1150 422 2328 
Q 422 3509 836 4129 
Q 1250 4750 2034 4750 
z
" transform="scale(0.015625)"/>
        <path id="DejaVuSans-2e" d="M 684 794 
L 1344 794 
L 1344 0 
L 684 0 
L 684 794 
z
" transform="scale(0.015625)"/>
        <path id="DejaVuSans-32" d="M 1228 531 
L 3431 531 
L 3431 0 
L 469 0 
L 469 531 
Q 828 903 1448 1529 
Q 2069 2156 2228 2338 
Q 2531 2678 2651 2914 
Q 2772 3150 2772 3378 
Q 2772 3750 2511 3984 
Q 2250 4219 1831 4219 
Q 1534 4219 1204 4116 
Q 875 4013 500 3803 
L 500 4441 
Q 881 4594 1212 4672 
Q 1544 4750 1819 4750 
Q 2544 4750 2975 4387 
Q 3406 4025 3406 3419 
Q 3406 3131 3298 2873 
Q 3191 2616 2906 2266 
Q 2828 2175 2409 1742 
Q 1991 1309 1228 531 
z
" transform="scale(0.015625)"/>
       </defs>
       <use xlink:href="#DejaVuSans-30"/>
       <use xlink:href="#DejaVuSans-2e" transform="translate(63.623047 0)"/>
       <use xlink:href="#DejaVuSans-32" transform="translate(95.410156 0)"/>
      </g>
     </g>
    </g>
    <g id="ytick_2">
     <g id="line2d_9">
      <path d="M 491.410129 348.966491 
C 491.410129 333.656186 488.394333 318.494755 482.535333 304.349877 
C 476.676333 290.205 468.088072 277.351759 457.262052 266.525738 
C 446.436031 255.699718 433.58279 247.111457 419.437913 241.252457 
C 405.293035 235.393457 390.131604 232.377661 374.821299 232.377661 
C 359.510994 232.377661 344.349563 235.393457 330.204685 241.252457 
C 316.059808 247.111457 303.206567 255.699718 292.380547 266.525738 
C 281.554526 277.351759 272.966265 290.205 267.107265 304.349877 
C 261.248265 318.494755 258.232469 333.656186 258.232469 348.966491 
C 258.232469 364.276796 261.248265 379.438227 267.107265 393.583105 
C 272.966265 407.727982 281.554526 420.581223 292.380547 431.407244 
C 303.206567 442.233264 316.059808 450.821525 330.204685 456.680525 
C 344.349563 462.539525 359.510994 465.555321 374.821299 465.555321 
C 390.131604 465.555321 405.293035 462.539525 419.437913 456.680525 
C 433.58279 450.821525 446.436031 442.233264 457.262052 431.407244 
C 468.088072 420.581223 476.676333 407.727982 482.535333 393.583105 
C 488.394333 379.438227 491.410129 364.276796 491.410129 348.966491 
" clip-path="url(#p58b5479438)" style="fill: none; stroke: #b0b0b0; stroke-width: 0.8; stroke-linecap: square"/>
     </g>
     <g id="text_9">
      <!-- 0.4 -->
      <g transform="translate(482.535333 301.022377) scale(0.16 -0.16)">
       <defs>
        <path id="DejaVuSans-34" d="M 2419 4116 
L 825 1625 
L 2419 1625 
L 2419 4116 
z
M 2253 4666 
L 3047 4666 
L 3047 1625 
L 3713 1625 
L 3713 1100 
L 3047 1100 
L 3047 0 
L 2419 0 
L 2419 1100 
L 313 1100 
L 313 1709 
L 2253 4666 
z
" transform="scale(0.015625)"/>
       </defs>
       <use xlink:href="#DejaVuSans-30"/>
       <use xlink:href="#DejaVuSans-2e" transform="translate(63.623047 0)"/>
       <use xlink:href="#DejaVuSans-34" transform="translate(95.410156 0)"/>
      </g>
     </g>
    </g>
    <g id="ytick_3">
     <g id="line2d_10">
      <path d="M 549.704545 348.966491 
C 549.704545 326.001034 545.18085 303.258886 536.39235 282.04157 
C 527.60385 260.824254 514.721459 241.544393 498.482428 225.305362 
C 482.243397 209.066332 462.963536 196.18394 441.74622 187.39544 
C 420.528904 178.60694 397.786756 174.083245 374.821299 174.083245 
C 351.855842 174.083245 329.113694 178.60694 307.896378 187.39544 
C 286.679062 196.18394 267.399201 209.066332 251.16017 225.305362 
C 234.92114 241.544393 222.038748 260.824254 213.250248 282.04157 
C 204.461748 303.258886 199.938054 326.001034 199.938054 348.966491 
C 199.938054 371.931948 204.461748 394.674096 213.250248 415.891412 
C 222.038748 437.108728 234.92114 456.388589 251.16017 472.62762 
C 267.399201 488.86665 286.679062 501.749042 307.896378 510.537542 
C 329.113694 519.326042 351.855842 523.849736 374.821299 523.849736 
C 397.786756 523.849736 420.528904 519.326042 441.74622 510.537542 
C 462.963536 501.749042 482.243397 488.86665 498.482428 472.62762 
C 514.721459 456.388589 527.60385 437.108728 536.39235 415.891412 
C 545.18085 394.674096 549.704545 371.931948 549.704545 348.966491 
" clip-path="url(#p58b5479438)" style="fill: none; stroke: #b0b0b0; stroke-width: 0.8; stroke-linecap: square"/>
     </g>
     <g id="text_10">
      <!-- 0.6 -->
      <g transform="translate(536.39235 278.71407) scale(0.16 -0.16)">
       <defs>
        <path id="DejaVuSans-36" d="M 2113 2584 
Q 1688 2584 1439 2293 
Q 1191 2003 1191 1497 
Q 1191 994 1439 701 
Q 1688 409 2113 409 
Q 2538 409 2786 701 
Q 3034 994 3034 1497 
Q 3034 2003 2786 2293 
Q 2538 2584 2113 2584 
z
M 3366 4563 
L 3366 3988 
Q 3128 4100 2886 4159 
Q 2644 4219 2406 4219 
Q 1781 4219 1451 3797 
Q 1122 3375 1075 2522 
Q 1259 2794 1537 2939 
Q 1816 3084 2150 3084 
Q 2853 3084 3261 2657 
Q 3669 2231 3669 1497 
Q 3669 778 3244 343 
Q 2819 -91 2113 -91 
Q 1303 -91 875 529 
Q 447 1150 447 2328 
Q 447 3434 972 4092 
Q 1497 4750 2381 4750 
Q 2619 4750 2861 4703 
Q 3103 4656 3366 4563 
z
" transform="scale(0.015625)"/>
       </defs>
       <use xlink:href="#DejaVuSans-30"/>
       <use xlink:href="#DejaVuSans-2e" transform="translate(63.623047 0)"/>
       <use xlink:href="#DejaVuSans-36" transform="translate(95.410156 0)"/>
      </g>
     </g>
    </g>
    <g id="ytick_4">
     <g id="line2d_11">
      <path d="M 607.99896 348.966491 
C 607.99896 318.345881 601.967367 288.023018 590.249367 259.733263 
C 578.531367 231.443509 561.354845 205.737027 539.702804 184.084986 
C 518.050763 162.432945 492.344281 145.256423 464.054527 133.538423 
C 435.764772 121.820423 405.441909 115.78883 374.821299 115.78883 
C 344.200689 115.78883 313.877826 121.820423 285.588072 133.538423 
C 257.298317 145.256423 231.591835 162.432945 209.939794 184.084986 
C 188.287753 205.737027 171.111231 231.443509 159.393231 259.733263 
C 147.675231 288.023018 141.643638 318.345881 141.643638 348.966491 
C 141.643638 379.587101 147.675231 409.909964 159.393231 438.199719 
C 171.111231 466.489473 188.287753 492.195955 209.939794 513.847996 
C 231.591835 535.500037 257.298317 552.676559 285.588072 564.394559 
C 313.877826 576.112559 344.200689 582.144152 374.821299 582.144152 
C 405.441909 582.144152 435.764772 576.112559 464.054527 564.394559 
C 492.344281 552.676559 518.050763 535.500037 539.702804 513.847996 
C 561.354845 492.195955 578.531367 466.489473 590.249367 438.199719 
C 601.967367 409.909964 607.99896 379.587101 607.99896 348.966491 
" clip-path="url(#p58b5479438)" style="fill: none; stroke: #b0b0b0; stroke-width: 0.8; stroke-linecap: square"/>
     </g>
     <g id="text_11">
      <!-- 0.8 -->
      <g transform="translate(590.249367 256.405763) scale(0.16 -0.16)">
       <defs>
        <path id="DejaVuSans-38" d="M 2034 2216 
Q 1584 2216 1326 1975 
Q 1069 1734 1069 1313 
Q 1069 891 1326 650 
Q 1584 409 2034 409 
Q 2484 409 2743 651 
Q 3003 894 3003 1313 
Q 3003 1734 2745 1975 
Q 2488 2216 2034 2216 
z
M 1403 2484 
Q 997 2584 770 2862 
Q 544 3141 544 3541 
Q 544 4100 942 4425 
Q 1341 4750 2034 4750 
Q 2731 4750 3128 4425 
Q 3525 4100 3525 3541 
Q 3525 3141 3298 2862 
Q 3072 2584 2669 2484 
Q 3125 2378 3379 2068 
Q 3634 1759 3634 1313 
Q 3634 634 3220 271 
Q 2806 -91 2034 -91 
Q 1263 -91 848 271 
Q 434 634 434 1313 
Q 434 1759 690 2068 
Q 947 2378 1403 2484 
z
M 1172 3481 
Q 1172 3119 1398 2916 
Q 1625 2713 2034 2713 
Q 2441 2713 2670 2916 
Q 2900 3119 2900 3481 
Q 2900 3844 2670 4047 
Q 2441 4250 2034 4250 
Q 1625 4250 1398 4047 
Q 1172 3844 1172 3481 
z
" transform="scale(0.015625)"/>
       </defs>
       <use xlink:href="#DejaVuSans-30"/>
       <use xlink:href="#DejaVuSans-2e" transform="translate(63.623047 0)"/>
       <use xlink:href="#DejaVuSans-38" transform="translate(95.410156 0)"/>
      </g>
     </g>
    </g>
    <g id="ytick_5">
     <g id="line2d_12">
      <path d="M 666.293375 348.966491 
C 666.293375 310.690729 658.753884 272.78715 644.106384 237.424957 
C 629.458884 202.062763 607.988231 169.929661 580.92318 142.86461 
C 553.858129 115.799559 521.725027 94.328906 486.362833 79.681406 
C 451.00064 65.033906 413.097061 57.494415 374.821299 57.494415 
C 336.545537 57.494415 298.641958 65.033906 263.279765 79.681406 
C 227.917571 94.328906 195.784469 115.799559 168.719418 142.86461 
C 141.654367 169.929661 120.183714 202.062763 105.536214 237.424957 
C 90.888714 272.78715 83.349223 310.690729 83.349223 348.966491 
C 83.349223 387.242253 90.888714 425.145832 105.536214 460.508025 
C 120.183714 495.870219 141.654367 528.003321 168.719418 555.068372 
C 195.784469 582.133423 227.917571 603.604076 263.279765 618.251576 
C 298.641958 632.899076 336.545537 640.438567 374.821299 640.438567 
C 413.097061 640.438567 451.00064 632.899076 486.362833 618.251576 
C 521.725027 603.604076 553.858129 582.133423 580.92318 555.068372 
C 607.988231 528.003321 629.458884 495.870219 644.106384 460.508025 
C 658.753884 425.145832 666.293375 387.242253 666.293375 348.966491 
" clip-path="url(#p58b5479438)" style="fill: none; stroke: #b0b0b0; stroke-width: 0.8; stroke-linecap: square"/>
     </g>
     <g id="text_12">
      <!-- 1.0 -->
      <g transform="translate(644.106384 234.097457) scale(0.16 -0.16)">
       <defs>
        <path id="DejaVuSans-31" d="M 794 531 
L 1825 531 
L 1825 4091 
L 703 3866 
L 703 4441 
L 1819 4666 
L 2450 4666 
L 2450 531 
L 3481 531 
L 3481 0 
L 794 0 
L 794 531 
z
" transform="scale(0.015625)"/>
       </defs>
       <use xlink:href="#DejaVuSans-31"/>
       <use xlink:href="#DejaVuSans-2e" transform="translate(63.623047 0)"/>
       <use xlink:href="#DejaVuSans-30" transform="translate(95.410156 0)"/>
      </g>
     </g>
    </g>
   </g>
   <g id="line2d_13">
    <path d="M 590.394897 348.966491 
L 539.559092 142.391832 
L 318.597717 102.634883 
L 172.728111 251.643541 
L 187.692127 439.083151 
L 324.612583 568.945249 
L 540.381629 556.572578 
L 590.394897 348.966491 
" clip-path="url(#p58b5479438)" style="fill: none; stroke: #1f77b4; stroke-width: 2; stroke-linecap: square"/>
    <defs>
     <path id="m32670f429c" d="M 0 3 
C 0.795609 3 1.55874 2.683901 2.12132 2.12132 
C 2.683901 1.55874 3 0.795609 3 0 
C 3 -0.795609 2.683901 -1.55874 2.12132 -2.12132 
C 1.55874 -2.683901 0.795609 -3 0 -3 
C -0.795609 -3 -1.55874 -2.683901 -2.12132 -2.12132 
C -2.683901 -1.55874 -3 -0.795609 -3 0 
C -3 0.795609 -2.683901 1.55874 -2.12132 2.12132 
C -1.55874 2.683901 -0.795609 3 0 3 
z
" style="stroke: #1f77b4"/>
    </defs>
    <g clip-path="url(#p58b5479438)">
     <use xlink:href="#m32670f429c" x="590.394897" y="348.966491" style="fill: #1f77b4; stroke: #1f77b4"/>
     <use xlink:href="#m32670f429c" x="539.559092" y="142.391832" style="fill: #1f77b4; stroke: #1f77b4"/>
     <use xlink:href="#m32670f429c" x="318.597717" y="102.634883" style="fill: #1f77b4; stroke: #1f77b4"/>
     <use xlink:href="#m32670f429c" x="172.728111" y="251.643541" style="fill: #1f77b4; stroke: #1f77b4"/>
     <use xlink:href="#m32670f429c" x="187.692127" y="439.083151" style="fill: #1f77b4; stroke: #1f77b4"/>
     <use xlink:href="#m32670f429c" x="324.612583" y="568.945249" style="fill: #1f77b4; stroke: #1f77b4"/>
     <use xlink:href="#m32670f429c" x="540.381629" y="556.572578" style="fill: #1f77b4; stroke: #1f77b4"/>
     <use xlink:href="#m32670f429c" x="590.394897" y="348.966491" style="fill: #1f77b4; stroke: #1f77b4"/>
    </g>
   </g>
   <g id="line2d_14">
    <path d="M 601.358558 348.966491 
L 509.047285 180.652428 
L 321.075459 113.490581 
L 209.698444 269.447515 
L 186.205609 439.79902 
L 324.333547 570.167784 
L 477.104987 477.226178 
L 601.358558 348.966491 
" clip-path="url(#p58b5479438)" style="fill: none; stroke: #ff7f0e; stroke-width: 2; stroke-linecap: square"/>
    <defs>
     <path id="m9174b3bd2d" d="M 0 3 
C 0.795609 3 1.55874 2.683901 2.12132 2.12132 
C 2.683901 1.55874 3 0.795609 3 0 
C 3 -0.795609 2.683901 -1.55874 2.12132 -2.12132 
C 1.55874 -2.683901 0.795609 -3 0 -3 
C -0.795609 -3 -1.55874 -2.683901 -2.12132 -2.12132 
C -2.683901 -1.55874 -3 -0.795609 -3 0 
C -3 0.795609 -2.683901 1.55874 -2.12132 2.12132 
C -1.55874 2.683901 -0.795609 3 0 3 
z
" style="stroke: #ff7f0e"/>
    </defs>
    <g clip-path="url(#p58b5479438)">
     <use xlink:href="#m9174b3bd2d" x="601.358558" y="348.966491" style="fill: #ff7f0e; stroke: #ff7f0e"/>
     <use xlink:href="#m9174b3bd2d" x="509.047285" y="180.652428" style="fill: #ff7f0e; stroke: #ff7f0e"/>
     <use xlink:href="#m9174b3bd2d" x="321.075459" y="113.490581" style="fill: #ff7f0e; stroke: #ff7f0e"/>
     <use xlink:href="#m9174b3bd2d" x="209.698444" y="269.447515" style="fill: #ff7f0e; stroke: #ff7f0e"/>
     <use xlink:href="#m9174b3bd2d" x="186.205609" y="439.79902" style="fill: #ff7f0e; stroke: #ff7f0e"/>
     <use xlink:href="#m9174b3bd2d" x="324.333547" y="570.167784" style="fill: #ff7f0e; stroke: #ff7f0e"/>
     <use xlink:href="#m9174b3bd2d" x="477.104987" y="477.226178" style="fill: #ff7f0e; stroke: #ff7f0e"/>
     <use xlink:href="#m9174b3bd2d" x="601.358558" y="348.966491" style="fill: #ff7f0e; stroke: #ff7f0e"/>
    </g>
   </g>
   <g id="line2d_15">
    <path d="M 600.762895 348.966491 
L 518.725243 168.516653 
L 321.15065 113.820014 
L 227.59085 278.064043 
L 197.326545 434.443459 
L 322.841383 576.705385 
L 526.344166 538.970156 
L 600.762895 348.966491 
" clip-path="url(#p58b5479438)" style="fill: none; stroke: #2ca02c; stroke-width: 2; stroke-linecap: square"/>
    <defs>
     <path id="mbef3b5f442" d="M 0 3 
C 0.795609 3 1.55874 2.683901 2.12132 2.12132 
C 2.683901 1.55874 3 0.795609 3 0 
C 3 -0.795609 2.683901 -1.55874 2.12132 -2.12132 
C 1.55874 -2.683901 0.795609 -3 0 -3 
C -0.795609 -3 -1.55874 -2.683901 -2.12132 -2.12132 
C -2.683901 -1.55874 -3 -0.795609 -3 0 
C -3 0.795609 -2.683901 1.55874 -2.12132 2.12132 
C -1.55874 2.683901 -0.795609 3 0 3 
z
" style="stroke: #2ca02c"/>
    </defs>
    <g clip-path="url(#p58b5479438)">
     <use xlink:href="#mbef3b5f442" x="600.762895" y="348.966491" style="fill: #2ca02c; stroke: #2ca02c"/>
     <use xlink:href="#mbef3b5f442" x="518.725243" y="168.516653" style="fill: #2ca02c; stroke: #2ca02c"/>
     <use xlink:href="#mbef3b5f442" x="321.15065" y="113.820014" style="fill: #2ca02c; stroke: #2ca02c"/>
     <use xlink:href="#mbef3b5f442" x="227.59085" y="278.064043" style="fill: #2ca02c; stroke: #2ca02c"/>
     <use xlink:href="#mbef3b5f442" x="197.326545" y="434.443459" style="fill: #2ca02c; stroke: #2ca02c"/>
     <use xlink:href="#mbef3b5f442" x="322.841383" y="576.705385" style="fill: #2ca02c; stroke: #2ca02c"/>
     <use xlink:href="#mbef3b5f442" x="526.344166" y="538.970156" style="fill: #2ca02c; stroke: #2ca02c"/>
     <use xlink:href="#mbef3b5f442" x="600.762895" y="348.966491" style="fill: #2ca02c; stroke: #2ca02c"/>
    </g>
   </g>
   <g id="line2d_16">
    <path d="M 583.830971 348.966491 
L 536.360354 146.402923 
L 325.105157 131.145842 
L 225.761013 277.18284 
L 204.34778 431.062211 
L 334.395903 526.081724 
L 535.42889 550.36204 
L 583.830971 348.966491 
" clip-path="url(#p58b5479438)" style="fill: none; stroke: #d62728; stroke-width: 2; stroke-linecap: square"/>
    <defs>
     <path id="mc54057004f" d="M 0 3 
C 0.795609 3 1.55874 2.683901 2.12132 2.12132 
C 2.683901 1.55874 3 0.795609 3 0 
C 3 -0.795609 2.683901 -1.55874 2.12132 -2.12132 
C 1.55874 -2.683901 0.795609 -3 0 -3 
C -0.795609 -3 -1.55874 -2.683901 -2.12132 -2.12132 
C -2.683901 -1.55874 -3 -0.795609 -3 0 
C -3 0.795609 -2.683901 1.55874 -2.12132 2.12132 
C -1.55874 2.683901 -0.795609 3 0 3 
z
" style="stroke: #d62728"/>
    </defs>
    <g clip-path="url(#p58b5479438)">
     <use xlink:href="#mc54057004f" x="583.830971" y="348.966491" style="fill: #d62728; stroke: #d62728"/>
     <use xlink:href="#mc54057004f" x="536.360354" y="146.402923" style="fill: #d62728; stroke: #d62728"/>
     <use xlink:href="#mc54057004f" x="325.105157" y="131.145842" style="fill: #d62728; stroke: #d62728"/>
     <use xlink:href="#mc54057004f" x="225.761013" y="277.18284" style="fill: #d62728; stroke: #d62728"/>
     <use xlink:href="#mc54057004f" x="204.34778" y="431.062211" style="fill: #d62728; stroke: #d62728"/>
     <use xlink:href="#mc54057004f" x="334.395903" y="526.081724" style="fill: #d62728; stroke: #d62728"/>
     <use xlink:href="#mc54057004f" x="535.42889" y="550.36204" style="fill: #d62728; stroke: #d62728"/>
     <use xlink:href="#mc54057004f" x="583.830971" y="348.966491" style="fill: #d62728; stroke: #d62728"/>
    </g>
   </g>
   <g id="patch_7">
    <path d="M 666.293375 348.966491 
C 666.293375 310.690729 658.753884 272.78715 644.106384 237.424957 
C 629.458884 202.062763 607.988231 169.929661 580.92318 142.86461 
C 553.858129 115.799559 521.725027 94.328906 486.362833 79.681406 
C 451.00064 65.033906 413.097061 57.494415 374.821299 57.494415 
C 336.545537 57.494415 298.641958 65.033906 263.279765 79.681406 
C 227.917571 94.328906 195.784469 115.799559 168.719418 142.86461 
C 141.654367 169.929661 120.183714 202.062763 105.536214 237.424957 
C 90.888714 272.78715 83.349223 310.690729 83.349223 348.966491 
C 83.349223 387.242253 90.888714 425.145832 105.536214 460.508025 
C 120.183714 495.870219 141.654367 528.003321 168.719418 555.068372 
C 195.784469 582.133423 227.917571 603.604076 263.279765 618.251576 
C 298.641958 632.899076 336.545537 640.438567 374.821299 640.438567 
C 413.097061 640.438567 451.00064 632.899076 486.362833 618.251576 
C 521.725027 603.604076 553.858129 582.133423 580.92318 555.068372 
C 607.988231 528.003321 629.458884 495.870219 644.106384 460.508025 
C 658.753884 425.145832 666.293375 387.242253 666.293375 348.966491 
" style="fill: none; stroke: #000000; stroke-width: 0.8; stroke-linejoin: miter; stroke-linecap: square"/>
   </g>
   <g id="legend_1">
    <g id="patch_8">
     <path d="M 619.44662 106.83 
L 829.97662 106.83 
Q 833.17662 106.83 833.17662 103.63 
L 833.17662 10.4 
Q 833.17662 7.2 829.97662 7.2 
L 619.44662 7.2 
Q 616.24662 7.2 616.24662 10.4 
L 616.24662 103.63 
Q 616.24662 106.83 619.44662 106.83 
z
" style="fill: #ffffff; opacity: 0.8; stroke: #cccccc; stroke-linejoin: miter"/>
    </g>
    <g id="line2d_17">
     <path d="M 622.64662 20.1575 
L 638.64662 20.1575 
L 654.64662 20.1575 
" style="fill: none; stroke: #1f77b4; stroke-width: 2; stroke-linecap: square"/>
     <g>
      <use xlink:href="#m32670f429c" x="638.64662" y="20.1575" style="fill: #1f77b4; stroke: #1f77b4"/>
     </g>
    </g>
    <g id="text_13">
     <!-- MedSAM2_latest -->
     <g transform="translate(667.44662 25.7575) scale(0.16 -0.16)">
      <defs>
       <path id="DejaVuSans-53" d="M 3425 4513 
L 3425 3897 
Q 3066 4069 2747 4153 
Q 2428 4238 2131 4238 
Q 1616 4238 1336 4038 
Q 1056 3838 1056 3469 
Q 1056 3159 1242 3001 
Q 1428 2844 1947 2747 
L 2328 2669 
Q 3034 2534 3370 2195 
Q 3706 1856 3706 1288 
Q 3706 609 3251 259 
Q 2797 -91 1919 -91 
Q 1588 -91 1214 -16 
Q 841 59 441 206 
L 441 856 
Q 825 641 1194 531 
Q 1563 422 1919 422 
Q 2459 422 2753 634 
Q 3047 847 3047 1241 
Q 3047 1584 2836 1778 
Q 2625 1972 2144 2069 
L 1759 2144 
Q 1053 2284 737 2584 
Q 422 2884 422 3419 
Q 422 4038 858 4394 
Q 1294 4750 2059 4750 
Q 2388 4750 2728 4690 
Q 3069 4631 3425 4513 
z
" transform="scale(0.015625)"/>
       <path id="DejaVuSans-41" d="M 2188 4044 
L 1331 1722 
L 3047 1722 
L 2188 4044 
z
M 1831 4666 
L 2547 4666 
L 4325 0 
L 3669 0 
L 3244 1197 
L 1141 1197 
L 716 0 
L 50 0 
L 1831 4666 
z
" transform="scale(0.015625)"/>
       <path id="DejaVuSans-5f" d="M 3263 -1063 
L 3263 -1509 
L -63 -1509 
L -63 -1063 
L 3263 -1063 
z
" transform="scale(0.015625)"/>
      </defs>
      <use xlink:href="#DejaVuSans-4d"/>
      <use xlink:href="#DejaVuSans-65" transform="translate(86.279297 0)"/>
      <use xlink:href="#DejaVuSans-64" transform="translate(147.802734 0)"/>
      <use xlink:href="#DejaVuSans-53" transform="translate(211.279297 0)"/>
      <use xlink:href="#DejaVuSans-41" transform="translate(276.630859 0)"/>
      <use xlink:href="#DejaVuSans-4d" transform="translate(345.039062 0)"/>
      <use xlink:href="#DejaVuSans-32" transform="translate(431.318359 0)"/>
      <use xlink:href="#DejaVuSans-5f" transform="translate(494.941406 0)"/>
      <use xlink:href="#DejaVuSans-6c" transform="translate(544.941406 0)"/>
      <use xlink:href="#DejaVuSans-61" transform="translate(572.724609 0)"/>
      <use xlink:href="#DejaVuSans-74" transform="translate(634.003906 0)"/>
      <use xlink:href="#DejaVuSans-65" transform="translate(673.212891 0)"/>
      <use xlink:href="#DejaVuSans-73" transform="translate(734.736328 0)"/>
      <use xlink:href="#DejaVuSans-74" transform="translate(786.835938 0)"/>
     </g>
    </g>
    <g id="line2d_18">
     <path d="M 622.64662 44.0875 
L 638.64662 44.0875 
L 654.64662 44.0875 
" style="fill: none; stroke: #ff7f0e; stroke-width: 2; stroke-linecap: square"/>
     <g>
      <use xlink:href="#m9174b3bd2d" x="638.64662" y="44.0875" style="fill: #ff7f0e; stroke: #ff7f0e"/>
     </g>
    </g>
    <g id="text_14">
     <!-- MedSAM2_CTLesion -->
     <g transform="translate(667.44662 49.6875) scale(0.16 -0.16)">
      <defs>
       <path id="DejaVuSans-4c" d="M 628 4666 
L 1259 4666 
L 1259 531 
L 3531 531 
L 3531 0 
L 628 0 
L 628 4666 
z
" transform="scale(0.015625)"/>
       <path id="DejaVuSans-69" d="M 603 3500 
L 1178 3500 
L 1178 0 
L 603 0 
L 603 3500 
z
M 603 4863 
L 1178 4863 
L 1178 4134 
L 603 4134 
L 603 4863 
z
" transform="scale(0.015625)"/>
      </defs>
      <use xlink:href="#DejaVuSans-4d"/>
      <use xlink:href="#DejaVuSans-65" transform="translate(86.279297 0)"/>
      <use xlink:href="#DejaVuSans-64" transform="translate(147.802734 0)"/>
      <use xlink:href="#DejaVuSans-53" transform="translate(211.279297 0)"/>
      <use xlink:href="#DejaVuSans-41" transform="translate(276.630859 0)"/>
      <use xlink:href="#DejaVuSans-4d" transform="translate(345.039062 0)"/>
      <use xlink:href="#DejaVuSans-32" transform="translate(431.318359 0)"/>
      <use xlink:href="#DejaVuSans-5f" transform="translate(494.941406 0)"/>
      <use xlink:href="#DejaVuSans-43" transform="translate(544.941406 0)"/>
      <use xlink:href="#DejaVuSans-54" transform="translate(614.765625 0)"/>
      <use xlink:href="#DejaVuSans-4c" transform="translate(675.849609 0)"/>
      <use xlink:href="#DejaVuSans-65" transform="translate(729.8125 0)"/>
      <use xlink:href="#DejaVuSans-73" transform="translate(791.335938 0)"/>
      <use xlink:href="#DejaVuSans-69" transform="translate(843.435547 0)"/>
      <use xlink:href="#DejaVuSans-6f" transform="translate(871.21875 0)"/>
      <use xlink:href="#DejaVuSans-6e" transform="translate(932.400391 0)"/>
     </g>
    </g>
    <g id="line2d_19">
     <path d="M 622.64662 68.0175 
L 638.64662 68.0175 
L 654.64662 68.0175 
" style="fill: none; stroke: #2ca02c; stroke-width: 2; stroke-linecap: square"/>
     <g>
      <use xlink:href="#mbef3b5f442" x="638.64662" y="68.0175" style="fill: #2ca02c; stroke: #2ca02c"/>
     </g>
    </g>
    <g id="text_15">
     <!-- SAM2.1-Tiny -->
     <g transform="translate(667.44662 73.6175) scale(0.16 -0.16)">
      <use xlink:href="#DejaVuSans-53"/>
      <use xlink:href="#DejaVuSans-41" transform="translate(65.351562 0)"/>
      <use xlink:href="#DejaVuSans-4d" transform="translate(133.759766 0)"/>
      <use xlink:href="#DejaVuSans-32" transform="translate(220.039062 0)"/>
      <use xlink:href="#DejaVuSans-2e" transform="translate(283.662109 0)"/>
      <use xlink:href="#DejaVuSans-31" transform="translate(315.449219 0)"/>
      <use xlink:href="#DejaVuSans-2d" transform="translate(379.072266 0)"/>
      <use xlink:href="#DejaVuSans-54" transform="translate(406.03125 0)"/>
      <use xlink:href="#DejaVuSans-69" transform="translate(463.990234 0)"/>
      <use xlink:href="#DejaVuSans-6e" transform="translate(491.773438 0)"/>
      <use xlink:href="#DejaVuSans-79" transform="translate(555.152344 0)"/>
     </g>
    </g>
    <g id="line2d_20">
     <path d="M 622.64662 91.5025 
L 638.64662 91.5025 
L 654.64662 91.5025 
" style="fill: none; stroke: #d62728; stroke-width: 2; stroke-linecap: square"/>
     <g>
      <use xlink:href="#mc54057004f" x="638.64662" y="91.5025" style="fill: #d62728; stroke: #d62728"/>
     </g>
    </g>
    <g id="text_16">
     <!-- SAM-Med2D -->
     <g transform="translate(667.44662 97.1025) scale(0.16 -0.16)">
      <use xlink:href="#DejaVuSans-53"/>
      <use xlink:href="#DejaVuSans-41" transform="translate(65.351562 0)"/>
      <use xlink:href="#DejaVuSans-4d" transform="translate(133.759766 0)"/>
      <use xlink:href="#DejaVuSans-2d" transform="translate(220.039062 0)"/>
      <use xlink:href="#DejaVuSans-4d" transform="translate(256.123047 0)"/>
      <use xlink:href="#DejaVuSans-65" transform="translate(342.402344 0)"/>
      <use xlink:href="#DejaVuSans-64" transform="translate(403.925781 0)"/>
      <use xlink:href="#DejaVuSans-32" transform="translate(467.402344 0)"/>
      <use xlink:href="#DejaVuSans-44" transform="translate(531.025391 0)"/>
     </g>
    </g>
   </g>
  </g>
 </g>
 <defs>
  <clipPath id="p58b5479438">
   <path d="M 666.293375 348.966491 
C 666.293375 310.690729 658.753884 272.78715 644.106384 237.424957 
C 629.458884 202.062763 607.988231 169.929661 580.92318 142.86461 
C 553.858129 115.799559 521.725027 94.328906 486.362833 79.681406 
C 451.00064 65.033906 413.097061 57.494415 374.821299 57.494415 
C 336.545537 57.494415 298.641958 65.033906 263.279765 79.681406 
C 227.917571 94.328906 195.784469 115.799559 168.719418 142.86461 
C 141.654367 169.929661 120.183714 202.062763 105.536214 237.424957 
C 90.888714 272.78715 83.349223 310.690729 83.349223 348.966491 
C 83.349223 387.242253 90.888714 425.145832 105.536214 460.508025 
C 120.183714 495.870219 141.654367 528.003321 168.719418 555.068372 
C 195.784469 582.133423 227.917571 603.604076 263.279765 618.251576 
C 298.641958 632.899076 336.545537 640.438567 374.821299 640.438567 
C 413.097061 640.438567 451.00064 632.899076 486.362833 618.251576 
C 521.725027 603.604076 553.858129 582.133423 580.92318 555.068372 
C 607.988231 528.003321 629.458884 495.870219 644.106384 460.508025 
C 658.753884 425.145832 666.293375 387.242253 666.293375 348.966491 
M 374.821299 348.966491 
C 374.821299 348.966491 374.821299 348.966491 374.821299 348.966491 
C 374.821299 348.966491 374.821299 348.966491 374.821299 348.966491 
C 374.821299 348.966491 374.821299 348.966491 374.821299 348.966491 
C 374.821299 348.966491 374.821299 348.966491 374.821299 348.966491 
C 374.821299 348.966491 374.821299 348.966491 374.821299 348.966491 
C 374.821299 348.966491 374.821299 348.966491 374.821299 348.966491 
C 374.821299 348.966491 374.821299 348.966491 374.821299 348.966491 
C 374.821299 348.966491 374.821299 348.966491 374.821299 348.966491 
C 374.821299 348.966491 374.821299 348.966491 374.821299 348.966491 
C 374.821299 348.966491 374.821299 348.966491 374.821299 348.966491 
C 374.821299 348.966491 374.821299 348.966491 374.821299 348.966491 
C 374.821299 348.966491 374.821299 348.966491 374.821299 348.966491 
C 374.821299 348.966491 374.821299 348.966491 374.821299 348.966491 
C 374.821299 348.966491 374.821299 348.966491 374.821299 348.966491 
C 374.821299 348.966491 374.821299 348.966491 374.821299 348.966491 
C 374.821299 348.966491 374.821299 348.966491 374.821299 348.966491 
z
"/>
  </clipPath>
 </defs>
</svg>
